<svg width="32" height="32" viewBox="0 0 32 32" fill="none" xmlns="http://www.w3.org/2000/svg">
<g id="Instagram">
<rect width="32" height="32" rx="16" fill="#7D11D2"/>
<path id="Vector" d="M13.1882 16.0973C13.1882 14.4888 14.4925 13.1846 16.1019 13.1846C17.7113 13.1846 19.0163 14.4888 19.0163 16.0973C19.0163 17.7057 17.7113 19.0099 16.1019 19.0099C14.4925 19.0099 13.1882 17.7057 13.1882 16.0973ZM11.6127 16.0973C11.6127 18.5751 13.6225 20.5837 16.1019 20.5837C18.5813 20.5837 20.5911 18.5751 20.5911 16.0973C20.5911 13.6194 18.5813 11.6108 16.1019 11.6108C13.6225 11.6108 11.6127 13.6194 11.6127 16.0973ZM19.7197 11.4329C19.7196 11.6402 19.781 11.843 19.8962 12.0155C20.0115 12.1879 20.1752 12.3224 20.3669 12.4018C20.5586 12.4812 20.7695 12.5021 20.973 12.4617C21.1766 12.4213 21.3635 12.3215 21.5103 12.175C21.6571 12.0284 21.7571 11.8416 21.7976 11.6383C21.8382 11.4349 21.8175 11.2241 21.7382 11.0325C21.6589 10.8408 21.5245 10.677 21.352 10.5618C21.1795 10.4465 20.9767 10.3849 20.7692 10.3848H20.7688C20.4907 10.385 20.2239 10.4954 20.0272 10.6919C19.8305 10.8884 19.7199 11.1549 19.7197 11.4329ZM12.5699 23.2092C11.7176 23.1704 11.2543 23.0285 10.9464 22.9086C10.5382 22.7498 10.247 22.5607 9.94079 22.2551C9.6346 21.9495 9.44506 21.6587 9.28685 21.2508C9.16684 20.9432 9.02486 20.4801 8.98611 19.6282C8.94373 18.7072 8.93526 18.4306 8.93526 16.0973C8.93526 13.7641 8.94443 13.4882 8.98611 12.5664C9.02493 11.7146 9.16796 11.2523 9.28685 10.9439C9.44576 10.5359 9.63502 10.2449 9.94079 9.93888C10.2466 9.63286 10.5375 9.44344 10.9464 9.28533C11.2541 9.16538 11.7176 9.02349 12.5699 8.98477C13.4914 8.94241 13.7683 8.93395 16.1019 8.93395C18.4355 8.93395 18.7126 8.94311 19.6349 8.98477C20.4873 9.02356 20.9498 9.1665 21.2584 9.28533C21.6666 9.44344 21.9578 9.63328 22.264 9.93888C22.5702 10.2445 22.7591 10.5359 22.918 10.9439C23.038 11.2514 23.18 11.7146 23.2187 12.5664C23.2611 13.4882 23.2696 13.7641 23.2696 16.0973C23.2696 18.4306 23.2611 18.7065 23.2187 19.6282C23.1799 20.4801 23.0372 20.9431 22.918 21.2508C22.7591 21.6587 22.5698 21.9498 22.264 22.2551C21.9582 22.5604 21.6666 22.7498 21.2584 22.9086C20.9507 23.0286 20.4873 23.1705 19.6349 23.2092C18.7134 23.2515 18.4366 23.26 16.1019 23.26C13.7672 23.26 13.4912 23.2515 12.5699 23.2092ZM12.4975 7.4129C11.5668 7.45526 10.9309 7.60274 10.3755 7.81873C9.80028 8.04177 9.31336 8.34101 8.82679 8.82652C8.34021 9.31203 8.04157 9.79943 7.81839 10.3743C7.60228 10.9297 7.4547 11.5649 7.41232 12.4951C7.36924 13.4267 7.35938 13.7245 7.35938 16.0973C7.35938 18.47 7.36924 18.7679 7.41232 19.6995C7.4547 20.6297 7.60228 21.2648 7.81839 21.8202C8.04157 22.3947 8.34028 22.8827 8.82679 23.368C9.31329 23.8533 9.80028 24.1521 10.3755 24.3758C10.9319 24.5918 11.5668 24.7392 12.4975 24.7816C13.4302 24.824 13.7277 24.8345 16.1019 24.8345C18.4761 24.8345 18.7741 24.8247 19.7062 24.7816C20.637 24.7392 21.2726 24.5918 21.8283 24.3758C22.4031 24.1521 22.8904 23.8535 23.377 23.368C23.8636 22.8825 24.1616 22.3947 24.3854 21.8202C24.6015 21.2648 24.7498 20.6296 24.7915 19.6995C24.8338 18.7672 24.8437 18.47 24.8437 16.0973C24.8437 13.7245 24.8338 13.4267 24.7915 12.4951C24.7491 11.5648 24.6015 10.9293 24.3854 10.3743C24.1616 9.79978 23.8628 9.3128 23.377 8.82652C22.8912 8.34024 22.4031 8.04177 21.829 7.81873C21.2726 7.60274 20.6369 7.45456 19.7069 7.4129C18.7748 7.37054 18.4768 7.35999 16.1026 7.35999C13.7284 7.35999 13.4302 7.36984 12.4975 7.4129Z" fill="white"/>
</g>
</svg>
