<svg width="32" height="32" viewBox="0 0 32 32" fill="none" xmlns="http://www.w3.org/2000/svg">
<g id="Telegram">
<g clip-path="url(#clip0_59_1766)">
<rect width="32" height="32" rx="16" fill="white"/>
<path id="Subtract" fill-rule="evenodd" clip-rule="evenodd" d="M87.5156 0H0V87.5156H87.5156V0ZM16.1019 24.845C20.9302 24.845 24.8444 20.9308 24.8444 16.1025C24.8444 11.2741 20.9302 7.35999 16.1019 7.35999C11.2735 7.35999 7.35938 11.2741 7.35938 16.1025C7.35938 20.9308 11.2735 24.845 16.1019 24.845ZM11.1071 15.911C11.1071 15.911 15.4377 14.0686 16.9397 13.4199C17.5154 13.1604 19.4679 12.33 19.4679 12.33C19.4679 12.33 20.3691 11.9667 20.294 12.849C20.2759 13.1114 20.1665 13.8474 20.0316 14.7541L20.0314 14.7556C19.9796 15.104 19.924 15.4776 19.8685 15.8591C19.5681 17.8053 19.2426 19.9331 19.2426 19.9331C19.2426 19.9331 19.1926 20.53 18.767 20.6338C18.3415 20.7376 17.6406 20.2705 17.5154 20.1667C17.4937 20.1498 17.393 20.0816 17.242 19.9793L17.242 19.9793C16.697 19.6102 15.4968 18.7973 14.9871 18.3502C14.8119 18.1946 14.6117 17.8832 15.0122 17.5199C15.9133 16.6635 16.9897 15.5996 17.6406 14.925C17.941 14.6136 18.2413 13.887 16.9897 14.7692C15.2124 16.0408 13.4602 17.2344 13.4602 17.2344C13.4602 17.2344 13.0597 17.4939 12.3087 17.2604C11.5577 17.0269 10.6816 16.7154 10.6816 16.7154C10.6816 16.7154 10.0808 16.3262 11.1071 15.911Z" fill="#34AADF"/>
</g>
</g>
<defs>
<clipPath id="clip0_59_1766">
<rect width="32" height="32" rx="16" fill="white"/>
</clipPath>
</defs>
</svg>
