<?xml version="1.0" encoding="UTF-8"?>
<!DOCTYPE svg PUBLIC "-//W3C//DTD SVG 1.1//EN" "http://www.w3.org/Graphics/SVG/1.1/DTD/svg11.dtd">
<!-- Creator: CorelDRAW -->
<svg xmlns="http://www.w3.org/2000/svg" xml:space="preserve" width="2000px" height="700px" version="1.1" style="shape-rendering:geometricPrecision; text-rendering:geometricPrecision; image-rendering:optimizeQuality; fill-rule:evenodd; clip-rule:evenodd"
viewBox="0 0 2186.69 672.08"
 xmlns:xlink="http://www.w3.org/1999/xlink"
 xmlns:xodm="http://www.corel.com/coreldraw/odm/2003">
 <defs>
  <style type="text/css">
   <![CDATA[
    .fil0 {fill:white;fill-rule:nonzero}
   ]]>
  </style>
 </defs>
 <g id="Layer_x0020_1">
  <metadata id="CorelCorpID_0Corel-Layer"/>
  <path class="fil0" d="M141.4 167.03c-1.16,-0.29 -2.21,-0.82 -3.11,-1.57 -0.9,-0.75 -1.66,-1.72 -2.24,-2.88 -0.61,-1.16 -1.01,-2.53 -1.25,-4.1 -0.23,-1.57 -0.23,-3.01 0,-4.32 0.24,-1.31 0.67,-2.47 1.34,-3.51 0.67,-1 1.51,-1.84 2.56,-2.5 1.04,-0.66 2.27,-1.1 3.66,-1.32 1.42,-0.21 2.7,-0.21 3.89,0.1 1.2,0.28 2.21,0.81 3.11,1.56 0.91,0.75 1.63,1.72 2.18,2.91 0.58,1.19 0.96,2.57 1.17,4.14 0.2,1.56 0.2,3 -0.03,4.32 -0.24,1.31 -0.67,2.47 -1.31,3.47 -0.64,1.01 -1.48,1.82 -2.5,2.48 -1.05,0.65 -2.27,1.09 -3.66,1.31 -1.34,0.22 -2.62,0.19 -3.81,-0.09zm16.45 -22.14c0.03,2.82 0.03,4.2 0.03,7.02 -1.45,0.21 -2.18,0.31 -3.63,0.56 0.29,-2.85 0.43,-4.29 0.75,-7.14 1.17,-0.19 1.72,-0.25 2.85,-0.44zm11.8 1.85c-3.72,0.5 -5.58,0.78 -9.3,1.31 -0.17,-1.37 -0.26,-2.06 -0.44,-3.47 5.61,-0.82 8.43,-1.22 14.07,-1.97 0.15,1.19 0.21,1.78 0.35,2.97 -3.2,5.67 -4.76,8.52 -7.87,14.21 3.92,-0.56 5.87,-0.84 9.79,-1.34 0,1.41 0,2.13 0,3.54 -5.64,0.75 -8.43,1.15 -14.07,1.97 -0.14,-1.19 -0.23,-1.79 -0.38,-2.94 3.11,-5.73 4.66,-8.58 7.85,-14.28zm13.89 -5.35c1.4,-0.19 2.59,-0.19 3.52,-0.04 0.96,0.16 1.72,0.44 2.3,0.85 0.58,0.41 1.01,0.91 1.28,1.53 0.26,0.6 0.43,1.29 0.52,2.04 0.08,0.75 0,1.5 -0.26,2.19 -0.26,0.72 -0.79,1.35 -1.63,1.94 0.58,0.25 1.1,0.5 1.48,0.81 0.41,0.29 0.73,0.63 0.96,0.97 0.23,0.35 0.44,0.73 0.55,1.13 0.12,0.38 0.21,0.78 0.24,1.19 0.08,0.82 0.02,1.6 -0.12,2.35 -0.18,0.75 -0.5,1.44 -0.99,2 -0.49,0.6 -1.16,1.1 -2.03,1.5 -0.88,0.41 -1.95,0.73 -3.26,0.88 -2.88,0.35 -4.3,0.53 -7.18,0.91 -0.87,-7.77 -1.31,-11.65 -2.21,-19.38 2.71,-0.37 4.07,-0.53 6.83,-0.87zm23.4 -2.67c0.12,1.38 0.18,2.07 0.32,3.45 -3.6,0.37 -5.4,0.56 -9.01,0.97 0.18,1.69 0.23,2.53 0.41,4.26 3.37,-0.38 5.06,-0.57 8.43,-0.91 0.11,1.41 0.17,2.1 0.32,3.47 -3.38,0.35 -5.06,0.53 -8.43,0.91 0.17,1.91 0.26,2.88 0.46,4.79 3.78,-0.41 5.67,-0.63 9.48,-1 -0.03,1.41 -0.06,2.1 -0.09,3.5 -5.17,0.54 -7.79,0.82 -12.96,1.41 -0.79,-7.76 -1.16,-11.64 -1.92,-19.41 5.17,-0.62 7.76,-0.9 12.99,-1.44zm7.38 -0.75c0.27,3.13 0.38,4.67 0.64,7.8 2.53,-3.38 3.81,-5.07 6.4,-8.46 1.74,-0.15 2.61,-0.21 4.36,-0.37 -2.33,3.13 -3.49,4.73 -5.76,7.86 3.17,4.6 4.77,6.92 7.88,11.55 -1.74,0.16 -2.62,0.22 -4.36,0.38 -2.41,-3.64 -3.63,-5.42 -6.05,-9.02 -0.81,1.03 -1.25,1.56 -2.06,2.6 0.23,2.85 0.35,4.29 0.58,7.14 -1.57,0.15 -2.35,0.21 -3.95,0.37 -0.67,-7.76 -0.99,-11.68 -1.66,-19.44 1.57,-0.16 2.39,-0.25 3.98,-0.41zm17.99 -1.56c0.53,7.79 0.79,11.67 1.34,19.47 -1.57,0.13 -2.35,0.19 -3.92,0.31 -0.55,-7.79 -0.84,-11.67 -1.4,-19.47 1.6,-0.12 2.39,-0.19 3.98,-0.31zm8.87 15.15c0.7,0.5 1.69,0.69 2.96,0.63 0.62,-0.03 1.14,-0.16 1.55,-0.32 0.4,-0.15 0.75,-0.37 0.98,-0.62 0.27,-0.25 0.44,-0.54 0.53,-0.85 0.08,-0.31 0.14,-0.66 0.11,-1.03 -0.03,-0.5 -0.23,-0.97 -0.64,-1.41 -0.4,-0.41 -1.1,-0.69 -2.09,-0.85 -0.99,-0.12 -1.51,-0.18 -2.5,-0.28 -0.99,-0.12 -1.86,-0.28 -2.61,-0.53 -0.76,-0.25 -1.4,-0.56 -1.95,-1 -0.52,-0.44 -0.96,-0.97 -1.28,-1.63 -0.32,-0.66 -0.49,-1.44 -0.55,-2.38 -0.06,-0.94 0.06,-1.75 0.38,-2.5 0.32,-0.76 0.78,-1.38 1.39,-1.88 0.61,-0.54 1.37,-0.94 2.27,-1.26 0.9,-0.31 1.89,-0.5 2.96,-0.59 1.4,-0.09 2.56,0 3.52,0.25 0.96,0.28 1.71,0.66 2.32,1.16 0.62,0.5 1.05,1.09 1.37,1.78 0.32,0.69 0.52,1.41 0.67,2.19 -1.48,0.29 -2.24,0.44 -3.72,0.73 -0.26,-1.07 -0.67,-1.82 -1.28,-2.26 -0.58,-0.44 -1.45,-0.63 -2.59,-0.53 -0.67,0.03 -1.22,0.15 -1.65,0.28 -0.44,0.16 -0.79,0.31 -1.02,0.53 -0.26,0.22 -0.44,0.44 -0.52,0.72 -0.09,0.25 -0.12,0.54 -0.12,0.82 0.06,0.72 0.29,1.25 0.7,1.59 0.43,0.35 1.13,0.57 2.09,0.69 1.05,0.13 1.57,0.19 2.65,0.35 2.09,0.28 3.63,0.87 4.62,1.75 1.01,0.88 1.57,2.19 1.65,3.98 0.06,0.84 -0.05,1.66 -0.35,2.38 -0.26,0.75 -0.69,1.4 -1.27,1.97 -0.58,0.56 -1.31,1.03 -2.21,1.41 -0.9,0.37 -1.95,0.59 -3.2,0.66 -2.56,0.18 -4.56,-0.26 -5.99,-1.29 -1.42,-1.03 -2.29,-2.69 -2.53,-4.98 1.6,-0.12 2.42,-0.18 4.02,-0.31 0.2,1.28 0.63,2.13 1.33,2.63zm10.78 -12.99c-0.08,-1.41 -0.11,-2.13 -0.17,-3.54 6.22,-0.38 9.33,-0.53 15.52,-0.85 0.06,1.41 0.09,2.13 0.14,3.54 -2.29,0.1 -3.45,0.16 -5.75,0.28 0.29,6.39 0.44,9.58 0.7,16 -1.57,0.1 -2.39,0.13 -3.96,0.22 -0.29,-6.39 -0.46,-9.58 -0.75,-16 -2.27,0.16 -3.43,0.22 -5.73,0.35zm22.38 14.68c-1.13,-0.44 -2.09,-1.06 -2.9,-1.94 -0.82,-0.84 -1.46,-1.91 -1.92,-3.16 -0.47,-1.25 -0.73,-2.66 -0.79,-4.23 -0.05,-1.59 0.09,-3 0.47,-4.29 0.38,-1.28 0.93,-2.38 1.68,-3.32 0.76,-0.94 1.69,-1.66 2.8,-2.16 1.1,-0.53 2.38,-0.81 3.77,-0.84 1.43,-0.06 2.71,0.12 3.87,0.56 1.13,0.44 2.09,1.1 2.91,1.97 0.78,0.88 1.42,1.94 1.86,3.17 0.43,1.25 0.66,2.66 0.72,4.25 0.03,1.6 -0.11,3.01 -0.49,4.29 -0.38,1.29 -0.93,2.35 -1.66,3.29 -0.75,0.91 -1.66,1.63 -2.76,2.13 -1.1,0.5 -2.35,0.78 -3.78,0.84 -1.36,0.07 -2.64,-0.12 -3.78,-0.56zm19.13 -19.91c3.25,5.04 4.85,7.58 8.05,12.65 -0.06,-5.14 -0.09,-7.67 -0.18,-12.81 1.54,-0.03 2.33,-0.03 3.9,-0.06 0.09,7.83 0.12,11.71 0.17,19.54 -1.39,0 -2.09,0.03 -3.51,0.03 -3.17,-5.04 -4.77,-7.55 -8.03,-12.56 0.09,5.07 0.15,7.61 0.24,12.68 -1.54,0.03 -2.3,0.07 -3.84,0.1 -0.17,-7.8 -0.26,-11.71 -0.44,-19.54 1.49,0 2.21,0 3.64,-0.03zm28.39 -0.25c1.52,0 2.74,0.19 3.73,0.56 0.95,0.38 1.74,0.85 2.26,1.41 0.56,0.6 0.93,1.22 1.14,1.94 0.2,0.69 0.29,1.41 0.29,2.07 0,1.25 -0.24,2.32 -0.7,3.16 -0.47,0.84 -1.22,1.57 -2.27,2.13 1.51,3.32 2.27,5.01 3.75,8.33 -1.68,-0.03 -2.56,-0.03 -4.24,-0.03 -1.25,-2.95 -1.86,-4.42 -3.14,-7.36 -1.48,0 -2.24,0 -3.72,0 0,2.94 0,4.38 0,7.32 -1.54,0 -2.33,0 -3.87,0 0,-7.82 -0.03,-11.7 -0.03,-19.53 2.73,-0.03 4.1,-0.03 6.8,0zm23.78 0.37c-0.03,1.38 -0.06,2.1 -0.09,3.48 -3.6,-0.09 -5.43,-0.13 -9.04,-0.19 -0.03,1.72 -0.03,2.57 -0.06,4.26 3.4,0.06 5.09,0.09 8.46,0.19 -0.03,1.41 -0.06,2.1 -0.09,3.5 -3.37,-0.09 -5.05,-0.12 -8.45,-0.19 -0.03,1.95 -0.06,2.89 -0.09,4.83 3.81,0.06 5.7,0.12 9.5,0.22 -0.2,1.37 -0.29,2.06 -0.46,3.47 -5.2,-0.12 -7.79,-0.19 -13.02,-0.28 0.09,-7.83 0.14,-11.71 0.23,-19.54 5.26,0.04 7.88,0.1 13.11,0.25zm6.63 15.97c0.64,0.56 1.59,0.88 2.9,0.91 0.61,0.03 1.14,-0.03 1.57,-0.16 0.44,-0.12 0.79,-0.28 1.05,-0.5 0.26,-0.22 0.46,-0.47 0.61,-0.78 0.12,-0.31 0.2,-0.63 0.2,-1 0.03,-0.5 -0.14,-1 -0.49,-1.47 -0.35,-0.47 -1.02,-0.82 -2.01,-1.04 -0.99,-0.22 -1.48,-0.34 -2.47,-0.56 -0.96,-0.22 -1.83,-0.47 -2.55,-0.78 -0.73,-0.32 -1.34,-0.72 -1.84,-1.19 -0.49,-0.47 -0.87,-1.07 -1.1,-1.76 -0.26,-0.68 -0.38,-1.5 -0.35,-2.41 0.03,-0.93 0.23,-1.75 0.61,-2.44 0.38,-0.69 0.9,-1.28 1.57,-1.72 0.67,-0.47 1.45,-0.78 2.38,-1 0.93,-0.22 1.92,-0.32 3.03,-0.28 1.39,0.06 2.55,0.25 3.46,0.62 0.93,0.38 1.65,0.82 2.21,1.38 0.55,0.56 0.95,1.19 1.19,1.94 0.26,0.72 0.4,1.47 0.46,2.22 -1.51,0.13 -2.26,0.19 -3.78,0.35 -0.14,-1.1 -0.52,-1.88 -1.04,-2.38 -0.56,-0.5 -1.4,-0.75 -2.53,-0.82 -0.67,-0.03 -1.25,0.04 -1.69,0.13 -0.43,0.09 -0.78,0.25 -1.07,0.44 -0.27,0.19 -0.47,0.4 -0.58,0.66 -0.12,0.25 -0.18,0.5 -0.18,0.78 -0.03,0.72 0.18,1.28 0.55,1.66 0.38,0.37 1.08,0.69 2.01,0.9 1.05,0.26 1.57,0.38 2.59,0.63 2.03,0.5 3.51,1.22 4.44,2.22 0.93,0.97 1.34,2.35 1.28,4.14 -0.03,0.84 -0.2,1.62 -0.55,2.34 -0.35,0.72 -0.82,1.32 -1.45,1.82 -0.64,0.5 -1.4,0.91 -2.33,1.16 -0.93,0.25 -2.01,0.38 -3.23,0.34 -2.55,-0.09 -4.5,-0.72 -5.84,-1.91 -1.33,-1.19 -2.03,-2.91 -2.09,-5.22 1.6,0.03 2.41,0.06 4.01,0.12 0.06,1.22 0.41,2.1 1.05,2.66zm20.57 -14.9c1.46,0.06 2.68,0.31 3.61,0.69 0.93,0.37 1.68,0.87 2.21,1.47 0.52,0.6 0.9,1.25 1.07,2 0.18,0.75 0.26,1.54 0.2,2.32 -0.02,0.85 -0.2,1.66 -0.46,2.44 -0.26,0.78 -0.7,1.44 -1.28,2.01 -0.58,0.56 -1.37,1 -2.29,1.28 -0.96,0.28 -2.13,0.41 -3.55,0.34 -1.19,-0.06 -1.77,-0.09 -2.97,-0.15 -0.11,2.78 -0.17,4.19 -0.29,6.98 -1.54,-0.06 -2.32,-0.13 -3.86,-0.19 0.32,-7.79 0.46,-11.71 0.75,-19.5 2.77,0.09 4.13,0.15 6.86,0.31zm13.93 0.81c-0.27,4.64 -0.38,6.95 -0.64,11.62 -0.09,1.66 0.11,2.91 0.64,3.76 0.52,0.84 1.42,1.31 2.76,1.37 1.31,0.1 2.26,-0.25 2.87,-1 0.61,-0.75 0.96,-1.97 1.05,-3.63 0.29,-4.63 0.44,-6.95 0.73,-11.62 1.6,0.13 2.38,0.19 3.98,0.29 -0.29,4.63 -0.47,6.95 -0.76,11.58 -0.08,1.47 -0.35,2.72 -0.78,3.76 -0.44,1.03 -0.99,1.84 -1.69,2.5 -0.69,0.63 -1.51,1.07 -2.47,1.32 -0.96,0.25 -2.03,0.34 -3.19,0.25 -1.2,-0.1 -2.24,-0.32 -3.17,-0.72 -0.93,-0.38 -1.69,-0.94 -2.3,-1.66 -0.61,-0.72 -1.05,-1.63 -1.33,-2.73 -0.27,-1.09 -0.38,-2.38 -0.3,-3.85 0.24,-4.6 0.38,-6.92 0.61,-11.52 1.57,0.13 2.39,0.16 3.99,0.28zm21.76 1.63c1.4,0.13 2.56,0.35 3.46,0.72 0.9,0.35 1.6,0.78 2.1,1.32 0.49,0.53 0.81,1.12 0.96,1.75 0.14,0.66 0.2,1.35 0.14,2.1 -0.06,0.75 -0.26,1.47 -0.64,2.1 -0.38,0.65 -1.02,1.15 -1.95,1.56 0.56,0.35 0.99,0.72 1.31,1.1 0.35,0.37 0.58,0.75 0.76,1.16 0.17,0.4 0.29,0.81 0.32,1.22 0.06,0.4 0.06,0.81 0.03,1.22 -0.06,0.81 -0.24,1.56 -0.56,2.28 -0.29,0.72 -0.72,1.29 -1.33,1.79 -0.61,0.47 -1.37,0.81 -2.27,1.06 -0.93,0.22 -2.04,0.28 -3.34,0.19 -2.88,-0.25 -4.33,-0.38 -7.21,-0.59 0.52,-7.8 0.78,-11.68 1.33,-19.48 2.8,0.16 4.16,0.28 6.89,0.5zm14.42 1.32c-0.55,6.38 -0.81,9.58 -1.36,15.96 3.57,0.35 5.34,0.54 8.92,0.91 -0.29,1.38 -0.44,2.07 -0.76,3.44 -4.94,-0.53 -7.44,-0.78 -12.38,-1.25 0.64,-7.79 0.96,-11.68 1.6,-19.44 1.6,0.16 2.38,0.22 3.98,0.38zm15.58 1.65c-0.76,7.77 -1.13,11.65 -1.89,19.42 -1.57,-0.19 -2.35,-0.26 -3.92,-0.44 0.72,-7.77 1.1,-11.65 1.83,-19.44 1.6,0.22 2.38,0.31 3.98,0.46zm7.91 0.94c-0.32,3.1 -0.5,4.67 -0.82,7.77 3.11,-2.79 4.68,-4.16 7.82,-6.92 1.74,0.22 2.61,0.34 4.36,0.56 -2.85,2.57 -4.27,3.89 -7.12,6.48 2.27,5.2 3.37,7.8 5.58,13.03 -1.75,-0.22 -2.62,-0.35 -4.36,-0.56 -1.69,-4.07 -2.56,-6.11 -4.27,-10.15 -0.99,0.85 -1.51,1.25 -2.5,2.1 -0.29,2.85 -0.44,4.29 -0.76,7.14 -1.57,-0.19 -2.35,-0.28 -3.92,-0.47 0.78,-7.77 1.19,-11.65 1.97,-19.41 1.6,0.15 2.42,0.25 4.02,0.43zm24 3.2c1.89,8.14 2.82,12.24 4.62,20.38 -1.68,-0.25 -2.52,-0.38 -4.18,-0.63 -0.38,-1.88 -0.55,-2.81 -0.93,-4.69 -2.65,-0.38 -3.95,-0.57 -6.57,-0.94 -0.81,1.72 -1.22,2.56 -2.03,4.25 -1.63,-0.21 -2.42,-0.34 -4.04,-0.53 3.72,-7.39 5.58,-11.05 9.38,-18.41 1.49,0.22 2.24,0.35 3.75,0.57zm10.9 17.56c0.58,0.66 1.51,1.07 2.79,1.29 0.61,0.09 1.14,0.12 1.57,0.03 0.44,-0.07 0.82,-0.19 1.11,-0.38 0.29,-0.19 0.52,-0.41 0.66,-0.72 0.15,-0.28 0.27,-0.63 0.32,-0.97 0.06,-0.5 -0.05,-1 -0.35,-1.5 -0.31,-0.5 -0.93,-0.94 -1.88,-1.29 -0.96,-0.34 -1.43,-0.5 -2.39,-0.84 -0.93,-0.35 -1.77,-0.69 -2.47,-1.1 -0.7,-0.41 -1.28,-0.88 -1.71,-1.41 -0.44,-0.53 -0.76,-1.16 -0.93,-1.88 -0.18,-0.72 -0.21,-1.53 -0.09,-2.44 0.12,-0.91 0.41,-1.69 0.87,-2.35 0.47,-0.65 1.05,-1.15 1.75,-1.53 0.69,-0.38 1.54,-0.59 2.47,-0.72 0.93,-0.09 1.94,-0.06 3.02,0.09 1.39,0.22 2.53,0.57 3.4,1.04 0.87,0.47 1.57,1.03 2.06,1.65 0.5,0.63 0.82,1.32 0.99,2.07 0.18,0.75 0.26,1.5 0.24,2.29 -1.52,-0.07 -2.27,-0.1 -3.81,-0.13 -0.06,-1.1 -0.32,-1.91 -0.82,-2.47 -0.49,-0.57 -1.3,-0.94 -2.44,-1.1 -0.67,-0.09 -1.22,-0.12 -1.68,-0.09 -0.44,0.06 -0.82,0.15 -1.11,0.28 -0.29,0.16 -0.49,0.34 -0.64,0.56 -0.14,0.25 -0.23,0.5 -0.26,0.75 -0.08,0.73 0.03,1.29 0.38,1.73 0.35,0.43 0.99,0.81 1.92,1.15 1.01,0.38 1.51,0.57 2.53,0.94 1.97,0.76 3.37,1.66 4.21,2.76 0.81,1.09 1.1,2.5 0.84,4.26 -0.11,0.84 -0.38,1.59 -0.78,2.25 -0.41,0.66 -0.96,1.22 -1.63,1.63 -0.67,0.44 -1.48,0.72 -2.44,0.88 -0.96,0.15 -2.04,0.12 -3.26,-0.07 -2.55,-0.4 -4.41,-1.28 -5.63,-2.6 -1.2,-1.34 -1.72,-3.16 -1.52,-5.44 1.6,0.25 2.39,0.37 3.99,0.59 -0.09,1.23 0.14,2.13 0.72,2.79zm19.27 -12.8c-1.16,7.7 -1.71,11.58 -2.88,19.28 -1.57,-0.28 -2.32,-0.41 -3.89,-0.66 1.13,-7.73 1.69,-11.58 2.82,-19.28 1.57,0.25 2.35,0.37 3.95,0.66zm-471.66 77.29c-1.16,-0.15 -2.24,-0.56 -3.17,-1.18 -0.96,-0.66 -1.77,-1.54 -2.47,-2.63 -0.7,-1.1 -1.25,-2.41 -1.63,-3.95 -0.38,-1.53 -0.55,-2.97 -0.46,-4.29 0.08,-1.35 0.4,-2.54 0.93,-3.63 0.52,-1.1 1.28,-2 2.24,-2.79 0.95,-0.75 2.09,-1.34 3.45,-1.72 1.37,-0.38 2.62,-0.5 3.81,-0.34 1.19,0.15 2.24,0.56 3.2,1.22 0.93,0.66 1.74,1.53 2.44,2.66 0.67,1.09 1.19,2.44 1.57,3.98 0.38,1.53 0.5,2.97 0.41,4.28 -0.09,1.32 -0.41,2.51 -0.9,3.61 -0.53,1.06 -1.25,1.97 -2.18,2.72 -0.93,0.75 -2.1,1.31 -3.43,1.72 -1.4,0.38 -2.65,0.5 -3.81,0.34zm14.53 -24.01c1.46,6.23 2.15,9.33 3.61,15.56 3.4,-0.9 5.11,-1.37 8.51,-2.25 0.15,1.41 0.21,2.1 0.35,3.5 -4.74,1.23 -7.09,1.88 -11.83,3.17 -1.77,-7.58 -2.67,-11.37 -4.45,-18.94 1.52,-0.41 2.27,-0.63 3.81,-1.04zm14.91 -3.88c1.66,7.61 2.5,11.4 4.16,19 -1.51,0.38 -2.24,0.57 -3.75,0.97 -1.69,-7.6 -2.53,-11.39 -4.21,-19 1.51,-0.41 2.26,-0.59 3.8,-0.97zm2.1 -0.56c1.68,-0.44 2.55,-0.63 4.24,-1.07 2.24,2.69 3.34,4.04 5.55,6.73 0.96,-3.47 1.45,-5.23 2.47,-8.7 1.63,-0.38 2.44,-0.56 4.04,-0.97 -1.57,5.1 -2.32,7.67 -3.84,12.77 0.64,3.1 0.96,4.67 1.63,7.77 -1.51,0.37 -2.26,0.53 -3.75,0.91 -0.67,-3.1 -0.99,-4.67 -1.62,-7.77 -3.46,-3.85 -5.21,-5.79 -8.72,-9.67zm22.55 -1.79c-0.26,-1.38 -0.41,-2.06 -0.67,-3.44 5.96,-1.38 8.92,-2.04 14.91,-3.29 0.26,1.38 0.38,2.07 0.64,3.48 -2.21,0.47 -3.31,0.72 -5.52,1.19 1.19,6.26 1.77,9.42 2.96,15.68 -1.51,0.35 -2.27,0.5 -3.78,0.85 -1.22,-6.27 -1.8,-9.4 -3.02,-15.69 -2.21,0.47 -3.31,0.72 -5.52,1.22zm23.11 -8.61c4.12,7.11 6.16,10.68 10.17,17.82 -1.63,0.31 -2.44,0.47 -4.07,0.81 -0.9,-1.66 -1.34,-2.47 -2.21,-4.13 -2.56,0.53 -3.81,0.78 -6.36,1.31 -0.27,1.88 -0.38,2.85 -0.64,4.73 -1.57,0.34 -2.33,0.5 -3.9,0.84 1.28,-8.23 1.95,-12.36 3.34,-20.6 1.46,-0.34 2.18,-0.46 3.67,-0.78zm10.2 -2.03c-0.18,2.85 -0.26,4.29 -0.44,7.14 -1.1,0.21 -1.65,0.31 -2.73,0.53 -0.12,-2.79 -0.2,-4.2 -0.32,-7.02 1.4,-0.25 2.09,-0.4 3.49,-0.65zm6.83 -1.32c1.01,6.33 1.54,9.49 2.55,15.78 3.43,-0.66 5.18,-0.97 8.61,-1.56 0.06,1.41 0.08,2.12 0.11,3.53 -4.79,0.85 -7.17,1.32 -11.97,2.23 -1.28,-7.7 -1.92,-11.56 -3.17,-19.23 1.54,-0.31 2.33,-0.47 3.87,-0.75zm15.05 -2.72c1.17,7.7 1.72,11.58 2.88,19.28 -1.51,0.25 -2.27,0.41 -3.78,0.66 -1.16,-7.7 -1.77,-11.55 -2.93,-19.28 1.54,-0.25 2.29,-0.38 3.83,-0.66zm8.4 -1.41c2.68,5.45 3.98,8.2 6.6,13.68 1.08,-6.07 1.63,-9.11 2.76,-15.18 1.8,-0.28 2.7,-0.41 4.51,-0.69 1.01,7.73 1.51,11.61 2.53,19.35 -1.4,0.22 -2.1,0.31 -3.49,0.53 -0.7,-5.17 -1.02,-7.73 -1.72,-12.9 -0.99,5.42 -1.48,8.11 -2.44,13.52 -1.19,0.19 -1.77,0.29 -2.96,0.47 -2.39,-4.88 -3.58,-7.29 -6.02,-12.14 0.73,5.13 1.1,7.7 1.83,12.83 -1.37,0.22 -2.03,0.35 -3.4,0.57 -1.13,-7.74 -1.69,-11.59 -2.82,-19.29 1.86,-0.28 2.76,-0.44 4.62,-0.75zm22.79 11.77c-0.29,2.85 -0.44,4.29 -0.73,7.14 -1.1,0.16 -1.62,0.25 -2.73,0.41 -0.03,-2.82 -0.03,-4.23 -0.03,-7.05 1.4,-0.19 2.09,-0.31 3.49,-0.5zm19.15 -17.81c0.15,1.37 0.24,2.1 0.38,3.47 -3.31,0.41 -4.97,0.63 -8.28,1.07 0.2,1.81 0.32,2.72 0.52,4.57 3.11,-0.41 4.65,-0.6 7.76,-1 0.15,1.37 0.23,2.09 0.38,3.47 -3.11,0.38 -4.65,0.6 -7.73,1 0.35,3.17 0.52,4.73 0.9,7.89 -1.51,0.19 -2.3,0.32 -3.81,0.5 -0.9,-7.76 -1.37,-11.61 -2.27,-19.38 4.83,-0.65 7.27,-0.97 12.15,-1.59zm10.44 -1.22c3.54,7.45 5.29,11.17 8.75,18.65 -1.63,0.19 -2.47,0.26 -4.1,0.44 -0.76,-1.72 -1.14,-2.6 -1.89,-4.32 -2.56,0.28 -3.87,0.44 -6.43,0.75 -0.4,1.88 -0.61,2.79 -0.98,4.67 -1.57,0.19 -2.36,0.28 -3.93,0.47 1.92,-8.11 2.91,-12.15 4.91,-20.26 1.43,-0.15 2.19,-0.25 3.67,-0.4zm12.58 -1.35c3.52,4.79 5.24,7.2 8.69,12.02 -0.4,-5.1 -0.61,-7.64 -1.01,-12.74 1.51,-0.16 2.26,-0.22 3.77,-0.34 0.62,7.79 0.91,11.67 1.52,19.47 -1.37,0.12 -2.04,0.19 -3.4,0.31 -3.43,-4.79 -5.18,-7.17 -8.67,-11.89 0.44,5.04 0.67,7.57 1.11,12.64 -1.48,0.16 -2.24,0.22 -3.72,0.38 -0.7,-7.76 -1.05,-11.68 -1.75,-19.44 1.37,-0.19 2.07,-0.28 3.46,-0.41zm23.14 -2.1c2.18,5.39 3.25,8.05 5.37,13.43 1.49,-5.63 2.24,-8.48 3.75,-14.12 1.66,-0.12 2.5,-0.18 4.16,-0.28 -2.35,7.99 -3.52,11.99 -5.75,19.98 -1.46,0.09 -2.18,0.15 -3.61,0.28 -3.25,-7.58 -4.91,-11.37 -8.25,-18.94 1.74,-0.13 2.61,-0.19 4.33,-0.35zm22.06 -1.5c3.19,7.64 4.74,11.46 7.85,19.13 -1.66,0.09 -2.48,0.12 -4.1,0.22 -0.67,-1.79 -1.02,-2.66 -1.69,-4.42 -2.59,0.16 -3.87,0.22 -6.45,0.38 -0.5,1.85 -0.73,2.75 -1.22,4.6 -1.57,0.09 -2.39,0.16 -3.95,0.25 2.29,-7.98 3.45,-11.96 5.84,-19.94 1.48,-0.06 2.24,-0.13 3.72,-0.22zm18.8 -0.91c0.26,7.8 0.41,11.71 0.67,19.51 -1.54,0.06 -2.29,0.09 -3.84,0.15 -0.29,-7.79 -0.43,-11.7 -0.72,-19.5 1.57,-0.06 2.32,-0.1 3.89,-0.16zm7.3 -0.25c3.22,5.01 4.79,7.55 7.96,12.59 -0.11,-5.14 -0.17,-7.67 -0.29,-12.81 1.51,-0.03 2.27,-0.06 3.78,-0.09 0.14,7.83 0.23,11.71 0.38,19.54 -1.37,0.03 -2.07,0.03 -3.43,0.09 -3.14,-5.01 -4.74,-7.48 -7.94,-12.46 0.15,5.07 0.21,7.61 0.35,12.68 -1.48,0.06 -2.23,0.06 -3.72,0.12 -0.23,-7.79 -0.35,-11.7 -0.61,-19.53 1.43,-0.07 2.12,-0.1 3.52,-0.13zm18.75 -0.44c3.13,5.08 4.67,7.61 7.76,12.71 -0.03,-5.13 -0.06,-7.67 -0.09,-12.8 1.51,0 2.27,0 3.78,-0.03 0.03,7.83 0.03,11.71 0.06,19.54 -1.37,0 -2.07,0 -3.43,0.03 -3.06,-5.04 -4.63,-7.58 -7.74,-12.62 0.06,5.07 0.09,7.61 0.15,12.68 -1.48,0.03 -2.24,0.03 -3.72,0.06 -0.12,-7.83 -0.18,-11.71 -0.29,-19.53 1.42,-0.01 2.12,-0.04 3.52,-0.04zm19.76 19.2c-1.08,-0.47 -2.01,-1.16 -2.73,-2.07 -0.76,-0.91 -1.34,-1.97 -1.75,-3.23 -0.4,-1.25 -0.61,-2.69 -0.61,-4.25 0,-1.6 0.2,-3.01 0.61,-4.26 0.41,-1.25 0.99,-2.35 1.78,-3.22 0.78,-0.91 1.71,-1.57 2.81,-2.04 1.11,-0.47 2.33,-0.69 3.72,-0.69 1.4,0 2.65,0.25 3.73,0.75 1.1,0.5 2,1.19 2.76,2.1 0.75,0.91 1.31,2 1.68,3.26 0.38,1.25 0.56,2.69 0.56,4.29 -0.03,1.59 -0.24,3 -0.64,4.25 -0.41,1.26 -0.99,2.32 -1.75,3.2 -0.75,0.87 -1.68,1.56 -2.76,2 -1.07,0.47 -2.33,0.69 -3.69,0.69 -1.43,-0.07 -2.65,-0.28 -3.72,-0.78zm17.47 -19.1c1.71,5.57 2.55,8.36 4.21,13.9 1.95,-5.48 2.94,-8.2 4.94,-13.68 1.66,0.06 2.5,0.06 4.19,0.12 -3.03,7.7 -4.51,11.59 -7.44,19.32 -1.46,-0.03 -2.18,-0.06 -3.64,-0.09 -2.58,-7.89 -3.92,-11.81 -6.59,-19.67 1.74,0.07 2.61,0.07 4.33,0.1zm22.09 0.72c2.52,7.92 3.75,11.89 6.16,19.82 -1.66,-0.1 -2.47,-0.13 -4.1,-0.19 -0.52,-1.82 -0.79,-2.76 -1.31,-4.57 -2.59,-0.13 -3.86,-0.16 -6.45,-0.25 -0.64,1.78 -0.96,2.66 -1.6,4.44 -1.57,-0.06 -2.38,-0.09 -3.95,-0.12 2.96,-7.74 4.47,-11.59 7.53,-19.29 1.48,0.06 2.23,0.09 3.72,0.16zm5.11 3.75c0.06,-1.4 0.09,-2.12 0.15,-3.53 6.04,0.28 9.06,0.43 15.11,0.81 -0.09,1.41 -0.12,2.13 -0.17,3.54 -2.24,-0.13 -3.35,-0.19 -5.58,-0.35 -0.32,6.39 -0.47,9.58 -0.79,15.97 -1.54,-0.09 -2.3,-0.12 -3.84,-0.22 0.29,-6.38 0.44,-9.58 0.73,-16 -2.24,-0.06 -3.37,-0.12 -5.61,-0.22zm20.9 13.47c0.61,0.59 1.54,0.94 2.79,1 0.61,0.03 1.1,0 1.54,-0.09 0.41,-0.1 0.75,-0.26 1.05,-0.47 0.26,-0.22 0.46,-0.47 0.61,-0.76 0.11,-0.31 0.2,-0.62 0.23,-1 0.03,-0.5 -0.12,-1 -0.44,-1.47 -0.32,-0.47 -0.99,-0.84 -1.91,-1.13 -0.96,-0.25 -1.43,-0.37 -2.39,-0.62 -0.93,-0.25 -1.74,-0.54 -2.47,-0.88 -0.7,-0.34 -1.28,-0.75 -1.74,-1.25 -0.47,-0.5 -0.82,-1.1 -1.02,-1.79 -0.23,-0.69 -0.32,-1.5 -0.26,-2.44 0.06,-0.94 0.26,-1.72 0.67,-2.41 0.4,-0.69 0.93,-1.25 1.57,-1.69 0.67,-0.44 1.45,-0.75 2.32,-0.94 0.9,-0.19 1.89,-0.25 2.94,-0.16 1.36,0.1 2.47,0.35 3.37,0.73 0.87,0.4 1.57,0.87 2.09,1.47 0.52,0.56 0.9,1.22 1.11,1.97 0.23,0.72 0.34,1.47 0.37,2.25 -1.48,0.1 -2.21,0.13 -3.69,0.22 -0.11,-1.09 -0.43,-1.88 -0.96,-2.41 -0.52,-0.5 -1.33,-0.81 -2.44,-0.87 -0.67,-0.04 -1.19,-0.04 -1.63,0.06 -0.43,0.09 -0.78,0.22 -1.04,0.4 -0.27,0.19 -0.47,0.38 -0.58,0.63 -0.12,0.25 -0.18,0.5 -0.21,0.78 -0.03,0.72 0.12,1.29 0.5,1.69 0.37,0.41 1.01,0.72 1.94,0.97 0.99,0.29 1.52,0.41 2.5,0.69 1.98,0.57 3.4,1.35 4.28,2.35 0.87,1 1.25,2.38 1.13,4.16 -0.06,0.85 -0.26,1.63 -0.61,2.32 -0.35,0.69 -0.84,1.29 -1.45,1.79 -0.64,0.5 -1.4,0.84 -2.3,1.09 -0.9,0.25 -1.95,0.32 -3.17,0.22 -2.5,-0.19 -4.36,-0.88 -5.64,-2.1 -1.25,-1.22 -1.89,-2.97 -1.86,-5.29 1.57,0.1 2.33,0.16 3.9,0.25 -0.03,1.22 0.29,2.13 0.9,2.73zm17.73 -14.5c-0.55,7.8 -0.84,11.68 -1.4,19.47 -1.54,-0.12 -2.29,-0.18 -3.8,-0.31 0.55,-7.8 0.81,-11.68 1.33,-19.47 1.54,0.12 2.33,0.19 3.87,0.31zm2.15 0.19c1.71,0.15 2.59,0.22 4.33,0.37 1.37,3.29 2.03,4.95 3.37,8.24 1.89,-3.01 2.85,-4.48 4.77,-7.48 1.65,0.15 2.47,0.25 4.1,0.4 -2.91,4.36 -4.36,6.55 -7.24,10.9 -0.26,3.16 -0.41,4.76 -0.67,7.92 -1.54,-0.16 -2.3,-0.22 -3.81,-0.34 0.26,-3.17 0.38,-4.76 0.64,-7.93 -2.15,-4.82 -3.25,-7.23 -5.49,-12.08zm24.7 2.44c2.07,8.08 3.06,12.12 5.03,20.19 -1.63,-0.18 -2.44,-0.28 -4.1,-0.47 -0.4,-1.84 -0.61,-2.78 -1.01,-4.66 -2.56,-0.28 -3.87,-0.44 -6.43,-0.69 -0.75,1.72 -1.13,2.6 -1.86,4.35 -1.57,-0.15 -2.35,-0.25 -3.95,-0.4 3.4,-7.52 5.15,-11.24 8.63,-18.73 1.48,0.16 2.21,0.22 3.69,0.41zm13 1.5c-0.67,6.39 -1.02,9.55 -1.69,15.94 3.46,0.44 5.2,0.66 8.66,1.09 -0.32,1.38 -0.49,2.07 -0.81,3.42 -4.83,-0.63 -7.21,-0.94 -12.04,-1.51 0.79,-7.76 1.2,-11.64 1.98,-19.41 1.57,0.19 2.36,0.29 3.9,0.47zm20.75 2.76c1.83,8.14 2.73,12.21 4.44,20.35 -1.62,-0.25 -2.44,-0.38 -4.06,-0.6 -0.35,-1.88 -0.53,-2.81 -0.91,-4.69 -2.55,-0.38 -3.83,-0.57 -6.39,-0.91 -0.78,1.72 -1.19,2.57 -1.98,4.29 -1.57,-0.22 -2.35,-0.31 -3.92,-0.53 3.63,-7.39 5.46,-11.09 9.16,-18.44 1.45,0.22 2.18,0.31 3.66,0.53zm15.64 2.35c1.45,0.22 2.61,0.59 3.51,1.09 0.9,0.5 1.57,1.1 2.01,1.76 0.46,0.65 0.72,1.34 0.84,2.06 0.12,0.72 0.12,1.41 0.03,2.1 -0.18,1.25 -0.55,2.25 -1.08,3.04 -0.55,0.78 -1.36,1.37 -2.47,1.78 1.02,3.51 1.54,5.29 2.53,8.8 -1.63,-0.28 -2.47,-0.41 -4.1,-0.66 -0.81,-3.1 -1.22,-4.63 -2.06,-7.73 -1.43,-0.22 -2.15,-0.35 -3.61,-0.57 -0.37,2.92 -0.58,4.36 -0.95,7.27 -1.52,-0.22 -2.24,-0.35 -3.75,-0.57 1.01,-7.73 1.51,-11.61 2.53,-19.34 2.61,0.34 3.95,0.56 6.57,0.97zm18.22 3.03c0.96,5.76 1.42,8.64 2.35,14.44 2.68,-5.14 4.01,-7.67 6.72,-12.78 1.65,0.32 2.47,0.47 4.12,0.78 -4.01,7.17 -6.01,10.77 -9.94,17.97 -1.42,-0.25 -2.15,-0.37 -3.57,-0.65 -1.54,-8.21 -2.33,-12.31 -3.95,-20.48 1.68,0.29 2.55,0.44 4.27,0.72zm21.8 4.1c1.45,8.24 2.15,12.34 3.51,20.57 -1.62,-0.34 -2.44,-0.5 -4.07,-0.81 -0.26,-1.88 -0.4,-2.85 -0.66,-4.73 -2.56,-0.5 -3.81,-0.75 -6.37,-1.25 -0.87,1.66 -1.31,2.51 -2.18,4.16 -1.57,-0.31 -2.35,-0.43 -3.92,-0.75 3.95,-7.2 5.96,-10.77 10.02,-17.9 1.49,0.28 2.21,0.4 3.67,0.71zm16.97 7.08c-3.6,-0.78 -5.38,-1.16 -8.98,-1.91 0.23,-1.38 0.38,-2.06 0.61,-3.44 5.44,1.13 8.17,1.69 13.57,2.91 -0.23,1.19 -0.35,1.75 -0.55,2.94 -4.62,4.29 -6.92,6.45 -11.45,10.8 3.78,0.79 5.67,1.22 9.45,2.04 -0.41,1.35 -0.62,2 -1.05,3.35 -5.44,-1.19 -8.14,-1.79 -13.57,-2.88 0.2,-1.16 0.31,-1.76 0.52,-2.94 4.53,-4.39 6.83,-6.55 11.45,-10.87zm11.66 -1c-1.49,7.64 -2.24,11.46 -3.75,19.1 -1.51,-0.35 -2.27,-0.5 -3.78,-0.85 1.48,-7.64 2.21,-11.49 3.66,-19.13 1.57,0.35 2.33,0.53 3.87,0.88zm10.23 2.38c1.42,0.34 2.58,0.78 3.43,1.38 0.84,0.56 1.48,1.18 1.91,1.87 0.41,0.69 0.64,1.41 0.7,2.13 0.06,0.72 0.03,1.44 -0.11,2.1 -0.27,1.22 -0.7,2.19 -1.28,2.94 -0.61,0.72 -1.46,1.26 -2.59,1.6 0.78,3.6 1.19,5.39 1.98,8.99 -1.63,-0.41 -2.45,-0.6 -4.07,-1.01 -0.61,-3.16 -0.93,-4.72 -1.57,-7.89 -1.43,-0.34 -2.12,-0.5 -3.55,-0.84 -0.58,2.88 -0.87,4.29 -1.45,7.17 -1.48,-0.35 -2.24,-0.53 -3.72,-0.88 1.51,-7.64 2.26,-11.46 3.81,-19.1 2.61,0.6 3.89,0.91 6.51,1.54zm14.03 3.41c-1.36,6.23 -2.03,9.36 -3.4,15.62 3.4,0.85 5.12,1.29 8.52,2.19 -0.47,1.32 -0.7,1.98 -1.16,3.29 -4.74,-1.22 -7.09,-1.85 -11.86,-3 1.63,-7.61 2.44,-11.43 4.07,-19.04 1.54,0.38 2.32,0.56 3.83,0.94zm14.92 3.88c-1.75,7.58 -2.62,11.37 -4.37,18.98 -1.48,-0.41 -2.23,-0.6 -3.74,-1.01 1.71,-7.57 2.58,-11.39 4.3,-18.97 1.54,0.41 2.29,0.6 3.81,1zm16.97 13.84c-0.79,3.19 -1.19,4.79 -1.98,7.98 -1.13,0.63 -2.41,1.04 -3.8,1.16 -1.4,0.13 -2.77,0 -4.1,-0.37 -1.43,-0.41 -2.62,-0.97 -3.55,-1.76 -0.96,-0.78 -1.69,-1.69 -2.18,-2.75 -0.49,-1.07 -0.78,-2.26 -0.84,-3.57 -0.06,-1.32 0.09,-2.72 0.41,-4.23 0.34,-1.53 0.87,-2.88 1.54,-3.97 0.66,-1.13 1.48,-2.01 2.41,-2.66 0.93,-0.66 1.95,-1.1 3.11,-1.26 1.13,-0.18 2.35,-0.09 3.63,0.29 1.16,0.31 2.15,0.75 2.91,1.28 0.75,0.53 1.36,1.16 1.83,1.85 0.46,0.68 0.75,1.44 0.93,2.25 0.17,0.81 0.23,1.63 0.17,2.47 -1.54,-0.22 -2.32,-0.34 -3.86,-0.56 0,-0.5 0,-0.97 -0.06,-1.35 -0.06,-0.4 -0.18,-0.78 -0.41,-1.09 -0.2,-0.35 -0.49,-0.63 -0.87,-0.88 -0.38,-0.25 -0.87,-0.47 -1.48,-0.63 -1.48,-0.4 -2.7,-0.15 -3.72,0.82 -0.99,0.94 -1.75,2.47 -2.24,4.54 -0.49,2.1 -0.52,3.82 -0.06,5.16 0.47,1.35 1.51,2.23 3.14,2.7 0.79,0.21 1.48,0.31 2.12,0.31 0.61,0 1.25,-0.09 1.86,-0.31 0.32,-1.26 0.47,-1.88 0.76,-3.17 -1.37,-0.37 -2.07,-0.59 -3.43,-0.97 0.32,-1.31 0.46,-1.97 0.78,-3.28 2.82,0.81 4.22,1.19 6.98,2zm9.01 -6.54c-1.92,7.54 -2.88,11.3 -4.8,18.84 -1.48,-0.43 -2.23,-0.65 -3.72,-1.09 1.89,-7.55 2.82,-11.3 4.74,-18.85 1.51,0.44 2.27,0.66 3.78,1.1zm8.57 105.88l-4.85 0 -11.83 -0.19 -5.2 0 -11.37 -0.09 -5.2 -0.1 -2.21 0 3.46 -8.7 8.05 -20.54 5.52 -14.09 -3.66 0.26 -5.2 0.18 -11.57 0.63 -5.2 0.22 -13.57 0.75 -6.31 0.34 11.83 -36.97 0.78 -2.35c0,0 -0.23,0 -0.43,0 -2.65,0 -16.13,0.41 -37.41,4.51 -2.79,0.53 -5.64,1.22 -8.75,1.85 -7.38,1.59 -15.43,3.66 -24.3,6.23l22.65 5.13 8.05 1.85 9.07 2.03c0,0 -7.27,19.45 -17.24,51.47 -5.41,17.6 -11.71,39.23 -17.99,63.53 -9.16,35.88 -18.46,77.8 -24.97,121.75 -0.32,1.82 -0.67,3.57 -0.75,5.26 0,0 -10.73,-0.09 -27.15,1.72 -30.84,3.23 -81.73,13.03 -120.24,41.71 -2.01,1.28 -3.66,2.69 -5.41,4.19 -1.54,1.16 -2.99,2.35 -4.3,3.51l-4.45 -3.51c-1.74,-1.5 -3.51,-2.91 -5.52,-4.19 -41.18,-30.66 -96.41,-39.67 -126.11,-42.36 -13.02,-1.16 -21.19,-1.07 -21.19,-1.07 -0.2,-1.72 -0.55,-3.44 -0.75,-5.26 -10.06,-67.68 -26.54,-130.24 -39.56,-174.1 -0.12,0 -0.12,-0.09 0,-0.19 -6.51,-21.29 -12.12,-38.16 -15.87,-48.9 -3.11,-8.7 -4.85,-13.56 -4.85,-13.56l2.76 -0.62 8.05 -1.85 29.03 -6.54c-11.59,-3.45 -22.09,-5.95 -31.15,-7.64 -3.11,-0.63 -5.96,-1.16 -8.72,-1.6 -19.22,-3.32 -30.61,-3.32 -31.16,-3.32l12.7 39.33 -12.93 -0.66 -13.61 -0.75 -5.26 -0.19 -11.51 -0.66 -2.21 -0.09 3.32 8.48 13.8 34.85 -8.95 0.09 -5.17 0 -11.37 0.19 -5.08 0 -12.03 0.09 -4.77 0.13 -1.66 0c0.67,0.97 1.34,2.03 2.09,3.13 2.1,3.13 4.22,6.45 6.17,9.77 5.64,9.14 10.95,19 16.13,29.24 2.35,4.91 4.76,9.98 7.06,15.06 6.19,13.52 12.06,27.48 17.35,41.57 2.76,7.3 5.41,14.62 8.05,21.79 7.38,21.29 13.78,42.02 19.19,60.83 0.9,3.13 1.65,6.14 2.55,9.14 2.56,9.11 4.86,17.6 6.86,25.36 2.97,11.4 5.26,21.07 6.92,28.46 0.9,3.98 1.69,7.33 2.09,9.8 0.9,3.76 1.34,5.79 1.34,5.79 1.74,-0.18 3.4,-0.43 5.17,-0.62 15.17,-1.85 30.29,-3.45 45.52,-4.98 2.64,-0.19 5.4,-0.41 8.05,-0.63 11.28,-1.06 22.52,-1.94 33.77,-2.69 2.45,-0.19 4.86,-0.44 7.3,-0.53 34.67,-2.38 69.55,-3.66 104.46,-3.85 4.62,-0.22 9.27,-0.22 13.89,-0.22 4.65,0 9.42,0 14.15,0.22 34.88,0.19 69.67,1.47 104.23,3.85 0.55,0 1.1,0.09 1.66,0.09 11.01,0.78 22.09,1.51 33.01,2.57 2.65,0.09 5.41,0.44 8.06,0.63 15.02,1.41 30.05,2.91 44.93,4.72 4.1,0.44 8.05,0.88 12.15,1.41 0,0 0.44,-2.03 1.31,-5.79 0.35,-1.85 0.9,-4.19 1.45,-6.89 0,-0.09 0,-0.09 0,-0.09 0.23,-0.97 0.44,-1.85 0.67,-2.82 0.78,-3.32 1.66,-7.07 2.76,-11.27 2.79,-11.49 6.54,-26.11 11.08,-42.55 3.11,-11.2 6.62,-23.23 10.6,-35.81 2.65,-8.58 5.53,-17.5 8.61,-26.52 5.52,-16.03 11.57,-32.46 18.19,-48.59 2.44,-5.79 4.86,-11.61 7.5,-17.31 5.2,-11.71 10.73,-23.1 16.57,-33.84 2.09,-3.98 4.3,-7.74 6.51,-11.49 3.4,-5.92 7.06,-11.62 10.72,-16.97l-8.2 -0.16zm-186.19 245.49l-0.4 0.09 0.4 -0.1 0 0.01zm36.8 61.67c1.98,-10.74 6.4,-14.19 6.4,-14.19 6.07,-6.98 33.77,-6.23 33.77,-6.23l120.79 6.89c-12.15,-10.52 -46.82,-16.12 -46.82,-16.12 -40.31,-4.95 -80.83,-8.92 -121.67,-11.62l-20.54 91.36 189.03 0 0 -16.12 -167.61 -5.58 6.65 -28.39zm161.11 -453.84l0 24.11c-6.34,-6.92 -13.58,-13.12 -21.19,-18.66 -3.46,-2.57 -6.86,-4.82 -10.38,-7.11 -1.65,-0.97 -3.19,-1.91 -4.85,-2.88l0 -0.09c-3.67,-2.03 -7.21,-4.1 -10.82,-5.95 -1.68,-0.84 -3.34,-1.72 -4.99,-2.44 -3.96,-1.94 -7.82,-3.79 -11.57,-5.39 -14.91,-6.44 -27.73,-10.51 -34.79,-12.58 -3.52,-0.94 -5.61,-1.47 -5.61,-1.47 -0.9,-0.25 -1.66,-0.54 -2.56,-0.78 -10.46,-3.01 -21.07,-5.8 -31.71,-8.14 -60.8,-13.87 -123.76,-17.97 -177.64,-17.76l-1.31 0c-55.54,-0.25 -120.94,4.1 -183.43,19.01 -9.47,2.25 -19.09,4.82 -28.45,7.64 0,0 -1.46,0.31 -3.98,1.06 -2.01,0.53 -4.77,1.28 -8.05,2.35 -8.61,2.79 -21.08,7.2 -34.68,13.46 -3.75,1.82 -7.73,3.66 -11.6,5.79 -1.65,0.75 -3.31,1.72 -4.97,2.57 -3.51,2.04 -7.17,4.19 -10.72,6.45 -1.66,1.06 -3.31,2.16 -4.85,3.32 -3.52,2.38 -7.07,4.85 -10.38,7.54 -1.54,1.29 -3.11,2.57 -4.62,3.95 -3.75,3.22 -7.3,6.67 -10.73,10.33 0,0 0,0 0,0.09 -0.4,0.44 -0.78,0.85 -1.16,1.29l0 -24.2c36.68,-41.49 105.74,-58.33 105.74,-58.33 70.19,-20.9 146.59,-26.67 210.31,-26.43l0 -80.36c0,0 -1.95,-1.32 1.4,-4.54 0,0 3.28,2.97 1.33,4.45l0 80.46 0.15 0c64.06,-0.35 140.99,5.35 211.88,26.42 0.03,0.06 67.37,16.47 104.23,56.82zm-450.86 429.54l16.8 74.39 44.82 0 -0.11 -65.68 71.9 0.12 71.65 -0.12 -0.12 65.68 44.96 0 16.77 -74.39 -0.75 0 -0.79 -0.22 -0.11 0.22 -235.63 0 -0.32 -0.09 0 0.09 -29.07 0zm-23.04 24.3c-1.98,-10.74 -6.4,-14.19 -6.4,-14.19 -6.07,-6.98 -33.77,-6.23 -33.77,-6.23l-120.8 6.89c12.15,-10.52 46.83,-16.12 46.83,-16.12 40.31,-4.95 80.83,-8.92 121.66,-11.62l20.55 91.36 -189.06 0 0 -16.12 167.61 -5.58 -6.62 -28.39zm207.61 -8.71l0 58.8 -11.05 -4.32 0.44 -48.68 1.22 -1.29 -40.95 0.13 -40.87 -0.13 1.22 1.29 0.44 48.68 -11.05 4.32 0 -58.8 5.32 3.13 0 -3.13 44.94 0.22 45.05 -0.22 0 3.13 5.29 -3.13zm93.03 -38.91l-0.09 0.22 -0.46 0 0.55 -0.22zm91.93 -14.09l1.95 -14.62 6.77 -50.66 4.04 -6.76 -4.79 35.47 -4.62 33.81c0,0 -1.25,5.55 1.94,5.42l75.83 15.37 0.12 5.04 -78.15 -16.53c-0.01,-0.03 -3.73,-0.87 -3.09,-6.54zm55.23 -44.11c0,0 -1.14,6.32 4.76,6.48l21.19 2.35 0.06 6.2 -27.09 -3.42c0,0 -7.44,-1.63 -6.92,-7.51l17.35 -102.81 0 -0.04 -0.02 0 4.27 -25.42 9.04 -15.24 -7.33 45.7 0.03 0.03 -4.97 30.94 15.49 6.67 0 4.1 -16.19 -7.05 -3.51 20.89 19.85 8.54 0 3.88 -20.4 -8.35 -5 30.24 -0.61 3.82zm-527.62 44.11l-1.94 -14.62 -6.78 -50.66 -4.04 -6.76 4.8 35.47 4.62 33.81c0,0 1.25,5.55 -1.95,5.42l-75.83 15.37 -0.11 5.04 78.15 -16.53c0,-0.03 3.72,-0.87 3.08,-6.54zm-55.22 -44.11c0,0 1.14,6.32 -4.76,6.48l-21.19 2.35 -0.06 6.2 27.09 -3.42c0,0 7.44,-1.63 6.91,-7.51l-17.35 -102.81 0 -0.04 0.03 0 -4.27 -25.42 -9.04 -15.24 7.32 45.7 -0.02 0.03 4.97 30.94 -15.5 6.67 0 4.1 16.19 -7.05 3.52 20.89 -19.85 8.54 0 3.88 20.4 -8.35 5 30.24 0.61 3.82zm219.16 -74.33c-4.3,-3.99 -10.8,-3.46 -14.51,1.18 -3.7,4.64 -3.21,11.63 1.09,15.62 4.31,4 10.81,3.47 14.51,-1.17 3.71,-4.64 3.22,-11.64 -1.09,-15.63zm-21.3 -26.87c-3,-5.2 -9.34,-6.8 -14.17,-3.57 -4.83,3.23 -6.31,10.06 -3.32,15.26 3,5.2 9.34,6.8 14.17,3.57 4.83,-3.22 6.31,-10.06 3.32,-15.26zm-12.87 -32.58c-1.41,-5.93 -7.01,-9.5 -12.52,-7.98 -5.5,1.51 -8.82,7.55 -7.41,13.48 1.41,5.93 7.01,9.51 12.52,7.99 5.5,-1.52 8.82,-7.56 7.41,-13.49zm-13.03 -46.86c-5.68,-0.33 -10.53,4.36 -10.84,10.47 -0.3,6.11 4.05,11.33 9.72,11.67 5.67,0.33 10.52,-4.36 10.83,-10.47 0.31,-6.11 -4.04,-11.33 -9.71,-11.67zm10.44 -37.25c-5.32,-2.15 -11.25,0.75 -13.24,6.48 -2,5.73 0.69,12.12 6.01,14.27 5.32,2.15 11.25,-0.75 13.25,-6.48 2,-5.73 -0.7,-12.12 -6.02,-14.27zm20.37 -32.2c-4.47,-3.78 -10.94,-2.92 -14.44,1.9 -3.5,4.82 -2.71,11.78 1.76,15.55 4.48,3.78 10.94,2.92 14.45,-1.9 3.5,-4.82 2.71,-11.78 -1.77,-15.55zm28.37 -24.06c-3.22,-5.04 -9.62,-6.32 -14.31,-2.85 -4.68,3.46 -5.87,10.36 -2.65,15.41 3.22,5.04 9.62,6.32 14.3,2.85 4.69,-3.46 5.88,-10.36 2.66,-15.41zm33.77 -13.78c-1.66,-5.85 -7.41,-9.14 -12.85,-7.35 -5.43,1.79 -8.49,7.99 -6.82,13.84 1.66,5.85 7.41,9.15 12.85,7.35 5.43,-1.79 8.49,-7.99 6.82,-13.84zm25.84 -13.45c-5.68,-0.05 -10.33,4.88 -10.37,11 -0.04,6.12 4.53,11.12 10.21,11.17 5.68,0.04 10.32,-4.88 10.37,-11 0.04,-6.12 -4.53,-11.12 -10.21,-11.17zm38.55 6.82c-5.41,-1.89 -11.21,1.31 -12.96,7.13 -1.74,5.83 1.22,12.07 6.63,13.96 5.41,1.88 11.21,-1.32 12.95,-7.14 1.75,-5.82 -1.21,-12.07 -6.62,-13.95zm34.94 18.77c-4.63,-3.54 -11.05,-2.37 -14.34,2.63 -3.29,4.99 -2.2,11.9 2.43,15.45 4.63,3.54 11.06,2.37 14.34,-2.62 3.29,-4.99 2.2,-11.91 -2.43,-15.46zm28.15 29.41c-3.44,-4.88 -9.89,-5.83 -14.42,-2.14 -4.53,3.7 -5.42,10.65 -1.98,15.53 3.43,4.88 9.88,5.84 14.41,2.14 4.53,-3.7 5.42,-10.65 1.99,-15.53zm18.56 36.91c-1.91,-5.76 -7.8,-8.76 -13.15,-6.7 -5.35,2.07 -8.14,8.41 -6.22,14.17 1.91,5.77 7.8,8.76 13.15,6.7 5.35,-2.06 8.14,-8.4 6.22,-14.17zm7.35 41.43c-0.22,-6.12 -5,-10.88 -10.68,-10.65 -5.68,0.24 -10.1,5.39 -9.88,11.51 0.22,6.11 5,10.88 10.68,10.64 5.68,-0.23 10.1,-5.39 9.88,-11.5zm-11.56 28.27c-5.48,-1.61 -11.14,1.87 -12.63,7.78 -1.49,5.9 1.74,11.99 7.22,13.6 5.48,1.61 11.14,-1.87 12.63,-7.78 1.5,-5.9 -1.74,-11.99 -7.22,-13.6zm-11.75 36.8c-4.78,-3.31 -11.15,-1.82 -14.22,3.33 -3.07,5.15 -1.68,12.01 3.1,15.32 4.78,3.3 11.15,1.81 14.22,-3.34 3.07,-5.15 1.68,-12.01 -3.1,-15.31zm-21.45 31.12c-3.64,-4.7 -10.13,-5.34 -14.49,-1.42 -4.37,3.92 -4.95,10.91 -1.31,15.61 3.63,4.7 10.12,5.34 14.49,1.42 4.36,-3.92 4.95,-10.91 1.31,-15.61zm-135.14 -26.63c-3.13,-2.9 -7.84,-2.52 -10.53,0.85 -2.69,3.37 -2.34,8.45 0.79,11.35 3.13,2.9 7.84,2.52 10.53,-0.85 2.69,-3.37 2.34,-8.45 -0.79,-11.35zm-15.49 -19.52c-2.17,-3.78 -6.78,-4.94 -10.28,-2.6 -3.51,2.35 -4.59,7.31 -2.41,11.08 2.17,3.78 6.78,4.94 10.28,2.6 3.51,-2.34 4.59,-7.3 2.41,-11.08zm-9.34 -23.73c-1.02,-4.3 -5.09,-6.9 -9.09,-5.8 -4,1.11 -6.41,5.49 -5.39,9.79 1.03,4.31 5.1,6.91 9.09,5.8 4,-1.1 6.41,-5.48 5.39,-9.79zm-9.49 -34.08c-4.12,-0.24 -7.64,3.16 -7.87,7.6 -0.22,4.44 2.94,8.23 7.06,8.47 4.12,0.24 7.64,-3.16 7.86,-7.6 0.22,-4.43 -2.93,-8.23 -7.05,-8.47zm7.59 -27.11c-3.86,-1.56 -8.17,0.54 -9.62,4.71 -1.45,4.16 0.51,8.79 4.37,10.36 3.86,1.56 8.17,-0.55 9.62,-4.71 1.45,-4.16 -0.51,-8.8 -4.37,-10.36zm14.8 -23.42c-3.25,-2.74 -7.94,-2.12 -10.48,1.38 -2.55,3.5 -1.97,8.55 1.28,11.29 3.25,2.74 7.94,2.12 10.48,-1.38 2.55,-3.5 1.97,-8.55 -1.28,-11.29zm20.63 -17.49c-2.34,-3.66 -6.99,-4.59 -10.39,-2.08 -3.4,2.52 -4.26,7.53 -1.92,11.19 2.33,3.66 6.98,4.59 10.38,2.08 3.4,-2.52 4.27,-7.53 1.93,-11.19zm24.6 -10.03c-1.21,-4.25 -5.39,-6.64 -9.33,-5.34 -3.95,1.3 -6.17,5.8 -4.96,10.05 1.21,4.25 5.39,6.64 9.33,5.34 3.95,-1.3 6.16,-5.8 4.96,-10.05zm18.78 -9.79c-4.13,-0.03 -7.5,3.54 -7.53,7.99 -0.03,4.44 3.29,8.07 7.41,8.1 4.13,0.04 7.5,-3.53 7.53,-7.98 0.03,-4.44 -3.28,-8.07 -7.41,-8.11zm28.05 4.99c-3.93,-1.37 -8.14,0.95 -9.41,5.18 -1.27,4.23 0.89,8.76 4.81,10.13 3.93,1.37 8.14,-0.95 9.41,-5.18 1.27,-4.23 -0.89,-8.77 -4.81,-10.13zm25.39 13.63c-3.37,-2.58 -8.03,-1.73 -10.42,1.9 -2.39,3.62 -1.6,8.64 1.77,11.22 3.36,2.57 8.02,1.72 10.41,-1.91 2.39,-3.62 1.6,-8.64 -1.76,-11.21zm20.46 21.41c-2.49,-3.54 -7.17,-4.23 -10.46,-1.55 -3.29,2.69 -3.94,7.73 -1.44,11.28 2.49,3.54 7.17,4.23 10.46,1.55 3.29,-2.69 3.94,-7.73 1.44,-11.28zm13.52 26.83c-1.39,-4.19 -5.66,-6.36 -9.55,-4.87 -3.88,1.5 -5.9,6.11 -4.51,10.29 1.39,4.19 5.66,6.36 9.55,4.87 3.88,-1.5 5.9,-6.11 4.51,-10.29zm5.32 30.12c-0.16,-4.44 -3.63,-7.9 -7.75,-7.73 -4.12,0.17 -7.34,3.91 -7.18,8.35 0.16,4.44 3.64,7.9 7.76,7.73 4.12,-0.17 7.33,-3.91 7.17,-8.35zm-8.37 20.6c-3.98,-1.17 -8.09,1.36 -9.17,5.65 -1.09,4.29 1.26,8.71 5.24,9.88 3.98,1.17 8.09,-1.36 9.17,-5.65 1.09,-4.29 -1.26,-8.71 -5.24,-9.88zm-8.55 26.78c-3.47,-2.4 -8.09,-1.32 -10.32,2.42 -2.23,3.74 -1.22,8.72 2.25,11.12 3.47,2.4 8.09,1.32 10.32,-2.42 2.23,-3.74 1.22,-8.72 -2.25,-11.12zm-15.59 22.58c-2.64,-3.42 -7.35,-3.87 -10.52,-1.03 -3.17,2.85 -3.6,7.92 -0.95,11.34 2.64,3.41 7.35,3.87 10.52,1.02 3.17,-2.85 3.59,-7.92 0.95,-11.33zm-93.37 -25.59c-1.97,-1.83 -4.94,-1.59 -6.64,0.53 -1.7,2.13 -1.47,5.33 0.5,7.16 1.97,1.82 4.94,1.58 6.64,-0.54 1.69,-2.12 1.47,-5.33 -0.5,-7.15zm-9.72 -12.31c-1.37,-2.38 -4.28,-3.12 -6.49,-1.64 -2.2,1.48 -2.88,4.6 -1.51,6.98 1.37,2.38 4.27,3.12 6.48,1.64 2.21,-1.48 2.89,-4.6 1.52,-6.98zm-5.86 -14.99c-0.65,-2.72 -3.21,-4.35 -5.73,-3.66 -2.52,0.7 -4.04,3.46 -3.4,6.17 0.65,2.72 3.21,4.35 5.73,3.66 2.52,-0.7 4.04,-3.46 3.4,-6.17zm-6.05 -21.46c-2.6,-0.15 -4.82,1.99 -4.96,4.79 -0.14,2.79 1.85,5.19 4.45,5.34 2.59,0.15 4.81,-2 4.95,-4.79 0.14,-2.8 -1.85,-5.19 -4.44,-5.34zm4.8 -17.12c-2.43,-0.98 -5.15,0.35 -6.06,2.97 -0.92,2.62 0.32,5.55 2.75,6.53 2.44,0.98 5.15,-0.34 6.06,-2.97 0.92,-2.62 -0.31,-5.54 -2.75,-6.53zm9.34 -14.78c-2.05,-1.73 -5.01,-1.34 -6.61,0.87 -1.6,2.2 -1.24,5.39 0.81,7.12 2.05,1.72 5,1.33 6.61,-0.87 1.6,-2.21 1.24,-5.39 -0.81,-7.12zm13.02 -11.01c-1.47,-2.31 -4.4,-2.9 -6.55,-1.31 -2.14,1.58 -2.68,4.74 -1.21,7.05 1.47,2.31 4.4,2.89 6.55,1.31 2.14,-1.59 2.68,-4.75 1.21,-7.05zm15.52 -6.3c-0.76,-2.68 -3.39,-4.18 -5.88,-3.36 -2.49,0.82 -3.89,3.65 -3.12,6.33 0.76,2.68 3.39,4.19 5.88,3.37 2.48,-0.82 3.88,-3.66 3.12,-6.34zm11.85 -6.2c-2.6,-0.02 -4.73,2.23 -4.75,5.03 -0.02,2.8 2.08,5.09 4.68,5.11 2.6,0.02 4.72,-2.23 4.74,-5.03 0.02,-2.8 -2.07,-5.09 -4.67,-5.11zm17.64 3.19c-2.48,-0.86 -5.13,0.6 -5.93,3.27 -0.8,2.66 0.56,5.52 3.03,6.38 2.48,0.87 5.13,-0.6 5.93,-3.26 0.8,-2.67 -0.56,-5.53 -3.03,-6.39zm16.03 8.57c-2.12,-1.63 -5.06,-1.09 -6.56,1.2 -1.51,2.28 -1.01,5.45 1.11,7.07 2.12,1.62 5.06,1.08 6.57,-1.2 1.5,-2.29 1,-5.45 -1.12,-7.07zm12.93 13.52c-1.57,-2.24 -4.52,-2.67 -6.6,-0.98 -2.07,1.69 -2.48,4.87 -0.91,7.1 1.57,2.24 4.53,2.67 6.6,0.98 2.07,-1.69 2.48,-4.87 0.91,-7.1zm8.49 16.86c-0.87,-2.64 -3.57,-4.01 -6.01,-3.06 -2.45,0.94 -3.73,3.84 -2.85,6.48 0.88,2.64 3.57,4.01 6.02,3.07 2.45,-0.95 3.72,-3.85 2.84,-6.49zm3.34 19.02c-0.1,-2.79 -2.29,-4.98 -4.89,-4.87 -2.6,0.11 -4.62,2.47 -4.52,5.27 0.1,2.8 2.29,4.98 4.89,4.87 2.59,-0.11 4.62,-2.47 4.52,-5.27zm-5.26 12.99c-2.51,-0.73 -5.1,0.86 -5.78,3.56 -0.68,2.71 0.79,5.49 3.3,6.23 2.51,0.74 5.1,-0.86 5.78,-3.56 0.69,-2.7 -0.79,-5.49 -3.3,-6.23zm-5.36 16.92c-2.18,-1.52 -5.1,-0.83 -6.5,1.52 -1.41,2.36 -0.77,5.5 1.41,7.01 2.19,1.52 5.1,0.83 6.51,-1.52 1.4,-2.36 0.77,-5.5 -1.42,-7.01zm-9.86 14.19c-1.67,-2.15 -4.64,-2.44 -6.63,-0.65 -2,1.79 -2.27,4.99 -0.6,7.14 1.66,2.15 4.63,2.44 6.63,0.65 1.99,-1.79 2.26,-4.99 0.6,-7.14zm-15.42 84.14l-45.95 0c-0.99,0 -1.81,-0.88 -1.81,-1.94l0 -12.12c0,-1.06 0.82,-1.94 1.81,-1.94l45.95 0c0.99,0 1.8,0.88 1.8,1.94l0 12.12c-0.03,1.09 -0.82,1.94 -1.8,1.94zm4.97 -23.32l-55.89 0c-1.2,0 -2.18,-1.07 -2.18,-2.35l0 -14.75c0,-1.28 0.98,-2.35 2.18,-2.35l25.4 0 0 -75.86c-16.16,-2.31 -20.99,-21.19 -20.99,-21.19 17.7,-2.47 23.02,15.69 23.02,15.69 4.33,-32.31 28.69,-30.97 28.66,-30.94 -3.98,31.41 -25.46,36.01 -25.46,36.01l0 76.29 25.26 0c1.19,0 2.18,1.07 2.18,2.35l0 14.75c0,1.31 -0.99,2.35 -2.18,2.35zm-12.04 42.1l-31.85 0c-0.99,0 -1.8,-0.87 -1.8,-1.94l0 -7.57c0,-1.07 0.81,-1.94 1.8,-1.94l31.85 0c0.99,0 1.81,0.87 1.81,1.94l0 7.57c0,1.07 -0.82,1.94 -1.81,1.94zm49.73 -458.24l0 14.02c-20.37,-13.18 -40.72,13.15 -61.09,0l0 -14.02c20.37,13.14 40.72,-13.18 61.09,0zm-61.09 -32.53l0 14.05c20.37,13.15 40.72,-13.15 61.09,0l0 -14.02c-20.37,-13.18 -40.72,13.12 -61.09,-0.03zm61.09 16.25l0 14.02c-20.37,-13.18 -40.72,13.15 -61.09,0l0 -14.02c20.37,13.15 40.72,-13.18 61.09,0zm1527.7 598.44l0 -61.85 17.49 0 0 61.85 -17.49 0zm-35.44 1.24c-5.06,0 -9.93,-0.64 -14.62,-1.9 -4.68,-1.27 -8.49,-2.9 -11.44,-4.91l5.74 -12.9c2.77,1.77 5.97,3.23 9.59,4.38 3.62,1.15 7.23,1.72 10.82,1.72 2.42,0 4.36,-0.22 5.83,-0.66 1.48,-0.44 2.55,-1.03 3.23,-1.77 0.68,-0.74 1.02,-1.6 1.02,-2.61 0,-1.41 -0.65,-2.53 -1.95,-3.35 -1.29,-0.83 -2.97,-1.5 -5.03,-2.04 -2.07,-0.53 -4.35,-1.06 -6.85,-1.59 -2.51,-0.53 -5.01,-1.2 -7.51,-2.03 -2.51,-0.82 -4.79,-1.9 -6.85,-3.22 -2.06,-1.33 -3.74,-3.07 -5.04,-5.22 -1.29,-2.15 -1.94,-4.87 -1.94,-8.17 0,-3.71 1.02,-7.07 3.05,-10.07 2.03,-3 5.08,-5.42 9.14,-7.25 4.07,-1.82 9.13,-2.73 15.2,-2.73 4.06,0 8.06,0.45 11.97,1.36 3.92,0.92 7.41,2.26 10.47,4.03l-5.39 12.98c-2.94,-1.59 -5.86,-2.78 -8.74,-3.58 -2.89,-0.79 -5.69,-1.19 -8.4,-1.19 -2.41,0 -4.36,0.25 -5.83,0.75 -1.47,0.5 -2.53,1.17 -3.18,1.99 -0.65,0.83 -0.97,1.77 -0.97,2.83 0,1.35 0.63,2.43 1.9,3.22 1.26,0.8 2.94,1.45 5.03,1.95 2.09,0.5 4.39,1.01 6.9,1.54 2.5,0.53 5,1.2 7.51,1.99 2.5,0.8 4.78,1.86 6.84,3.18 2.06,1.33 3.73,3.06 4.99,5.21 1.27,2.15 1.9,4.85 1.9,8.09 0,3.59 -1.01,6.91 -3.04,9.94 -2.04,3.03 -5.07,5.46 -9.1,7.29 -4.04,1.82 -9.12,2.74 -15.25,2.74zm-98.6 -1.24l27.3 -61.85 17.23 0 27.39 61.85 -18.2 0 -21.38 -53.28 6.89 0 -21.38 53.28 -17.85 0zm14.93 -12.02l4.51 -12.9 30.22 0 4.5 12.9 -39.23 0zm-91.79 12.02l0 -61.85 14.4 0 25.62 42.06 -7.6 0 24.92 -42.06 14.4 0 0.18 61.85 -16.09 0 -0.17 -37.37 2.74 0 -18.65 31.27 -7.77 0 -19.17 -31.27 3.35 0 0 37.37 -16.16 0zm-65.39 0l0 -61.85 28.28 0c5.65,0 10.52,0.92 14.62,2.74 4.09,1.83 7.26,4.46 9.5,7.91 2.23,3.45 3.35,7.52 3.35,12.24 0,4.65 -1.12,8.67 -3.35,12.06 -2.24,3.38 -5.41,5.98 -9.5,7.77 -4.1,1.8 -8.97,2.7 -14.62,2.7l-18.56 0 7.78 -7.34 0 23.77 -17.5 0zm38.26 0l-15.37 -22.53 18.64 0 15.46 22.53 -18.73 0zm-20.76 -21.91l-7.78 -8.04 17.5 0c3.65,0 6.37,-0.8 8.17,-2.39 1.8,-1.59 2.69,-3.8 2.69,-6.62 0,-2.89 -0.89,-5.13 -2.69,-6.72 -1.8,-1.59 -4.52,-2.38 -8.17,-2.38l-17.5 0 7.78 -8.04 0 34.19zm-61.06 23.15c-4.94,0 -9.51,-0.8 -13.69,-2.39 -4.18,-1.59 -7.82,-3.84 -10.91,-6.76 -3.09,-2.91 -5.49,-6.31 -7.2,-10.2 -1.71,-3.89 -2.57,-8.16 -2.57,-12.81 0,-4.66 0.86,-8.93 2.57,-12.82 1.71,-3.88 4.11,-7.28 7.2,-10.2 3.09,-2.92 6.73,-5.17 10.91,-6.76 4.18,-1.59 8.75,-2.38 13.69,-2.38 5.01,0 9.59,0.79 13.74,2.38 4.16,1.59 7.76,3.84 10.83,6.76 3.06,2.92 5.46,6.32 7.2,10.2 1.74,3.89 2.6,8.16 2.6,12.82 0,4.65 -0.86,8.93 -2.6,12.85 -1.74,3.92 -4.14,7.32 -7.2,10.21 -3.07,2.88 -6.67,5.12 -10.83,6.71 -4.15,1.59 -8.73,2.39 -13.74,2.39zm0 -14.49c2.36,0 4.55,-0.42 6.59,-1.24 2.03,-0.82 3.8,-2.02 5.3,-3.58 1.5,-1.56 2.68,-3.43 3.53,-5.61 0.86,-2.18 1.28,-4.59 1.28,-7.24 0,-2.71 -0.42,-5.14 -1.28,-7.29 -0.85,-2.15 -2.03,-4.01 -3.53,-5.57 -1.5,-1.56 -3.27,-2.75 -5.3,-3.58 -2.04,-0.82 -4.23,-1.23 -6.59,-1.23 -2.35,0 -4.55,0.41 -6.58,1.23 -2.03,0.83 -3.8,2.02 -5.3,3.58 -1.5,1.56 -2.68,3.42 -3.53,5.57 -0.86,2.15 -1.28,4.58 -1.28,7.29 0,2.65 0.42,5.06 1.28,7.24 0.85,2.18 2.03,4.05 3.53,5.61 1.5,1.56 3.27,2.76 5.3,3.58 2.03,0.82 4.23,1.24 6.58,1.24zm-71.12 -21.47l28.54 0 0 13.52 -28.54 0 0 -13.52zm1.24 34.72l-17.5 0 0 -61.85 48.51 0 0 13.52 -31.01 0 0 48.33zm-60.44 0l0 -47.98 -18.99 0 0 -13.87 55.39 0 0 13.87 -18.9 0 0 47.98 -17.5 0zm-86.94 0l27.3 -61.85 17.23 0 27.39 61.85 -18.2 0 -21.38 -53.28 6.89 0 -21.38 53.28 -17.85 0zm14.93 -12.02l4.51 -12.9 30.22 0 4.5 12.9 -39.23 0zm-62.02 12.02l0 -61.85 17.49 0 0 47.98 29.51 0 0 13.87 -47 0zm-64.23 0l0 -61.85 28.27 0c5.65,0 10.53,0.92 14.62,2.74 4.1,1.83 7.26,4.46 9.5,7.91 2.24,3.45 3.36,7.52 3.36,12.24 0,4.65 -1.12,8.68 -3.36,12.1 -2.24,3.42 -5.4,6.05 -9.5,7.91 -4.09,1.85 -8.97,2.78 -14.62,2.78l-18.55 0 7.77 -7.6 0 23.77 -17.49 0zm17.49 -21.91l-7.77 -8.04 17.49 0c3.65,0 6.38,-0.8 8.17,-2.39 1.8,-1.59 2.7,-3.8 2.7,-6.62 0,-2.89 -0.9,-5.13 -2.7,-6.72 -1.79,-1.59 -4.52,-2.38 -8.17,-2.38l-17.49 0 7.77 -8.04 0 34.19zm-73.07 -39.94l17.5 0 0 61.85 -17.5 0 0 -61.85zm-23.85 61.85l-17.5 0 0 -61.85 17.5 0 0 61.85zm25.09 -24.12l-26.33 0 0 -14.49 26.33 0 0 14.49zm-78.02 25.36c-5.06,0 -9.94,-0.64 -14.62,-1.9 -4.68,-1.27 -8.5,-2.9 -11.44,-4.91l5.74 -12.9c2.77,1.77 5.96,3.23 9.59,4.38 3.62,1.15 7.23,1.72 10.82,1.72 2.42,0 4.36,-0.22 5.83,-0.66 1.47,-0.44 2.55,-1.03 3.23,-1.77 0.67,-0.74 1.01,-1.6 1.01,-2.61 0,-1.41 -0.64,-2.53 -1.94,-3.35 -1.3,-0.83 -2.98,-1.5 -5.04,-2.04 -2.06,-0.53 -4.34,-1.06 -6.84,-1.59 -2.51,-0.53 -5.01,-1.2 -7.51,-2.03 -2.51,-0.82 -4.79,-1.9 -6.85,-3.22 -2.06,-1.33 -3.74,-3.07 -5.04,-5.22 -1.29,-2.15 -1.94,-4.87 -1.94,-8.17 0,-3.71 1.01,-7.07 3.05,-10.07 2.03,-3 5.08,-5.42 9.14,-7.25 4.06,-1.82 9.13,-2.73 15.2,-2.73 4.06,0 8.05,0.45 11.97,1.36 3.92,0.92 7.41,2.26 10.47,4.03l-5.39 12.98c-2.95,-1.59 -5.86,-2.78 -8.75,-3.58 -2.88,-0.79 -5.68,-1.19 -8.39,-1.19 -2.42,0 -4.36,0.25 -5.83,0.75 -1.47,0.5 -2.53,1.17 -3.18,1.99 -0.65,0.83 -0.97,1.77 -0.97,2.83 0,1.35 0.63,2.43 1.89,3.22 1.27,0.8 2.95,1.45 5.04,1.95 2.09,0.5 4.39,1.01 6.89,1.54 2.51,0.53 5.01,1.2 7.51,1.99 2.51,0.8 4.79,1.86 6.85,3.18 2.06,1.33 3.73,3.06 4.99,5.21 1.27,2.15 1.9,4.85 1.9,8.09 0,3.59 -1.01,6.91 -3.05,9.94 -2.03,3.03 -5.06,5.46 -9.1,7.29 -4.03,1.82 -9.11,2.74 -15.24,2.74zm-98.6 -1.24l27.3 -61.85 17.23 0 27.39 61.85 -18.2 0 -21.38 -53.28 6.89 0 -21.38 53.28 -17.85 0zm14.93 -12.02l4.51 -12.9 30.21 0 4.51 12.9 -39.23 0zm-62.02 12.02l0 -61.85 17.49 0 0 47.98 29.51 0 0 13.87 -47 0zm-43.56 1.24c-4.95,0 -9.51,-0.8 -13.7,-2.39 -4.18,-1.59 -7.82,-3.84 -10.91,-6.76 -3.09,-2.91 -5.49,-6.31 -7.2,-10.2 -1.71,-3.89 -2.56,-8.16 -2.56,-12.81 0,-4.66 0.85,-8.93 2.56,-12.82 1.71,-3.88 4.11,-7.28 7.2,-10.2 3.09,-2.92 6.73,-5.17 10.91,-6.76 4.19,-1.59 8.75,-2.38 13.7,-2.38 5.01,0 9.59,0.79 13.74,2.38 4.15,1.59 7.76,3.84 10.82,6.76 3.06,2.92 5.46,6.32 7.2,10.2 1.74,3.89 2.61,8.16 2.61,12.82 0,4.65 -0.87,8.93 -2.61,12.85 -1.74,3.92 -4.14,7.32 -7.2,10.21 -3.06,2.88 -6.67,5.12 -10.82,6.71 -4.15,1.59 -8.73,2.39 -13.74,2.39zm0 -14.49c2.35,0 4.55,-0.42 6.58,-1.24 2.03,-0.82 3.8,-2.02 5.3,-3.58 1.5,-1.56 2.68,-3.43 3.54,-5.61 0.85,-2.18 1.28,-4.59 1.28,-7.24 0,-2.71 -0.43,-5.14 -1.28,-7.29 -0.86,-2.15 -2.04,-4.01 -3.54,-5.57 -1.5,-1.56 -3.27,-2.75 -5.3,-3.58 -2.03,-0.82 -4.23,-1.23 -6.58,-1.23 -2.36,0 -4.55,0.41 -6.58,1.23 -2.04,0.83 -3.8,2.02 -5.3,3.58 -1.51,1.56 -2.69,3.42 -3.54,5.57 -0.85,2.15 -1.28,4.58 -1.28,7.29 0,2.65 0.43,5.06 1.28,7.24 0.85,2.18 2.03,4.05 3.54,5.61 1.5,1.56 3.26,2.76 5.3,3.58 2.03,0.82 4.22,1.24 6.58,1.24zm-61.05 -48.6l17.49 0 0 61.85 -17.49 0 0 -61.85zm-23.86 61.85l-17.49 0 0 -61.85 17.49 0 0 61.85zm25.09 -24.12l-26.33 0 0 -14.49 26.33 0 0 14.49zm-119.45 24.12l27.3 -61.85 17.23 0 27.39 61.85 -18.2 0 -21.38 -53.28 6.89 0 -21.38 53.28 -17.85 0zm14.93 -12.02l4.51 -12.9 30.21 0 4.51 12.9 -39.23 0zm-75.45 12.02l0 -61.85 31.63 0c8.13,0 14.19,1.49 18.2,4.46 4,2.98 6.01,6.88 6.01,11.71 0,3.18 -0.84,5.97 -2.52,8.35 -1.68,2.39 -4.04,4.27 -7.07,5.66 -3.03,1.38 -6.64,2.07 -10.82,2.07l1.76 -4.24c4.36,0 8.16,0.66 11.4,1.99 3.24,1.32 5.76,3.24 7.56,5.74 1.79,2.5 2.69,5.55 2.69,9.15 0,5.36 -2.16,9.52 -6.49,12.5 -4.33,2.97 -10.65,4.46 -18.96,4.46l-33.39 0zm17.31 -12.63l14.67 0c3.01,0 5.29,-0.52 6.85,-1.55 1.56,-1.03 2.34,-2.61 2.34,-4.73 0,-2.12 -0.78,-3.69 -2.34,-4.72 -1.56,-1.04 -3.84,-1.55 -6.85,-1.55l-15.9 0 0 -12.11 13.25 0c2.95,0 5.15,-0.5 6.63,-1.5 1.47,-1 2.21,-2.5 2.21,-4.5 0,-2.01 -0.74,-3.49 -2.21,-4.46 -1.48,-0.98 -3.68,-1.46 -6.63,-1.46l-12.02 0 0 36.58zm1067.63 -115.09l0 -61.34 8.76 0 0 61.34 -8.76 0zm-71.15 0l0 -61.34 7.19 0 40.57 50.38 -3.77 0 0 -50.38 8.76 0 0 61.34 -7.18 0 -40.57 -50.38 3.77 0 0 50.38 -8.77 0zm-27.16 0l0 -61.34 8.76 0 0 61.34 -8.76 0zm-63.7 0l0 -61.34 23.92 0c5.38,0 9.96,0.85 13.76,2.54 3.8,1.7 6.72,4.15 8.76,7.36 2.05,3.22 3.07,7.04 3.07,11.48 0,4.44 -1.02,8.25 -3.07,11.44 -2.04,3.18 -4.96,5.62 -8.76,7.31 -3.8,1.7 -8.38,2.54 -13.76,2.54l-19.1 0 3.94 -4.03 0 22.7 -8.76 0zm41.01 0l-15.6 -22.26 9.38 0 15.77 22.26 -9.55 0zm-32.25 -21.82l-3.94 -4.29 18.84 0c5.61,0 9.86,-1.22 12.75,-3.64 2.89,-2.42 4.33,-5.83 4.33,-10.21 0,-4.38 -1.44,-7.77 -4.33,-10.16 -2.89,-2.4 -7.14,-3.59 -12.75,-3.59l-18.84 0 3.94 -4.39 0 36.28zm-82.18 21.82l27.77 -61.34 8.68 0 27.86 61.34 -9.2 0 -24.8 -56.43 3.51 0 -24.8 56.43 -9.02 0zm11.83 -15.34l2.36 -7.01 34.52 0 2.54 7.01 -39.42 0zm-54.59 15.34l0 -61.34 8.76 0 0 53.71 33.21 0 0 7.63 -41.97 0zm-73.43 0l27.78 -61.34 8.67 0 27.87 61.34 -9.2 0 -24.8 -56.43 3.5 0 -24.79 56.43 -9.03 0zm11.83 -15.34l2.37 -7.01 34.52 0 2.54 7.01 -39.43 0zm-38.29 16.04c-3.62,0 -7.01,-0.76 -10.16,-2.28 -3.16,-1.52 -5.73,-3.71 -7.71,-6.57l5.08 -5.96c1.69,2.34 3.61,4.13 5.74,5.39 2.13,1.25 4.48,1.88 7.05,1.88 7.01,0 10.52,-4.15 10.52,-12.44l0 -34.43 -22.17 0 0 -7.63 30.84 0 0 41.62c0,6.84 -1.62,11.95 -4.86,15.34 -3.24,3.38 -8.02,5.08 -14.33,5.08zm-35.05 -0.7l0 -61.34 8.77 0 0 61.34 -8.77 0zm-39.25 0l0 -53.71 -21.03 0 0 -7.63 50.73 0 0 7.63 -21.03 0 0 53.71 -8.67 0zm-82.54 0l27.78 -61.34 8.67 0 27.87 61.34 -9.2 0 -24.8 -56.43 3.5 0 -24.79 56.43 -9.03 0zm11.83 -15.34l2.37 -7.01 34.52 0 2.54 7.01 -39.43 0zm-73.69 15.34l0 -61.34 7.19 0 40.57 50.38 -3.77 0 0 -50.38 8.76 0 0 61.34 -7.18 0 -40.57 -50.38 3.76 0 0 50.38 -8.76 0zm-50.73 0l0 -61.34 8.76 0 0 61.34 -8.76 0zm-39.25 0l0 -53.71 -21.03 0 0 -7.63 50.73 0 0 7.63 -21.03 0 0 53.71 -8.67 0zm-82.54 0l27.78 -61.34 8.67 0 27.86 61.34 -9.2 0 -24.79 -56.43 3.5 0 -24.8 56.43 -9.02 0zm11.83 -15.34l2.36 -7.01 34.53 0 2.54 7.01 -39.43 0zm-40.75 15.34l0 -23.49 2.02 5.44 -26.37 -43.29 9.37 0 22.17 36.54 -5.08 0 22.25 -36.54 8.68 0 -26.29 43.29 1.93 -5.44 0 23.49 -8.68 0zm-41.96 0l0 -61.34 8.76 0 0 61.34 -8.76 0zm-52.05 0l0 -61.34 8.76 0 0 53.71 33.21 0 0 7.63 -41.97 0zm-45.91 0.7c-4.68,0 -9.01,-0.79 -13.02,-2.37 -4,-1.58 -7.46,-3.78 -10.38,-6.61 -2.92,-2.84 -5.2,-6.15 -6.83,-9.95 -1.64,-3.8 -2.46,-7.94 -2.46,-12.44 0,-4.5 0.82,-8.65 2.46,-12.44 1.63,-3.8 3.91,-7.11 6.83,-9.95 2.92,-2.83 6.37,-5.04 10.34,-6.61 3.97,-1.58 8.32,-2.37 13.06,-2.37 4.67,0 8.98,0.78 12.92,2.32 3.94,1.55 7.39,3.74 10.34,6.57 2.95,2.84 5.23,6.15 6.83,9.95 1.61,3.8 2.41,7.97 2.41,12.53 0,4.56 -0.8,8.73 -2.41,12.53 -1.6,3.8 -3.88,7.11 -6.83,9.94 -2.95,2.84 -6.4,5.03 -10.34,6.58 -3.94,1.54 -8.25,2.32 -12.92,2.32zm0 -7.8c3.38,0 6.52,-0.58 9.42,-1.75 2.89,-1.17 5.4,-2.82 7.53,-4.95 2.13,-2.14 3.8,-4.63 4.99,-7.5 1.2,-2.86 1.8,-5.98 1.8,-9.37 0,-3.39 -0.6,-6.51 -1.8,-9.38 -1.19,-2.86 -2.86,-5.36 -4.99,-7.49 -2.13,-2.13 -4.64,-3.78 -7.53,-4.95 -2.9,-1.17 -6.04,-1.75 -9.42,-1.75 -3.45,0 -6.62,0.58 -9.51,1.75 -2.89,1.17 -5.42,2.82 -7.58,4.95 -2.16,2.13 -3.84,4.63 -5.04,7.49 -1.2,2.87 -1.79,5.99 -1.79,9.38 0,3.39 0.59,6.51 1.79,9.37 1.2,2.87 2.88,5.36 5.04,7.5 2.16,2.13 4.69,3.78 7.58,4.95 2.89,1.17 6.06,1.75 9.51,1.75zm-100.24 7.1l27.77 -61.34 8.68 0 27.86 61.34 -9.2 0 -24.79 -56.43 3.5 0 -24.8 56.43 -9.02 0zm11.83 -15.34l2.36 -7.01 34.53 0 2.54 7.01 -39.43 0zm-47.49 -17l31.63 0 0 7.54 -31.63 0 0 -7.54zm0.87 32.34l-8.76 0 0 -61.34 43.29 0 0 7.63 -34.53 0 0 53.71zm1386.85 -126.87l0 -61.34 7.19 0 40.56 50.38 -3.76 0 0 -50.38 8.76 0 0 61.34 -7.19 0 -40.57 -50.38 3.77 0 0 50.38 -8.76 0zm-45.91 0.7c-4.68,0 -9.01,-0.79 -13.01,-2.37 -4.01,-1.57 -7.47,-3.78 -10.39,-6.61 -2.92,-2.84 -5.2,-6.15 -6.83,-9.95 -1.64,-3.79 -2.45,-7.94 -2.45,-12.44 0,-4.5 0.81,-8.65 2.45,-12.44 1.63,-3.8 3.91,-7.11 6.83,-9.95 2.92,-2.83 6.37,-5.03 10.34,-6.61 3.97,-1.58 8.33,-2.37 13.06,-2.37 4.67,0 8.98,0.78 12.92,2.32 3.94,1.55 7.39,3.74 10.34,6.58 2.95,2.83 5.23,6.14 6.83,9.94 1.61,3.8 2.41,7.97 2.41,12.53 0,4.56 -0.8,8.73 -2.41,12.53 -1.6,3.8 -3.88,7.11 -6.83,9.94 -2.95,2.84 -6.4,5.03 -10.34,6.58 -3.94,1.54 -8.25,2.32 -12.92,2.32zm0 -7.8c3.39,0 6.53,-0.58 9.42,-1.75 2.89,-1.17 5.4,-2.82 7.53,-4.95 2.13,-2.14 3.8,-4.63 5,-7.49 1.19,-2.87 1.79,-5.99 1.79,-9.38 0,-3.39 -0.6,-6.51 -1.79,-9.38 -1.2,-2.86 -2.87,-5.35 -5,-7.49 -2.13,-2.13 -4.64,-3.78 -7.53,-4.95 -2.89,-1.17 -6.03,-1.75 -9.42,-1.75 -3.45,0 -6.62,0.58 -9.51,1.75 -2.89,1.17 -5.42,2.82 -7.58,4.95 -2.16,2.14 -3.84,4.63 -5.04,7.49 -1.19,2.87 -1.79,5.99 -1.79,9.38 0,3.39 0.6,6.51 1.79,9.38 1.2,2.86 2.88,5.35 5.04,7.49 2.16,2.13 4.69,3.78 7.58,4.95 2.89,1.17 6.06,1.75 9.51,1.75zm-54.85 7.1l0 -61.34 8.76 0 0 61.34 -8.76 0zm-36.54 0.7c-4.67,0 -9.14,-0.72 -13.41,-2.15 -4.26,-1.43 -7.62,-3.28 -10.07,-5.56l3.24 -6.84c2.34,2.05 5.32,3.74 8.94,5.08 3.62,1.35 7.39,2.02 11.3,2.02 3.56,0 6.45,-0.41 8.67,-1.23 2.22,-0.81 3.86,-1.94 4.91,-3.37 1.05,-1.43 1.58,-3.05 1.58,-4.86 0,-2.11 -0.69,-3.8 -2.06,-5.08 -1.37,-1.29 -3.16,-2.33 -5.35,-3.12 -2.19,-0.78 -4.6,-1.47 -7.22,-2.05 -2.63,-0.59 -5.28,-1.27 -7.93,-2.06 -2.66,-0.79 -5.09,-1.8 -7.28,-3.03 -2.19,-1.22 -3.95,-2.87 -5.3,-4.95 -1.34,-2.07 -2.01,-4.74 -2.01,-8.01 0,-3.16 0.83,-6.06 2.49,-8.72 1.67,-2.66 4.24,-4.79 7.71,-6.4 3.48,-1.6 7.91,-2.41 13.28,-2.41 3.56,0 7.1,0.47 10.6,1.4 3.51,0.94 6.54,2.28 9.11,4.03l-2.89 7.01c-2.63,-1.75 -5.4,-3.02 -8.32,-3.81 -2.92,-0.79 -5.76,-1.18 -8.5,-1.18 -3.45,0 -6.28,0.44 -8.5,1.31 -2.22,0.88 -3.84,2.05 -4.86,3.51 -1.02,1.46 -1.54,3.09 -1.54,4.91 0,2.16 0.69,3.88 2.06,5.17 1.38,1.28 3.16,2.3 5.35,3.06 2.19,0.76 4.6,1.45 7.23,2.06 2.63,0.61 5.27,1.3 7.93,2.06 2.65,0.76 5.08,1.75 7.27,2.98 2.19,1.23 3.96,2.86 5.3,4.91 1.34,2.04 2.01,4.67 2.01,7.88 0,3.1 -0.84,5.97 -2.54,8.63 -1.69,2.66 -4.3,4.79 -7.84,6.4 -3.53,1.6 -7.99,2.41 -13.36,2.41zm-45.04 -0.7l0 -61.34 8.77 0 0 61.34 -8.77 0zm-39.25 0l0 -53.71 -21.03 0 0 -7.63 50.73 0 0 7.63 -21.03 0 0 53.71 -8.67 0zm-82.54 0l27.78 -61.34 8.67 0 27.87 61.34 -9.21 0 -24.79 -56.43 3.5 0 -24.79 56.43 -9.03 0zm11.83 -15.34l2.37 -7.01 34.52 0 2.54 7.01 -39.43 0zm-43.98 15.34l-26.99 -61.34 9.46 0 24.8 56.61 -5.43 0 24.97 -56.61 8.76 0 -26.9 61.34 -8.67 0zm-61.69 0.7c-4.67,0 -9.01,-0.79 -13.01,-2.37 -4,-1.57 -7.46,-3.78 -10.38,-6.61 -2.92,-2.84 -5.2,-6.15 -6.84,-9.95 -1.63,-3.79 -2.45,-7.94 -2.45,-12.44 0,-4.5 0.82,-8.65 2.45,-12.44 1.64,-3.8 3.92,-7.11 6.84,-9.95 2.92,-2.83 6.36,-5.03 10.34,-6.61 3.97,-1.58 8.32,-2.37 13.05,-2.37 4.67,0 8.98,0.78 12.93,2.32 3.94,1.55 7.38,3.74 10.33,6.58 2.95,2.83 5.23,6.14 6.84,9.94 1.61,3.8 2.41,7.97 2.41,12.53 0,4.56 -0.8,8.73 -2.41,12.53 -1.61,3.8 -3.89,7.11 -6.84,9.94 -2.95,2.84 -6.39,5.03 -10.33,6.58 -3.95,1.54 -8.26,2.32 -12.93,2.32zm0 -7.8c3.39,0 6.53,-0.58 9.42,-1.75 2.89,-1.17 5.4,-2.82 7.54,-4.95 2.13,-2.14 3.79,-4.63 4.99,-7.49 1.2,-2.87 1.8,-5.99 1.8,-9.38 0,-3.39 -0.6,-6.51 -1.8,-9.38 -1.2,-2.86 -2.86,-5.35 -4.99,-7.49 -2.14,-2.13 -4.65,-3.78 -7.54,-4.95 -2.89,-1.17 -6.03,-1.75 -9.42,-1.75 -3.44,0 -6.61,0.58 -9.51,1.75 -2.89,1.17 -5.41,2.82 -7.57,4.95 -2.17,2.14 -3.85,4.63 -5.04,7.49 -1.2,2.87 -1.8,5.99 -1.8,9.38 0,3.39 0.6,6.51 1.8,9.38 1.19,2.86 2.87,5.35 5.04,7.49 2.16,2.13 4.68,3.78 7.57,4.95 2.9,1.17 6.07,1.75 9.51,1.75zm-98.83 7.1l0 -61.34 7.18 0 40.57 50.38 -3.77 0 0 -50.38 8.76 0 0 61.34 -7.18 0 -40.57 -50.38 3.77 0 0 50.38 -8.76 0zm-71.15 0l0 -61.34 7.18 0 40.57 50.38 -3.77 0 0 -50.38 8.77 0 0 61.34 -7.19 0 -40.57 -50.38 3.77 0 0 50.38 -8.76 0zm-27.16 0l0 -61.34 8.76 0 0 61.34 -8.76 0zm-97 0l27.78 -61.34 8.67 0 27.86 61.34 -9.2 0 -24.79 -56.43 3.5 0 -24.79 56.43 -9.03 0zm11.83 -15.34l2.37 -7.01 34.52 0 2.54 7.01 -39.43 0zm-43.98 15.34l-26.99 -61.34 9.46 0 24.8 56.61 -5.43 0 24.97 -56.61 8.76 0 -26.9 61.34 -8.67 0zm-68.44 0l0 -61.34 8.77 0 0 61.34 -8.77 0zm-63.7 0l0 -61.34 23.92 0c5.38,0 9.96,0.85 13.76,2.54 3.8,1.7 6.72,4.15 8.76,7.36 2.05,3.22 3.07,7.04 3.07,11.48 0,4.44 -1.02,8.25 -3.07,11.44 -2.04,3.18 -4.96,5.62 -8.76,7.31 -3.8,1.7 -8.38,2.54 -13.76,2.54l-19.1 0 3.95 -4.03 0 22.7 -8.77 0zm41.01 0l-15.6 -22.26 9.38 0 15.77 22.26 -9.55 0zm-32.24 -21.82l-3.95 -4.29 18.84 0c5.61,0 9.86,-1.22 12.75,-3.64 2.89,-2.42 4.34,-5.83 4.34,-10.21 0,-4.38 -1.45,-7.77 -4.34,-10.16 -2.89,-2.4 -7.14,-3.59 -12.75,-3.59l-18.84 0 3.95 -4.38 0 36.27zm-82.19 21.82l27.77 -61.34 8.68 0 27.86 61.34 -9.2 0 -24.79 -56.43 3.5 0 -24.8 56.43 -9.02 0zm11.83 -15.34l2.36 -7.01 34.53 0 2.54 7.01 -39.43 0zm-54.59 15.34l0 -61.34 8.76 0 0 53.71 33.21 0 0 7.63 -41.97 0zm-27.16 -61.34l8.76 0 0 61.34 -8.76 0 0 -61.34zm-35.22 61.34l-8.77 0 0 -61.34 8.77 0 0 61.34zm36.01 -27.34l-36.89 0 0 -7.62 36.89 0 0 7.62zm-81.31 28.04c-4.68,0 -9.15,-0.72 -13.41,-2.15 -4.26,-1.43 -7.62,-3.28 -10.08,-5.56l3.25 -6.84c2.33,2.05 5.31,3.74 8.93,5.08 3.62,1.35 7.39,2.02 11.31,2.02 3.56,0 6.45,-0.41 8.67,-1.23 2.22,-0.81 3.86,-1.94 4.91,-3.37 1.05,-1.43 1.57,-3.05 1.57,-4.86 0,-2.11 -0.68,-3.8 -2.05,-5.08 -1.38,-1.29 -3.16,-2.33 -5.35,-3.12 -2.19,-0.78 -4.6,-1.47 -7.23,-2.05 -2.63,-0.59 -5.27,-1.27 -7.93,-2.06 -2.66,-0.79 -5.08,-1.8 -7.27,-3.03 -2.19,-1.22 -3.96,-2.87 -5.3,-4.95 -1.34,-2.07 -2.02,-4.74 -2.02,-8.01 0,-3.16 0.84,-6.06 2.5,-8.72 1.67,-2.66 4.24,-4.79 7.71,-6.4 3.48,-1.6 7.9,-2.41 13.28,-2.41 3.56,0 7.09,0.47 10.6,1.4 3.5,0.94 6.54,2.28 9.11,4.03l-2.89 7.01c-2.63,-1.75 -5.4,-3.02 -8.33,-3.81 -2.92,-0.79 -5.75,-1.18 -8.49,-1.18 -3.45,0 -6.28,0.44 -8.5,1.31 -2.22,0.88 -3.84,2.05 -4.87,3.51 -1.02,1.46 -1.53,3.09 -1.53,4.91 0,2.16 0.69,3.88 2.06,5.17 1.37,1.28 3.15,2.3 5.34,3.06 2.19,0.76 4.6,1.45 7.23,2.06 2.63,0.61 5.27,1.3 7.93,2.06 2.66,0.76 5.08,1.75 7.27,2.98 2.2,1.23 3.96,2.86 5.31,4.91 1.34,2.04 2.01,4.67 2.01,7.88 0,3.1 -0.85,5.97 -2.54,8.63 -1.69,2.66 -4.31,4.79 -7.84,6.4 -3.54,1.6 -7.99,2.41 -13.36,2.41zm-45.04 -0.7l0 -61.34 8.76 0 0 61.34 -8.76 0zm-65.45 0l0 -23.49 2.01 5.44 -26.37 -43.29 9.37 0 22.17 36.54 -5.08 0 22.26 -36.54 8.67 0 -26.29 43.29 1.93 -5.44 0 23.49 -8.67 0zm-41.97 0l0 -61.34 8.76 0 0 61.34 -8.76 0zm-83.68 0l0 -61.34 7.19 0 27.51 46.35 -3.86 0 27.16 -46.35 7.19 0 0.09 61.34 -8.41 0 -0.09 -48.11 2.01 0 -24.18 40.66 -4.03 0 -24.36 -40.66 2.19 0 0 48.11 -8.41 0zm-52.05 0l0 -61.34 8.77 0 0 53.71 33.2 0 0 7.63 -41.97 0zm-27.16 0l0 -61.34 8.76 0 0 61.34 -8.76 0zm1460.54 -126.17c-4.74,0 -9.09,-0.78 -13.06,-2.32 -3.97,-1.55 -7.42,-3.74 -10.34,-6.57 -2.92,-2.84 -5.2,-6.15 -6.83,-9.95 -1.64,-3.8 -2.46,-7.97 -2.46,-12.53 0,-4.56 0.82,-8.73 2.46,-12.53 1.63,-3.8 3.93,-7.11 6.88,-9.94 2.95,-2.84 6.41,-5.03 10.38,-6.58 3.97,-1.54 8.35,-2.32 13.14,-2.32 4.85,0 9.29,0.79 13.32,2.37 4.03,1.58 7.45,3.94 10.25,7.1l-5.43 5.43c-2.51,-2.46 -5.24,-4.25 -8.19,-5.39 -2.95,-1.14 -6.15,-1.71 -9.6,-1.71 -3.5,0 -6.76,0.59 -9.77,1.75 -3.01,1.17 -5.61,2.81 -7.8,4.91 -2.19,2.1 -3.88,4.6 -5.08,7.49 -1.2,2.89 -1.79,6.03 -1.79,9.42 0,3.33 0.59,6.44 1.79,9.33 1.2,2.89 2.89,5.41 5.08,7.54 2.19,2.13 4.78,3.78 7.76,4.95 2.98,1.17 6.22,1.75 9.72,1.75 3.28,0 6.42,-0.51 9.42,-1.53 3.01,-1.03 5.8,-2.73 8.37,-5.13l5 6.66c-3.04,2.57 -6.59,4.51 -10.65,5.83 -4.06,1.31 -8.25,1.97 -12.57,1.97zm14.8 -8.94l0 -22.78 8.42 0 0 23.92 -8.42 -1.14zm-113.64 8.24l0 -61.34 7.19 0 40.56 50.39 -3.76 0 0 -50.39 8.76 0 0 61.34 -7.19 0 -40.56 -50.38 3.76 0 0 50.38 -8.76 0zm-27.16 0l0 -61.34 8.76 0 0 61.34 -8.76 0zm-71.15 0l0 -61.34 7.19 0 40.56 50.39 -3.76 0 0 -50.39 8.76 0 0 61.34 -7.19 0 -40.56 -50.38 3.76 0 0 50.38 -8.76 0zm-27.16 0l0 -61.34 8.76 0 0 61.34 -8.76 0zm-63.7 0l0 -61.34 23.92 0c5.37,0 9.96,0.85 13.76,2.55 3.79,1.69 6.71,4.14 8.76,7.36 2.04,3.21 3.06,7.03 3.06,11.47 0,4.44 -1.02,8.25 -3.06,11.44 -2.05,3.18 -4.97,5.62 -8.76,7.31 -3.8,1.7 -8.39,2.54 -13.76,2.54l-19.1 0 3.94 -4.03 0 22.7 -8.76 0zm41.01 0l-15.6 -22.26 9.37 0 15.78 22.26 -9.55 0zm-32.25 -21.82l-3.94 -4.29 18.84 0c5.6,0 9.85,-1.21 12.75,-3.64 2.89,-2.42 4.33,-5.83 4.33,-10.21 0,-4.38 -1.44,-7.77 -4.33,-10.16 -2.9,-2.4 -7.15,-3.59 -12.75,-3.59l-18.84 0 3.94 -4.38 0 36.27zm-82.19 21.82l27.78 -61.34 8.67 0 27.87 61.34 -9.2 0 -24.8 -56.43 3.51 0 -24.8 56.43 -9.03 0zm11.83 -15.34l2.37 -7.01 34.52 0 2.54 7.01 -39.43 0zm-54.58 15.34l0 -61.34 8.76 0 0 53.71 33.21 0 0 7.63 -41.97 0zm-73.43 0l27.78 -61.34 8.67 0 27.86 61.34 -9.2 0 -24.79 -56.43 3.5 0 -24.79 56.43 -9.03 0zm11.83 -15.34l2.36 -7.01 34.53 0 2.54 7.01 -39.43 0zm-39.08 16.04c-4.67,0 -9.14,-0.72 -13.41,-2.15 -4.26,-1.43 -7.62,-3.28 -10.07,-5.56l3.24 -6.84c2.34,2.05 5.32,3.74 8.94,5.09 3.62,1.34 7.39,2.01 11.3,2.01 3.56,0 6.46,-0.41 8.68,-1.23 2.21,-0.81 3.85,-1.94 4.9,-3.37 1.05,-1.43 1.58,-3.05 1.58,-4.86 0,-2.1 -0.69,-3.8 -2.06,-5.08 -1.37,-1.29 -3.15,-2.33 -5.34,-3.11 -2.2,-0.79 -4.6,-1.48 -7.23,-2.06 -2.63,-0.59 -5.28,-1.27 -7.93,-2.06 -2.66,-0.79 -5.08,-1.8 -7.28,-3.03 -2.19,-1.22 -3.95,-2.87 -5.3,-4.95 -1.34,-2.07 -2.01,-4.74 -2.01,-8.01 0,-3.16 0.83,-6.06 2.5,-8.72 1.66,-2.66 4.23,-4.79 7.71,-6.4 3.47,-1.6 7.9,-2.41 13.27,-2.41 3.56,0 7.1,0.47 10.6,1.4 3.51,0.94 6.54,2.28 9.12,4.04l-2.9 7c-2.63,-1.75 -5.4,-3.02 -8.32,-3.81 -2.92,-0.79 -5.75,-1.18 -8.5,-1.18 -3.45,0 -6.28,0.44 -8.5,1.31 -2.22,0.88 -3.84,2.05 -4.86,3.51 -1.02,1.46 -1.54,3.1 -1.54,4.91 0,2.16 0.69,3.88 2.06,5.17 1.38,1.28 3.16,2.3 5.35,3.06 2.19,0.76 4.6,1.45 7.23,2.06 2.63,0.61 5.27,1.3 7.93,2.06 2.65,0.76 5.08,1.75 7.27,2.98 2.19,1.23 3.96,2.86 5.3,4.91 1.34,2.04 2.02,4.67 2.02,7.88 0,3.1 -0.85,5.97 -2.54,8.63 -1.7,2.66 -4.31,4.79 -7.85,6.4 -3.53,1.61 -7.98,2.41 -13.36,2.41zm-91.3 -0.7l27.78 -61.34 8.67 0 27.86 61.34 -9.2 0 -24.79 -56.43 3.5 0 -24.79 56.43 -9.03 0zm11.83 -15.34l2.37 -7.01 34.52 0 2.54 7.01 -39.43 0zm-39.08 16.04c-4.67,0 -9.14,-0.72 -13.4,-2.15 -4.27,-1.43 -7.63,-3.28 -10.08,-5.56l3.24 -6.84c2.34,2.05 5.32,3.74 8.94,5.09 3.62,1.34 7.39,2.01 11.3,2.01 3.56,0 6.46,-0.41 8.68,-1.23 2.22,-0.81 3.85,-1.94 4.9,-3.37 1.05,-1.43 1.58,-3.05 1.58,-4.86 0,-2.1 -0.69,-3.8 -2.06,-5.08 -1.37,-1.29 -3.15,-2.33 -5.34,-3.11 -2.19,-0.79 -4.6,-1.48 -7.23,-2.06 -2.63,-0.59 -5.27,-1.27 -7.93,-2.06 -2.66,-0.79 -5.08,-1.8 -7.27,-3.03 -2.2,-1.22 -3.96,-2.87 -5.31,-4.95 -1.34,-2.07 -2.01,-4.74 -2.01,-8.01 0,-3.16 0.83,-6.06 2.5,-8.72 1.66,-2.66 4.23,-4.79 7.71,-6.4 3.47,-1.6 7.9,-2.41 13.27,-2.41 3.56,0 7.1,0.47 10.6,1.4 3.51,0.94 6.55,2.28 9.12,4.04l-2.9 7c-2.62,-1.75 -5.4,-3.02 -8.32,-3.81 -2.92,-0.79 -5.75,-1.18 -8.5,-1.18 -3.45,0 -6.28,0.44 -8.5,1.31 -2.22,0.88 -3.84,2.05 -4.86,3.51 -1.02,1.46 -1.53,3.1 -1.53,4.91 0,2.16 0.68,3.88 2.05,5.17 1.38,1.28 3.16,2.3 5.35,3.06 2.19,0.76 4.6,1.45 7.23,2.06 2.63,0.61 5.27,1.3 7.93,2.06 2.66,0.76 5.08,1.75 7.27,2.98 2.19,1.23 3.96,2.86 5.3,4.91 1.34,2.04 2.02,4.67 2.02,7.88 0,3.1 -0.85,5.97 -2.54,8.63 -1.7,2.66 -4.31,4.79 -7.85,6.4 -3.53,1.61 -7.98,2.41 -13.36,2.41zm-54.41 0c-4.67,0 -9.14,-0.72 -13.41,-2.15 -4.26,-1.43 -7.62,-3.28 -10.07,-5.56l3.24 -6.84c2.34,2.05 5.32,3.74 8.94,5.09 3.62,1.34 7.39,2.01 11.3,2.01 3.56,0 6.45,-0.41 8.67,-1.23 2.22,-0.81 3.86,-1.94 4.91,-3.37 1.05,-1.43 1.58,-3.05 1.58,-4.86 0,-2.1 -0.69,-3.8 -2.06,-5.08 -1.37,-1.29 -3.16,-2.33 -5.35,-3.11 -2.19,-0.79 -4.6,-1.48 -7.22,-2.06 -2.63,-0.59 -5.28,-1.27 -7.93,-2.06 -2.66,-0.79 -5.09,-1.8 -7.28,-3.03 -2.19,-1.22 -3.95,-2.87 -5.3,-4.95 -1.34,-2.07 -2.01,-4.74 -2.01,-8.01 0,-3.16 0.83,-6.06 2.49,-8.72 1.67,-2.66 4.24,-4.79 7.71,-6.4 3.48,-1.6 7.91,-2.41 13.28,-2.41 3.56,0 7.1,0.47 10.6,1.4 3.51,0.94 6.54,2.28 9.11,4.04l-2.89 7c-2.63,-1.75 -5.4,-3.02 -8.32,-3.81 -2.92,-0.79 -5.76,-1.18 -8.5,-1.18 -3.45,0 -6.28,0.44 -8.5,1.31 -2.22,0.88 -3.84,2.05 -4.86,3.51 -1.02,1.46 -1.54,3.1 -1.54,4.91 0,2.16 0.69,3.88 2.06,5.17 1.38,1.28 3.16,2.3 5.35,3.06 2.19,0.76 4.6,1.45 7.23,2.06 2.62,0.61 5.27,1.3 7.93,2.06 2.65,0.76 5.08,1.75 7.27,2.98 2.19,1.23 3.96,2.86 5.3,4.91 1.34,2.04 2.01,4.67 2.01,7.88 0,3.1 -0.84,5.97 -2.54,8.63 -1.69,2.66 -4.3,4.79 -7.84,6.4 -3.53,1.61 -7.99,2.41 -13.36,2.41zm-91.3 -0.7l27.78 -61.34 8.67 0 27.86 61.34 -9.2 0 -24.79 -56.43 3.5 0 -24.8 56.43 -9.02 0zm11.83 -15.34l2.36 -7.01 34.53 0 2.54 7.01 -39.43 0zm-45.13 16.04c-8.06,0 -14.39,-2.31 -19.01,-6.92 -4.61,-4.62 -6.92,-11.36 -6.92,-20.24l0 -34.88 8.76 0 0 34.53c0,6.83 1.51,11.82 4.51,14.98 3.01,3.15 7.26,4.73 12.75,4.73 5.55,0 9.83,-1.58 12.84,-4.73 3.01,-3.16 4.51,-8.15 4.51,-14.98l0 -34.53 8.5 0 0 34.88c0,8.88 -2.29,15.62 -6.88,20.24 -4.58,4.61 -10.94,6.92 -19.06,6.92zm-109.08 -0.7l0 -61.34 7.18 0 27.51 46.35 -3.85 0 27.16 -46.35 7.19 0 0.08 61.34 -8.41 0 -0.08 -48.11 2.01 0 -24.18 40.66 -4.03 0 -24.36 -40.66 2.19 0 0 48.11 -8.41 0zm-107.25 0l0 -61.34 7.19 0 27.51 46.35 -3.86 0 27.17 -46.35 7.18 0 0.09 61.34 -8.41 0 -0.09 -48.11 2.01 0 -24.18 40.66 -4.03 0 -24.36 -40.66 2.19 0 0 48.11 -8.41 0zm-27.16 0l0 -61.34 8.76 0 0 61.34 -8.76 0zm-52.05 0l0 -61.34 8.76 0 0 53.71 33.21 0 0 7.63 -41.97 0zm-13.84 -65.02l-4.38 17.79 -1.05 -5.08c1.69,0 3.09,0.52 4.2,1.58 1.11,1.05 1.67,2.45 1.67,4.2 0,1.75 -0.56,3.18 -1.67,4.29 -1.11,1.11 -2.48,1.67 -4.12,1.67 -1.69,0 -3.09,-0.57 -4.2,-1.71 -1.11,-1.14 -1.67,-2.55 -1.67,-4.25 0,-0.58 0.05,-1.14 0.14,-1.66 0.08,-0.53 0.24,-1.16 0.48,-1.89 0.23,-0.73 0.55,-1.62 0.96,-2.67l4.12 -12.27 5.52 0zm-76.58 65.02l27.77 -61.34 8.68 0 27.86 61.34 -9.2 0 -24.79 -56.43 3.5 0 -24.8 56.43 -9.02 0zm11.83 -15.34l2.36 -7.01 34.53 0 2.54 7.01 -39.43 0zm-38.73 15.34l0 -53.71 -21.03 0 0 -7.63 50.73 0 0 7.63 -21.03 0 0 53.71 -8.67 0zm-77.63 0l0 -23.48 2.01 5.43 -26.37 -43.29 9.38 0 22.16 36.54 -5.08 0 22.26 -36.54 8.67 0 -26.28 43.29 1.92 -5.43 0 23.48 -8.67 0zm-41.97 0l0 -61.34 8.76 0 0 61.34 -8.76 0zm-52.05 0l0 -61.34 8.76 0 0 53.71 33.21 0 0 7.63 -41.97 0zm-45.91 0.7c-4.67,0 -9.01,-0.79 -13.01,-2.37 -4,-1.57 -7.46,-3.78 -10.38,-6.61 -2.92,-2.84 -5.2,-6.15 -6.84,-9.95 -1.63,-3.79 -2.45,-7.94 -2.45,-12.44 0,-4.5 0.82,-8.64 2.45,-12.44 1.64,-3.8 3.92,-7.11 6.84,-9.95 2.92,-2.83 6.36,-5.03 10.33,-6.61 3.98,-1.58 8.33,-2.37 13.06,-2.37 4.67,0 8.98,0.78 12.92,2.32 3.95,1.55 7.39,3.74 10.34,6.58 2.95,2.83 5.23,6.14 6.84,9.94 1.6,3.8 2.41,7.97 2.41,12.53 0,4.56 -0.81,8.73 -2.41,12.53 -1.61,3.8 -3.89,7.11 -6.84,9.95 -2.95,2.83 -6.39,5.02 -10.34,6.57 -3.94,1.54 -8.25,2.32 -12.92,2.32zm0 -7.8c3.39,0 6.53,-0.58 9.42,-1.75 2.89,-1.17 5.4,-2.82 7.53,-4.95 2.14,-2.13 3.8,-4.63 5,-7.49 1.2,-2.87 1.79,-5.99 1.79,-9.38 0,-3.39 -0.59,-6.51 -1.79,-9.37 -1.2,-2.87 -2.86,-5.36 -5,-7.5 -2.13,-2.13 -4.64,-3.78 -7.53,-4.95 -2.89,-1.16 -6.03,-1.75 -9.42,-1.75 -3.45,0 -6.62,0.59 -9.51,1.75 -2.89,1.17 -5.41,2.82 -7.58,4.95 -2.16,2.14 -3.84,4.63 -5.03,7.5 -1.2,2.86 -1.8,5.98 -1.8,9.37 0,3.39 0.6,6.51 1.8,9.38 1.19,2.86 2.87,5.36 5.03,7.49 2.17,2.13 4.69,3.78 7.58,4.95 2.89,1.17 6.06,1.75 9.51,1.75zm-397.42 -210.13c-0.3,0.03 -0.53,0.03 -0.82,0.03 -2.7,-0.16 -4.88,-3.16 -4.88,-6.08 0,-2.88 2.18,-4.57 4.88,-4.44 0.29,0.03 0.52,0.03 0.82,0.12 -2.33,0.35 -4.1,2.13 -4.1,4.73 0,2.6 1.77,5.2 4.1,5.64zm2.38 -0.19c-0.18,-0.13 -0.35,-0.28 -0.58,-0.41 -0.18,0.19 -0.35,0.34 -0.58,0.5 0.06,-0.28 0.14,-0.5 0.2,-0.72 -0.17,-0.16 -0.35,-0.31 -0.58,-0.47l0.73 0c0.05,-0.28 0.14,-0.5 0.2,-0.72 0.06,0.22 0.14,0.47 0.2,0.69 0.26,0 0.5,0 0.73,-0.03 -0.18,0.16 -0.35,0.34 -0.58,0.5 0.11,0.19 0.2,0.44 0.26,0.66zm4.01 -0.47c-0.17,-0.13 -0.35,-0.22 -0.58,-0.35 -0.18,0.16 -0.35,0.35 -0.58,0.54 0.06,-0.29 0.14,-0.54 0.2,-0.79 -0.17,-0.12 -0.35,-0.21 -0.58,-0.37 0.26,-0.03 0.49,-0.03 0.73,-0.06 0.05,-0.29 0.14,-0.54 0.2,-0.79 0.06,0.22 0.14,0.47 0.26,0.69 0.2,-0.03 0.47,-0.06 0.67,-0.12 -0.17,0.15 -0.35,0.34 -0.58,0.53 0.12,0.28 0.17,0.5 0.26,0.72zm-0.23 -4.92c0.06,0.22 0.14,0.47 0.2,0.69 -0.17,-0.12 -0.35,-0.22 -0.58,-0.34 -0.17,0.18 -0.35,0.34 -0.58,0.53 0.06,-0.22 0.14,-0.5 0.2,-0.78 -0.17,-0.13 -0.35,-0.22 -0.58,-0.35 0.26,-0.03 0.49,-0.06 0.73,-0.12 0.06,-0.22 0.14,-0.5 0.2,-0.78 0.06,0.21 0.15,0.47 0.26,0.68 0.2,-0.03 0.47,-0.06 0.67,-0.12 -0.11,0.25 -0.29,0.44 -0.52,0.59zm4.27 4.04c-0.2,-0.12 -0.41,-0.19 -0.61,-0.31 -0.17,0.19 -0.35,0.37 -0.58,0.56 0.06,-0.22 0.14,-0.5 0.2,-0.78 -0.17,-0.13 -0.35,-0.19 -0.58,-0.31 0.26,-0.04 0.5,-0.13 0.73,-0.16 0.06,-0.28 0.14,-0.53 0.2,-0.81 0.06,0.21 0.17,0.46 0.26,0.68 0.2,-0.06 0.47,-0.12 0.67,-0.18 -0.17,0.18 -0.35,0.37 -0.58,0.62 0.09,0.22 0.17,0.47 0.29,0.69zm-0.26 -4.88c0.06,0.22 0.14,0.47 0.26,0.66 -0.2,-0.07 -0.41,-0.19 -0.61,-0.29 -0.18,0.19 -0.35,0.38 -0.58,0.57 0.06,-0.28 0.14,-0.54 0.2,-0.78 -0.17,-0.13 -0.35,-0.22 -0.58,-0.35 0.26,-0.03 0.49,-0.06 0.73,-0.16 0.05,-0.28 0.14,-0.53 0.2,-0.78 0.06,0.22 0.17,0.44 0.26,0.66 0.2,-0.03 0.47,-0.12 0.67,-0.19 -0.17,0.28 -0.35,0.47 -0.55,0.66zm0 -4.23c0.06,0.22 0.14,0.47 0.26,0.69 -0.2,-0.13 -0.41,-0.19 -0.61,-0.31 -0.18,0.18 -0.35,0.37 -0.58,0.56 0.06,-0.22 0.14,-0.5 0.2,-0.78 -0.17,-0.13 -0.35,-0.19 -0.58,-0.32 0.26,-0.06 0.49,-0.12 0.73,-0.15 0.05,-0.28 0.14,-0.53 0.2,-0.82 0.06,0.22 0.17,0.47 0.26,0.69 0.2,-0.06 0.47,-0.12 0.67,-0.19 -0.17,0.25 -0.35,0.44 -0.55,0.63zm4.24 7.95c-0.2,-0.06 -0.38,-0.15 -0.61,-0.28 -0.17,0.22 -0.35,0.44 -0.58,0.63 0.06,-0.28 0.14,-0.5 0.26,-0.78 -0.2,-0.13 -0.38,-0.19 -0.61,-0.32 0.26,-0.03 0.49,-0.12 0.73,-0.19 0.05,-0.28 0.14,-0.53 0.2,-0.81 0.06,0.22 0.17,0.47 0.26,0.66 0.2,-0.03 0.47,-0.13 0.67,-0.19 -0.17,0.19 -0.35,0.44 -0.58,0.63 0.09,0.25 0.15,0.47 0.26,0.65zm-0.23 -4.82c0.06,0.19 0.14,0.44 0.26,0.66 -0.2,-0.13 -0.38,-0.19 -0.61,-0.28 -0.17,0.19 -0.35,0.37 -0.58,0.62 0.06,-0.28 0.14,-0.53 0.26,-0.81 -0.2,-0.06 -0.38,-0.19 -0.61,-0.28 0.26,-0.06 0.49,-0.16 0.73,-0.22 0.05,-0.22 0.14,-0.5 0.2,-0.78 0.06,0.19 0.17,0.44 0.26,0.66 0.2,-0.07 0.47,-0.16 0.67,-0.22 -0.2,0.21 -0.38,0.4 -0.58,0.65zm0 -4.22c0.06,0.21 0.14,0.47 0.26,0.65 -0.2,-0.06 -0.38,-0.18 -0.61,-0.28 -0.17,0.19 -0.35,0.44 -0.58,0.63 0.06,-0.28 0.14,-0.5 0.26,-0.78 -0.2,-0.13 -0.38,-0.19 -0.61,-0.32 0.26,-0.03 0.49,-0.12 0.73,-0.19 0.05,-0.28 0.14,-0.53 0.2,-0.81 0.06,0.22 0.17,0.47 0.26,0.66 0.2,-0.03 0.47,-0.13 0.67,-0.19 -0.2,0.19 -0.38,0.41 -0.58,0.63zm4.24 7.79c-0.2,-0.06 -0.4,-0.16 -0.61,-0.28 -0.17,0.22 -0.35,0.44 -0.58,0.66 0.06,-0.28 0.15,-0.54 0.26,-0.82 -0.2,-0.06 -0.4,-0.19 -0.61,-0.28 0.26,-0.06 0.5,-0.15 0.73,-0.22 0.06,-0.28 0.14,-0.53 0.2,-0.81 0.12,0.22 0.18,0.47 0.26,0.69 0.21,-0.07 0.47,-0.16 0.73,-0.22 -0.2,0.19 -0.38,0.44 -0.61,0.62 0.06,0.22 0.15,0.41 0.23,0.66zm-0.26 -4.85c0.06,0.19 0.18,0.44 0.26,0.66 -0.2,-0.13 -0.4,-0.19 -0.61,-0.29 -0.17,0.19 -0.35,0.44 -0.58,0.63 0.06,-0.28 0.15,-0.53 0.26,-0.78 -0.2,-0.13 -0.4,-0.19 -0.61,-0.28 0.26,-0.07 0.5,-0.16 0.73,-0.22 0.06,-0.28 0.14,-0.53 0.2,-0.82 0.12,0.22 0.18,0.44 0.26,0.66 0.21,-0.06 0.47,-0.15 0.73,-0.22l-0.64 0.66zm0 -4.23c0.06,0.22 0.18,0.41 0.26,0.66 -0.2,-0.06 -0.4,-0.16 -0.61,-0.28 -0.17,0.22 -0.35,0.44 -0.58,0.66 0.06,-0.29 0.15,-0.54 0.26,-0.82 -0.2,-0.06 -0.4,-0.19 -0.61,-0.28 0.26,-0.06 0.5,-0.16 0.73,-0.22 0.06,-0.28 0.14,-0.53 0.2,-0.81 0.12,0.22 0.18,0.47 0.26,0.69 0.21,-0.07 0.47,-0.16 0.73,-0.22 -0.23,0.18 -0.44,0.43 -0.64,0.62zm-34.53 351.46c-3.78,-7.98 -10.95,-13.49 -10.95,-13.49 7.38,3.56 10.17,8.67 10.17,8.67 2.99,-9.46 12.87,-17.44 12.87,-17.44 -9.56,11.3 -12.09,22.26 -12.09,22.26zm-255.13 123.41l-1.71 -12.05 -4.25 -7.14 0.76 5.29 10.93 78.15c0,0 0.49,4.13 -1.95,4.32l-64.9 12.86 0 4.67 66.73 -13.59c0,0 3.93,-0.81 3.4,-6.64l-9.01 -65.87zm-2.79 55.67l-12.7 -90.95 -4.1 -6.89 13.52 95.99c0,0 0.87,5.29 -2.41,5.04l-52.64 10.27 0 4.98 55.92 -11.68c0.03,0 3.43,-1.72 2.41,-6.76zm-11.94 -10.52l-14.91 -104.29 -3.99 -6.7 15.61 109.14c0,0 1.25,5.79 -2.79,5.61l-40.31 8.04 0 5.17 43.28 -9.3c0.03,0 4.12,-0.72 3.11,-7.67zm527.4 -45.15l1.72 -12.05 4.24 -7.14 -0.75 5.29 -10.93 78.15c0,0 -0.5,4.13 1.95,4.32l64.9 12.86 0 4.67 -66.73 -13.59c0,0 -3.93,-0.81 -3.41,-6.64l9.01 -65.87zm2.8 55.67l12.7 -90.95 4.09 -6.89 -13.51 95.99c0,0 -0.87,5.29 2.41,5.04l52.64 10.27 0 4.98 -55.92 -11.68c-0.03,0 -3.43,-1.72 -2.41,-6.76zm11.94 -10.52l14.91 -104.29 3.98 -6.7 -15.6 109.14c0,0 -1.25,5.79 2.79,5.61l40.31 8.04 0 5.17 -43.28 -9.3c-0.03,0 -4.13,-0.72 -3.11,-7.67zm-434.55 12.9c-2.52,0.62 -5.17,1.31 -7.73,2.03 -17.23,4.29 -34.12,9.27 -34.12,9.27 -1.54,-7.29 -3.31,-14.53 -4.97,-21.63 -2.64,-11.05 -5.55,-21.79 -8.4,-32.22 -7.73,-28.18 -16.13,-53.85 -24.18,-76.17 -2.64,-7.42 -5.17,-14.43 -7.73,-20.94 -6.19,-16.03 -11.92,-29.78 -16.77,-40.86 -2.76,-6.45 -5.32,-12.05 -7.41,-16.53 -4.77,-10.33 -7.62,-15.94 -7.62,-15.94l5.06 -1.91 5 -1.94 10.67 -4.19 1.45 -0.53c2.01,5.6 3.95,11.49 5.96,17.75 9.5,28.58 19.76,62.64 28.95,94.55 0,0.09 0,0.18 0.11,0.18 6.63,23.33 12.82,45.68 17.88,63.97 7.61,27.92 12.7,46.83 12.7,46.83 6.16,-2.53 14.68,-3.85 22.64,-4.51 2.76,-0.25 5.52,-0.34 8.05,-0.34 8.37,-0.44 14.68,-0.09 14.68,-0.09 -4.16,0.87 -9.13,2.03 -14.22,3.22zm31.05 -20.95c-13.69,-0.18 -25.49,0 -34.13,0.44 -3.19,0.09 -5.87,0.19 -8.05,0.35 -3.86,0.18 -6.1,0.4 -6.1,0.4 -1.98,-9.86 -3.95,-19.44 -6.16,-28.77 -21.42,-96.74 -45.17,-158.63 -57.55,-187.22 -5.41,-12.36 -8.6,-18.47 -8.6,-18.47l5.55 -2.03 14.88 -5.36c21.97,72.73 36.21,123.67 45.37,158.92 0,0.25 0,0.44 0.14,0.53 6.17,24.33 10.15,41.08 12.47,52.44 3.61,17.1 3.87,22.26 3.87,22.26 0.99,-0.09 2.09,-0.22 3.11,-0.22 11.57,-1.06 23.19,-1.18 34.12,-0.62 42.81,2.16 78.18,13.55 82.81,15.15 -27.3,-5.76 -57.35,-7.58 -81.73,-7.8zm259.02 0.1c-23.19,0.44 -50.69,2.38 -75.74,7.64 4.42,-1.51 36.65,-12.06 76.82,-14.72 10.6,-0.87 21.88,-1.06 33.36,-0.18 2.65,0 5.32,0.18 8.05,0.53 0.55,0 0.99,0 1.54,0.09 0,0 0.35,-5.17 3.87,-22.26 5.96,-28.14 20.78,-88.75 58.1,-211.89l8.6 3.1 11.83 4.32c0,0 -7.76,14.72 -19.21,44.61 0,0.1 0,0.1 0,0.1 -13.02,33.97 -30.69,87.35 -47.03,160.86 -2,9.36 -4.1,18.91 -6.07,28.89 0,0 -4.65,-0.31 -12.62,-0.62 -2.41,-0.19 -5.17,-0.19 -8.16,-0.32 -9.04,-0.37 -20.52,-0.56 -33.34,-0.15zm154.94 -190.63c-2.09,4.1 -8.19,16.65 -16.36,35.78 -2.41,5.61 -4.97,11.74 -7.61,18.38 -5.53,13.46 -11.37,29.05 -17.53,46.43 -2.64,7.61 -5.32,15.68 -8.05,23.98 -4.54,13.96 -8.95,28.77 -13.25,44.36 -4.77,17.1 -9.28,35.13 -13.37,53.85 0,0 -1.43,-0.44 -3.96,-1.06 -6.94,-2.04 -22.29,-6.33 -36.44,-9.8 -2.65,-0.63 -5.32,-1.29 -7.82,-1.94 -2.76,-0.63 -5.41,-1.16 -7.85,-1.73 0,0 3.2,-0.18 8.05,-0.09 2.3,0 5.09,0 8.17,0.19 9.5,0.34 21.22,1.5 29.3,4.82 0,0 4.97,-18.91 12.67,-46.84 1.1,-4.1 2.21,-8.39 3.46,-12.77 8.92,-32.37 20.55,-73.42 32.11,-110.8 2.85,-9.36 5.76,-18.5 8.61,-27.2 2.85,-9.02 5.87,-17.75 8.6,-25.67l5.87 2.25 4.97 1.94 10.73 4.19 0.55 0.19c-0.09,0 -0.29,0.57 -0.85,1.54zm-39.23 -128.36c0.4,-0.04 0.75,-0.16 1.04,-0.35 0.3,-0.19 0.5,-0.44 0.64,-0.75 0.15,-0.31 0.26,-0.69 0.35,-1.1 0.06,-0.34 0.09,-0.68 0.06,-1 -0.03,-0.34 -0.14,-0.66 -0.35,-0.94 -0.2,-0.31 -0.49,-0.56 -0.9,-0.81 -0.41,-0.25 -0.96,-0.44 -1.6,-0.6 -1.04,-0.25 -1.57,-0.37 -2.64,-0.62 -0.44,2.13 -0.64,3.19 -1.08,5.32 1.19,0.28 1.77,0.41 2.97,0.69 0.58,0.16 1.1,0.19 1.51,0.16zm-41.57 -13.06c-1.33,2.57 -2.03,3.88 -3.37,6.45 1.78,0.34 2.65,0.5 4.42,0.88 -0.41,-2.95 -0.61,-4.42 -1.05,-7.33zm-36.73 -2.54c0.4,-0.06 0.75,-0.22 1.01,-0.4 0.26,-0.22 0.47,-0.47 0.58,-0.82 0.15,-0.31 0.24,-0.69 0.3,-1.13 0.05,-0.34 0.05,-0.68 -0.03,-1 -0.06,-0.34 -0.21,-0.62 -0.41,-0.9 -0.2,-0.29 -0.52,-0.54 -0.96,-0.73 -0.43,-0.21 -0.96,-0.37 -1.63,-0.47 -1.07,-0.15 -1.59,-0.25 -2.64,-0.4 -0.29,2.16 -0.44,3.22 -0.73,5.38 1.19,0.19 1.8,0.28 3,0.47 0.58,0.07 1.1,0.07 1.51,0zm-18.72 -6.82c-1.22,2.66 -1.83,3.97 -3.05,6.64 1.77,0.25 2.67,0.37 4.44,0.62 -0.58,-2.91 -0.84,-4.35 -1.39,-7.26zm-33.63 -4.16c-1.16,2.69 -1.71,4.03 -2.88,6.73 1.78,0.19 2.68,0.28 4.45,0.47 -0.61,-2.88 -0.93,-4.32 -1.57,-7.2zm-70.34 -5.23c-0.98,2.75 -1.48,4.13 -2.47,6.92 1.81,0.06 2.68,0.09 4.48,0.18 -0.81,-2.85 -1.22,-4.25 -2.01,-7.1zm-30.16 9.36c0.81,-1.16 1.22,-2.82 1.25,-4.98 0.02,-2.16 -0.35,-3.82 -1.14,-5.01 -0.78,-1.19 -2,-1.78 -3.63,-1.78 -1.63,0 -2.85,0.56 -3.66,1.75 -0.82,1.16 -1.2,2.85 -1.22,4.98 0,2.16 0.37,3.85 1.16,5.01 0.78,1.16 1.97,1.75 3.6,1.78 1.63,-0.03 2.85,-0.59 3.64,-1.75zm-73.6 -8.36c-0.75,2.85 -1.13,4.29 -1.86,7.14 1.78,-0.13 2.68,-0.16 4.48,-0.25 -1.05,-2.76 -1.57,-4.14 -2.62,-6.89zm-57.57 5.04c-0.61,2.88 -0.93,4.32 -1.52,7.23 1.78,-0.22 2.68,-0.31 4.45,-0.5 -1.16,-2.72 -1.74,-4.07 -2.93,-6.73zm-92.49 14.87c-0.4,2.94 -0.58,4.41 -0.96,7.33 1.78,-0.38 2.65,-0.57 4.42,-0.91 -1.36,-2.57 -2.06,-3.85 -3.46,-6.42zm-70.07 27.46c0.49,-1.35 0.49,-3.07 0,-5.17 -0.5,-2.1 -1.28,-3.6 -2.33,-4.51 -1.05,-0.91 -2.38,-1.16 -3.98,-0.69 -1.6,0.47 -2.65,1.38 -3.14,2.73 -0.49,1.38 -0.46,3.07 0.03,5.16 0.52,2.1 1.31,3.6 2.35,4.51 1.05,0.91 2.36,1.13 3.93,0.69 1.57,-0.44 2.64,-1.38 3.14,-2.72zm432.94 -71.32c-1.25,2.66 -1.88,3.97 -3.11,6.64 1.84,0.25 2.74,0.37 4.57,0.65 -0.58,-2.94 -0.87,-4.38 -1.46,-7.29zm-57.25 -4.07c0.43,-0.38 0.67,-0.91 0.72,-1.66 0.06,-0.81 -0.14,-1.38 -0.64,-1.79 -0.49,-0.37 -1.33,-0.62 -2.52,-0.72 -1.17,-0.09 -1.72,-0.15 -2.88,-0.25 -0.12,1.82 -0.21,2.73 -0.32,4.54 1.39,0.13 2.06,0.19 3.46,0.28 1.02,0.1 1.77,-0.06 2.18,-0.4zm-1.34 8.89c0.44,-0.09 0.81,-0.25 1.08,-0.47 0.29,-0.22 0.49,-0.5 0.61,-0.81 0.14,-0.32 0.2,-0.69 0.23,-1.1 0.06,-0.84 -0.12,-1.5 -0.52,-1.97 -0.41,-0.47 -1.17,-0.75 -2.3,-0.85 -1.48,-0.12 -2.24,-0.18 -3.72,-0.31 -0.14,2.13 -0.23,3.16 -0.38,5.29 1.31,0.09 1.98,0.16 3.32,0.28 0.72,0.06 1.24,0.03 1.68,-0.06zm-35.17 -9.67c0.47,-0.13 0.85,-0.32 1.11,-0.54 0.29,-0.25 0.46,-0.53 0.58,-0.9 0.11,-0.38 0.17,-0.79 0.2,-1.23 0.03,-0.47 0,-0.87 -0.09,-1.22 -0.08,-0.34 -0.26,-0.65 -0.52,-0.9 -0.26,-0.25 -0.61,-0.44 -1.05,-0.6 -0.43,-0.16 -1.01,-0.25 -1.71,-0.28 -1.13,-0.06 -1.69,-0.09 -2.82,-0.16 -0.09,2.32 -0.14,3.48 -0.23,5.8 1.13,0.06 1.71,0.09 2.85,0.15 0.67,0.03 1.25,0 1.68,-0.12zm-50.48 -1.85c0.4,-0.13 0.72,-0.31 0.99,-0.56 0.23,-0.26 0.4,-0.54 0.49,-0.88 0.09,-0.35 0.14,-0.72 0.14,-1.16 0,-0.34 -0.05,-0.69 -0.14,-1 -0.12,-0.32 -0.29,-0.6 -0.55,-0.85 -0.26,-0.25 -0.61,-0.43 -1.08,-0.59 -0.46,-0.13 -1.02,-0.22 -1.71,-0.22 -1.11,0 -1.66,0 -2.76,0 0,2.19 0,3.26 0,5.45 1.22,0 1.85,0 3.08,0 0.61,0 1.13,-0.07 1.54,-0.19zm-41.97 6.73c0.78,-1.19 1.13,-2.88 1.07,-5.04 -0.05,-2.16 -0.52,-3.79 -1.36,-4.95 -0.85,-1.16 -2.12,-1.69 -3.81,-1.63 -1.69,0.07 -2.91,0.69 -3.69,1.91 -0.79,1.22 -1.14,2.88 -1.05,5.04 0.09,2.17 0.55,3.82 1.4,4.95 0.84,1.13 2.09,1.66 3.75,1.6 1.68,-0.06 2.9,-0.69 3.69,-1.88zm-94.78 -0.28c0.35,-0.44 0.49,-1.04 0.4,-1.79 -0.08,-0.78 -0.4,-1.34 -0.93,-1.59 -0.55,-0.28 -1.42,-0.35 -2.61,-0.19 -1.16,0.15 -1.72,0.22 -2.88,0.38 0.2,1.81 0.29,2.69 0.49,4.5 1.37,-0.18 2.07,-0.25 3.46,-0.43 1.02,-0.13 1.72,-0.44 2.07,-0.88zm0.29 9.01c0.4,-0.18 0.75,-0.4 0.99,-0.68 0.23,-0.29 0.38,-0.6 0.46,-0.94 0.06,-0.35 0.09,-0.72 0.06,-1.13 -0.09,-0.85 -0.38,-1.44 -0.87,-1.82 -0.5,-0.37 -1.28,-0.5 -2.41,-0.37 -1.49,0.18 -2.21,0.28 -3.7,0.47 0.24,2.09 0.35,3.16 0.59,5.26 1.3,-0.16 1.97,-0.26 3.28,-0.41 0.67,-0.06 1.19,-0.19 1.6,-0.38zm-39.01 4.17c0.64,-1.29 0.82,-3.01 0.53,-5.14 -0.29,-2.12 -0.93,-3.72 -1.89,-4.72 -0.99,-1.04 -2.3,-1.41 -3.96,-1.16 -1.65,0.25 -2.81,1.06 -3.45,2.35 -0.64,1.28 -0.82,3 -0.5,5.13 0.32,2.13 0.96,3.73 1.92,4.73 0.96,1.03 2.27,1.37 3.92,1.13 1.63,-0.25 2.79,-1.04 3.43,-2.32z"/>
 </g>
</svg>
