<?xml version="1.0" encoding="UTF-8"?>
<!DOCTYPE svg PUBLIC "-//W3C//DTD SVG 1.1//EN" "http://www.w3.org/Graphics/SVG/1.1/DTD/svg11.dtd">
<!-- Creator: CorelDRAW -->
<svg xmlns="http://www.w3.org/2000/svg" xml:space="preserve" width="65px" height="65px" version="1.1" style="shape-rendering:geometricPrecision; text-rendering:geometricPrecision; image-rendering:optimizeQuality; fill-rule:evenodd; clip-rule:evenodd"
viewBox="0 0 8.84 9.36"
 xmlns:xlink="http://www.w3.org/1999/xlink"
 xmlns:xodm="http://www.corel.com/coreldraw/odm/2003">
 <defs>
  <style type="text/css">
   <![CDATA[
    .fil0 {fill:white;fill-rule:nonzero}
   ]]>
  </style>
 </defs>
 <g id="Layer_x0020_1">
  <metadata id="CorelCorpID_0Corel-Layer"/>
  <path class="fil0" d="M1.97 2.33c-0.02,-0.01 -0.03,-0.02 -0.04,-0.03 -0.02,-0.01 -0.03,-0.02 -0.04,-0.04 0,-0.01 -0.01,-0.03 -0.01,-0.05 -0.01,-0.03 -0.01,-0.05 0,-0.06 0,-0.02 0.01,-0.04 0.02,-0.05 0,-0.02 0.02,-0.03 0.03,-0.04 0.02,-0.01 0.03,-0.01 0.05,-0.02 0.02,0 0.04,0 0.06,0.01 0.01,0 0.03,0.01 0.04,0.02 0.01,0.01 0.02,0.02 0.03,0.04 0.01,0.01 0.01,0.03 0.02,0.06 0,0.02 0,0.04 0,0.06 -0.01,0.01 -0.01,0.03 -0.02,0.04 -0.01,0.02 -0.02,0.03 -0.04,0.04 -0.01,0.01 -0.03,0.01 -0.05,0.02 -0.02,0 -0.03,0 -0.05,0zm2.43 -1.15l0 -1.12c0,0 -0.03,-0.02 0.02,-0.06 0,0 0.05,0.04 0.02,0.06l0 1.12 0 0c0.89,0 1.96,0.08 2.95,0.37 0,0 0.94,0.23 1.45,0.79l0 0.34c-0.09,-0.1 -0.19,-0.19 -0.29,-0.26 -0.05,-0.04 -0.1,-0.07 -0.15,-0.1 -0.02,-0.02 -0.04,-0.03 -0.06,-0.04l0 0c-0.06,-0.03 -0.11,-0.06 -0.16,-0.09 -0.02,-0.01 -0.04,-0.02 -0.06,-0.03 -0.06,-0.03 -0.11,-0.05 -0.17,-0.07 -0.2,-0.09 -0.38,-0.15 -0.48,-0.18 -0.05,-0.01 -0.08,-0.02 -0.08,-0.02 -0.01,0 -0.02,-0.01 -0.03,-0.01 -0.15,-0.04 -0.3,-0.08 -0.45,-0.11 -0.84,-0.2 -1.72,-0.26 -2.47,-0.25l-0.02 0c-0.77,-0.01 -1.68,0.05 -2.55,0.26 -0.13,0.03 -0.27,0.07 -0.4,0.11 0,0 -0.02,0 -0.05,0.01 -0.03,0.01 -0.07,0.02 -0.12,0.04 -0.12,0.04 -0.29,0.1 -0.48,0.18 -0.05,0.03 -0.11,0.05 -0.16,0.08 -0.02,0.01 -0.05,0.03 -0.07,0.04 -0.05,0.03 -0.1,0.06 -0.15,0.09 -0.02,0.01 -0.04,0.03 -0.07,0.05 -0.04,0.03 -0.09,0.06 -0.14,0.1 -0.02,0.02 -0.04,0.04 -0.06,0.06 -0.06,0.04 -0.11,0.09 -0.15,0.14 0,0 0,0 0,0 -0.01,0.01 -0.01,0.01 -0.02,0.02l0 -0.34c0.51,-0.58 1.47,-0.81 1.47,-0.81 0.98,-0.29 2.04,-0.37 2.93,-0.37zm0.91 -0.63l0 0.2c-0.28,-0.19 -0.56,0.18 -0.85,0l0 -0.2c0.29,0.18 0.57,-0.18 0.85,0zm-0.85 -0.45l0 0.19c0.29,0.19 0.57,-0.18 0.85,0l0 -0.19c-0.28,-0.18 -0.56,0.18 -0.85,0zm0.17 0.22c0,0 -0.01,0 -0.01,0 -0.04,0 -0.07,-0.04 -0.07,-0.08 0,-0.04 0.03,-0.07 0.07,-0.06 0,0 0.01,0 0.01,0 -0.03,0 -0.05,0.03 -0.05,0.06 0,0.04 0.02,0.08 0.05,0.08zm0.04 0c-0.01,0 -0.01,0 -0.01,-0.01 -0.01,0.01 -0.01,0.01 -0.01,0.01 0,0 0,-0.01 0,-0.01 0,0 0,0 -0.01,-0.01l0.01 0c0,0 0.01,0 0.01,-0.01 0,0.01 0,0.01 0,0.01 0,0 0.01,0 0.01,0 0,0.01 -0.01,0.01 -0.01,0.01 0,0 0,0.01 0.01,0.01zm0.05 -0.01c0,0 0,0 -0.01,0 0,0 0,0 0,0.01 0,-0.01 0,-0.01 0,-0.02 0,0 -0.01,0 -0.01,0 0,0 0.01,0 0.01,0 0,-0.01 0,-0.01 0,-0.01 0,0 0,0 0.01,0.01 0,0 0,0 0.01,0 -0.01,0 -0.01,0 -0.01,0 0,0.01 0,0.01 0,0.01zm0 -0.07c0,0.01 0,0.01 0,0.01 0,0 0,0 -0.01,0 0,0 0,0 -0.01,0.01 0.01,-0.01 0.01,-0.01 0.01,-0.01 0,-0.01 -0.01,-0.01 -0.01,-0.01 0,0 0.01,0 0.01,0 0,0 0,-0.01 0,-0.01 0,0 0,0 0.01,0.01 0,0 0,0 0.01,0 -0.01,0 -0.01,0 -0.01,0zm0.06 0.06c-0.01,0 -0.01,0 -0.01,0 0,0 -0.01,0 -0.01,0 0,0 0,0 0,-0.01 0,0 0,0 0,0 0,0 0,0 0.01,0 0,-0.01 0,-0.01 0,-0.01 0,0 0,0 0,0 0.01,0 0.01,0 0.01,0 0,0 0,0.01 -0.01,0.01 0,0 0.01,0.01 0.01,0.01zm-0.01 -0.07c0,0.01 0.01,0.01 0.01,0.01 -0.01,0 -0.01,0 -0.01,0 0,0 -0.01,0 -0.01,0.01 0,-0.01 0,-0.01 0,-0.02 0,0 0,0 0,0 0,0 0,0 0.01,0 0,-0.01 0,-0.01 0,-0.01 0,0 0,0 0,0.01 0.01,0 0.01,-0.01 0.01,-0.01 0,0.01 0,0.01 -0.01,0.01zm0 -0.06c0,0.01 0.01,0.01 0.01,0.01 -0.01,0 -0.01,0 -0.01,0 0,0 -0.01,0 -0.01,0.01 0,-0.01 0,-0.01 0,-0.01 0,-0.01 0,-0.01 0,-0.01 0,0 0,0 0.01,0 0,0 0,-0.01 0,-0.01 0,0 0,0 0,0.01 0.01,0 0.01,0 0.01,-0.01 0,0.01 0,0.01 -0.01,0.01zm0.06 0.11c0,0 0,0 -0.01,0 0,0 0,0.01 0,0.01 0,0 0,-0.01 0,-0.01 0,0 -0.01,0 -0.01,-0.01 0.01,0 0.01,0 0.01,0 0,0 0,-0.01 0,-0.01 0.01,0 0.01,0.01 0.01,0.01 0,0 0,0 0.01,0 -0.01,0 -0.01,0 -0.01,0.01 0,0 0,0 0,0zm0 -0.06c0,0 0,0 0,0.01 0,-0.01 0,-0.01 -0.01,-0.01 0,0 0,0.01 0,0.01 0,0 0,-0.01 0,-0.01 0,0 0,0 -0.01,0 0.01,-0.01 0.01,-0.01 0.01,-0.01 0,0 0,0 0,-0.01 0.01,0 0.01,0.01 0.01,0.01 0,0 0,0 0.01,0 -0.01,0 -0.01,0 -0.01,0.01zm0 -0.06c0,0 0,0 0,0.01 0,0 0,-0.01 -0.01,-0.01 0,0.01 0,0.01 0,0.01 0,0 0,0 0,-0.01 0,0 0,0 -0.01,0 0.01,0 0.01,0 0.01,-0.01 0,0 0,0 0,-0.01 0.01,0.01 0.01,0.01 0.01,0.01 0,0 0,0 0.01,0 -0.01,0 -0.01,0.01 -0.01,0.01zm0.06 0.11c0,0 -0.01,-0.01 -0.01,-0.01 0,0.01 0,0.01 -0.01,0.01 0,0 0,-0.01 0.01,-0.01 -0.01,0 -0.01,0 -0.01,0 0,0 0,-0.01 0.01,-0.01 0,0 0,0 0,-0.01 0,0.01 0,0.01 0,0.01 0.01,0 0.01,0 0.01,0 0,0 0,0 0,0.01 0,0 0,0 0,0.01zm0 -0.07c0,0 0,0.01 0,0.01 0,0 -0.01,0 -0.01,-0.01 0,0.01 0,0.01 -0.01,0.01 0,0 0,0 0.01,-0.01 -0.01,0 -0.01,0 -0.01,0 0,0 0,0 0.01,0 0,-0.01 0,-0.01 0,-0.02 0,0.01 0,0.01 0,0.01 0.01,0 0.01,0 0.01,0l0 0.01zm0 -0.06c0,0 0,0.01 0,0.01 0,0 -0.01,0 -0.01,0 0,0 0,0 -0.01,0 0,0 0,0 0.01,-0.01 -0.01,0 -0.01,0 -0.01,0 0,0 0,0 0.01,0 0,-0.01 0,-0.01 0,-0.01 0,0 0,0 0,0 0.01,0 0.01,0 0.01,0 0,0 0,0.01 0,0.01zm0.42 0.19l0 0.19c-0.28,-0.18 -0.56,0.18 -0.85,0l0 -0.19c0.29,0.18 0.57,-0.19 0.85,0zm-1.89 5.82c-0.06,-0.05 -0.16,-0.05 -0.21,0.02 -0.05,0.06 -0.04,0.16 0.02,0.22 0.06,0.05 0.15,0.04 0.2,-0.02 0.05,-0.06 0.05,-0.16 -0.01,-0.22zm-0.3 -0.37c-0.04,-0.07 -0.13,-0.1 -0.2,-0.05 -0.07,0.04 -0.09,0.14 -0.05,0.21 0.05,0.07 0.13,0.1 0.2,0.05 0.07,-0.04 0.09,-0.14 0.05,-0.21zm-0.18 -0.46c-0.02,-0.08 -0.1,-0.13 -0.17,-0.11 -0.08,0.02 -0.13,0.11 -0.11,0.19 0.02,0.08 0.1,0.13 0.18,0.11 0.07,-0.02 0.12,-0.1 0.1,-0.19zm-0.18 -0.65c-0.08,0 -0.15,0.06 -0.15,0.15 -0.01,0.08 0.05,0.16 0.13,0.16 0.08,0 0.15,-0.06 0.15,-0.15 0.01,-0.08 -0.05,-0.15 -0.13,-0.16zm0.14 -0.52c-0.07,-0.03 -0.15,0.01 -0.18,0.09 -0.03,0.08 0.01,0.17 0.08,0.2 0.08,0.03 0.16,-0.01 0.19,-0.09 0.02,-0.08 -0.01,-0.17 -0.09,-0.2zm0.29 -0.45c-0.07,-0.05 -0.16,-0.04 -0.2,0.03 -0.05,0.07 -0.04,0.17 0.02,0.22 0.06,0.05 0.15,0.04 0.2,-0.03 0.05,-0.07 0.04,-0.16 -0.02,-0.22zm0.39 -0.33c-0.04,-0.07 -0.13,-0.09 -0.2,-0.04 -0.06,0.05 -0.08,0.14 -0.03,0.21 0.04,0.07 0.13,0.09 0.19,0.04 0.07,-0.04 0.09,-0.14 0.04,-0.21zm0.47 -0.19c-0.02,-0.08 -0.1,-0.13 -0.18,-0.1 -0.07,0.02 -0.12,0.11 -0.09,0.19 0.02,0.08 0.1,0.13 0.18,0.1 0.07,-0.02 0.12,-0.11 0.09,-0.19zm0.36 -0.19c-0.08,0 -0.14,0.07 -0.14,0.15 0,0.09 0.06,0.16 0.14,0.16 0.08,0 0.14,-0.07 0.14,-0.15 0,-0.09 -0.06,-0.16 -0.14,-0.16zm0.54 0.1c-0.08,-0.03 -0.16,0.01 -0.18,0.1 -0.03,0.08 0.02,0.16 0.09,0.19 0.08,0.03 0.16,-0.02 0.18,-0.1 0.03,-0.08 -0.02,-0.17 -0.09,-0.19zm0.49 0.26c-0.07,-0.05 -0.16,-0.04 -0.2,0.03 -0.05,0.07 -0.04,0.17 0.03,0.22 0.06,0.05 0.15,0.03 0.2,-0.04 0.04,-0.07 0.03,-0.16 -0.03,-0.21zm0.39 0.41c-0.05,-0.07 -0.14,-0.08 -0.2,-0.03 -0.07,0.05 -0.08,0.15 -0.03,0.21 0.05,0.07 0.14,0.08 0.2,0.03 0.06,-0.05 0.07,-0.15 0.03,-0.21zm0.26 0.51c-0.03,-0.08 -0.11,-0.12 -0.19,-0.09 -0.07,0.03 -0.11,0.11 -0.08,0.19 0.02,0.08 0.1,0.13 0.18,0.1 0.07,-0.03 0.11,-0.12 0.09,-0.2zm0.1 0.58c-0.01,-0.09 -0.07,-0.15 -0.15,-0.15 -0.08,0 -0.14,0.07 -0.14,0.16 0,0.08 0.07,0.15 0.15,0.15 0.08,-0.01 0.14,-0.08 0.14,-0.16zm-0.16 0.39c-0.08,-0.02 -0.16,0.03 -0.18,0.11 -0.02,0.08 0.03,0.17 0.1,0.19 0.08,0.02 0.16,-0.03 0.18,-0.11 0.02,-0.08 -0.03,-0.17 -0.1,-0.19zm-0.17 0.51c-0.06,-0.04 -0.15,-0.02 -0.19,0.05 -0.05,0.07 -0.03,0.17 0.04,0.21 0.07,0.05 0.15,0.03 0.2,-0.04 0.04,-0.08 0.02,-0.17 -0.05,-0.22zm-0.3 0.44c-0.05,-0.07 -0.14,-0.08 -0.2,-0.02 -0.06,0.05 -0.07,0.15 -0.02,0.21 0.06,0.07 0.15,0.08 0.21,0.02 0.06,-0.05 0.07,-0.15 0.01,-0.21zm-1.88 -0.37c-0.04,-0.04 -0.11,-0.04 -0.14,0.01 -0.04,0.04 -0.04,0.12 0.01,0.16 0.04,0.04 0.11,0.03 0.14,-0.02 0.04,-0.04 0.04,-0.11 -0.01,-0.15zm-0.21 -0.28c-0.03,-0.05 -0.1,-0.06 -0.15,-0.03 -0.04,0.03 -0.06,0.1 -0.03,0.15 0.03,0.05 0.09,0.07 0.14,0.04 0.05,-0.03 0.07,-0.1 0.04,-0.16zm-0.13 -0.33c-0.02,-0.06 -0.07,-0.09 -0.13,-0.08 -0.06,0.02 -0.09,0.08 -0.07,0.14 0.01,0.06 0.07,0.1 0.12,0.08 0.06,-0.02 0.09,-0.08 0.08,-0.14zm-0.13 -0.47c-0.06,0 -0.11,0.04 -0.11,0.11 -0.01,0.06 0.04,0.11 0.09,0.11 0.06,0.01 0.11,-0.04 0.11,-0.1 0.01,-0.06 -0.04,-0.12 -0.09,-0.12zm0.1 -0.38c-0.05,-0.02 -0.11,0.01 -0.13,0.07 -0.02,0.06 0,0.12 0.06,0.14 0.05,0.02 0.11,-0.01 0.13,-0.06 0.02,-0.06 -0.01,-0.13 -0.06,-0.15zm0.21 -0.32c-0.05,-0.04 -0.11,-0.03 -0.15,0.01 -0.03,0.05 -0.03,0.12 0.02,0.16 0.04,0.04 0.11,0.03 0.14,-0.02 0.04,-0.05 0.03,-0.12 -0.01,-0.15zm0.28 -0.25c-0.03,-0.05 -0.09,-0.06 -0.14,-0.03 -0.05,0.04 -0.06,0.11 -0.03,0.16 0.04,0.05 0.1,0.06 0.15,0.03 0.04,-0.04 0.06,-0.11 0.02,-0.16zm0.35 -0.14c-0.02,-0.06 -0.08,-0.09 -0.13,-0.07 -0.06,0.02 -0.09,0.08 -0.07,0.14 0.01,0.06 0.07,0.09 0.13,0.07 0.05,-0.02 0.08,-0.08 0.07,-0.14zm0.26 -0.13c-0.06,0 -0.11,0.05 -0.11,0.11 0,0.06 0.05,0.11 0.11,0.11 0.05,0 0.1,-0.05 0.1,-0.11 0,-0.06 -0.04,-0.11 -0.1,-0.11zm0.39 0.07c-0.06,-0.02 -0.11,0.01 -0.13,0.07 -0.02,0.06 0.01,0.12 0.06,0.14 0.06,0.02 0.12,-0.01 0.14,-0.07 0.01,-0.06 -0.02,-0.13 -0.07,-0.14zm0.35 0.19c-0.04,-0.04 -0.11,-0.03 -0.14,0.02 -0.04,0.05 -0.03,0.12 0.02,0.16 0.05,0.03 0.11,0.02 0.15,-0.03 0.03,-0.05 0.02,-0.12 -0.03,-0.15zm0.29 0.29c-0.04,-0.05 -0.1,-0.06 -0.15,-0.02 -0.04,0.04 -0.05,0.11 -0.02,0.16 0.04,0.05 0.1,0.06 0.15,0.02 0.04,-0.04 0.05,-0.11 0.02,-0.16zm0.19 0.38c-0.02,-0.06 -0.08,-0.09 -0.14,-0.07 -0.05,0.02 -0.08,0.08 -0.06,0.14 0.02,0.06 0.08,0.09 0.13,0.07 0.06,-0.02 0.08,-0.08 0.07,-0.14zm0.07 0.42c0,-0.07 -0.05,-0.11 -0.11,-0.11 -0.06,0 -0.1,0.05 -0.1,0.12 0,0.06 0.05,0.11 0.11,0.1 0.06,0 0.1,-0.05 0.1,-0.11zm-0.12 0.28c-0.05,-0.01 -0.11,0.02 -0.12,0.08 -0.02,0.06 0.01,0.12 0.07,0.14 0.05,0.02 0.11,-0.02 0.13,-0.08 0.01,-0.06 -0.02,-0.12 -0.08,-0.14zm-0.12 0.38c-0.04,-0.04 -0.11,-0.02 -0.14,0.03 -0.03,0.05 -0.02,0.12 0.03,0.15 0.05,0.04 0.11,0.02 0.15,-0.03 0.03,-0.05 0.01,-0.12 -0.04,-0.15zm-0.21 0.31c-0.04,-0.05 -0.11,-0.05 -0.15,-0.01 -0.04,0.04 -0.05,0.11 -0.01,0.15 0.03,0.05 0.1,0.06 0.14,0.02 0.05,-0.04 0.05,-0.11 0.02,-0.16zm-1.3 -0.36c-0.03,-0.02 -0.07,-0.02 -0.1,0.01 -0.02,0.03 -0.02,0.08 0.01,0.1 0.03,0.03 0.07,0.02 0.09,-0.01 0.03,-0.03 0.02,-0.07 0,-0.1zm-0.14 -0.17c-0.02,-0.03 -0.06,-0.04 -0.09,-0.02 -0.03,0.02 -0.04,0.06 -0.02,0.1 0.02,0.03 0.06,0.04 0.09,0.02 0.03,-0.02 0.04,-0.06 0.02,-0.1zm-0.08 -0.21c-0.01,-0.03 -0.05,-0.06 -0.08,-0.05 -0.04,0.01 -0.06,0.05 -0.05,0.09 0.01,0.04 0.05,0.06 0.08,0.05 0.04,-0.01 0.06,-0.05 0.05,-0.09zm-0.08 -0.29c-0.04,-0.01 -0.07,0.02 -0.07,0.06 -0.01,0.04 0.02,0.07 0.06,0.08 0.03,0 0.07,-0.03 0.07,-0.07 0,-0.04 -0.03,-0.07 -0.06,-0.07zm0.06 -0.24c-0.03,-0.02 -0.07,0 -0.08,0.04 -0.01,0.03 0,0.08 0.04,0.09 0.03,0.01 0.07,-0.01 0.08,-0.04 0.01,-0.04 0,-0.08 -0.04,-0.09zm0.13 -0.21c-0.03,-0.02 -0.07,-0.02 -0.09,0.01 -0.02,0.03 -0.02,0.08 0.01,0.1 0.03,0.03 0.07,0.02 0.09,-0.01 0.03,-0.03 0.02,-0.07 -0.01,-0.1zm0.18 -0.15c-0.02,-0.03 -0.06,-0.04 -0.09,-0.02 -0.03,0.02 -0.03,0.07 -0.01,0.1 0.02,0.03 0.06,0.04 0.09,0.02 0.03,-0.03 0.03,-0.07 0.01,-0.1zm0.22 -0.09c-0.01,-0.04 -0.05,-0.06 -0.08,-0.05 -0.04,0.01 -0.06,0.05 -0.05,0.09 0.01,0.04 0.05,0.06 0.09,0.05 0.03,-0.01 0.05,-0.05 0.04,-0.09zm0.16 -0.09c-0.03,0 -0.06,0.03 -0.06,0.07 0,0.04 0.03,0.07 0.06,0.08 0.04,0 0.07,-0.04 0.07,-0.08 0,-0.03 -0.03,-0.07 -0.07,-0.07zm0.25 0.05c-0.03,-0.01 -0.07,0.01 -0.08,0.04 -0.01,0.04 0.01,0.08 0.04,0.09 0.03,0.01 0.07,-0.01 0.08,-0.04 0.01,-0.04 -0.01,-0.08 -0.04,-0.09zm0.22 0.12c-0.03,-0.03 -0.07,-0.02 -0.09,0.01 -0.02,0.04 -0.01,0.08 0.02,0.1 0.03,0.03 0.07,0.02 0.09,-0.01 0.02,-0.04 0.01,-0.08 -0.02,-0.1zm0.18 0.19c-0.02,-0.04 -0.06,-0.04 -0.09,-0.02 -0.03,0.03 -0.03,0.07 -0.01,0.1 0.02,0.03 0.06,0.04 0.09,0.01 0.03,-0.02 0.04,-0.06 0.01,-0.09zm0.12 0.23c-0.01,-0.04 -0.05,-0.06 -0.08,-0.04 -0.04,0.01 -0.05,0.05 -0.04,0.09 0.01,0.03 0.05,0.05 0.08,0.04 0.04,-0.01 0.05,-0.05 0.04,-0.09zm0.05 0.27c0,-0.04 -0.03,-0.07 -0.07,-0.07 -0.04,0 -0.06,0.03 -0.06,0.07 0,0.04 0.03,0.07 0.07,0.07 0.03,0 0.06,-0.04 0.06,-0.07zm-0.07 0.18c-0.04,-0.01 -0.08,0.01 -0.09,0.05 0,0.03 0.02,0.07 0.05,0.08 0.04,0.01 0.07,-0.01 0.08,-0.05 0.01,-0.03 -0.01,-0.07 -0.04,-0.08zm-0.08 0.23c-0.03,-0.02 -0.07,-0.01 -0.09,0.02 -0.02,0.04 -0.01,0.08 0.02,0.1 0.03,0.02 0.07,0.01 0.09,-0.02 0.02,-0.03 0.01,-0.08 -0.02,-0.1zm-0.14 0.2c-0.02,-0.03 -0.06,-0.03 -0.09,-0.01 -0.03,0.03 -0.03,0.07 -0.01,0.1 0.03,0.03 0.07,0.03 0.09,0.01 0.03,-0.03 0.04,-0.07 0.01,-0.1zm-0.14 0.85l-0.78 0c-0.02,0 -0.03,-0.02 -0.03,-0.04l0 -0.2c0,-0.02 0.01,-0.03 0.03,-0.03l0.35 0 0 -1.06c-0.22,-0.03 -0.29,-0.3 -0.29,-0.3 0.25,-0.03 0.32,0.22 0.32,0.22 0.06,-0.45 0.4,-0.43 0.4,-0.43 -0.05,0.44 -0.35,0.5 -0.35,0.5l0 1.07 0.35 0c0.01,0 0.03,0.01 0.03,0.03l0 0.2c0,0.02 -0.02,0.04 -0.03,0.04zm-0.07 0.32l-0.64 0c-0.02,0 -0.03,-0.01 -0.03,-0.03l0 -0.16c0,-0.02 0.01,-0.03 0.03,-0.03l0.64 0c0.01,0 0.02,0.01 0.02,0.03l0 0.16c0,0.02 -0.01,0.03 -0.02,0.03zm-0.1 0.26l-0.44 0c-0.02,0 -0.03,-0.01 -0.03,-0.02l0 -0.11c0,-0.01 0.01,-0.03 0.03,-0.03l0.44 0c0.01,0 0.03,0.02 0.03,0.03l0 0.11c0,0.01 -0.02,0.02 -0.03,0.02zm-0.22 -1.9c-0.05,-0.11 -0.15,-0.18 -0.15,-0.18 0.1,0.05 0.14,0.12 0.14,0.12 0.05,-0.13 0.18,-0.25 0.18,-0.25 -0.13,0.16 -0.17,0.31 -0.17,0.31zm-3.27 2.77l-0.02 -0.2 -0.1 -0.71 -0.06 -0.09 0.07 0.49 0.07 0.47c0,0 0.01,0.08 -0.03,0.08l-1.06 0.21 0 0.07 1.09 -0.23c0,0 0.05,-0.01 0.04,-0.09zm-0.28 -1.05l-0.02 -0.17 -0.06 -0.09 0.01 0.07 0.15 1.09c0,0 0.01,0.05 -0.03,0.06l-0.9 0.18 0 0.06 0.93 -0.19c0,0 0.05,-0.01 0.05,-0.09l-0.13 -0.92zm-0.04 0.78l-0.17 -1.27 -0.06 -0.09 0.19 1.33c0,0 0.01,0.08 -0.04,0.07l-0.73 0.15 0 0.06 0.78 -0.16c0,0 0.05,-0.02 0.03,-0.09zm-0.16 -0.15l-0.21 -1.45 -0.06 -0.09 0.22 1.52c0,0 0.02,0.08 -0.04,0.07l-0.56 0.12 0 0.07 0.6 -0.13c0,0 0.06,-0.01 0.05,-0.11zm-0.29 -0.19c0,0 0.02,0.09 -0.06,0.09l-0.3 0.03 0 0.09 0.38 -0.05c0,0 0.1,-0.02 0.09,-0.11l-0.24 -1.43 0 0 0 0 -0.06 -0.35 -0.12 -0.21 0.1 0.63 0 0 0.07 0.43 -0.22 0.1 0 0.05 0.23 -0.09 0.05 0.29 -0.28 0.12 0 0.05 0.29 -0.12 0.06 0.42 0.01 0.06zm7.35 0.61l0.03 -0.2 0.09 -0.71 0.06 -0.09 -0.07 0.49 -0.06 0.47c0,0 -0.02,0.08 0.02,0.08l1.06 0.21 0 0.07 -1.09 -0.23c0,0 -0.05,-0.01 -0.04,-0.09zm0.28 -1.05l0.02 -0.17 0.06 -0.09 -0.01 0.07 -0.15 1.09c0,0 -0.01,0.05 0.03,0.06l0.9 0.18 0 0.06 -0.93 -0.19c0,0 -0.05,-0.01 -0.05,-0.09l0.13 -0.92zm0.04 0.78l0.18 -1.27 0.05 -0.09 -0.19 1.33c0,0 -0.01,0.08 0.04,0.07l0.73 0.15 0 0.06 -0.78 -0.16c0,0 -0.04,-0.02 -0.03,-0.09zm0.17 -0.15l0.2 -1.45 0.06 -0.09 -0.22 1.52c0,0 -0.02,0.08 0.04,0.07l0.56 0.12 0 0.07 -0.6 -0.13c0,0 -0.06,-0.01 -0.04,-0.11zm0.28 -0.19c0,0 -0.02,0.09 0.07,0.09l0.29 0.03 0 0.09 -0.38 -0.05c0,0 -0.1,-0.02 -0.09,-0.11l0.24 -1.43 0 0 0 0 0.06 -0.35 0.12 -0.21 -0.1 0.63 0 0 -0.07 0.43 0.22 0.1 0 0.05 -0.23 -0.09 -0.05 0.29 0.28 0.12 0 0.05 -0.28 -0.12 -0.07 0.42 -0.01 0.06zm-5.51 1.13l0 0 0 0 3.28 0 0.01 0 0.01 0 0.01 0 -0.24 1.04 -0.62 0 0 -0.92 -1 0.01 -1 -0.01 0 0.92 -0.62 0 -0.24 -1.04 0.41 0zm3.46 -0.32l0 0 -0.01 0 0.01 0zm-1.3 0.54l0 0.82 -0.15 -0.06 0.01 -0.68 0.01 -0.02 -0.57 0 -0.57 0 0.02 0.02 0.01 0.68 -0.16 0.06 0 -0.82 0.08 0.04 0 -0.04 0.62 0 0.63 0 0 0.04 0.07 -0.04zm-2.89 0.12c-0.02,-0.15 -0.09,-0.2 -0.09,-0.2 -0.08,-0.09 -0.47,-0.08 -0.47,-0.08l-1.68 0.09c0.17,-0.14 0.65,-0.22 0.65,-0.22 0.57,-0.07 1.13,-0.13 1.7,-0.16l0.28 1.27 -2.63 0 0 -0.23 2.34 -0.07 -0.1 -0.4zm4.36 0c0.03,-0.15 0.09,-0.2 0.09,-0.2 0.08,-0.09 0.47,-0.08 0.47,-0.08l1.68 0.09c-0.17,-0.14 -0.65,-0.22 -0.65,-0.22 -0.56,-0.07 -1.13,-0.13 -1.7,-0.16l-0.28 1.27 2.63 0 0 -0.23 -2.33 -0.07 0.09 -0.4zm-0.51 -0.86l-0.01 0 0.01 0 0 0zm-3.89 -5.78c0,0.04 0,0.06 0,0.1 -0.02,0 -0.03,0 -0.05,0 0,-0.04 0,-0.06 0.01,-0.1 0.01,0 0.02,0 0.04,0zm0.16 0.02c-0.05,0.01 -0.08,0.01 -0.13,0.02 0,-0.02 0,-0.03 0,-0.05 0.07,-0.01 0.11,-0.01 0.19,-0.02 0,0.01 0.01,0.02 0.01,0.04 -0.05,0.08 -0.07,0.12 -0.11,0.19 0.05,0 0.08,-0.01 0.13,-0.01 0,0.02 0,0.03 0,0.05 -0.07,0.01 -0.11,0.01 -0.19,0.02 0,-0.01 0,-0.02 -0.01,-0.04 0.05,-0.08 0.07,-0.12 0.11,-0.2zm0.2 -0.07c0.02,0 0.03,0 0.04,0 0.02,0 0.03,0 0.04,0.01 0,0.01 0.01,0.01 0.01,0.02 0.01,0.01 0.01,0.02 0.01,0.03 0,0.01 0,0.02 0,0.03 -0.01,0.01 -0.01,0.02 -0.02,0.03 0,0 0.01,0 0.02,0.01 0,0 0.01,0.01 0.01,0.01 0,0.01 0.01,0.01 0.01,0.02 0,0 0,0.01 0,0.01 0,0.02 0,0.03 0,0.04 0,0.01 -0.01,0.02 -0.02,0.02 0,0.01 -0.01,0.02 -0.02,0.03 -0.02,0 -0.03,0.01 -0.05,0.01 -0.04,0 -0.06,0.01 -0.1,0.01 -0.01,-0.11 -0.02,-0.16 -0.03,-0.27 0.04,0 0.06,-0.01 0.1,-0.01zm0.32 -0.04c0,0.02 0,0.03 0.01,0.05 -0.05,0 -0.08,0.01 -0.13,0.01 0,0.03 0,0.04 0.01,0.06 0.04,0 0.07,-0.01 0.11,-0.01 0.01,0.02 0.01,0.03 0.01,0.05 -0.05,0 -0.07,0.01 -0.12,0.01 0,0.03 0,0.04 0.01,0.07 0.05,-0.01 0.08,-0.01 0.13,-0.02 0,0.02 0,0.03 0,0.05 -0.07,0.01 -0.11,0.01 -0.18,0.02 -0.01,-0.11 -0.02,-0.16 -0.03,-0.27 0.07,-0.01 0.11,-0.01 0.18,-0.02zm0.1 -0.01c0.01,0.04 0.01,0.07 0.01,0.11 0.04,-0.05 0.06,-0.07 0.09,-0.12 0.03,0 0.04,0 0.06,0 -0.03,0.04 -0.05,0.06 -0.08,0.11 0.05,0.06 0.07,0.09 0.11,0.16 -0.02,0 -0.03,0 -0.06,0 -0.03,-0.05 -0.05,-0.07 -0.08,-0.12 -0.01,0.01 -0.02,0.02 -0.03,0.03 0,0.04 0,0.06 0.01,0.1 -0.02,0 -0.04,0.01 -0.06,0.01 -0.01,-0.11 -0.01,-0.17 -0.02,-0.27 0.02,-0.01 0.03,-0.01 0.05,-0.01zm0.25 -0.02c0.01,0.11 0.02,0.16 0.02,0.27 -0.02,0 -0.03,0 -0.05,0 -0.01,-0.1 -0.01,-0.16 -0.02,-0.27 0.02,0 0.03,0 0.05,0zm0.13 0.21c0.01,0.01 0.02,0.01 0.04,0.01 0.01,0 0.02,0 0.02,-0.01 0.01,0 0.01,0 0.01,0 0.01,-0.01 0.01,-0.01 0.01,-0.02 0,0 0,0 0,-0.01 0,-0.01 0,-0.01 -0.01,-0.02 0,-0.01 -0.01,-0.01 -0.02,-0.01 -0.02,0 -0.03,0 -0.04,-0.01 -0.01,0 -0.03,0 -0.04,0 -0.01,-0.01 -0.02,-0.01 -0.02,-0.02 -0.01,0 -0.02,-0.01 -0.02,-0.02 0,-0.01 -0.01,-0.02 -0.01,-0.03 0,-0.02 0,-0.03 0.01,-0.04 0,-0.01 0.01,-0.02 0.02,-0.02 0,-0.01 0.02,-0.02 0.03,-0.02 0.01,-0.01 0.02,-0.01 0.04,-0.01 0.02,0 0.03,0 0.05,0 0.01,0.01 0.02,0.01 0.03,0.02 0.01,0.01 0.02,0.02 0.02,0.02 0,0.01 0.01,0.02 0.01,0.04 -0.02,0 -0.03,0 -0.05,0.01 -0.01,-0.02 -0.01,-0.03 -0.02,-0.04 -0.01,0 -0.02,0 -0.04,0 -0.01,0 -0.01,0 -0.02,0 -0.01,0 -0.01,0.01 -0.01,0.01 -0.01,0 -0.01,0 -0.01,0.01 0,0 0,0.01 0,0.01 0,0.01 0,0.02 0.01,0.02 0,0.01 0.01,0.01 0.03,0.01 0.01,0 0.02,0 0.03,0.01 0.03,0 0.05,0.01 0.07,0.02 0.01,0.01 0.02,0.03 0.02,0.06 0,0.01 0,0.02 0,0.03 -0.01,0.01 -0.01,0.02 -0.02,0.03 -0.01,0 -0.02,0.01 -0.03,0.02 -0.02,0 -0.03,0 -0.05,0.01 -0.03,0 -0.06,-0.01 -0.08,-0.02 -0.02,-0.02 -0.03,-0.04 -0.04,-0.07 0.03,0 0.04,0 0.06,-0.01 0,0.02 0.01,0.03 0.02,0.04zm0.15 -0.18c0,-0.02 0,-0.03 0,-0.05 0.08,-0.01 0.13,-0.01 0.21,-0.01 0,0.02 0,0.03 0,0.05 -0.03,0 -0.04,0 -0.08,0 0.01,0.09 0.01,0.13 0.01,0.22 -0.02,0.01 -0.03,0.01 -0.05,0.01 -0.01,-0.09 -0.01,-0.14 -0.01,-0.23 -0.03,0.01 -0.05,0.01 -0.08,0.01zm0.31 0.2c-0.02,0 -0.03,-0.01 -0.04,-0.02 -0.01,-0.01 -0.02,-0.03 -0.03,-0.05 0,-0.01 -0.01,-0.03 -0.01,-0.06 0,-0.02 0,-0.04 0.01,-0.06 0,-0.01 0.01,-0.03 0.02,-0.04 0.01,-0.02 0.03,-0.03 0.04,-0.03 0.02,-0.01 0.03,-0.01 0.05,-0.01 0.02,0 0.04,0 0.06,0 0.01,0.01 0.03,0.02 0.04,0.03 0.01,0.01 0.02,0.03 0.02,0.05 0.01,0.01 0.01,0.03 0.01,0.05 0,0.03 0,0.05 0,0.06 -0.01,0.02 -0.02,0.04 -0.03,0.05 -0.01,0.01 -0.02,0.02 -0.03,0.03 -0.02,0.01 -0.04,0.01 -0.06,0.01 -0.02,0 -0.03,0 -0.05,-0.01zm0.27 -0.27c0.04,0.07 0.06,0.1 0.11,0.17 0,-0.07 0,-0.1 0,-0.18 0.02,0 0.03,0 0.05,0 0,0.11 0,0.17 0,0.28 -0.02,0 -0.03,0 -0.05,0 -0.04,-0.07 -0.06,-0.11 -0.11,-0.18 0,0.07 0,0.11 0.01,0.18 -0.03,0 -0.04,0 -0.06,0 0,-0.11 0,-0.16 0,-0.27 0.02,0 0.03,0 0.05,0zm0.39 -0.01c0.02,0 0.04,0.01 0.05,0.01 0.02,0.01 0.03,0.01 0.04,0.02 0,0.01 0.01,0.02 0.01,0.03 0,0.01 0,0.02 0,0.03 0,0.01 0,0.03 0,0.04 -0.01,0.01 -0.02,0.02 -0.04,0.03 0.02,0.05 0.04,0.07 0.06,0.12 -0.03,0 -0.04,0 -0.06,0 -0.02,-0.05 -0.03,-0.07 -0.05,-0.11 -0.02,0 -0.03,0 -0.05,0 0,0.04 0,0.06 0,0.11 -0.02,0 -0.03,0 -0.05,0 0,-0.11 0,-0.17 0,-0.28 0.03,0 0.05,0 0.09,0zm0.33 0.01c0,0.02 0,0.03 0,0.05 -0.05,0 -0.07,0 -0.12,-0.01 0,0.03 0,0.04 -0.01,0.06 0.05,0 0.08,0 0.12,0.01 0,0.02 0,0.03 0,0.04 -0.05,0 -0.07,0 -0.12,0 0,0.03 0,0.04 0,0.07 0.06,0 0.08,0 0.13,0 0,0.02 0,0.03 0,0.05 -0.07,0 -0.11,0 -0.18,0 0,-0.11 0,-0.17 0,-0.28 0.07,0.01 0.11,0.01 0.18,0.01zm0.1 0.22c0,0.01 0.02,0.01 0.04,0.01 0,0 0.01,0 0.02,0 0,0 0.01,0 0.01,-0.01 0.01,0 0.01,0 0.01,-0.01 0,0 0,-0.01 0,-0.01 0,-0.01 0,-0.01 0,-0.02 -0.01,-0.01 -0.02,-0.01 -0.03,-0.02 -0.02,0 -0.02,0 -0.04,0 -0.01,-0.01 -0.02,-0.01 -0.03,-0.01 -0.01,-0.01 -0.02,-0.01 -0.03,-0.02 0,-0.01 -0.01,-0.02 -0.01,-0.03 -0.01,0 -0.01,-0.02 -0.01,-0.03 0,-0.01 0.01,-0.02 0.01,-0.03 0.01,-0.01 0.01,-0.02 0.02,-0.03 0.01,0 0.02,-0.01 0.04,-0.01 0.01,0 0.02,-0.01 0.04,0 0.02,0 0.03,0 0.05,0 0.01,0.01 0.02,0.02 0.03,0.02 0,0.01 0.01,0.02 0.01,0.03 0.01,0.01 0.01,0.02 0.01,0.03 -0.02,0 -0.03,0 -0.05,0.01 0,-0.02 -0.01,-0.03 -0.02,-0.04 0,0 -0.02,-0.01 -0.03,-0.01 -0.01,0 -0.02,0 -0.03,0 0,0 -0.01,0.01 -0.01,0.01 0,0 -0.01,0.01 -0.01,0.01 0,0 0,0.01 0,0.01 0,0.01 0,0.02 0.01,0.02 0,0.01 0.01,0.01 0.02,0.02 0.02,0 0.03,0 0.04,0 0.03,0.01 0.05,0.02 0.06,0.03 0.02,0.02 0.02,0.04 0.02,0.06 0,0.01 0,0.03 -0.01,0.04 0,0.01 -0.01,0.01 -0.02,0.02 -0.01,0.01 -0.02,0.01 -0.03,0.02 -0.01,0 -0.03,0 -0.04,0 -0.04,0 -0.07,-0.01 -0.09,-0.03 -0.01,-0.01 -0.02,-0.04 -0.03,-0.07 0.03,0 0.04,0 0.06,0 0,0.02 0.01,0.03 0.02,0.04zm0.28 -0.21c0.02,0 0.04,0.01 0.05,0.01 0.01,0.01 0.03,0.02 0.03,0.02 0.01,0.01 0.01,0.02 0.02,0.03 0,0.01 0,0.02 0,0.03 0,0.02 0,0.03 -0.01,0.04 0,0.01 -0.01,0.02 -0.01,0.03 -0.01,0 -0.02,0.01 -0.04,0.01 -0.01,0.01 -0.03,0.01 -0.05,0.01 -0.01,0 -0.02,0 -0.04,0 0,0.03 0,0.05 0,0.09 -0.02,0 -0.03,0 -0.05,0 0,-0.11 0,-0.16 0.01,-0.27 0.03,0 0.05,0 0.09,0zm0.2 0.01c-0.01,0.07 -0.01,0.1 -0.01,0.17 0,0.02 0,0.04 0.01,0.05 0,0.01 0.02,0.02 0.03,0.02 0.02,0 0.04,-0.01 0.04,-0.02 0.01,-0.01 0.02,-0.02 0.02,-0.05 0,-0.06 0,-0.09 0.01,-0.16 0.02,0 0.03,0 0.05,0.01 0,0.06 0,0.09 -0.01,0.16 0,0.02 0,0.03 -0.01,0.05 0,0.01 -0.01,0.02 -0.02,0.03 -0.01,0.01 -0.02,0.02 -0.04,0.02 -0.01,0.01 -0.02,0.01 -0.04,0.01 -0.02,-0.01 -0.03,-0.01 -0.04,-0.01 -0.02,-0.01 -0.03,-0.02 -0.04,-0.03 0,-0.01 -0.01,-0.02 -0.01,-0.04 -0.01,-0.01 -0.01,-0.03 -0.01,-0.05 0,-0.06 0.01,-0.1 0.01,-0.16 0.02,0 0.03,0 0.06,0zm0.3 0.03c0.02,0 0.03,0 0.05,0.01 0.01,0 0.02,0.01 0.03,0.02 0,0 0.01,0.01 0.01,0.02 0,0.01 0,0.02 0,0.03 0,0.01 0,0.02 -0.01,0.03 0,0.01 -0.01,0.01 -0.02,0.02 0,0 0.01,0.01 0.01,0.02 0.01,0 0.01,0.01 0.01,0.01 0.01,0.01 0.01,0.01 0.01,0.02 0,0 0,0.01 0,0.02 0,0.01 0,0.02 -0.01,0.03 0,0.01 -0.01,0.02 -0.02,0.02 -0.01,0.01 -0.02,0.01 -0.03,0.02 -0.01,0 -0.03,0 -0.05,0 -0.04,0 -0.06,-0.01 -0.1,-0.01 0.01,-0.11 0.01,-0.16 0.02,-0.27 0.04,0 0.06,0 0.1,0.01zm0.2 0.02c-0.01,0.08 -0.01,0.13 -0.02,0.22 0.05,0 0.07,0.01 0.12,0.01 0,0.02 0,0.03 -0.01,0.05 -0.06,-0.01 -0.1,-0.01 -0.17,-0.02 0.01,-0.11 0.01,-0.16 0.02,-0.27 0.03,0 0.04,0 0.06,0.01zm0.22 0.02c-0.01,0.11 -0.02,0.16 -0.03,0.27 -0.02,0 -0.03,0 -0.05,-0.01 0.01,-0.11 0.01,-0.16 0.02,-0.27 0.02,0.01 0.03,0.01 0.06,0.01zm0.11 0.01c-0.01,0.04 -0.01,0.07 -0.02,0.11 0.05,-0.04 0.07,-0.06 0.11,-0.1 0.03,0.01 0.04,0.01 0.06,0.01 -0.04,0.04 -0.06,0.06 -0.09,0.09 0.03,0.07 0.04,0.11 0.07,0.18 -0.02,0 -0.03,0 -0.06,0 -0.02,-0.06 -0.03,-0.09 -0.06,-0.15 -0.01,0.02 -0.02,0.02 -0.03,0.03 -0.01,0.04 -0.01,0.06 -0.01,0.1 -0.02,0 -0.04,0 -0.06,0 0.01,-0.11 0.02,-0.17 0.03,-0.27 0.02,0 0.03,0 0.06,0zm0.33 0.05c0.03,0.11 0.04,0.17 0.06,0.28 -0.02,0 -0.03,-0.01 -0.05,-0.01 -0.01,-0.02 -0.01,-0.04 -0.02,-0.06 -0.03,-0.01 -0.05,-0.01 -0.09,-0.02 -0.01,0.03 -0.01,0.04 -0.03,0.06 -0.02,0 -0.03,0 -0.05,-0.01 0.05,-0.1 0.08,-0.15 0.13,-0.25 0.02,0 0.03,0 0.05,0.01zm0.15 0.24c0.01,0.01 0.02,0.02 0.04,0.02 0.01,0 0.02,0 0.02,0 0.01,0 0.01,0 0.02,-0.01 0,0 0.01,0 0.01,-0.01 0,0 0,0 0,-0.01 0,-0.01 0,-0.01 0,-0.02 -0.01,-0.01 -0.02,-0.01 -0.03,-0.02 -0.01,0 -0.02,-0.01 -0.03,-0.01 -0.02,-0.01 -0.03,-0.01 -0.04,-0.02 -0.01,0 -0.01,-0.01 -0.02,-0.02 -0.01,0 -0.01,-0.01 -0.01,-0.02 -0.01,-0.01 -0.01,-0.02 0,-0.04 0,-0.01 0,-0.02 0.01,-0.03 0,-0.01 0.01,-0.01 0.02,-0.02 0.01,0 0.02,-0.01 0.04,-0.01 0.01,0 0.02,0 0.04,0 0.02,0 0.03,0.01 0.05,0.02 0.01,0 0.02,0.01 0.02,0.02 0.01,0.01 0.02,0.02 0.02,0.03 0,0.01 0,0.02 0,0.03 -0.02,0 -0.03,0 -0.05,0 0,-0.02 -0.01,-0.03 -0.01,-0.04 -0.01,0 -0.02,-0.01 -0.04,-0.01 -0.01,0 -0.01,0 -0.02,0 -0.01,0 -0.01,0 -0.02,0 0,0 0,0.01 0,0.01 -0.01,0 -0.01,0.01 -0.01,0.01 0,0.01 0,0.02 0.01,0.02 0,0.01 0.01,0.01 0.02,0.02 0.02,0 0.02,0.01 0.04,0.01 0.03,0.01 0.05,0.03 0.06,0.04 0.01,0.02 0.01,0.04 0.01,0.06 0,0.01 -0.01,0.02 -0.01,0.03 -0.01,0.01 -0.02,0.02 -0.02,0.02 -0.01,0.01 -0.03,0.01 -0.04,0.02 -0.01,0 -0.03,0 -0.04,0 -0.04,-0.01 -0.07,-0.02 -0.08,-0.04 -0.02,-0.02 -0.03,-0.04 -0.02,-0.08 0.02,0.01 0.03,0.01 0.05,0.01 0,0.02 0,0.03 0.01,0.04zm0.27 -0.18c-0.02,0.11 -0.02,0.16 -0.04,0.27 -0.02,0 -0.03,0 -0.05,-0.01 0.01,-0.11 0.02,-0.16 0.04,-0.27 0.02,0.01 0.03,0.01 0.05,0.01zm-6.57 1.08c-0.01,0 -0.03,-0.01 -0.04,-0.02 -0.01,-0.01 -0.03,-0.02 -0.04,-0.03 -0.01,-0.02 -0.01,-0.04 -0.02,-0.06 0,-0.02 -0.01,-0.04 0,-0.06 0,-0.02 0,-0.03 0.01,-0.05 0.01,-0.01 0.02,-0.03 0.03,-0.04 0.01,-0.01 0.03,-0.02 0.05,-0.02 0.02,-0.01 0.03,-0.01 0.05,-0.01 0.02,0 0.03,0.01 0.05,0.02 0.01,0.01 0.02,0.02 0.03,0.04 0.01,0.01 0.02,0.03 0.02,0.05 0.01,0.02 0.01,0.04 0.01,0.06 0,0.02 -0.01,0.04 -0.02,0.05 0,0.02 -0.01,0.03 -0.03,0.04 -0.01,0.01 -0.03,0.02 -0.04,0.02 -0.02,0.01 -0.04,0.01 -0.06,0.01zm0.21 -0.34c0.02,0.09 0.03,0.13 0.05,0.22 0.04,-0.01 0.07,-0.02 0.11,-0.03 0.01,0.02 0.01,0.03 0.01,0.05 -0.07,0.02 -0.1,0.02 -0.17,0.04 -0.02,-0.1 -0.03,-0.16 -0.06,-0.26 0.02,-0.01 0.03,-0.01 0.06,-0.02zm0.2 -0.05c0.03,0.11 0.04,0.16 0.06,0.26 -0.02,0.01 -0.03,0.01 -0.05,0.02 -0.02,-0.11 -0.04,-0.16 -0.06,-0.27 0.02,0 0.03,0 0.05,-0.01zm0.03 -0.01c0.03,0 0.04,-0.01 0.06,-0.01 0.03,0.04 0.05,0.05 0.08,0.09 0.01,-0.05 0.02,-0.07 0.03,-0.12 0.03,-0.01 0.04,-0.01 0.06,-0.01 -0.02,0.07 -0.03,0.1 -0.05,0.17 0,0.05 0.01,0.07 0.02,0.11 -0.02,0.01 -0.03,0.01 -0.05,0.02 -0.01,-0.05 -0.02,-0.07 -0.03,-0.11 -0.04,-0.06 -0.07,-0.08 -0.12,-0.14zm0.32 -0.02c-0.01,-0.02 -0.01,-0.03 -0.01,-0.05 0.08,-0.02 0.12,-0.03 0.2,-0.05 0.01,0.02 0.01,0.03 0.01,0.05 -0.03,0.01 -0.04,0.01 -0.07,0.02 0.01,0.09 0.02,0.13 0.04,0.22 -0.02,0 -0.03,0 -0.05,0.01 -0.02,-0.09 -0.03,-0.13 -0.05,-0.22 -0.03,0.01 -0.04,0.01 -0.07,0.02zm0.32 -0.12c0.06,0.1 0.08,0.15 0.14,0.25 -0.02,0 -0.03,0 -0.06,0.01 -0.01,-0.03 -0.02,-0.04 -0.03,-0.06 -0.03,0.01 -0.05,0.01 -0.09,0.02 0,0.02 0,0.04 -0.01,0.06 -0.02,0.01 -0.03,0.01 -0.05,0.02 0.02,-0.12 0.03,-0.18 0.05,-0.29 0.02,-0.01 0.03,-0.01 0.05,-0.01zm0.14 -0.03c0,0.04 0,0.06 -0.01,0.1 -0.01,0 -0.02,0 -0.03,0.01 -0.01,-0.04 -0.01,-0.06 -0.01,-0.1 0.02,0 0.03,-0.01 0.05,-0.01zm0.1 -0.02c0.01,0.09 0.02,0.13 0.03,0.22 0.05,-0.01 0.07,-0.01 0.12,-0.02 0,0.02 0,0.03 0,0.05 -0.06,0.01 -0.1,0.02 -0.16,0.03 -0.02,-0.11 -0.03,-0.16 -0.05,-0.27 0.02,0 0.03,-0.01 0.06,-0.01zm0.2 -0.04c0.02,0.11 0.03,0.16 0.04,0.27 -0.02,0.01 -0.03,0.01 -0.05,0.01 -0.01,-0.11 -0.02,-0.16 -0.04,-0.27 0.02,0 0.03,0 0.05,-0.01zm0.12 -0.02c0.04,0.08 0.06,0.12 0.09,0.19 0.02,-0.08 0.03,-0.12 0.04,-0.21 0.03,0 0.04,0 0.06,-0.01 0.02,0.11 0.03,0.16 0.04,0.27 -0.02,0.01 -0.03,0.01 -0.05,0.01 -0.01,-0.07 -0.01,-0.11 -0.02,-0.18 -0.02,0.08 -0.02,0.11 -0.04,0.19 -0.01,0 -0.02,0 -0.04,0.01 -0.03,-0.07 -0.05,-0.11 -0.08,-0.17 0.01,0.07 0.01,0.1 0.02,0.17 -0.02,0.01 -0.02,0.01 -0.04,0.01 -0.02,-0.11 -0.03,-0.16 -0.04,-0.27 0.02,0 0.04,0 0.06,-0.01zm0.32 0.17c-0.01,0.04 -0.01,0.06 -0.01,0.1 -0.02,0 -0.02,0 -0.04,0 0,-0.04 0,-0.06 0,-0.1 0.02,0 0.03,0 0.05,0zm0.27 -0.25c0,0.02 0,0.03 0,0.05 -0.05,0 -0.07,0.01 -0.11,0.01 0,0.03 0,0.04 0,0.07 0.05,-0.01 0.07,-0.01 0.11,-0.02 0,0.02 0,0.03 0.01,0.05 -0.05,0.01 -0.07,0.01 -0.11,0.01 0,0.05 0.01,0.07 0.01,0.11 -0.02,0.01 -0.03,0.01 -0.05,0.01 -0.01,-0.11 -0.02,-0.16 -0.03,-0.27 0.06,-0.01 0.1,-0.01 0.17,-0.02zm0.14 -0.02c0.05,0.11 0.07,0.16 0.12,0.26 -0.02,0 -0.03,0.01 -0.05,0.01 -0.01,-0.03 -0.02,-0.04 -0.03,-0.06 -0.04,0 -0.05,0 -0.09,0.01 -0.01,0.02 -0.01,0.04 -0.01,0.06 -0.03,0.01 -0.04,0.01 -0.06,0.01 0.03,-0.11 0.04,-0.17 0.07,-0.28 0.02,0 0.03,-0.01 0.05,-0.01zm0.18 -0.02c0.05,0.07 0.07,0.1 0.12,0.17 -0.01,-0.07 -0.01,-0.11 -0.02,-0.18 0.02,0 0.03,0 0.06,0 0,0.11 0.01,0.16 0.02,0.27 -0.02,0 -0.03,0 -0.05,0 -0.05,-0.06 -0.07,-0.1 -0.12,-0.16 0,0.07 0.01,0.1 0.01,0.17 -0.02,0.01 -0.03,0.01 -0.05,0.01 -0.01,-0.11 -0.01,-0.16 -0.02,-0.27 0.02,0 0.03,0 0.05,-0.01zm0.32 -0.03c0.03,0.08 0.04,0.12 0.07,0.19 0.02,-0.08 0.03,-0.12 0.06,-0.2 0.02,0 0.03,0 0.05,0 -0.03,0.11 -0.05,0.17 -0.08,0.28 -0.02,0 -0.03,0 -0.05,0 -0.04,-0.1 -0.07,-0.16 -0.11,-0.26 0.02,0 0.03,0 0.06,-0.01zm0.31 -0.02c0.04,0.11 0.06,0.16 0.1,0.27 -0.02,0 -0.03,0 -0.05,0 -0.01,-0.02 -0.02,-0.03 -0.03,-0.06 -0.03,0 -0.05,0 -0.09,0.01 0,0.02 -0.01,0.04 -0.01,0.06 -0.02,0 -0.04,0 -0.06,0 0.03,-0.11 0.05,-0.16 0.08,-0.27 0.02,0 0.03,-0.01 0.06,-0.01zm0.26 -0.01c0,0.11 0,0.16 0.01,0.27 -0.02,0 -0.04,0 -0.06,0 0,-0.1 0,-0.16 -0.01,-0.27 0.03,0 0.04,0 0.06,0zm0.1 0c0.04,0.07 0.07,0.1 0.11,0.17 0,-0.07 0,-0.1 0,-0.18 0.02,0 0.03,0 0.05,0 0,0.11 0,0.17 0,0.28 -0.02,0 -0.03,0 -0.04,0 -0.05,-0.07 -0.07,-0.11 -0.11,-0.18 0,0.07 0,0.11 0,0.18 -0.02,0 -0.03,0 -0.05,0 0,-0.11 -0.01,-0.16 -0.01,-0.27 0.02,0 0.03,0 0.05,0zm0.26 -0.01c0.04,0.07 0.07,0.11 0.11,0.18 0,-0.07 0,-0.11 0,-0.18 0.02,0 0.03,0 0.05,0 0,0.11 0,0.16 0,0.27 -0.02,0 -0.03,0 -0.05,0 -0.04,-0.07 -0.06,-0.1 -0.11,-0.17 0.01,0.07 0.01,0.1 0.01,0.17 -0.02,0 -0.03,0 -0.05,0 -0.01,-0.11 -0.01,-0.16 -0.01,-0.27 0.02,0 0.03,0 0.05,0zm0.28 0.27c-0.02,-0.01 -0.03,-0.02 -0.04,-0.03 -0.01,-0.01 -0.02,-0.03 -0.03,-0.05 0,-0.01 -0.01,-0.03 -0.01,-0.05 0,-0.03 0.01,-0.05 0.01,-0.06 0.01,-0.02 0.02,-0.04 0.03,-0.05 0.01,-0.01 0.02,-0.02 0.04,-0.03 0.01,0 0.03,-0.01 0.05,-0.01 0.02,0 0.04,0.01 0.05,0.01 0.02,0.01 0.03,0.02 0.04,0.03 0.01,0.02 0.02,0.03 0.02,0.05 0.01,0.02 0.01,0.04 0.01,0.06 0,0.02 0,0.04 -0.01,0.06 0,0.01 -0.01,0.03 -0.02,0.04 -0.01,0.01 -0.03,0.02 -0.04,0.03 -0.02,0.01 -0.03,0.01 -0.05,0.01 -0.02,0 -0.04,0 -0.05,-0.01zm0.24 -0.27c0.02,0.08 0.03,0.12 0.06,0.2 0.02,-0.08 0.04,-0.12 0.07,-0.19 0.02,0 0.03,0 0.05,0 -0.04,0.1 -0.06,0.16 -0.1,0.27 -0.02,0 -0.03,0 -0.05,0 -0.04,-0.11 -0.05,-0.17 -0.09,-0.28 0.02,0 0.03,0 0.06,0zm0.31 0.01c0.03,0.11 0.05,0.17 0.08,0.28 -0.02,0 -0.03,0 -0.06,0 0,-0.03 -0.01,-0.04 -0.01,-0.07 -0.04,0 -0.06,0 -0.09,0 -0.01,0.02 -0.02,0.04 -0.03,0.06 -0.02,0 -0.03,0 -0.05,0 0.04,-0.11 0.06,-0.16 0.1,-0.27 0.02,0 0.04,0 0.06,0zm0.07 0.05c0,-0.01 0,-0.02 0,-0.04 0.08,0 0.13,0 0.21,0.01 0,0.02 0,0.03 0,0.05 -0.03,-0.01 -0.05,-0.01 -0.08,-0.01 0,0.09 -0.01,0.13 -0.01,0.22 -0.02,0 -0.03,0 -0.05,0 0,-0.09 0,-0.13 0.01,-0.22 -0.04,0 -0.05,0 -0.08,-0.01zm0.29 0.19c0.01,0.01 0.02,0.02 0.04,0.02 0.01,0 0.01,0 0.02,0 0,-0.01 0.01,-0.01 0.01,-0.01 0.01,0 0.01,-0.01 0.01,-0.01 0,-0.01 0,-0.01 0,-0.02 0.01,0 0,-0.01 0,-0.02 -0.01,0 -0.02,-0.01 -0.03,-0.01 -0.01,-0.01 -0.02,-0.01 -0.03,-0.01 -0.01,0 -0.03,-0.01 -0.04,-0.01 -0.01,-0.01 -0.01,-0.01 -0.02,-0.02 -0.01,-0.01 -0.01,-0.02 -0.01,-0.03 -0.01,0 -0.01,-0.02 -0.01,-0.03 0,-0.01 0.01,-0.02 0.01,-0.03 0.01,-0.01 0.01,-0.02 0.02,-0.03 0.01,0 0.02,-0.01 0.04,-0.01 0.01,0 0.02,0 0.04,0 0.02,0 0.03,0 0.04,0.01 0.02,0 0.03,0.01 0.03,0.02 0.01,0.01 0.02,0.02 0.02,0.03 0,0.01 0,0.02 0,0.03 -0.02,0 -0.03,0 -0.05,0 0,-0.01 0,-0.03 -0.01,-0.03 -0.01,-0.01 -0.02,-0.01 -0.04,-0.02 0,0 -0.01,0 -0.02,0.01 0,0 -0.01,0 -0.01,0 -0.01,0 -0.01,0.01 -0.01,0.01 0,0 0,0.01 0,0.01 0,0.01 0,0.02 0,0.02 0.01,0.01 0.02,0.01 0.03,0.02 0.01,0 0.02,0 0.04,0.01 0.02,0.01 0.04,0.02 0.05,0.03 0.02,0.01 0.02,0.03 0.02,0.06 0,0.01 0,0.02 -0.01,0.03 0,0.01 -0.01,0.02 -0.02,0.03 -0.01,0 -0.02,0.01 -0.03,0.01 -0.01,0 -0.03,0.01 -0.04,0 -0.04,0 -0.06,-0.01 -0.08,-0.03 -0.02,-0.01 -0.03,-0.04 -0.03,-0.07 0.02,0 0.03,0 0.06,0 0,0.02 0,0.03 0.01,0.04zm0.25 -0.2c-0.01,0.11 -0.02,0.16 -0.02,0.27 -0.03,0 -0.04,0 -0.06,0 0.01,-0.11 0.01,-0.17 0.02,-0.27 0.02,0 0.03,0 0.06,0zm0.03 0c0.02,0.01 0.03,0.01 0.06,0.01 0.01,0.04 0.02,0.07 0.04,0.11 0.03,-0.04 0.04,-0.06 0.07,-0.1 0.02,0 0.03,0 0.06,0 -0.04,0.07 -0.07,0.1 -0.11,0.16 0,0.04 0,0.06 0,0.11 -0.03,-0.01 -0.04,-0.01 -0.06,-0.01 0.01,-0.04 0.01,-0.06 0.01,-0.11 -0.03,-0.07 -0.04,-0.1 -0.07,-0.17zm0.34 0.04c0.03,0.11 0.04,0.17 0.07,0.28 -0.02,0 -0.03,-0.01 -0.06,-0.01 0,-0.02 -0.01,-0.04 -0.01,-0.06 -0.04,-0.01 -0.06,-0.01 -0.09,-0.01 -0.01,0.02 -0.02,0.03 -0.03,0.06 -0.02,0 -0.03,-0.01 -0.05,-0.01 0.04,-0.1 0.07,-0.15 0.12,-0.26 0.02,0 0.03,0 0.05,0.01zm0.18 0.02c-0.01,0.09 -0.01,0.13 -0.02,0.22 0.04,0.01 0.07,0.01 0.12,0.02 -0.01,0.01 -0.01,0.02 -0.01,0.04 -0.07,-0.01 -0.1,-0.01 -0.17,-0.02 0.01,-0.11 0.01,-0.16 0.03,-0.27 0.02,0 0.03,0.01 0.05,0.01zm0.29 0.04c0.02,0.11 0.04,0.17 0.06,0.28 -0.02,0 -0.03,-0.01 -0.06,-0.01 0,-0.02 0,-0.04 -0.01,-0.06 -0.03,-0.01 -0.05,-0.01 -0.09,-0.02 -0.01,0.03 -0.01,0.04 -0.02,0.06 -0.03,0 -0.04,0 -0.06,0 0.05,-0.11 0.08,-0.16 0.13,-0.26 0.02,0 0.03,0 0.05,0.01zm0.22 0.03c0.02,0 0.03,0.01 0.05,0.01 0.01,0.01 0.02,0.02 0.02,0.03 0.01,0.01 0.01,0.02 0.02,0.03 0,0.01 0,0.02 0,0.03 -0.01,0.01 -0.01,0.03 -0.02,0.04 -0.01,0.01 -0.02,0.02 -0.03,0.02 0.01,0.05 0.02,0.08 0.03,0.13 -0.02,-0.01 -0.03,-0.01 -0.06,-0.01 -0.01,-0.05 -0.01,-0.07 -0.02,-0.11 -0.02,0 -0.03,-0.01 -0.05,-0.01 -0.01,0.04 -0.01,0.06 -0.02,0.1 -0.02,0 -0.03,0 -0.05,0 0.01,-0.11 0.02,-0.17 0.04,-0.27 0.03,0 0.05,0 0.09,0.01zm0.25 0.04c0.01,0.08 0.02,0.12 0.03,0.2 0.04,-0.07 0.06,-0.1 0.1,-0.18 0.02,0.01 0.03,0.01 0.05,0.02 -0.05,0.1 -0.08,0.15 -0.13,0.25 -0.02,-0.01 -0.03,-0.01 -0.05,-0.01 -0.03,-0.12 -0.04,-0.17 -0.06,-0.29 0.02,0.01 0.04,0.01 0.06,0.01zm0.3 0.06c0.02,0.11 0.03,0.17 0.05,0.28 -0.02,0 -0.03,0 -0.05,-0.01 -0.01,-0.02 -0.01,-0.04 -0.01,-0.06 -0.04,-0.01 -0.06,-0.01 -0.09,-0.02 -0.01,0.02 -0.02,0.04 -0.03,0.06 -0.02,-0.01 -0.03,-0.01 -0.06,-0.01 0.06,-0.1 0.09,-0.15 0.14,-0.25 0.02,0 0.03,0 0.05,0.01zm0.24 0.1c-0.05,-0.01 -0.07,-0.02 -0.12,-0.03 0,-0.02 0,-0.03 0,-0.05 0.08,0.02 0.12,0.03 0.19,0.04 0,0.02 0,0.03 -0.01,0.04 -0.06,0.06 -0.09,0.09 -0.15,0.15 0.05,0.02 0.07,0.02 0.13,0.03 -0.01,0.02 -0.01,0.03 -0.02,0.05 -0.07,-0.02 -0.11,-0.03 -0.19,-0.04 0.01,-0.02 0.01,-0.03 0.01,-0.04 0.06,-0.06 0.1,-0.09 0.16,-0.15zm0.16 -0.02c-0.02,0.11 -0.03,0.16 -0.05,0.27 -0.02,-0.01 -0.03,-0.01 -0.05,-0.01 0.02,-0.11 0.03,-0.16 0.05,-0.27 0.02,0.01 0.03,0.01 0.05,0.01zm0.14 0.04c0.02,0 0.04,0.01 0.05,0.02 0.01,0 0.02,0.01 0.03,0.02 0.01,0.01 0.01,0.02 0.01,0.03 0,0.01 0,0.02 0,0.03 -0.01,0.02 -0.01,0.03 -0.02,0.04 -0.01,0.01 -0.02,0.02 -0.04,0.02 0.01,0.05 0.02,0.08 0.03,0.13 -0.02,-0.01 -0.03,-0.01 -0.06,-0.02 0,-0.04 -0.01,-0.06 -0.02,-0.11 -0.02,0 -0.03,0 -0.05,-0.01 0,0.04 -0.01,0.06 -0.02,0.1 -0.02,0 -0.03,0 -0.05,-0.01 0.02,-0.11 0.03,-0.16 0.05,-0.27 0.04,0.01 0.06,0.02 0.09,0.03zm0.2 0.04c-0.02,0.09 -0.03,0.13 -0.05,0.22 0.05,0.01 0.07,0.02 0.12,0.03 0,0.02 -0.01,0.03 -0.01,0.05 -0.07,-0.02 -0.1,-0.03 -0.17,-0.04 0.02,-0.11 0.03,-0.16 0.06,-0.27 0.02,0.01 0.03,0.01 0.05,0.01zm0.21 0.06c-0.03,0.1 -0.04,0.16 -0.06,0.26 -0.02,0 -0.03,-0.01 -0.05,-0.01 0.02,-0.11 0.03,-0.16 0.06,-0.27 0.02,0.01 0.03,0.01 0.05,0.02zm0.23 0.19c-0.01,0.04 -0.01,0.07 -0.02,0.11 -0.02,0.01 -0.04,0.02 -0.06,0.02 -0.02,0 -0.03,0 -0.05,-0.01 -0.02,0 -0.04,-0.01 -0.05,-0.02 -0.02,-0.01 -0.03,-0.03 -0.03,-0.04 -0.01,-0.02 -0.01,-0.03 -0.01,-0.05 -0.01,-0.02 0,-0.04 0,-0.06 0.01,-0.02 0.01,-0.04 0.02,-0.05 0.01,-0.02 0.02,-0.03 0.04,-0.04 0.01,-0.01 0.02,-0.02 0.04,-0.02 0.02,0 0.03,0 0.05,0.01 0.02,0 0.03,0.01 0.04,0.01 0.01,0.01 0.02,0.02 0.03,0.03 0,0.01 0.01,0.02 0.01,0.03 0,0.01 0,0.02 0,0.03 -0.02,0 -0.03,0 -0.05,0 0,-0.01 0,-0.02 0,-0.02 0,-0.01 -0.01,-0.01 -0.01,-0.02 0,0 -0.01,-0.01 -0.01,-0.01 -0.01,0 -0.01,-0.01 -0.02,-0.01 -0.02,0 -0.04,0 -0.05,0.01 -0.02,0.02 -0.03,0.04 -0.03,0.07 -0.01,0.03 -0.01,0.05 -0.01,0.07 0.01,0.02 0.03,0.03 0.05,0.04 0.01,0 0.02,0 0.03,0 0.01,0 0.02,0 0.02,0 0.01,-0.02 0.01,-0.03 0.01,-0.05 -0.01,0 -0.02,-0.01 -0.04,-0.01 0,-0.02 0,-0.03 0.01,-0.05 0.04,0.01 0.06,0.02 0.09,0.03zm0.13 -0.09c-0.03,0.1 -0.04,0.16 -0.07,0.26 -0.02,0 -0.03,-0.01 -0.05,-0.01 0.03,-0.11 0.04,-0.16 0.07,-0.27 0.02,0.01 0.03,0.01 0.05,0.02zm0.12 1.47l-0.07 0 -0.16 0 -0.08 0 -0.15 0 -0.08 0 -0.03 0 0.05 -0.12 0.11 -0.29 0.08 -0.19 -0.05 0 -0.07 0 -0.16 0.01 -0.08 0 -0.19 0.01 -0.08 0.01 0.16 -0.52 0.01 -0.03c0,0 0,0 0,0 -0.04,0 -0.23,0.01 -0.52,0.06 -0.04,0.01 -0.08,0.02 -0.13,0.03 -0.1,0.02 -0.21,0.05 -0.33,0.09l0.31 0.07 0.11 0.02 0.13 0.03c0,0 -0.1,0.27 -0.24,0.72 -0.08,0.24 -0.16,0.54 -0.25,0.88 -0.13,0.5 -0.26,1.09 -0.35,1.7 0,0.02 -0.01,0.05 -0.01,0.07 0,0 -0.15,0 -0.38,0.03 -0.43,0.04 -1.14,0.18 -1.67,0.58 -0.03,0.01 -0.05,0.03 -0.08,0.05 -0.02,0.02 -0.04,0.04 -0.06,0.05l-0.06 -0.05c-0.02,-0.02 -0.05,-0.04 -0.08,-0.05 -0.57,-0.43 -1.34,-0.56 -1.75,-0.59 -0.18,-0.02 -0.3,-0.02 -0.3,-0.02 0,-0.02 0,-0.05 -0.01,-0.07 -0.14,-0.94 -0.37,-1.82 -0.55,-2.43 0,0 0,0 0,0 -0.09,-0.3 -0.17,-0.53 -0.22,-0.68 -0.04,-0.12 -0.07,-0.19 -0.07,-0.19l0.04 -0.01 0.11 -0.02 0.41 -0.09c-0.16,-0.05 -0.31,-0.09 -0.44,-0.11 -0.04,-0.01 -0.08,-0.02 -0.12,-0.02 -0.27,-0.05 -0.42,-0.05 -0.43,-0.05l0.18 0.55 -0.18 -0.01 -0.19 -0.01 -0.08 0 -0.16 -0.01 -0.03 0 0.05 0.11 0.19 0.49 -0.12 0 -0.08 0 -0.15 0 -0.08 0 -0.16 0 -0.07 0.01 -0.02 0c0.01,0.01 0.02,0.02 0.03,0.04 0.03,0.04 0.06,0.09 0.08,0.14 0.08,0.12 0.15,0.26 0.23,0.4 0.03,0.07 0.06,0.14 0.1,0.21 0.08,0.19 0.16,0.39 0.24,0.58 0.04,0.1 0.07,0.21 0.11,0.31 0.1,0.29 0.19,0.58 0.27,0.84 0.01,0.05 0.02,0.09 0.03,0.13 0.04,0.13 0.07,0.24 0.1,0.35 0.04,0.16 0.07,0.3 0.09,0.4 0.02,0.05 0.03,0.1 0.03,0.14 0.02,0.05 0.02,0.08 0.02,0.08 0.03,-0.01 0.05,-0.01 0.07,-0.01 0.21,-0.03 0.43,-0.05 0.64,-0.07 0.03,0 0.07,-0.01 0.11,-0.01 0.16,-0.02 0.31,-0.03 0.47,-0.04 0.03,0 0.07,0 0.1,-0.01 0.48,-0.03 0.97,-0.05 1.46,-0.05 0.06,0 0.12,0 0.19,0 0.06,0 0.13,0 0.2,0 0.48,0 0.97,0.02 1.45,0.05 0.01,0 0.01,0.01 0.02,0.01 0.15,0.01 0.31,0.02 0.46,0.03 0.04,0 0.08,0.01 0.11,0.01 0.21,0.02 0.42,0.04 0.63,0.07 0.05,0 0.11,0.01 0.17,0.02 0,0 0,-0.03 0.02,-0.09 0,-0.02 0.01,-0.05 0.02,-0.09 0,0 0,0 0,0 0,-0.02 0,-0.03 0,-0.04 0.02,-0.05 0.03,-0.1 0.04,-0.16 0.04,-0.16 0.09,-0.36 0.16,-0.59 0.04,-0.16 0.09,-0.32 0.15,-0.5 0.03,-0.12 0.07,-0.24 0.12,-0.37 0.07,-0.22 0.16,-0.45 0.25,-0.68 0.03,-0.08 0.07,-0.16 0.1,-0.24 0.08,-0.16 0.15,-0.32 0.23,-0.47 0.03,-0.05 0.06,-0.11 0.09,-0.16 0.05,-0.08 0.1,-0.16 0.15,-0.23l-0.11 -0.01zm-6.54 3.18c-0.03,0.01 -0.07,0.02 -0.1,0.03 -0.24,0.06 -0.48,0.13 -0.48,0.13 -0.02,-0.1 -0.04,-0.2 -0.07,-0.3 -0.03,-0.16 -0.07,-0.31 -0.11,-0.45 -0.11,-0.39 -0.23,-0.75 -0.34,-1.06 -0.04,-0.11 -0.07,-0.2 -0.11,-0.29 -0.08,-0.23 -0.16,-0.42 -0.23,-0.57 -0.04,-0.09 -0.08,-0.17 -0.11,-0.23 -0.06,-0.15 -0.1,-0.22 -0.1,-0.22l0.07 -0.03 0.07 -0.03 0.15 -0.06 0.02 0c0.03,0.07 0.05,0.16 0.08,0.24 0.13,0.4 0.28,0.88 0.4,1.32 0,0 0,0 0.01,0 0.09,0.33 0.17,0.64 0.24,0.89 0.11,0.39 0.18,0.65 0.18,0.65 0.09,-0.03 0.21,-0.05 0.32,-0.06 0.03,0 0.07,0 0.11,0 0.12,-0.01 0.2,0 0.2,0 -0.06,0.01 -0.12,0.02 -0.2,0.04zm0.44 -0.29c-0.19,0 -0.36,0 -0.48,0.01 -0.04,0 -0.08,0 -0.11,0 -0.05,0 -0.09,0.01 -0.09,0.01 -0.02,-0.14 -0.05,-0.28 -0.08,-0.4 -0.3,-1.35 -0.63,-2.21 -0.8,-2.61 -0.08,-0.17 -0.12,-0.26 -0.12,-0.26l0.08 -0.03 0.2 -0.07c0.31,1.01 0.51,1.72 0.63,2.21 0,0 0,0.01 0.01,0.01 0.08,0.34 0.14,0.57 0.17,0.73 0.05,0.24 0.05,0.31 0.05,0.31 0.02,0 0.03,0 0.05,0 0.16,-0.02 0.32,-0.02 0.47,-0.01 0.6,0.03 1.09,0.19 1.16,0.21 -0.38,-0.08 -0.8,-0.11 -1.14,-0.11zm3.6 0c-0.32,0.01 -0.7,0.03 -1.05,0.11 0.06,-0.02 0.51,-0.17 1.07,-0.21 0.15,-0.01 0.3,-0.01 0.46,0 0.04,0 0.08,0 0.12,0.01 0,0 0.01,0 0.02,0 0,0 0,-0.07 0.05,-0.31 0.08,-0.39 0.29,-1.24 0.81,-2.95l0.12 0.04 0.16 0.06c0,0 -0.1,0.21 -0.26,0.62 0,0 0,0 0,0 -0.18,0.48 -0.43,1.22 -0.66,2.24 -0.03,0.13 -0.06,0.27 -0.08,0.41 0,0 -0.07,-0.01 -0.18,-0.01 -0.03,-0.01 -0.07,-0.01 -0.11,-0.01 -0.13,0 -0.29,-0.01 -0.47,0zm2.16 -2.65c-0.03,0.05 -0.11,0.23 -0.23,0.49 -0.03,0.08 -0.07,0.17 -0.1,0.26 -0.08,0.19 -0.16,0.4 -0.25,0.65 -0.03,0.1 -0.07,0.22 -0.11,0.33 -0.06,0.2 -0.12,0.4 -0.18,0.62 -0.07,0.24 -0.13,0.49 -0.19,0.75 0,0 -0.02,-0.01 -0.05,-0.02 -0.1,-0.03 -0.31,-0.08 -0.51,-0.13 -0.04,-0.01 -0.08,-0.02 -0.11,-0.03 -0.04,-0.01 -0.08,-0.02 -0.11,-0.02 0,0 0.04,-0.01 0.11,-0.01 0.03,0 0.07,0 0.12,0.01 0.13,0 0.29,0.02 0.4,0.06 0,0 0.07,-0.26 0.18,-0.65 0.02,-0.05 0.03,-0.11 0.05,-0.18 0.12,-0.45 0.28,-1.02 0.45,-1.54 0.04,-0.13 0.08,-0.26 0.12,-0.38 0.03,-0.12 0.08,-0.24 0.12,-0.35l0.08 0.03 0.07 0.02 0.15 0.06 0 0c0,0 0,0.01 -0.01,0.03zm-0.55 -1.79c0.01,0 0.02,0 0.02,-0.01 0,0 0.01,0 0.01,-0.01 0,0 0,-0.01 0,-0.01 0,-0.01 0,-0.01 0,-0.02 0,0 0,0 0,-0.01 0,0 -0.01,-0.01 -0.01,-0.01 -0.01,0 -0.02,-0.01 -0.03,-0.01 -0.01,0 -0.02,0 -0.03,-0.01 -0.01,0.03 -0.01,0.05 -0.02,0.08 0.02,0 0.03,0 0.04,0.01 0.01,0 0.02,0 0.02,0zm-0.57 -0.18c-0.02,0.03 -0.03,0.05 -0.05,0.09 0.02,0 0.04,0 0.06,0.01 0,-0.04 -0.01,-0.06 -0.01,-0.1zm-0.52 -0.04c0.01,0 0.02,0 0.02,0 0,-0.01 0.01,-0.01 0.01,-0.02 0,0 0,0 0,-0.01 0,-0.01 0,-0.01 0,-0.02 0,0 0,0 -0.01,-0.01 0,0 0,-0.01 -0.01,-0.01 0,0 -0.01,0 -0.02,0 -0.02,-0.01 -0.02,-0.01 -0.04,-0.01 0,0.03 0,0.04 -0.01,0.08 0.02,0 0.03,0 0.04,0 0.01,0 0.02,0 0.02,0zm-0.26 -0.09c-0.01,0.03 -0.02,0.05 -0.04,0.09 0.03,0 0.04,0 0.06,0.01 0,-0.04 -0.01,-0.06 -0.02,-0.1zm-0.46 -0.06c-0.02,0.04 -0.03,0.05 -0.04,0.09 0.02,0 0.03,0.01 0.06,0.01 -0.01,-0.04 -0.02,-0.06 -0.02,-0.1zm-0.98 -0.07c-0.02,0.03 -0.02,0.05 -0.04,0.09 0.03,0 0.04,0 0.06,0 -0.01,-0.03 -0.01,-0.05 -0.02,-0.09zm-0.42 0.13c0.01,-0.02 0.01,-0.04 0.01,-0.07 0,-0.03 0,-0.06 -0.01,-0.07 -0.01,-0.02 -0.03,-0.03 -0.05,-0.03 -0.03,0 -0.04,0.01 -0.05,0.03 -0.01,0.01 -0.02,0.04 -0.02,0.07 0,0.03 0,0.05 0.02,0.07 0.01,0.01 0.02,0.02 0.05,0.02 0.02,0 0.04,-0.01 0.05,-0.02zm-1.03 -0.12c-0.01,0.04 -0.01,0.06 -0.02,0.1 0.02,0 0.03,0 0.06,0 -0.02,-0.04 -0.02,-0.06 -0.04,-0.1zm-0.8 0.07c-0.01,0.04 -0.01,0.06 -0.02,0.1 0.02,0 0.04,0 0.06,-0.01 -0.02,-0.03 -0.02,-0.05 -0.04,-0.09zm-1.29 0.21c0,0.04 -0.01,0.06 -0.01,0.1 0.02,-0.01 0.04,-0.01 0.06,-0.01 -0.02,-0.04 -0.03,-0.06 -0.05,-0.09zm-0.97 0.38c0,-0.02 0,-0.04 0,-0.07 -0.01,-0.03 -0.02,-0.05 -0.04,-0.07 -0.01,-0.01 -0.03,-0.01 -0.05,0 -0.02,0 -0.04,0.01 -0.05,0.03 0,0.02 0,0.05 0.01,0.07 0,0.03 0.01,0.06 0.03,0.07 0.01,0.01 0.03,0.01 0.05,0.01 0.02,-0.01 0.04,-0.02 0.05,-0.04zm6.02 -0.99c-0.01,0.03 -0.02,0.05 -0.04,0.09 0.03,0 0.04,0 0.07,0.01 -0.01,-0.04 -0.02,-0.06 -0.03,-0.1zm-0.79 -0.06c0,-0.01 0.01,-0.01 0.01,-0.02 0,-0.01 0,-0.02 -0.01,-0.03 -0.01,0 -0.02,-0.01 -0.04,-0.01 -0.01,0 -0.02,0 -0.04,0 0,0.02 0,0.04 0,0.06 0.02,0 0.03,0 0.05,0.01 0.01,0 0.02,-0.01 0.03,-0.01zm-0.02 0.12c0.01,0 0.01,0 0.01,0 0.01,-0.01 0.01,-0.01 0.01,-0.01 0,-0.01 0.01,-0.01 0.01,-0.02 0,-0.01 -0.01,-0.02 -0.01,-0.03 -0.01,0 -0.02,-0.01 -0.03,-0.01 -0.02,0 -0.03,0 -0.06,0 0,0.03 0,0.04 0,0.07 0.02,0 0.03,0 0.05,0 0.01,0.01 0.01,0 0.02,0zm-0.49 -0.13c0.01,0 0.01,-0.01 0.01,-0.01 0.01,0 0.01,-0.01 0.01,-0.01 0,-0.01 0.01,-0.01 0.01,-0.02 0,0 0,-0.01 -0.01,-0.02 0,0 0,0 0,-0.01 -0.01,0 -0.01,0 -0.02,-0.01 0,0 -0.01,0 -0.02,0 -0.02,0 -0.02,0 -0.04,0 0,0.03 0,0.05 0,0.08 0.01,0 0.02,0 0.04,0 0.01,0 0.01,0 0.02,0zm-0.7 -0.03c0,0 0.01,0 0.01,0 0,-0.01 0.01,-0.01 0.01,-0.02 0,0 0,-0.01 0,-0.01 0,-0.01 0,-0.01 0,-0.02 0,0 -0.01,-0.01 -0.01,-0.01 0,0 -0.01,0 -0.02,-0.01 0,0 -0.01,0 -0.02,0 -0.01,0 -0.02,0 -0.04,0 0,0.03 0,0.05 0,0.08 0.02,0 0.03,0 0.04,0 0.01,0 0.02,-0.01 0.03,-0.01zm-0.59 0.1c0.01,-0.02 0.02,-0.04 0.02,-0.07 0,-0.03 -0.01,-0.06 -0.02,-0.07 -0.01,-0.02 -0.03,-0.03 -0.06,-0.02 -0.02,0 -0.04,0 -0.05,0.02 -0.01,0.02 -0.01,0.04 -0.01,0.07 0,0.03 0.01,0.05 0.02,0.07 0.01,0.02 0.03,0.02 0.05,0.02 0.02,0 0.04,-0.01 0.05,-0.02zm-1.32 -0.01c0.01,0 0.01,-0.01 0.01,-0.02 0,-0.01 -0.01,-0.02 -0.02,-0.02 0,-0.01 -0.01,-0.01 -0.03,-0.01 -0.02,0.01 -0.03,0.01 -0.04,0.01 0,0.02 0,0.04 0.01,0.06 0.01,0 0.02,0 0.04,0 0.02,-0.01 0.03,-0.01 0.03,-0.02zm0.01 0.13c0,0 0.01,-0.01 0.01,-0.01 0,-0.01 0.01,-0.01 0.01,-0.01 0,-0.01 0,-0.01 0,-0.02 0,-0.01 -0.01,-0.02 -0.01,-0.03 -0.01,0 -0.02,0 -0.04,0 -0.02,0 -0.03,0 -0.05,0.01 0,0.03 0.01,0.04 0.01,0.07 0.02,0 0.03,0 0.04,-0.01 0.01,0 0.02,0 0.03,0zm-0.55 0.06c0.01,-0.02 0.01,-0.05 0.01,-0.08 0,-0.02 -0.01,-0.05 -0.03,-0.06 -0.01,-0.02 -0.03,-0.02 -0.05,-0.02 -0.02,0.01 -0.04,0.02 -0.05,0.04 -0.01,0.01 -0.01,0.04 -0.01,0.07 0.01,0.03 0.02,0.05 0.03,0.06 0.01,0.02 0.03,0.02 0.06,0.02 0.02,0 0.03,-0.02 0.04,-0.03z"/>
 </g>
</svg>
