<?xml version="1.0" encoding="UTF-8"?>
<!DOCTYPE svg PUBLIC "-//W3C//DTD SVG 1.1//EN" "http://www.w3.org/Graphics/SVG/1.1/DTD/svg11.dtd">
<!-- Creator: CorelDRAW -->
<svg xmlns="http://www.w3.org/2000/svg" xml:space="preserve" width="3497px" height="1075px" version="1.1" shape-rendering="geometricPrecision" text-rendering="geometricPrecision" image-rendering="optimizeQuality" fill-rule="evenodd" clip-rule="evenodd"
viewBox="0 0 1330.52 409.23"
 xmlns:xlink="http://www.w3.org/1999/xlink"
 xmlns:xodm="http://www.corel.com/coreldraw/odm/2003">
 <g id="Layer_x0020_1">
  <metadata id="CorelCorpID_0Corel-Layer"/>
  <path fill="white" fill-rule="nonzero" stroke="white" stroke-width="0.34" stroke-miterlimit="22.9256" d="M86.38 101.82c-0.7,-0.18 -1.34,-0.5 -1.89,-0.96 -0.55,-0.45 -1.01,-1.04 -1.36,-1.75 -0.37,-0.7 -0.62,-1.54 -0.76,-2.49 -0.14,-0.95 -0.14,-1.83 0,-2.63 0.14,-0.8 0.41,-1.5 0.81,-2.13 0.41,-0.61 0.92,-1.12 1.56,-1.53 0.64,-0.4 1.38,-0.66 2.23,-0.79 0.86,-0.14 1.64,-0.14 2.36,0.05 0.73,0.17 1.35,0.5 1.9,0.95 0.54,0.46 0.99,1.05 1.32,1.78 0.35,0.72 0.58,1.56 0.71,2.51 0.12,0.95 0.12,1.83 -0.02,2.63 -0.14,0.8 -0.41,1.5 -0.79,2.11 -0.39,0.61 -0.91,1.1 -1.52,1.5 -0.64,0.4 -1.38,0.67 -2.23,0.8 -0.81,0.14 -1.59,0.12 -2.32,-0.05zm10.01 -13.47c0.02,1.72 0.02,2.56 0.02,4.27 -0.89,0.13 -1.33,0.19 -2.21,0.34 0.17,-1.73 0.26,-2.61 0.46,-4.34 0.7,-0.11 1.04,-0.15 1.73,-0.27zm7.17 1.13c-2.26,0.3 -3.39,0.47 -5.65,0.8 -0.11,-0.84 -0.16,-1.26 -0.27,-2.12 3.41,-0.49 5.13,-0.74 8.56,-1.2 0.09,0.73 0.12,1.09 0.21,1.81 -1.94,3.45 -2.9,5.18 -4.79,8.65 2.39,-0.34 3.57,-0.52 5.96,-0.82 0,0.86 0,1.29 0,2.15 -3.43,0.46 -5.13,0.71 -8.56,1.2 -0.09,-0.72 -0.14,-1.09 -0.23,-1.79 1.89,-3.48 2.83,-5.22 4.77,-8.68zm8.45 -3.26c0.85,-0.11 1.58,-0.11 2.14,-0.02 0.59,0.1 1.04,0.27 1.4,0.52 0.35,0.24 0.62,0.55 0.78,0.93 0.16,0.36 0.26,0.78 0.31,1.24 0.06,0.45 0,0.91 -0.15,1.33 -0.16,0.44 -0.48,0.82 -0.99,1.18 0.35,0.15 0.67,0.3 0.9,0.5 0.24,0.17 0.44,0.38 0.58,0.59 0.14,0.2 0.26,0.43 0.34,0.68 0.07,0.23 0.12,0.48 0.14,0.72 0.05,0.5 0.01,0.98 -0.07,1.43 -0.11,0.46 -0.3,0.88 -0.6,1.22 -0.31,0.36 -0.71,0.67 -1.24,0.91 -0.53,0.25 -1.19,0.44 -1.98,0.54 -1.75,0.21 -2.62,0.32 -4.37,0.55 -0.53,-4.72 -0.79,-7.08 -1.34,-11.79 1.64,-0.22 2.47,-0.32 4.15,-0.53zm14.23 -1.62c0.07,0.84 0.11,1.26 0.2,2.1 -2.19,0.23 -3.29,0.34 -5.48,0.59 0.1,1.03 0.14,1.54 0.25,2.59 2.05,-0.23 3.07,-0.35 5.12,-0.56 0.07,0.86 0.11,1.28 0.2,2.12 -2.05,0.21 -3.08,0.32 -5.13,0.55 0.11,1.16 0.16,1.75 0.28,2.91 2.3,-0.24 3.45,-0.38 5.76,-0.61 -0.01,0.86 -0.03,1.28 -0.05,2.14 -3.14,0.32 -4.74,0.49 -7.88,0.85 -0.48,-4.72 -0.71,-7.08 -1.17,-11.8 3.15,-0.38 4.72,-0.55 7.9,-0.88zm4.49 -0.45c0.16,1.9 0.23,2.83 0.39,4.74 1.54,-2.06 2.32,-3.09 3.89,-5.14 1.06,-0.1 1.59,-0.14 2.65,-0.23 -1.41,1.9 -2.12,2.87 -3.5,4.78 1.93,2.8 2.9,4.2 4.79,7.02 -1.06,0.1 -1.59,0.14 -2.65,0.23 -1.47,-2.21 -2.21,-3.29 -3.67,-5.48 -0.5,0.63 -0.77,0.95 -1.26,1.58 0.14,1.73 0.21,2.61 0.35,4.34 -0.95,0.09 -1.43,0.13 -2.4,0.23 -0.41,-4.72 -0.6,-7.1 -1.01,-11.83 0.96,-0.09 1.45,-0.15 2.42,-0.24zm10.95 -0.96c0.31,4.74 0.47,7.11 0.81,11.85 -0.96,0.07 -1.43,0.11 -2.39,0.19 -0.33,-4.74 -0.51,-7.1 -0.85,-11.85 0.98,-0.07 1.45,-0.11 2.43,-0.19zm5.39 9.22c0.42,0.3 1.02,0.42 1.8,0.38 0.37,-0.02 0.69,-0.09 0.94,-0.19 0.24,-0.1 0.46,-0.23 0.6,-0.38 0.16,-0.15 0.26,-0.32 0.32,-0.52 0.05,-0.19 0.08,-0.4 0.07,-0.62 -0.02,-0.31 -0.15,-0.59 -0.39,-0.86 -0.25,-0.25 -0.67,-0.42 -1.28,-0.51 -0.6,-0.08 -0.91,-0.12 -1.51,-0.18 -0.61,-0.07 -1.14,-0.17 -1.6,-0.32 -0.46,-0.15 -0.84,-0.34 -1.18,-0.61 -0.32,-0.27 -0.58,-0.59 -0.78,-0.99 -0.19,-0.4 -0.3,-0.87 -0.33,-1.45 -0.04,-0.57 0.03,-1.06 0.23,-1.52 0.19,-0.46 0.47,-0.84 0.84,-1.14 0.38,-0.33 0.84,-0.57 1.38,-0.76 0.55,-0.19 1.15,-0.31 1.81,-0.37 0.84,-0.05 1.55,0 2.14,0.16 0.58,0.17 1.04,0.4 1.41,0.7 0.37,0.31 0.64,0.67 0.83,1.09 0.2,0.42 0.32,0.85 0.41,1.33 -0.9,0.17 -1.36,0.27 -2.27,0.44 -0.15,-0.65 -0.4,-1.11 -0.77,-1.37 -0.36,-0.27 -0.89,-0.38 -1.58,-0.33 -0.4,0.02 -0.74,0.1 -1,0.17 -0.27,0.1 -0.48,0.19 -0.62,0.33 -0.16,0.13 -0.27,0.26 -0.32,0.44 -0.05,0.15 -0.07,0.32 -0.07,0.49 0.03,0.44 0.18,0.76 0.42,0.97 0.27,0.21 0.69,0.34 1.28,0.42 0.63,0.08 0.95,0.12 1.6,0.21 1.28,0.17 2.21,0.53 2.82,1.07 0.61,0.53 0.95,1.33 1,2.41 0.04,0.52 -0.03,1.01 -0.21,1.45 -0.16,0.46 -0.42,0.86 -0.78,1.2 -0.35,0.34 -0.79,0.63 -1.34,0.86 -0.55,0.23 -1.19,0.36 -1.95,0.4 -1.55,0.11 -2.77,-0.15 -3.64,-0.78 -0.86,-0.63 -1.39,-1.64 -1.53,-3.03 0.97,-0.08 1.46,-0.11 2.43,-0.19 0.13,0.78 0.39,1.3 0.82,1.6zm6.55 -7.9c-0.05,-0.86 -0.07,-1.3 -0.1,-2.15 3.78,-0.23 5.67,-0.33 9.44,-0.52 0.03,0.86 0.05,1.3 0.09,2.15 -1.4,0.06 -2.11,0.1 -3.5,0.18 0.17,3.88 0.26,5.82 0.42,9.73 -0.95,0.05 -1.45,0.07 -2.4,0.13 -0.18,-3.89 -0.29,-5.83 -0.46,-9.73 -1.38,0.09 -2.09,0.13 -3.49,0.21zm13.62 8.93c-0.69,-0.27 -1.28,-0.65 -1.77,-1.18 -0.5,-0.52 -0.89,-1.16 -1.17,-1.93 -0.28,-0.76 -0.44,-1.61 -0.48,-2.57 -0.03,-0.97 0.06,-1.82 0.29,-2.6 0.23,-0.79 0.56,-1.45 1.02,-2.02 0.46,-0.57 1.03,-1.01 1.7,-1.32 0.67,-0.32 1.45,-0.49 2.3,-0.51 0.86,-0.04 1.64,0.08 2.35,0.34 0.69,0.27 1.27,0.67 1.77,1.2 0.47,0.53 0.86,1.18 1.13,1.92 0.26,0.77 0.4,1.62 0.44,2.59 0.02,0.97 -0.07,1.83 -0.3,2.61 -0.23,0.78 -0.57,1.43 -1.01,2 -0.46,0.55 -1.01,0.99 -1.68,1.3 -0.67,0.3 -1.43,0.47 -2.3,0.51 -0.83,0.04 -1.61,-0.08 -2.29,-0.34zm11.63 -12.11c1.98,3.06 2.95,4.61 4.89,7.69 -0.03,-3.12 -0.05,-4.66 -0.1,-7.79 0.93,-0.02 1.41,-0.02 2.37,-0.03 0.05,4.76 0.07,7.12 0.1,11.88 -0.85,0 -1.27,0.02 -2.14,0.02 -1.92,-3.07 -2.9,-4.59 -4.88,-7.64 0.06,3.08 0.09,4.63 0.15,7.71 -0.94,0.02 -1.4,0.04 -2.34,0.06 -0.1,-4.74 -0.16,-7.12 -0.26,-11.88 0.9,0 1.34,0 2.21,-0.02zm17.27 -0.15c0.92,0 1.66,0.11 2.26,0.34 0.58,0.23 1.06,0.51 1.38,0.86 0.34,0.36 0.57,0.74 0.69,1.18 0.12,0.41 0.18,0.85 0.18,1.25 0,0.76 -0.15,1.41 -0.43,1.93 -0.28,0.51 -0.74,0.95 -1.38,1.29 0.92,2.02 1.38,3.05 2.28,5.07 -1.02,-0.02 -1.55,-0.02 -2.58,-0.02 -0.76,-1.79 -1.13,-2.69 -1.91,-4.48 -0.9,0 -1.36,0 -2.26,0 0,1.79 0,2.67 0,4.46 -0.94,0 -1.41,0 -2.35,0 0,-4.76 -0.02,-7.12 -0.02,-11.88 1.66,-0.02 2.49,-0.02 4.14,0zm14.46 0.22c-0.02,0.84 -0.04,1.28 -0.06,2.12 -2.19,-0.06 -3.3,-0.08 -5.49,-0.12 -0.02,1.05 -0.02,1.57 -0.04,2.59 2.07,0.04 3.09,0.06 5.14,0.12 -0.01,0.85 -0.03,1.27 -0.05,2.13 -2.05,-0.06 -3.07,-0.08 -5.14,-0.11 -0.02,1.17 -0.04,1.75 -0.06,2.93 2.32,0.04 3.47,0.07 5.79,0.13 -0.13,0.84 -0.18,1.26 -0.29,2.11 -3.16,-0.07 -4.74,-0.11 -7.92,-0.17 0.06,-4.76 0.09,-7.12 0.15,-11.88 3.19,0.02 4.78,0.06 7.97,0.15zm4.03 9.72c0.39,0.34 0.97,0.53 1.76,0.55 0.38,0.02 0.69,-0.02 0.96,-0.1 0.26,-0.07 0.48,-0.17 0.64,-0.3 0.15,-0.14 0.28,-0.29 0.37,-0.48 0.07,-0.19 0.12,-0.38 0.12,-0.61 0.02,-0.3 -0.09,-0.61 -0.3,-0.89 -0.21,-0.29 -0.62,-0.5 -1.22,-0.63 -0.6,-0.13 -0.9,-0.21 -1.5,-0.34 -0.59,-0.14 -1.12,-0.29 -1.56,-0.48 -0.44,-0.19 -0.81,-0.44 -1.11,-0.72 -0.3,-0.29 -0.53,-0.65 -0.67,-1.07 -0.16,-0.42 -0.23,-0.91 -0.22,-1.46 0.02,-0.58 0.15,-1.07 0.38,-1.49 0.23,-0.42 0.54,-0.78 0.95,-1.05 0.41,-0.28 0.88,-0.47 1.45,-0.61 0.57,-0.13 1.17,-0.19 1.84,-0.17 0.85,0.04 1.55,0.15 2.1,0.38 0.57,0.23 1.01,0.5 1.35,0.84 0.33,0.34 0.58,0.72 0.72,1.18 0.16,0.44 0.25,0.9 0.28,1.35 -0.92,0.08 -1.37,0.12 -2.29,0.21 -0.09,-0.66 -0.32,-1.14 -0.64,-1.45 -0.34,-0.3 -0.85,-0.45 -1.54,-0.49 -0.41,-0.02 -0.76,0.02 -1.02,0.08 -0.27,0.05 -0.48,0.15 -0.66,0.26 -0.16,0.12 -0.28,0.25 -0.35,0.4 -0.07,0.15 -0.11,0.31 -0.11,0.48 -0.02,0.44 0.11,0.78 0.34,1.01 0.23,0.23 0.65,0.42 1.22,0.55 0.63,0.15 0.95,0.23 1.57,0.38 1.24,0.3 2.14,0.74 2.71,1.35 0.56,0.59 0.81,1.43 0.77,2.52 -0.01,0.51 -0.12,0.99 -0.33,1.42 -0.22,0.44 -0.5,0.8 -0.89,1.11 -0.39,0.3 -0.84,0.55 -1.41,0.7 -0.57,0.15 -1.22,0.23 -1.96,0.21 -1.56,-0.06 -2.74,-0.44 -3.56,-1.16 -0.81,-0.72 -1.23,-1.77 -1.27,-3.18 0.97,0.02 1.47,0.04 2.44,0.08 0.04,0.74 0.25,1.27 0.64,1.62zm12.51 -9.07c0.89,0.04 1.63,0.19 2.19,0.42 0.57,0.23 1.03,0.53 1.35,0.9 0.31,0.36 0.54,0.76 0.65,1.21 0.11,0.46 0.16,0.94 0.12,1.41 -0.01,0.52 -0.12,1.01 -0.28,1.49 -0.16,0.47 -0.42,0.87 -0.78,1.22 -0.35,0.34 -0.83,0.61 -1.39,0.78 -0.58,0.17 -1.29,0.25 -2.16,0.21 -0.72,-0.04 -1.08,-0.06 -1.8,-0.1 -0.07,1.7 -0.11,2.55 -0.18,4.25 -0.94,-0.04 -1.41,-0.08 -2.35,-0.12 0.19,-4.74 0.28,-7.12 0.46,-11.86 1.68,0.06 2.51,0.1 4.17,0.19zm8.47 0.5c-0.16,2.82 -0.23,4.22 -0.39,7.06 -0.05,1.01 0.07,1.77 0.39,2.29 0.32,0.51 0.86,0.8 1.68,0.83 0.79,0.06 1.38,-0.15 1.75,-0.61 0.37,-0.45 0.58,-1.2 0.63,-2.2 0.18,-2.82 0.27,-4.23 0.45,-7.07 0.97,0.08 1.45,0.12 2.42,0.17 -0.18,2.82 -0.28,4.23 -0.46,7.05 -0.05,0.89 -0.21,1.65 -0.48,2.28 -0.26,0.63 -0.6,1.13 -1.02,1.53 -0.43,0.38 -0.92,0.64 -1.51,0.8 -0.58,0.15 -1.23,0.21 -1.94,0.15 -0.73,-0.06 -1.36,-0.19 -1.93,-0.44 -0.56,-0.23 -1.02,-0.57 -1.39,-1.01 -0.38,-0.44 -0.64,-0.99 -0.82,-1.66 -0.16,-0.66 -0.23,-1.44 -0.17,-2.34 0.14,-2.8 0.23,-4.21 0.37,-7 0.95,0.07 1.45,0.09 2.42,0.17zm13.24 0.99c0.85,0.07 1.55,0.21 2.1,0.44 0.55,0.2 0.97,0.47 1.28,0.79 0.3,0.33 0.49,0.69 0.58,1.07 0.09,0.4 0.12,0.82 0.09,1.28 -0.04,0.45 -0.16,0.89 -0.39,1.27 -0.23,0.4 -0.62,0.71 -1.19,0.96 0.34,0.2 0.6,0.43 0.8,0.66 0.21,0.23 0.35,0.46 0.46,0.71 0.1,0.24 0.17,0.49 0.19,0.74 0.04,0.25 0.04,0.49 0.02,0.74 -0.04,0.5 -0.14,0.95 -0.34,1.39 -0.17,0.44 -0.44,0.78 -0.81,1.09 -0.37,0.28 -0.83,0.49 -1.38,0.64 -0.56,0.14 -1.24,0.18 -2.03,0.12 -1.75,-0.15 -2.63,-0.23 -4.39,-0.36 0.32,-4.74 0.48,-7.11 0.82,-11.85 1.7,0.1 2.53,0.17 4.19,0.31zm8.77 0.8c-0.34,3.88 -0.5,5.82 -0.83,9.71 2.17,0.21 3.25,0.32 5.42,0.55 -0.17,0.84 -0.26,1.26 -0.46,2.09 -3,-0.32 -4.52,-0.47 -7.53,-0.76 0.39,-4.74 0.59,-7.1 0.97,-11.82 0.98,0.09 1.45,0.13 2.43,0.23zm9.47 1.01c-0.46,4.72 -0.69,7.08 -1.15,11.8 -0.95,-0.11 -1.43,-0.15 -2.38,-0.27 0.44,-4.72 0.67,-7.08 1.11,-11.82 0.97,0.13 1.45,0.19 2.42,0.29zm4.81 0.57c-0.2,1.88 -0.3,2.83 -0.5,4.72 1.89,-1.7 2.85,-2.53 4.76,-4.21 1.06,0.13 1.59,0.21 2.65,0.34 -1.73,1.57 -2.6,2.37 -4.33,3.95 1.38,3.16 2.05,4.74 3.39,7.92 -1.06,-0.14 -1.59,-0.21 -2.65,-0.35 -1.02,-2.47 -1.55,-3.71 -2.6,-6.17 -0.6,0.52 -0.92,0.77 -1.52,1.28 -0.17,1.73 -0.26,2.61 -0.46,4.34 -0.95,-0.11 -1.43,-0.17 -2.38,-0.28 0.47,-4.73 0.72,-7.09 1.2,-11.81 0.97,0.1 1.47,0.15 2.44,0.27zm14.6 1.94c1.15,4.95 1.71,7.44 2.81,12.39 -1.02,-0.15 -1.54,-0.22 -2.54,-0.38 -0.23,-1.14 -0.34,-1.71 -0.57,-2.85 -1.61,-0.23 -2.4,-0.35 -4,-0.57 -0.49,1.04 -0.74,1.56 -1.23,2.59 -0.99,-0.14 -1.47,-0.21 -2.46,-0.33 2.26,-4.49 3.39,-6.72 5.71,-11.19 0.9,0.13 1.36,0.21 2.28,0.34zm6.63 10.68c0.35,0.4 0.92,0.65 1.69,0.78 0.38,0.06 0.69,0.08 0.96,0.02 0.27,-0.04 0.49,-0.11 0.67,-0.23 0.18,-0.11 0.32,-0.25 0.41,-0.44 0.09,-0.17 0.16,-0.38 0.19,-0.59 0.04,-0.3 -0.03,-0.61 -0.21,-0.91 -0.19,-0.3 -0.57,-0.57 -1.15,-0.78 -0.58,-0.21 -0.87,-0.31 -1.45,-0.52 -0.56,-0.2 -1.08,-0.41 -1.5,-0.66 -0.43,-0.25 -0.78,-0.53 -1.04,-0.86 -0.27,-0.32 -0.46,-0.7 -0.57,-1.14 -0.11,-0.44 -0.12,-0.93 -0.05,-1.49 0.07,-0.55 0.24,-1.03 0.53,-1.42 0.28,-0.4 0.63,-0.71 1.06,-0.94 0.42,-0.23 0.94,-0.36 1.5,-0.44 0.57,-0.05 1.19,-0.03 1.84,0.06 0.85,0.13 1.54,0.34 2.07,0.63 0.53,0.29 0.95,0.63 1.25,1.01 0.3,0.38 0.5,0.8 0.6,1.26 0.11,0.45 0.16,0.91 0.15,1.38 -0.92,-0.03 -1.38,-0.05 -2.32,-0.07 -0.03,-0.67 -0.19,-1.16 -0.49,-1.51 -0.3,-0.34 -0.8,-0.57 -1.49,-0.66 -0.41,-0.06 -0.74,-0.08 -1.02,-0.06 -0.27,0.04 -0.5,0.1 -0.68,0.17 -0.17,0.1 -0.3,0.21 -0.38,0.34 -0.09,0.16 -0.15,0.31 -0.16,0.46 -0.06,0.44 0.01,0.78 0.23,1.05 0.21,0.27 0.6,0.49 1.16,0.7 0.62,0.23 0.92,0.35 1.54,0.58 1.2,0.45 2.05,1 2.56,1.67 0.5,0.67 0.67,1.52 0.51,2.59 -0.07,0.51 -0.22,0.97 -0.47,1.37 -0.25,0.4 -0.59,0.74 -0.99,0.99 -0.41,0.27 -0.9,0.44 -1.49,0.53 -0.58,0.1 -1.23,0.08 -1.98,-0.03 -1.55,-0.25 -2.68,-0.79 -3.43,-1.58 -0.72,-0.82 -1.04,-1.93 -0.92,-3.32 0.98,0.15 1.45,0.23 2.43,0.36 -0.06,0.75 0.08,1.3 0.44,1.7zm11.72 -7.79c-0.71,4.69 -1.04,7.05 -1.75,11.73 -0.96,-0.17 -1.42,-0.25 -2.37,-0.4 0.69,-4.7 1.03,-7.04 1.71,-11.73 0.96,0.16 1.44,0.23 2.41,0.4zm-286.86 47.01c-0.7,-0.09 -1.36,-0.34 -1.92,-0.72 -0.59,-0.4 -1.08,-0.93 -1.51,-1.6 -0.42,-0.66 -0.76,-1.46 -0.99,-2.4 -0.23,-0.93 -0.33,-1.81 -0.28,-2.61 0.05,-0.82 0.25,-1.54 0.57,-2.2 0.31,-0.67 0.77,-1.22 1.36,-1.7 0.58,-0.46 1.27,-0.82 2.1,-1.05 0.83,-0.23 1.59,-0.3 2.32,-0.21 0.72,0.1 1.36,0.35 1.94,0.75 0.57,0.4 1.06,0.93 1.49,1.62 0.4,0.66 0.72,1.48 0.95,2.41 0.23,0.94 0.3,1.81 0.25,2.61 -0.06,0.8 -0.25,1.53 -0.55,2.19 -0.32,0.65 -0.76,1.2 -1.33,1.66 -0.56,0.46 -1.27,0.8 -2.08,1.05 -0.85,0.22 -1.61,0.3 -2.32,0.2zm8.84 -14.6c0.88,3.79 1.31,5.68 2.19,9.46 2.07,-0.55 3.11,-0.83 5.18,-1.37 0.09,0.86 0.13,1.28 0.21,2.14 -2.88,0.74 -4.31,1.14 -7.19,1.92 -1.08,-4.61 -1.63,-6.91 -2.7,-11.52 0.91,-0.25 1.37,-0.38 2.31,-0.63zm9.07 -2.36c1.01,4.63 1.52,6.93 2.53,11.56 -0.92,0.23 -1.36,0.34 -2.28,0.59 -1.03,-4.63 -1.54,-6.93 -2.57,-11.56 0.92,-0.25 1.38,-0.36 2.32,-0.59zm1.27 -0.34c1.03,-0.27 1.56,-0.38 2.58,-0.65 1.36,1.64 2.04,2.46 3.38,4.09 0.58,-2.11 0.88,-3.18 1.5,-5.29 0.99,-0.23 1.49,-0.34 2.46,-0.59 -0.96,3.1 -1.42,4.66 -2.34,7.77 0.39,1.88 0.59,2.84 1,4.72 -0.92,0.23 -1.38,0.32 -2.29,0.55 -0.4,-1.88 -0.6,-2.83 -0.99,-4.72 -2.1,-2.34 -3.16,-3.52 -5.3,-5.88zm13.72 -1.09c-0.16,-0.84 -0.25,-1.26 -0.41,-2.09 3.62,-0.84 5.43,-1.24 9.07,-2 0.16,0.84 0.23,1.25 0.39,2.11 -1.35,0.29 -2.02,0.44 -3.36,0.72 0.72,3.81 1.08,5.74 1.8,9.54 -0.92,0.21 -1.38,0.31 -2.3,0.52 -0.74,-3.81 -1.09,-5.71 -1.83,-9.54 -1.35,0.28 -2.02,0.44 -3.36,0.74zm14.05 -5.23c2.51,4.32 3.75,6.49 6.19,10.83 -0.99,0.19 -1.49,0.29 -2.48,0.49 -0.54,-1 -0.81,-1.5 -1.34,-2.51 -1.56,0.32 -2.32,0.48 -3.87,0.8 -0.16,1.14 -0.23,1.73 -0.39,2.88 -0.95,0.2 -1.41,0.3 -2.37,0.51 0.78,-5.01 1.19,-7.52 2.03,-12.53 0.89,-0.21 1.33,-0.28 2.23,-0.47zm6.21 -1.24c-0.11,1.73 -0.16,2.61 -0.27,4.34 -0.67,0.13 -1.01,0.19 -1.66,0.32 -0.07,-1.69 -0.12,-2.55 -0.2,-4.26 0.85,-0.15 1.28,-0.25 2.13,-0.4zm4.15 -0.8c0.62,3.84 0.94,5.77 1.55,9.59 2.09,-0.4 3.15,-0.59 5.24,-0.95 0.03,0.86 0.05,1.3 0.07,2.15 -2.92,0.52 -4.37,0.8 -7.28,1.36 -0.78,-4.69 -1.17,-7.03 -1.93,-11.69 0.94,-0.2 1.41,-0.29 2.35,-0.46zm9.16 -1.66c0.7,4.69 1.04,7.05 1.75,11.73 -0.92,0.15 -1.38,0.25 -2.3,0.4 -0.71,-4.68 -1.08,-7.03 -1.79,-11.73 0.94,-0.15 1.4,-0.23 2.34,-0.4zm5.1 -0.86c1.63,3.32 2.43,4.99 4.02,8.33 0.65,-3.7 0.99,-5.55 1.68,-9.24 1.09,-0.17 1.64,-0.25 2.74,-0.42 0.62,4.7 0.92,7.07 1.53,11.77 -0.84,0.13 -1.27,0.19 -2.12,0.32 -0.42,-3.14 -0.62,-4.7 -1.04,-7.84 -0.6,3.29 -0.9,4.93 -1.48,8.22 -0.73,0.12 -1.08,0.17 -1.81,0.29 -1.45,-2.97 -2.17,-4.44 -3.66,-7.39 0.44,3.12 0.67,4.69 1.12,7.81 -0.83,0.13 -1.24,0.21 -2.07,0.34 -0.69,-4.7 -1.03,-7.04 -1.72,-11.73 1.14,-0.17 1.68,-0.27 2.81,-0.46zm13.86 7.16c-0.17,1.74 -0.26,2.61 -0.44,4.35 -0.67,0.09 -0.99,0.15 -1.66,0.24 -0.02,-1.71 -0.02,-2.57 -0.02,-4.28 0.85,-0.12 1.28,-0.19 2.12,-0.31zm11.65 -10.83c0.09,0.84 0.14,1.28 0.23,2.11 -2.01,0.25 -3.02,0.38 -5.04,0.65 0.13,1.11 0.2,1.66 0.32,2.78 1.89,-0.25 2.83,-0.36 4.72,-0.61 0.09,0.84 0.14,1.28 0.23,2.11 -1.89,0.23 -2.83,0.37 -4.7,0.61 0.21,1.93 0.32,2.88 0.55,4.8 -0.92,0.12 -1.4,0.19 -2.32,0.31 -0.55,-4.72 -0.83,-7.07 -1.38,-11.79 2.94,-0.4 4.42,-0.59 7.39,-0.97zm6.35 -0.74c2.15,4.53 3.21,6.79 5.32,11.34 -0.99,0.12 -1.5,0.16 -2.49,0.27 -0.46,-1.05 -0.69,-1.58 -1.15,-2.63 -1.56,0.18 -2.35,0.27 -3.91,0.46 -0.25,1.14 -0.37,1.7 -0.6,2.84 -0.96,0.11 -1.43,0.17 -2.39,0.28 1.17,-4.93 1.77,-7.38 2.99,-12.32 0.87,-0.09 1.33,-0.15 2.23,-0.24zm7.65 -0.82c2.14,2.91 3.18,4.38 5.29,7.31 -0.25,-3.1 -0.37,-4.65 -0.62,-7.75 0.92,-0.09 1.38,-0.13 2.3,-0.21 0.37,4.74 0.54,7.1 0.92,11.84 -0.83,0.08 -1.24,0.12 -2.07,0.19 -2.09,-2.91 -3.15,-4.36 -5.27,-7.23 0.27,3.07 0.41,4.61 0.67,7.69 -0.9,0.1 -1.36,0.13 -2.26,0.23 -0.43,-4.72 -0.64,-7.1 -1.06,-11.82 0.83,-0.12 1.25,-0.18 2.1,-0.25zm14.07 -1.28c1.33,3.28 1.98,4.9 3.27,8.17 0.9,-3.43 1.36,-5.16 2.28,-8.59 1.01,-0.07 1.52,-0.11 2.53,-0.17 -1.43,4.86 -2.14,7.3 -3.5,12.15 -0.88,0.06 -1.32,0.1 -2.19,0.17 -1.98,-4.61 -2.99,-6.91 -5.02,-11.52 1.06,-0.07 1.59,-0.11 2.63,-0.21zm13.42 -0.91c1.94,4.64 2.88,6.97 4.77,11.63 -1.01,0.06 -1.5,0.08 -2.49,0.14 -0.41,-1.09 -0.62,-1.62 -1.03,-2.69 -1.57,0.1 -2.35,0.13 -3.92,0.23 -0.3,1.12 -0.44,1.68 -0.74,2.8 -0.96,0.06 -1.45,0.09 -2.41,0.15 1.4,-4.85 2.11,-7.27 3.56,-12.13 0.9,-0.04 1.36,-0.07 2.26,-0.13zm11.44 -0.55c0.15,4.74 0.24,7.12 0.4,11.86 -0.93,0.04 -1.39,0.06 -2.33,0.09 -0.18,-4.74 -0.27,-7.12 -0.44,-11.86 0.95,-0.04 1.41,-0.06 2.37,-0.09zm4.43 -0.16c1.96,3.05 2.92,4.59 4.85,7.66 -0.07,-3.12 -0.11,-4.67 -0.18,-7.79 0.92,-0.02 1.38,-0.04 2.3,-0.06 0.09,4.76 0.14,7.13 0.23,11.89 -0.83,0.01 -1.26,0.01 -2.09,0.05 -1.91,-3.04 -2.88,-4.55 -4.82,-7.58 0.08,3.09 0.12,4.63 0.21,7.72 -0.9,0.03 -1.36,0.03 -2.26,0.07 -0.15,-4.74 -0.22,-7.12 -0.38,-11.88 0.87,-0.04 1.29,-0.06 2.14,-0.08zm11.4 -0.26c1.91,3.08 2.85,4.62 4.72,7.73 -0.01,-3.12 -0.03,-4.67 -0.05,-7.79 0.92,0 1.38,0 2.3,-0.02 0.02,4.76 0.02,7.12 0.03,11.88 -0.83,0 -1.25,0 -2.08,0.02 -1.86,-3.06 -2.81,-4.61 -4.7,-7.67 0.03,3.08 0.05,4.63 0.09,7.71 -0.91,0.02 -1.37,0.02 -2.27,0.04 -0.07,-4.76 -0.1,-7.12 -0.17,-11.88 0.86,0 1.29,-0.02 2.13,-0.02zm12.02 11.67c-0.65,-0.29 -1.22,-0.7 -1.66,-1.26 -0.46,-0.55 -0.81,-1.2 -1.06,-1.96 -0.25,-0.76 -0.37,-1.63 -0.37,-2.59 0,-0.97 0.12,-1.82 0.37,-2.59 0.25,-0.76 0.6,-1.42 1.08,-1.96 0.48,-0.55 1.04,-0.95 1.71,-1.24 0.68,-0.28 1.42,-0.41 2.27,-0.41 0.85,0 1.61,0.15 2.26,0.45 0.67,0.31 1.22,0.73 1.68,1.28 0.46,0.55 0.79,1.22 1.02,1.98 0.23,0.76 0.34,1.64 0.34,2.61 -0.02,0.97 -0.14,1.83 -0.39,2.59 -0.25,0.76 -0.6,1.41 -1.06,1.94 -0.46,0.53 -1.02,0.95 -1.68,1.22 -0.65,0.28 -1.41,0.42 -2.24,0.42 -0.87,-0.04 -1.61,-0.18 -2.27,-0.48zm10.63 -11.61c1.04,3.38 1.55,5.08 2.56,8.45 1.19,-3.33 1.79,-4.99 3.01,-8.32 1,0.04 1.52,0.04 2.54,0.08 -1.84,4.68 -2.74,7.04 -4.52,11.74 -0.89,-0.02 -1.33,-0.03 -2.21,-0.05 -1.58,-4.8 -2.39,-7.18 -4.02,-11.96 1.06,0.04 1.6,0.04 2.64,0.06zm13.43 0.43c1.54,4.82 2.28,7.24 3.75,12.06 -1.01,-0.06 -1.5,-0.08 -2.49,-0.12 -0.32,-1.1 -0.48,-1.67 -0.8,-2.78 -1.57,-0.07 -2.35,-0.09 -3.92,-0.15 -0.39,1.08 -0.59,1.62 -0.98,2.7 -0.95,-0.04 -1.45,-0.05 -2.4,-0.07 1.8,-4.71 2.72,-7.05 4.58,-11.73 0.9,0.04 1.36,0.05 2.26,0.09zm3.11 2.29c0.04,-0.86 0.06,-1.3 0.09,-2.15 3.68,0.17 5.52,0.26 9.19,0.49 -0.05,0.86 -0.07,1.3 -0.1,2.15 -1.36,-0.07 -2.04,-0.11 -3.4,-0.21 -0.19,3.89 -0.28,5.83 -0.47,9.71 -0.94,-0.05 -1.4,-0.07 -2.34,-0.13 0.18,-3.88 0.27,-5.82 0.44,-9.73 -1.36,-0.04 -2.05,-0.08 -3.41,-0.13zm12.71 8.19c0.37,0.36 0.94,0.57 1.7,0.6 0.37,0.02 0.67,0 0.94,-0.05 0.24,-0.06 0.46,-0.15 0.63,-0.29 0.16,-0.13 0.29,-0.28 0.37,-0.45 0.07,-0.2 0.13,-0.39 0.15,-0.61 0.01,-0.31 -0.08,-0.61 -0.27,-0.9 -0.19,-0.28 -0.6,-0.51 -1.17,-0.69 -0.58,-0.15 -0.86,-0.22 -1.45,-0.38 -0.56,-0.15 -1.06,-0.32 -1.5,-0.53 -0.42,-0.21 -0.78,-0.46 -1.06,-0.76 -0.28,-0.3 -0.49,-0.67 -0.62,-1.09 -0.14,-0.41 -0.19,-0.91 -0.16,-1.48 0.04,-0.57 0.16,-1.05 0.41,-1.47 0.25,-0.42 0.57,-0.76 0.95,-1.03 0.41,-0.26 0.89,-0.45 1.42,-0.57 0.55,-0.11 1.15,-0.15 1.78,-0.09 0.84,0.05 1.51,0.21 2.05,0.44 0.54,0.24 0.96,0.53 1.28,0.89 0.32,0.34 0.55,0.74 0.67,1.2 0.14,0.44 0.21,0.9 0.23,1.37 -0.9,0.06 -1.34,0.08 -2.25,0.14 -0.07,-0.67 -0.26,-1.15 -0.58,-1.47 -0.32,-0.31 -0.81,-0.5 -1.48,-0.53 -0.41,-0.02 -0.73,-0.02 -0.99,0.03 -0.27,0.06 -0.48,0.14 -0.64,0.25 -0.16,0.12 -0.28,0.23 -0.35,0.38 -0.08,0.16 -0.11,0.31 -0.13,0.48 -0.02,0.44 0.07,0.78 0.3,1.03 0.23,0.24 0.62,0.43 1.19,0.59 0.6,0.17 0.92,0.24 1.52,0.42 1.2,0.34 2.07,0.81 2.6,1.42 0.53,0.61 0.76,1.45 0.68,2.54 -0.03,0.51 -0.15,0.99 -0.37,1.4 -0.21,0.42 -0.51,0.79 -0.88,1.09 -0.39,0.3 -0.85,0.51 -1.4,0.67 -0.55,0.15 -1.18,0.19 -1.92,0.13 -1.52,-0.11 -2.66,-0.53 -3.43,-1.28 -0.76,-0.74 -1.15,-1.81 -1.13,-3.21 0.95,0.05 1.41,0.09 2.36,0.15 -0.01,0.74 0.18,1.29 0.55,1.66zm10.79 -8.82c-0.34,4.74 -0.52,7.1 -0.85,11.84 -0.94,-0.07 -1.4,-0.11 -2.32,-0.19 0.34,-4.74 0.5,-7.1 0.81,-11.84 0.94,0.08 1.42,0.11 2.36,0.19zm1.3 0.11c1.05,0.1 1.58,0.14 2.64,0.23 0.83,2 1.23,3.01 2.05,5.01 1.15,-1.83 1.73,-2.72 2.9,-4.55 1,0.09 1.5,0.15 2.49,0.25 -1.77,2.64 -2.65,3.98 -4.4,6.62 -0.16,1.93 -0.25,2.9 -0.41,4.82 -0.94,-0.09 -1.4,-0.13 -2.31,-0.21 0.15,-1.92 0.22,-2.89 0.38,-4.82 -1.3,-2.93 -1.98,-4.4 -3.34,-7.35zm15.03 1.49c1.25,4.91 1.85,7.37 3.06,12.28 -0.99,-0.11 -1.49,-0.17 -2.5,-0.29 -0.24,-1.12 -0.37,-1.69 -0.61,-2.83 -1.56,-0.17 -2.36,-0.27 -3.91,-0.42 -0.46,1.05 -0.69,1.58 -1.13,2.65 -0.96,-0.1 -1.43,-0.16 -2.41,-0.25 2.07,-4.57 3.13,-6.84 5.25,-11.39 0.9,0.1 1.35,0.13 2.25,0.25zm7.9 0.91c-0.41,3.89 -0.62,5.81 -1.03,9.69 2.11,0.27 3.17,0.4 5.27,0.67 -0.19,0.84 -0.3,1.26 -0.49,2.08 -2.94,-0.38 -4.39,-0.58 -7.32,-0.92 0.48,-4.72 0.72,-7.08 1.2,-11.8 0.96,0.11 1.43,0.17 2.37,0.28zm12.62 1.68c1.11,4.95 1.66,7.42 2.7,12.37 -0.98,-0.15 -1.48,-0.22 -2.47,-0.36 -0.21,-1.14 -0.32,-1.71 -0.55,-2.85 -1.55,-0.23 -2.33,-0.35 -3.89,-0.56 -0.47,1.05 -0.72,1.57 -1.2,2.61 -0.95,-0.13 -1.43,-0.19 -2.38,-0.32 2.2,-4.49 3.32,-6.74 5.56,-11.22 0.89,0.14 1.33,0.19 2.23,0.33zm9.51 1.43c0.88,0.13 1.59,0.36 2.14,0.66 0.55,0.31 0.95,0.67 1.22,1.07 0.28,0.4 0.44,0.82 0.51,1.26 0.07,0.43 0.07,0.85 0.02,1.27 -0.11,0.76 -0.34,1.37 -0.65,1.85 -0.34,0.47 -0.84,0.84 -1.51,1.08 0.62,2.14 0.94,3.22 1.54,5.35 -0.99,-0.17 -1.5,-0.24 -2.49,-0.4 -0.5,-1.88 -0.74,-2.81 -1.26,-4.7 -0.86,-0.13 -1.31,-0.21 -2.19,-0.34 -0.23,1.77 -0.35,2.65 -0.58,4.42 -0.92,-0.14 -1.36,-0.21 -2.28,-0.35 0.62,-4.7 0.92,-7.06 1.54,-11.76 1.59,0.21 2.4,0.34 3.99,0.59zm11.08 1.84c0.59,3.51 0.87,5.26 1.44,8.78 1.62,-3.12 2.43,-4.66 4.08,-7.77 1.01,0.19 1.5,0.29 2.51,0.48 -2.44,4.36 -3.66,6.55 -6.05,10.93 -0.86,-0.16 -1.3,-0.23 -2.17,-0.4 -0.94,-4.99 -1.41,-7.49 -2.4,-12.46 1.02,0.18 1.55,0.27 2.59,0.44zm13.26 2.5c0.89,5.01 1.31,7.5 2.14,12.51 -0.99,-0.21 -1.49,-0.31 -2.47,-0.5 -0.16,-1.14 -0.25,-1.73 -0.41,-2.87 -1.56,-0.31 -2.32,-0.46 -3.87,-0.76 -0.53,1 -0.8,1.52 -1.33,2.53 -0.95,-0.19 -1.43,-0.27 -2.38,-0.46 2.4,-4.38 3.62,-6.55 6.09,-10.89 0.91,0.17 1.35,0.25 2.23,0.44zm10.33 4.3c-2.2,-0.47 -3.28,-0.7 -5.47,-1.16 0.14,-0.84 0.23,-1.26 0.37,-2.09 3.31,0.68 4.97,1.02 8.26,1.77 -0.14,0.72 -0.21,1.06 -0.34,1.79 -2.81,2.6 -4.2,3.92 -6.96,6.57 2.3,0.47 3.44,0.74 5.74,1.23 -0.24,0.82 -0.37,1.22 -0.63,2.04 -3.31,-0.72 -4.95,-1.09 -8.26,-1.75 0.13,-0.71 0.2,-1.07 0.32,-1.79 2.76,-2.67 4.15,-3.98 6.97,-6.61zm7.08 -0.61c-0.9,4.65 -1.36,6.97 -2.28,11.62 -0.92,-0.21 -1.38,-0.31 -2.3,-0.52 0.91,-4.64 1.35,-6.98 2.23,-11.63 0.96,0.21 1.42,0.32 2.35,0.53zm6.23 1.45c0.86,0.21 1.57,0.47 2.08,0.84 0.51,0.34 0.9,0.72 1.17,1.14 0.24,0.42 0.39,0.86 0.42,1.29 0.04,0.44 0.02,0.88 -0.07,1.28 -0.16,0.74 -0.42,1.33 -0.78,1.79 -0.37,0.44 -0.88,0.76 -1.57,0.97 0.48,2.19 0.73,3.28 1.2,5.47 -0.99,-0.25 -1.48,-0.37 -2.47,-0.61 -0.37,-1.93 -0.57,-2.88 -0.96,-4.8 -0.86,-0.21 -1.29,-0.31 -2.15,-0.52 -0.36,1.75 -0.53,2.61 -0.89,4.36 -0.9,-0.21 -1.36,-0.32 -2.26,-0.53 0.92,-4.65 1.38,-6.97 2.31,-11.61 1.6,0.36 2.37,0.55 3.97,0.93zm8.53 2.07c-0.83,3.79 -1.23,5.7 -2.07,9.51 2.07,0.51 3.12,0.78 5.18,1.33 -0.28,0.8 -0.42,1.2 -0.7,2 -2.88,-0.75 -4.32,-1.13 -7.22,-1.83 0.99,-4.63 1.49,-6.95 2.48,-11.58 0.94,0.23 1.41,0.35 2.33,0.57zm9.07 2.36c-1.06,4.61 -1.59,6.92 -2.65,11.54 -0.9,-0.24 -1.36,-0.36 -2.28,-0.61 1.04,-4.6 1.57,-6.93 2.62,-11.53 0.93,0.24 1.39,0.36 2.31,0.6zm10.32 8.42c-0.47,1.94 -0.72,2.91 -1.2,4.86 -0.69,0.38 -1.46,0.62 -2.31,0.7 -0.85,0.08 -1.68,0 -2.5,-0.23 -0.86,-0.25 -1.59,-0.59 -2.15,-1.06 -0.59,-0.48 -1.03,-1.03 -1.33,-1.68 -0.3,-0.65 -0.47,-1.37 -0.51,-2.17 -0.04,-0.8 0.05,-1.66 0.25,-2.57 0.21,-0.93 0.53,-1.75 0.93,-2.42 0.41,-0.68 0.9,-1.22 1.47,-1.62 0.57,-0.4 1.19,-0.66 1.89,-0.76 0.69,-0.11 1.43,-0.06 2.21,0.17 0.71,0.19 1.31,0.46 1.77,0.78 0.46,0.33 0.83,0.71 1.11,1.13 0.29,0.42 0.46,0.87 0.57,1.37 0.1,0.49 0.14,0.99 0.1,1.5 -0.93,-0.13 -1.41,-0.21 -2.35,-0.34 0,-0.31 0,-0.59 -0.03,-0.82 -0.04,-0.25 -0.11,-0.48 -0.25,-0.67 -0.12,-0.21 -0.3,-0.38 -0.53,-0.53 -0.23,-0.15 -0.53,-0.29 -0.9,-0.38 -0.9,-0.25 -1.64,-0.1 -2.26,0.49 -0.6,0.58 -1.06,1.51 -1.36,2.77 -0.3,1.27 -0.32,2.32 -0.04,3.14 0.28,0.82 0.92,1.35 1.91,1.63 0.48,0.14 0.9,0.2 1.29,0.2 0.37,0 0.76,-0.06 1.13,-0.2 0.2,-0.76 0.28,-1.14 0.46,-1.92 -0.83,-0.23 -1.25,-0.36 -2.09,-0.59 0.2,-0.8 0.29,-1.2 0.48,-2 1.72,0.5 2.57,0.73 4.24,1.22zm5.48 -3.98c-1.16,4.59 -1.75,6.87 -2.91,11.46 -0.9,-0.26 -1.36,-0.4 -2.27,-0.66 1.15,-4.59 1.72,-6.88 2.89,-11.47 0.91,0.27 1.37,0.4 2.29,0.67zm5.22 64.4l-2.95 0 -7.2 -0.12 -3.16 0 -6.91 -0.05 -3.17 -0.06 -1.34 0 2.1 -5.29 4.9 -12.5 3.36 -8.56 -2.23 0.15 -3.16 0.11 -7.04 0.38 -3.16 0.14 -8.26 0.45 -3.83 0.21 7.19 -22.48 0.48 -1.43c0,0 -0.14,0 -0.27,0 -1.61,0 -9.81,0.25 -22.75,2.74 -1.69,0.32 -3.43,0.74 -5.32,1.12 -4.49,0.97 -9.38,2.23 -14.78,3.79l13.78 3.13 4.89 1.12 5.52 1.24c0,0 -4.42,11.82 -10.49,31.3 -3.28,10.7 -7.12,23.86 -10.94,38.63 -5.57,21.82 -11.22,47.32 -15.18,74.05 -0.2,1.11 -0.41,2.17 -0.46,3.2 0,0 -6.52,-0.06 -16.51,1.05 -18.76,1.96 -49.71,7.92 -73.13,25.36 -1.22,0.78 -2.23,1.64 -3.29,2.55 -0.93,0.71 -1.82,1.43 -2.61,2.13l-2.71 -2.13c-1.06,-0.91 -2.14,-1.77 -3.36,-2.55 -25.04,-18.64 -58.63,-24.12 -76.7,-25.76 -7.91,-0.71 -12.88,-0.65 -12.88,-0.65 -0.13,-1.05 -0.34,-2.09 -0.46,-3.2 -6.12,-41.16 -16.14,-79.21 -24.06,-105.88 -0.07,0 -0.07,-0.06 0,-0.12 -3.96,-12.95 -7.37,-23.21 -9.65,-29.74 -1.89,-5.29 -2.95,-8.24 -2.95,-8.24l1.68 -0.38 4.89 -1.13 17.66 -3.98c-7.05,-2.09 -13.43,-3.61 -18.95,-4.64 -1.89,-0.38 -3.62,-0.71 -5.3,-0.97 -11.68,-2.02 -18.61,-2.02 -18.95,-2.02l7.73 23.91 -7.87 -0.4 -8.27 -0.45 -3.2 -0.12 -7 -0.4 -1.35 -0.06 2.02 5.16 8.39 21.2 -5.44 0.05 -3.15 0 -6.91 0.12 -3.09 0 -7.32 0.05 -2.9 0.08 -1.01 0c0.41,0.59 0.82,1.24 1.28,1.91 1.27,1.9 2.56,3.92 3.74,5.94 3.43,5.56 6.67,11.55 9.82,17.78 1.43,2.99 2.89,6.07 4.29,9.16 3.77,8.22 7.34,16.72 10.55,25.28 1.68,4.44 3.29,8.9 4.9,13.26 4.49,12.94 8.38,25.55 11.67,36.99 0.54,1.91 1,3.73 1.55,5.56 1.56,5.54 2.95,10.7 4.17,15.43 1.81,6.93 3.2,12.81 4.21,17.3 0.55,2.42 1.03,4.46 1.27,5.96 0.55,2.29 0.82,3.53 0.82,3.53 1.06,-0.12 2.07,-0.27 3.14,-0.39 9.23,-1.12 18.42,-2.09 27.68,-3.02 1.61,-0.12 3.29,-0.25 4.9,-0.38 6.86,-0.65 13.7,-1.18 20.54,-1.64 1.49,-0.12 2.95,-0.27 4.44,-0.32 21.09,-1.45 42.3,-2.23 63.53,-2.35 2.81,-0.13 5.64,-0.13 8.45,-0.13 2.83,0 5.72,0 8.61,0.13 21.21,0.12 42.37,0.9 63.38,2.35 0.34,0 0.68,0.05 1.01,0.05 6.7,0.48 13.44,0.92 20.08,1.56 1.61,0.06 3.29,0.27 4.9,0.38 9.14,0.86 18.28,1.78 27.33,2.88 2.49,0.27 4.89,0.53 7.39,0.86 0,0 0.26,-1.24 0.79,-3.53 0.21,-1.12 0.55,-2.55 0.89,-4.18 0,-0.06 0,-0.06 0,-0.06 0.14,-0.59 0.26,-1.13 0.4,-1.72 0.48,-2.01 1.01,-4.3 1.68,-6.85 1.7,-6.99 3.98,-15.88 6.74,-25.88 1.89,-6.81 4.03,-14.12 6.45,-21.78 1.61,-5.22 3.36,-10.64 5.23,-16.13 3.36,-9.74 7.04,-19.74 11.07,-29.55 1.48,-3.52 2.95,-7.06 4.56,-10.53 3.16,-7.12 6.52,-14.05 10.07,-20.58 1.28,-2.42 2.62,-4.7 3.96,-6.99 2.07,-3.6 4.3,-7.06 6.53,-10.32l-4.99 -0.09zm-113.24 149.3l-0.24 0.05 0.24 -0.06 0 0.01zm22.38 37.5c1.2,-6.53 3.89,-8.62 3.89,-8.62 3.69,-4.25 20.54,-3.79 20.54,-3.79l73.46 4.19c-7.38,-6.4 -28.47,-9.81 -28.47,-9.81 -24.52,-3.01 -49.16,-5.42 -74,-7.06l-12.49 55.56 114.96 0 0 -9.81 -101.94 -3.39 4.05 -17.27zm97.98 -276.01l0 14.66c-3.85,-4.21 -8.25,-7.97 -12.88,-11.35 -2.11,-1.56 -4.18,-2.93 -6.31,-4.32 -1.01,-0.59 -1.95,-1.16 -2.96,-1.75l0 -0.06c-2.22,-1.23 -4.38,-2.49 -6.57,-3.61 -1.03,-0.52 -2.04,-1.05 -3.04,-1.49 -2.41,-1.18 -4.76,-2.3 -7.04,-3.27 -9.07,-3.93 -16.86,-6.4 -21.16,-7.66 -2.14,-0.57 -3.41,-0.89 -3.41,-0.89 -0.55,-0.16 -1.01,-0.33 -1.55,-0.48 -6.37,-1.83 -12.82,-3.52 -19.29,-4.95 -36.98,-8.43 -75.27,-10.93 -108.04,-10.8l-0.79 0c-33.78,-0.15 -73.56,2.5 -111.56,11.56 -5.76,1.37 -11.61,2.93 -17.31,4.65 0,0 -0.88,0.19 -2.42,0.64 -1.22,0.33 -2.9,0.79 -4.89,1.43 -5.24,1.7 -12.82,4.38 -21.09,8.19 -2.28,1.1 -4.71,2.23 -7.06,3.52 -1,0.46 -2.01,1.05 -3.02,1.56 -2.14,1.24 -4.36,2.56 -6.52,3.93 -1.01,0.64 -2.02,1.31 -2.95,2.01 -2.14,1.45 -4.3,2.96 -6.31,4.59 -0.94,0.78 -1.9,1.57 -2.81,2.4 -2.29,1.96 -4.44,4.06 -6.53,6.29 0,0 0,0 0,0.05 -0.24,0.27 -0.47,0.52 -0.7,0.78l0 -14.71c22.3,-25.23 64.3,-35.48 64.3,-35.48 42.7,-12.71 89.16,-16.22 127.91,-16.07l0 -48.88c0,0 -1.18,-0.79 0.85,-2.76 0,0 2,1.81 0.81,2.71l0 48.93 0.09 0c38.96,-0.21 85.75,3.26 128.86,16.07 0.02,0.04 40.98,10.02 63.39,34.56zm-274.2 261.24l10.22 45.24 27.26 0 -0.07 -39.95 43.73 0.08 43.57 -0.08 -0.07 39.95 27.35 0 10.2 -45.24 -0.46 0 -0.48 -0.13 -0.07 0.13 -143.31 0 -0.19 -0.06 0 0.06 -17.68 0zm-14.01 14.77c-1.21,-6.53 -3.89,-8.62 -3.89,-8.62 -3.7,-4.25 -20.54,-3.79 -20.54,-3.79l-73.47 4.19c7.39,-6.4 28.48,-9.81 28.48,-9.81 24.52,-3.01 49.16,-5.42 73.99,-7.06l12.5 55.56 -114.99 0 0 -9.81 101.95 -3.39 -4.03 -17.27zm126.26 -5.29l0 35.76 -6.72 -2.63 0.27 -29.61 0.74 -0.78 -24.91 0.08 -24.85 -0.08 0.74 0.78 0.27 29.61 -6.72 2.63 0 -35.76 3.24 1.91 0 -1.91 27.32 0.13 27.4 -0.13 0 1.91 3.22 -1.91zm56.58 -23.67l-0.05 0.14 -0.28 0 0.33 -0.14zm55.91 -8.56l1.19 -8.9 4.12 -30.8 2.45 -4.12 -2.91 21.58 -2.81 20.56c0,0 -0.76,3.37 1.18,3.29l46.12 9.35 0.07 3.07 -47.53 -10.06c0,-0.01 -2.27,-0.53 -1.88,-3.97zm33.59 -26.83c0,0 -0.69,3.84 2.9,3.94l12.88 1.43 0.04 3.77 -16.48 -2.08c0,0 -4.52,-0.99 -4.2,-4.57l10.55 -62.53 0 -0.02 -0.02 0 2.6 -15.46 5.5 -9.27 -4.46 27.8 0.02 0.02 -3.02 18.81 9.42 4.05 0 2.5 -9.84 -4.28 -2.14 12.7 12.07 5.19 0 2.37 -12.41 -5.09 -3.04 18.39 -0.37 2.33zm-320.88 26.83l-1.19 -8.9 -4.12 -30.8 -2.46 -4.12 2.92 21.58 2.81 20.56c0,0 0.76,3.37 -1.18,3.29l-46.12 9.35 -0.07 3.07 47.53 -10.06c0,-0.01 2.26,-0.53 1.88,-3.97zm-33.59 -26.83c0,0 0.69,3.84 -2.9,3.94l-12.88 1.43 -0.04 3.77 16.47 -2.08c0,0 4.53,-0.99 4.21,-4.57l-10.55 -62.53 0 -0.02 0.02 0 -2.6 -15.46 -5.5 -9.27 4.45 27.8 -0.01 0.02 3.02 18.81 -9.42 4.05 0 2.5 9.84 -4.28 2.14 12.7 -12.07 5.19 0 2.37 12.41 -5.09 3.04 18.39 0.37 2.33zm133.29 -45.21c-2.62,-2.42 -6.57,-2.1 -8.82,0.72 -2.26,2.82 -1.96,7.07 0.66,9.5 2.62,2.43 6.57,2.11 8.82,-0.71 2.26,-2.82 1.96,-7.08 -0.66,-9.51zm-12.96 -16.34c-1.82,-3.16 -5.68,-4.13 -8.61,-2.17 -2.94,1.96 -3.84,6.12 -2.02,9.28 1.82,3.16 5.68,4.14 8.61,2.17 2.94,-1.96 3.84,-6.11 2.02,-9.28zm-7.82 -19.81c-0.86,-3.61 -4.27,-5.78 -7.62,-4.86 -3.34,0.92 -5.36,4.6 -4.51,8.2 0.86,3.61 4.27,5.78 7.62,4.86 3.35,-0.92 5.37,-4.59 4.51,-8.2zm-7.93 -28.5c-3.45,-0.2 -6.4,2.65 -6.59,6.36 -0.19,3.72 2.46,6.9 5.91,7.1 3.45,0.2 6.4,-2.65 6.59,-6.37 0.18,-3.71 -2.46,-6.89 -5.91,-7.09zm6.35 -22.66c-3.23,-1.31 -6.84,0.46 -8.05,3.94 -1.22,3.49 0.42,7.37 3.66,8.68 3.23,1.31 6.84,-0.46 8.05,-3.94 1.22,-3.49 -0.42,-7.37 -3.66,-8.68zm12.39 -19.58c-2.72,-2.3 -6.65,-1.78 -8.78,1.15 -2.13,2.93 -1.65,7.17 1.07,9.46 2.72,2.3 6.65,1.78 8.78,-1.15 2.13,-2.93 1.65,-7.17 -1.07,-9.46zm17.25 -14.63c-1.95,-3.07 -5.85,-3.85 -8.7,-1.74 -2.85,2.11 -3.57,6.3 -1.61,9.37 1.96,3.07 5.85,3.85 8.7,1.74 2.85,-2.11 3.57,-6.3 1.61,-9.37zm20.54 -8.38c-1.01,-3.56 -4.51,-5.57 -7.81,-4.48 -3.31,1.09 -5.16,4.86 -4.15,8.42 1.01,3.56 4.51,5.56 7.81,4.47 3.31,-1.09 5.17,-4.85 4.15,-8.41zm15.72 -8.18c-3.46,-0.03 -6.28,2.96 -6.31,6.68 -0.03,3.73 2.75,6.77 6.21,6.8 3.46,0.02 6.28,-2.97 6.3,-6.69 0.03,-3.72 -2.75,-6.77 -6.2,-6.79zm23.44 4.14c-3.29,-1.14 -6.81,0.8 -7.88,4.34 -1.06,3.54 0.75,7.34 4.03,8.49 3.29,1.14 6.82,-0.8 7.88,-4.34 1.06,-3.55 -0.74,-7.34 -4.03,-8.49zm21.25 11.42c-2.81,-2.15 -6.72,-1.44 -8.72,1.59 -2,3.04 -1.34,7.25 1.48,9.4 2.82,2.16 6.72,1.44 8.72,-1.59 2,-3.04 1.34,-7.24 -1.48,-9.4zm17.12 17.89c-2.09,-2.97 -6.01,-3.55 -8.77,-1.3 -2.75,2.24 -3.29,6.47 -1.2,9.44 2.08,2.97 6.01,3.55 8.76,1.3 2.76,-2.25 3.3,-6.48 1.21,-9.44zm11.29 22.44c-1.16,-3.5 -4.74,-5.32 -8,-4.07 -3.25,1.25 -4.94,5.11 -3.78,8.62 1.16,3.5 4.75,5.33 8,4.07 3.25,-1.25 4.95,-5.11 3.78,-8.62zm4.47 25.2c-0.13,-3.72 -3.04,-6.62 -6.49,-6.47 -3.46,0.14 -6.15,3.27 -6.01,6.99 0.13,3.72 3.04,6.62 6.49,6.48 3.45,-0.15 6.14,-3.28 6.01,-7zm-7.03 17.19c-3.33,-0.98 -6.77,1.14 -7.68,4.73 -0.91,3.59 1.06,7.3 4.39,8.28 3.34,0.98 6.78,-1.14 7.68,-4.73 0.91,-3.6 -1.05,-7.3 -4.39,-8.28zm-7.15 22.38c-2.9,-2.01 -6.77,-1.1 -8.64,2.03 -1.87,3.13 -1.03,7.3 1.88,9.31 2.91,2.02 6.78,1.11 8.65,-2.02 1.87,-3.14 1.02,-7.31 -1.89,-9.32zm-13.04 18.93c-2.22,-2.86 -6.16,-3.25 -8.82,-0.86 -2.65,2.38 -3.01,6.63 -0.79,9.49 2.21,2.86 6.16,3.25 8.81,0.86 2.65,-2.38 3.01,-6.63 0.8,-9.49zm-82.19 -16.19c-1.9,-1.77 -4.77,-1.54 -6.41,0.51 -1.63,2.05 -1.42,5.14 0.48,6.9 1.91,1.77 4.77,1.53 6.41,-0.51 1.64,-2.05 1.42,-5.14 -0.48,-6.9zm-9.42 -11.88c-1.32,-2.29 -4.12,-3 -6.26,-1.58 -2.13,1.43 -2.78,4.45 -1.46,6.74 1.32,2.3 4.12,3.01 6.26,1.58 2.13,-1.42 2.78,-4.44 1.46,-6.74zm-5.68 -14.43c-0.63,-2.62 -3.1,-4.19 -5.53,-3.52 -2.43,0.67 -3.9,3.33 -3.28,5.95 0.63,2.62 3.1,4.2 5.53,3.53 2.43,-0.67 3.9,-3.34 3.28,-5.96zm-5.78 -20.72c-2.5,-0.15 -4.64,1.92 -4.78,4.62 -0.13,2.7 1.79,5 4.29,5.15 2.51,0.15 4.65,-1.92 4.78,-4.62 0.14,-2.7 -1.78,-5.01 -4.29,-5.15zm4.62 -16.49c-2.35,-0.95 -4.97,0.33 -5.85,2.86 -0.88,2.53 0.31,5.35 2.66,6.3 2.35,0.95 4.97,-0.33 5.85,-2.86 0.88,-2.53 -0.31,-5.35 -2.66,-6.3zm9.01 -14.25c-1.98,-1.66 -4.84,-1.29 -6.38,0.84 -1.55,2.13 -1.2,5.2 0.78,6.87 1.97,1.67 4.83,1.29 6.37,-0.84 1.55,-2.13 1.2,-5.2 -0.77,-6.87zm12.54 -10.64c-1.42,-2.22 -4.25,-2.79 -6.32,-1.26 -2.07,1.53 -2.59,4.58 -1.17,6.81 1.42,2.22 4.25,2.79 6.32,1.26 2.07,-1.53 2.59,-4.58 1.17,-6.81zm14.96 -6.09c-0.74,-2.59 -3.27,-4.04 -5.67,-3.25 -2.4,0.79 -3.75,3.53 -3.02,6.11 0.74,2.59 3.28,4.04 5.68,3.25 2.4,-0.79 3.74,-3.53 3.01,-6.11zm11.42 -5.96c-2.51,-0.02 -4.56,2.16 -4.57,4.86 -0.02,2.7 1.99,4.91 4.5,4.93 2.51,0.02 4.56,-2.15 4.58,-4.86 0.02,-2.7 -2,-4.91 -4.51,-4.93zm17.06 3.03c-2.39,-0.83 -4.95,0.58 -5.72,3.16 -0.77,2.57 0.54,5.33 2.93,6.16 2.38,0.83 4.94,-0.58 5.72,-3.15 0.77,-2.58 -0.54,-5.33 -2.93,-6.17zm15.44 8.29c-2.04,-1.56 -4.88,-1.04 -6.33,1.16 -1.45,2.2 -0.97,5.26 1.07,6.82 2.05,1.57 4.88,1.05 6.34,-1.15 1.45,-2.21 0.97,-5.26 -1.08,-6.83zm12.45 13.03c-1.52,-2.15 -4.36,-2.58 -6.36,-0.94 -2,1.63 -2.4,4.7 -0.88,6.85 1.51,2.16 4.36,2.58 6.36,0.95 2,-1.64 2.4,-4.71 0.88,-6.86zm8.22 16.31c-0.84,-2.54 -3.44,-3.87 -5.81,-2.95 -2.36,0.91 -3.59,3.71 -2.74,6.25 0.84,2.55 3.44,3.87 5.81,2.96 2.36,-0.91 3.59,-3.71 2.74,-6.26zm3.24 18.32c-0.1,-2.7 -2.21,-4.8 -4.72,-4.7 -2.51,0.11 -4.46,2.38 -4.36,5.08 0.1,2.7 2.21,4.81 4.71,4.7 2.51,-0.1 4.46,-2.38 4.37,-5.08zm-5.1 12.53c-2.42,-0.71 -4.91,0.83 -5.57,3.44 -0.66,2.61 0.76,5.3 3.19,6.01 2.42,0.71 4.91,-0.83 5.57,-3.44 0.66,-2.61 -0.76,-5.3 -3.19,-6.01zm-5.19 16.29c-2.11,-1.46 -4.92,-0.8 -6.28,1.47 -1.36,2.28 -0.74,5.3 1.37,6.76 2.11,1.46 4.92,0.8 6.27,-1.47 1.36,-2.27 0.75,-5.3 -1.36,-6.76zm-9.49 13.73c-1.6,-2.08 -4.47,-2.36 -6.4,-0.62 -1.92,1.73 -2.18,4.81 -0.57,6.89 1.6,2.07 4.47,2.35 6.39,0.62 1.93,-1.73 2.19,-4.81 0.58,-6.89zm-56.78 -15.56c-1.2,-1.11 -3.01,-0.97 -4.04,0.32 -1.03,1.29 -0.9,3.24 0.3,4.35 1.2,1.11 3.01,0.97 4.04,-0.32 1.03,-1.3 0.9,-3.24 -0.3,-4.35zm-5.91 -7.49c-0.84,-1.45 -2.6,-1.89 -3.95,-1 -1.34,0.9 -1.75,2.8 -0.92,4.25 0.83,1.45 2.6,1.89 3.94,1 1.35,-0.9 1.76,-2.8 0.93,-4.25zm-3.57 -9.12c-0.39,-1.65 -1.95,-2.64 -3.48,-2.22 -1.54,0.42 -2.46,2.1 -2.07,3.75 0.39,1.65 1.95,2.65 3.49,2.23 1.53,-0.43 2.45,-2.11 2.06,-3.76zm-3.68 -13.05c-1.58,-0.09 -2.93,1.21 -3.01,2.92 -0.09,1.7 1.12,3.15 2.7,3.24 1.58,0.09 2.93,-1.21 3.01,-2.91 0.09,-1.7 -1.12,-3.16 -2.7,-3.25zm2.92 -10.41c-1.48,-0.6 -3.13,0.21 -3.68,1.81 -0.56,1.59 0.19,3.37 1.67,3.97 1.48,0.6 3.13,-0.21 3.69,-1.81 0.55,-1.59 -0.2,-3.37 -1.68,-3.97zm5.68 -8.99c-1.24,-1.05 -3.04,-0.81 -4.02,0.53 -0.97,1.34 -0.75,3.28 0.49,4.33 1.25,1.05 3.05,0.81 4.02,-0.53 0.98,-1.34 0.76,-3.28 -0.49,-4.33zm7.92 -6.7c-0.89,-1.4 -2.68,-1.76 -3.98,-0.79 -1.3,0.96 -1.63,2.88 -0.74,4.29 0.9,1.4 2.68,1.76 3.98,0.79 1.31,-0.96 1.64,-2.88 0.74,-4.29zm9.44 -3.82c-0.46,-1.63 -2.06,-2.55 -3.58,-2.05 -1.51,0.5 -2.36,2.22 -1.9,3.85 0.47,1.63 2.07,2.55 3.58,2.05 1.51,-0.5 2.36,-2.23 1.9,-3.85zm7.21 -3.78c-1.58,-0.01 -2.88,1.36 -2.89,3.06 -0.01,1.71 1.26,3.1 2.84,3.11 1.58,0.02 2.88,-1.36 2.89,-3.06 0.01,-1.7 -1.26,-3.09 -2.84,-3.11zm10.73 1.95c-1.51,-0.53 -3.12,0.36 -3.61,1.98 -0.49,1.62 0.34,3.36 1.84,3.89 1.51,0.52 3.12,-0.37 3.61,-1.99 0.49,-1.62 -0.34,-3.36 -1.84,-3.88zm9.75 5.2c-1.29,-0.98 -3.08,-0.66 -4,0.73 -0.91,1.39 -0.61,3.32 0.68,4.3 1.29,0.99 3.08,0.66 3.99,-0.73 0.92,-1.38 0.62,-3.31 -0.67,-4.3zm7.86 8.23c-0.96,-1.36 -2.75,-1.63 -4.01,-0.6 -1.26,1.03 -1.51,2.96 -0.56,4.32 0.96,1.36 2.75,1.63 4.02,0.6 1.26,-1.03 1.5,-2.97 0.55,-4.32zm5.17 10.25c-0.54,-1.6 -2.18,-2.44 -3.67,-1.86 -1.48,0.57 -2.26,2.34 -1.73,3.94 0.54,1.61 2.18,2.44 3.66,1.87 1.49,-0.58 2.27,-2.34 1.74,-3.95zm2.02 11.57c-0.06,-1.7 -1.39,-3.03 -2.97,-2.96 -1.58,0.07 -2.81,1.5 -2.75,3.2 0.06,1.7 1.39,3.03 2.97,2.96 1.58,-0.06 2.81,-1.5 2.75,-3.2zm-3.2 7.9c-1.52,-0.44 -3.1,0.52 -3.51,2.17 -0.42,1.64 0.48,3.34 2.01,3.78 1.52,0.45 3.1,-0.52 3.51,-2.16 0.42,-1.64 -0.48,-3.34 -2.01,-3.79zm-3.25 10.29c-1.33,-0.92 -3.11,-0.51 -3.96,0.93 -0.86,1.43 -0.47,3.34 0.86,4.26 1.33,0.92 3.1,0.5 3.96,-0.93 0.85,-1.43 0.47,-3.34 -0.86,-4.26zm-6 8.63c-1.02,-1.31 -2.82,-1.49 -4.04,-0.39 -1.21,1.09 -1.37,3.03 -0.36,4.34 1.01,1.31 2.82,1.48 4.03,0.39 1.22,-1.09 1.38,-3.03 0.37,-4.34zm-9.38 51.17l-27.95 0c-0.6,0 -1.09,-0.53 -1.09,-1.18l0 -7.37c0,-0.64 0.49,-1.18 1.09,-1.18l27.95 0c0.6,0 1.09,0.54 1.09,1.18l0 7.37c-0.01,0.67 -0.49,1.18 -1.09,1.18zm3.02 -14.18l-33.99 0c-0.73,0 -1.33,-0.65 -1.33,-1.43l0 -8.97c0,-0.78 0.6,-1.43 1.33,-1.43l15.45 0 0 -46.13c-9.83,-1.41 -12.77,-12.89 -12.77,-12.89 10.77,-1.51 14.01,9.54 14.01,9.54 2.63,-19.65 17.44,-18.83 17.42,-18.81 -2.42,19.09 -15.48,21.89 -15.48,21.89l0 46.4 15.36 0c0.73,0 1.33,0.65 1.33,1.43l0 8.97c0,0.8 -0.6,1.43 -1.33,1.43zm-7.32 25.61l-19.37 0c-0.6,0 -1.1,-0.54 -1.1,-1.18l0 -4.61c0,-0.65 0.5,-1.18 1.1,-1.18l19.37 0c0.6,0 1.1,0.53 1.1,1.18l0 4.61c0,0.64 -0.5,1.18 -1.1,1.18zm30.25 -278.7l0 8.53c-12.39,-8.02 -24.77,8 -37.16,0l0 -8.53c12.39,8 24.77,-8.02 37.16,0zm-37.16 -19.78l0 8.55c12.39,7.99 24.77,-8 37.16,0l0 -8.53c-12.39,-8.02 -24.77,7.97 -37.16,-0.02zm37.16 9.88l0 8.53c-12.39,-8.02 -24.77,8 -37.16,0l0 -8.53c12.39,8 24.77,-8.02 37.16,0zm929.11 363.96l0 -37.61 10.64 0 0 37.61 -10.64 0zm-21.55 0.75c-3.08,0 -6.04,-0.38 -8.89,-1.15 -2.85,-0.77 -5.17,-1.77 -6.96,-2.98l3.49 -7.85c1.69,1.07 3.63,1.96 5.83,2.66 2.21,0.7 4.4,1.05 6.59,1.05 1.46,0 2.65,-0.14 3.54,-0.41 0.9,-0.26 1.55,-0.62 1.96,-1.07 0.41,-0.45 0.62,-0.98 0.62,-1.59 0,-0.86 -0.39,-1.54 -1.18,-2.04 -0.79,-0.5 -1.81,-0.91 -3.06,-1.23 -1.26,-0.33 -2.65,-0.65 -4.17,-0.97 -1.52,-0.32 -3.04,-0.73 -4.57,-1.24 -1.52,-0.5 -2.91,-1.15 -4.16,-1.96 -1.25,-0.8 -2.28,-1.86 -3.06,-3.17 -0.79,-1.31 -1.19,-2.96 -1.19,-4.97 0,-2.26 0.62,-4.3 1.86,-6.12 1.23,-1.83 3.09,-3.3 5.56,-4.41 2.47,-1.11 5.55,-1.67 9.24,-1.67 2.47,0 4.9,0.28 7.28,0.84 2.39,0.55 4.51,1.37 6.37,2.44l-3.28 7.9c-1.79,-0.97 -3.56,-1.69 -5.32,-2.18 -1.75,-0.48 -3.45,-0.72 -5.1,-0.72 -1.47,0 -2.65,0.15 -3.55,0.46 -0.89,0.3 -1.54,0.7 -1.93,1.2 -0.4,0.51 -0.59,1.08 -0.59,1.72 0,0.83 0.38,1.48 1.15,1.97 0.77,0.48 1.79,0.87 3.06,1.18 1.28,0.3 2.67,0.62 4.2,0.94 1.52,0.32 3.04,0.72 4.56,1.21 1.53,0.48 2.91,1.13 4.17,1.93 1.25,0.81 2.26,1.86 3.03,3.17 0.77,1.31 1.16,2.95 1.16,4.92 0,2.18 -0.62,4.2 -1.85,6.04 -1.24,1.85 -3.09,3.33 -5.54,4.44 -2.45,1.11 -5.54,1.66 -9.27,1.66zm-59.97 -0.75l16.61 -37.61 10.48 0 16.65 37.61 -11.07 0 -13 -32.4 4.19 0 -13 32.4 -10.86 0zm9.08 -7.31l2.75 -7.84 18.37 0 2.74 7.84 -23.86 0zm-55.83 7.31l0 -37.61 8.76 0 15.59 25.57 -4.63 0 15.16 -25.57 8.76 0 0.1 37.61 -9.78 0 -0.1 -22.73 1.66 0 -11.34 19.02 -4.72 0 -11.66 -19.02 2.04 0 0 22.73 -9.84 0zm-39.76 0l0 -37.61 17.19 0c3.44,0 6.41,0.55 8.9,1.66 2.49,1.11 4.41,2.72 5.77,4.81 1.37,2.1 2.05,4.58 2.05,7.44 0,2.83 -0.68,5.28 -2.05,7.34 -1.36,2.06 -3.28,3.63 -5.77,4.73 -2.49,1.09 -5.46,1.64 -8.9,1.64l-11.28 0 4.73 -4.46 0 14.45 -10.64 0zm23.27 0l-9.35 -13.7 11.34 0 9.4 13.7 -11.39 0zm-12.63 -13.33l-4.73 -4.89 10.64 0c2.22,0 3.88,-0.48 4.97,-1.45 1.09,-0.96 1.64,-2.31 1.64,-4.03 0,-1.75 -0.55,-3.11 -1.64,-4.08 -1.09,-0.97 -2.75,-1.45 -4.97,-1.45l-10.64 0 4.73 -4.89 0 20.79zm-37.13 14.08c-3.01,0 -5.79,-0.48 -8.33,-1.45 -2.54,-0.97 -4.76,-2.34 -6.64,-4.11 -1.88,-1.77 -3.34,-3.84 -4.38,-6.21 -1.03,-2.36 -1.55,-4.96 -1.55,-7.79 0,-2.83 0.52,-5.42 1.55,-7.79 1.04,-2.36 2.5,-4.43 4.38,-6.2 1.88,-1.78 4.1,-3.15 6.64,-4.12 2.54,-0.96 5.32,-1.45 8.33,-1.45 3.04,0 5.83,0.49 8.35,1.45 2.53,0.97 4.72,2.34 6.59,4.12 1.86,1.77 3.32,3.84 4.38,6.2 1.05,2.37 1.58,4.96 1.58,7.79 0,2.83 -0.53,5.44 -1.58,7.82 -1.06,2.38 -2.52,4.45 -4.38,6.21 -1.87,1.75 -4.06,3.11 -6.59,4.08 -2.52,0.97 -5.31,1.45 -8.35,1.45zm0 -8.81c1.43,0 2.77,-0.25 4,-0.75 1.24,-0.5 2.31,-1.23 3.23,-2.18 0.91,-0.95 1.63,-2.09 2.14,-3.41 0.52,-1.33 0.78,-2.79 0.78,-4.41 0,-1.64 -0.26,-3.12 -0.78,-4.43 -0.51,-1.31 -1.23,-2.44 -2.14,-3.39 -0.92,-0.94 -1.99,-1.67 -3.23,-2.17 -1.23,-0.5 -2.57,-0.75 -4,-0.75 -1.43,0 -2.77,0.25 -4,0.75 -1.24,0.5 -2.32,1.23 -3.23,2.17 -0.91,0.95 -1.63,2.08 -2.15,3.39 -0.52,1.31 -0.78,2.79 -0.78,4.43 0,1.62 0.26,3.08 0.78,4.41 0.52,1.32 1.24,2.46 2.15,3.41 0.91,0.95 1.99,1.68 3.23,2.18 1.23,0.5 2.57,0.75 4,0.75zm-43.26 -13.06l17.36 0 0 8.22 -17.36 0 0 -8.22zm0.75 21.12l-10.64 0 0 -37.61 29.5 0 0 8.22 -18.86 0 0 29.39zm-36.75 0l0 -29.18 -11.55 0 0 -8.43 33.69 0 0 8.43 -11.5 0 0 29.18 -10.64 0zm-52.88 0l16.61 -37.61 10.48 0 16.65 37.61 -11.07 0 -13 -32.4 4.19 0 -13 32.4 -10.86 0zm9.09 -7.31l2.74 -7.84 18.37 0 2.74 7.84 -23.85 0zm-37.73 7.31l0 -37.61 10.64 0 0 29.17 17.95 0 0 8.44 -28.59 0zm-39.06 0l0 -37.61 17.19 0c3.44,0 6.41,0.55 8.9,1.66 2.49,1.11 4.41,2.72 5.77,4.81 1.36,2.1 2.04,4.58 2.04,7.44 0,2.83 -0.68,5.29 -2.04,7.36 -1.36,2.08 -3.28,3.69 -5.77,4.81 -2.49,1.13 -5.46,1.7 -8.9,1.7l-11.28 0 4.73 -4.62 0 14.45 -10.64 0zm10.64 -13.33l-4.73 -4.89 10.64 0c2.22,0 3.88,-0.48 4.97,-1.45 1.09,-0.96 1.64,-2.31 1.64,-4.03 0,-1.75 -0.55,-3.11 -1.64,-4.08 -1.09,-0.97 -2.75,-1.45 -4.97,-1.45l-10.64 0 4.73 -4.89 0 20.79zm-44.44 -24.28l10.64 0 0 37.61 -10.64 0 0 -37.61zm-14.51 37.61l-10.64 0 0 -37.61 10.64 0 0 37.61zm15.26 -14.67l-16.01 0 0 -8.81 16.01 0 0 8.81zm-47.45 15.42c-3.08,0 -6.04,-0.38 -8.89,-1.15 -2.85,-0.77 -5.17,-1.77 -6.96,-2.98l3.49 -7.85c1.69,1.07 3.63,1.96 5.83,2.66 2.21,0.7 4.4,1.05 6.59,1.05 1.46,0 2.65,-0.14 3.54,-0.41 0.9,-0.26 1.55,-0.62 1.96,-1.07 0.42,-0.45 0.62,-0.98 0.62,-1.59 0,-0.86 -0.39,-1.54 -1.18,-2.04 -0.79,-0.5 -1.81,-0.91 -3.06,-1.23 -1.26,-0.33 -2.64,-0.65 -4.17,-0.97 -1.52,-0.32 -3.04,-0.73 -4.57,-1.24 -1.52,-0.5 -2.91,-1.15 -4.16,-1.96 -1.25,-0.8 -2.27,-1.86 -3.06,-3.17 -0.79,-1.31 -1.18,-2.96 -1.18,-4.97 0,-2.26 0.61,-4.3 1.85,-6.12 1.23,-1.83 3.09,-3.3 5.56,-4.41 2.47,-1.11 5.55,-1.67 9.24,-1.67 2.48,0 4.9,0.28 7.28,0.84 2.39,0.55 4.51,1.37 6.37,2.44l-3.28 7.9c-1.79,-0.97 -3.56,-1.69 -5.32,-2.18 -1.75,-0.48 -3.45,-0.72 -5.1,-0.72 -1.47,0 -2.65,0.15 -3.55,0.46 -0.89,0.3 -1.54,0.7 -1.93,1.2 -0.4,0.51 -0.59,1.08 -0.59,1.72 0,0.83 0.38,1.48 1.15,1.97 0.77,0.48 1.79,0.87 3.07,1.18 1.27,0.3 2.66,0.62 4.19,0.94 1.52,0.32 3.04,0.72 4.56,1.21 1.53,0.48 2.92,1.13 4.17,1.93 1.25,0.81 2.26,1.86 3.03,3.17 0.77,1.31 1.16,2.95 1.16,4.92 0,2.18 -0.62,4.2 -1.85,6.04 -1.24,1.85 -3.08,3.33 -5.54,4.44 -2.45,1.11 -5.54,1.66 -9.27,1.66zm-59.97 -0.75l16.61 -37.61 10.48 0 16.65 37.61 -11.06 0 -13.01 -32.4 4.19 0 -13 32.4 -10.86 0zm9.09 -7.31l2.74 -7.84 18.37 0 2.74 7.84 -23.85 0zm-37.73 7.31l0 -37.61 10.64 0 0 29.17 17.95 0 0 8.44 -28.59 0zm-26.49 0.75c-3.01,0 -5.78,-0.48 -8.33,-1.45 -2.54,-0.97 -4.75,-2.34 -6.63,-4.11 -1.88,-1.77 -3.34,-3.84 -4.38,-6.21 -1.04,-2.36 -1.56,-4.96 -1.56,-7.79 0,-2.83 0.52,-5.42 1.56,-7.79 1.04,-2.36 2.5,-4.43 4.38,-6.2 1.88,-1.78 4.09,-3.15 6.63,-4.12 2.55,-0.96 5.32,-1.45 8.33,-1.45 3.05,0 5.83,0.49 8.36,1.45 2.52,0.97 4.72,2.34 6.58,4.12 1.86,1.77 3.32,3.84 4.38,6.2 1.06,2.37 1.58,4.96 1.58,7.79 0,2.83 -0.52,5.44 -1.58,7.82 -1.06,2.38 -2.52,4.45 -4.38,6.21 -1.86,1.75 -4.06,3.11 -6.58,4.08 -2.53,0.97 -5.31,1.45 -8.36,1.45zm0 -8.81c1.43,0 2.77,-0.25 4.01,-0.75 1.23,-0.5 2.31,-1.23 3.22,-2.18 0.91,-0.95 1.63,-2.09 2.15,-3.41 0.52,-1.33 0.78,-2.79 0.78,-4.41 0,-1.64 -0.26,-3.12 -0.78,-4.43 -0.52,-1.31 -1.24,-2.44 -2.15,-3.39 -0.91,-0.94 -1.99,-1.67 -3.22,-2.17 -1.24,-0.5 -2.58,-0.75 -4.01,-0.75 -1.43,0 -2.77,0.25 -4,0.75 -1.24,0.5 -2.31,1.23 -3.23,2.17 -0.91,0.95 -1.63,2.08 -2.14,3.39 -0.52,1.31 -0.78,2.79 -0.78,4.43 0,1.62 0.26,3.08 0.78,4.41 0.51,1.32 1.23,2.46 2.14,3.41 0.92,0.95 1.99,1.68 3.23,2.18 1.23,0.5 2.57,0.75 4,0.75zm-37.13 -29.55l10.64 0 0 37.61 -10.64 0 0 -37.61zm-14.51 37.61l-10.64 0 0 -37.61 10.64 0 0 37.61zm15.26 -14.67l-16.01 0 0 -8.81 16.01 0 0 8.81zm-72.65 14.67l16.61 -37.61 10.48 0 16.65 37.61 -11.07 0 -13 -32.4 4.19 0 -13 32.4 -10.86 0zm9.09 -7.31l2.74 -7.84 18.37 0 2.74 7.84 -23.85 0zm-45.89 7.31l0 -37.61 19.23 0c4.95,0 8.64,0.9 11.07,2.71 2.44,1.81 3.66,4.18 3.66,7.12 0,1.93 -0.51,3.63 -1.54,5.08 -1.02,1.45 -2.45,2.59 -4.29,3.44 -1.85,0.84 -4.04,1.26 -6.59,1.26l1.08 -2.58c2.65,0 4.96,0.4 6.93,1.21 1.97,0.8 3.5,1.97 4.59,3.49 1.1,1.52 1.64,3.38 1.64,5.56 0,3.26 -1.31,5.8 -3.95,7.61 -2.63,1.81 -6.47,2.71 -11.52,2.71l-20.31 0zm10.53 -7.68l8.92 0c1.82,0 3.21,-0.32 4.16,-0.94 0.95,-0.63 1.43,-1.59 1.43,-2.88 0,-1.29 -0.48,-2.25 -1.43,-2.87 -0.95,-0.63 -2.34,-0.94 -4.16,-0.94l-9.68 0 0 -7.37 8.07 0c1.79,0 3.13,-0.3 4.03,-0.91 0.89,-0.61 1.34,-1.52 1.34,-2.74 0,-1.22 -0.45,-2.12 -1.34,-2.71 -0.9,-0.59 -2.24,-0.89 -4.03,-0.89l-7.31 0 0 22.25zm649.31 -70l0 -37.3 5.33 0 0 37.3 -5.33 0zm-43.27 0l0 -37.3 4.37 0 24.67 30.64 -2.29 0 0 -30.64 5.33 0 0 37.3 -4.37 0 -24.68 -30.64 2.3 0 0 30.64 -5.33 0zm-16.52 0l0 -37.3 5.33 0 0 37.3 -5.33 0zm-38.74 0l0 -37.3 14.54 0c3.27,0 6.06,0.51 8.37,1.54 2.31,1.04 4.09,2.53 5.33,4.48 1.24,1.95 1.86,4.28 1.86,6.98 0,2.7 -0.62,5.02 -1.86,6.96 -1.24,1.93 -3.02,3.42 -5.33,4.45 -2.31,1.03 -5.1,1.54 -8.37,1.54l-11.61 0 2.4 -2.45 0 13.8 -5.33 0zm24.94 0l-9.49 -13.53 5.7 0 9.59 13.53 -5.8 0zm-19.61 -13.27l-2.4 -2.61 11.45 0c3.41,0 6,-0.74 7.76,-2.21 1.76,-1.47 2.64,-3.54 2.64,-6.21 0,-2.66 -0.88,-4.72 -2.64,-6.18 -1.76,-1.46 -4.35,-2.18 -7.76,-2.18l-11.45 0 2.4 -2.67 0 22.06zm-49.99 13.27l16.89 -37.3 5.28 0 16.94 37.3 -5.59 0 -15.08 -34.32 2.13 0 -15.08 34.32 -5.49 0zm7.19 -9.32l1.44 -4.27 21 0 1.54 4.27 -23.98 0zm-33.19 9.32l0 -37.3 5.32 0 0 32.67 20.2 0 0 4.63 -25.52 0zm-44.66 0l16.89 -37.3 5.28 0 16.94 37.3 -5.59 0 -15.08 -34.32 2.13 0 -15.08 34.32 -5.49 0zm7.19 -9.32l1.44 -4.27 21 0 1.54 4.27 -23.98 0zm-23.28 9.75c-2.21,0 -4.27,-0.46 -6.18,-1.39 -1.92,-0.92 -3.49,-2.25 -4.69,-3.99l3.09 -3.63c1.03,1.42 2.19,2.52 3.49,3.28 1.29,0.76 2.72,1.14 4.29,1.14 4.26,0 6.39,-2.52 6.39,-7.56l0 -20.94 -13.48 0 0 -4.64 18.76 0 0 25.31c0,4.16 -0.99,7.27 -2.96,9.33 -1.97,2.06 -4.88,3.09 -8.71,3.09zm-21.32 -0.43l0 -37.3 5.33 0 0 37.3 -5.33 0zm-23.87 0l0 -32.66 -12.79 0 0 -4.64 30.85 0 0 4.64 -12.79 0 0 32.66 -5.27 0zm-50.2 0l16.89 -37.3 5.28 0 16.94 37.3 -5.59 0 -15.08 -34.32 2.13 0 -15.08 34.32 -5.49 0zm7.19 -9.32l1.44 -4.27 21 0 1.54 4.27 -23.98 0zm-44.81 9.32l0 -37.3 4.37 0 24.67 30.64 -2.29 0 0 -30.64 5.33 0 0 37.3 -4.37 0 -24.67 -30.64 2.29 0 0 30.64 -5.33 0zm-30.86 0l0 -37.3 5.33 0 0 37.3 -5.33 0zm-23.87 0l0 -32.66 -12.79 0 0 -4.64 30.86 0 0 4.64 -12.79 0 0 32.66 -5.28 0zm-50.2 0l16.9 -37.3 5.27 0 16.95 37.3 -5.6 0 -15.08 -34.32 2.13 0 -15.08 34.32 -5.49 0zm7.2 -9.32l1.44 -4.27 20.99 0 1.55 4.27 -23.98 0zm-24.78 9.32l0 -14.28 1.22 3.3 -16.04 -26.32 5.71 0 13.48 22.22 -3.09 0 13.53 -22.22 5.28 0 -15.99 26.32 1.17 -3.3 0 14.28 -5.27 0zm-25.53 0l0 -37.3 5.33 0 0 37.3 -5.33 0zm-31.65 0l0 -37.3 5.33 0 0 32.67 20.19 0 0 4.63 -25.52 0zm-27.92 0.43c-2.85,0 -5.48,-0.48 -7.92,-1.44 -2.43,-0.96 -4.54,-2.3 -6.31,-4.02 -1.78,-1.73 -3.16,-3.74 -4.16,-6.05 -0.99,-2.31 -1.49,-4.83 -1.49,-7.57 0,-2.74 0.5,-5.26 1.49,-7.57 1,-2.31 2.38,-4.32 4.16,-6.04 1.77,-1.73 3.87,-3.07 6.29,-4.03 2.41,-0.96 5.06,-1.44 7.94,-1.44 2.84,0 5.46,0.47 7.86,1.42 2.39,0.94 4.49,2.27 6.28,3.99 1.8,1.72 3.18,3.74 4.16,6.05 0.98,2.31 1.47,4.85 1.47,7.62 0,2.77 -0.49,5.31 -1.47,7.62 -0.98,2.31 -2.36,4.33 -4.16,6.05 -1.79,1.72 -3.89,3.05 -6.28,4 -2.4,0.94 -5.02,1.41 -7.86,1.41zm0 -4.74c2.06,0 3.97,-0.36 5.72,-1.07 1.76,-0.71 3.29,-1.71 4.59,-3.01 1.29,-1.3 2.31,-2.82 3.03,-4.56 0.73,-1.74 1.1,-3.64 1.1,-5.7 0,-2.06 -0.37,-3.96 -1.1,-5.7 -0.72,-1.74 -1.74,-3.26 -3.03,-4.56 -1.3,-1.29 -2.83,-2.3 -4.59,-3.01 -1.75,-0.71 -3.66,-1.06 -5.72,-1.06 -2.1,0 -4.03,0.35 -5.79,1.06 -1.75,0.71 -3.29,1.72 -4.61,3.01 -1.31,1.3 -2.33,2.82 -3.06,4.56 -0.73,1.74 -1.09,3.64 -1.09,5.7 0,2.06 0.36,3.96 1.09,5.7 0.73,1.74 1.75,3.26 3.06,4.56 1.32,1.3 2.86,2.3 4.61,3.01 1.76,0.71 3.69,1.07 5.79,1.07zm-60.97 4.31l16.9 -37.3 5.27 0 16.95 37.3 -5.6 0 -15.08 -34.32 2.13 0 -15.08 34.32 -5.49 0zm7.2 -9.32l1.44 -4.27 20.99 0 1.55 4.27 -23.98 0zm-28.88 -10.34l19.23 0 0 4.58 -19.23 0 0 -4.58zm0.53 19.66l-5.33 0 0 -37.3 26.32 0 0 4.64 -20.99 0 0 32.66zm843.45 -77.16l0 -37.3 4.37 0 24.67 30.64 -2.29 0 0 -30.64 5.33 0 0 37.3 -4.37 0 -24.67 -30.64 2.29 0 0 30.64 -5.33 0zm-27.92 0.43c-2.84,0 -5.48,-0.48 -7.92,-1.44 -2.43,-0.96 -4.53,-2.3 -6.31,-4.02 -1.78,-1.73 -3.16,-3.74 -4.16,-6.05 -0.99,-2.31 -1.49,-4.83 -1.49,-7.57 0,-2.73 0.5,-5.26 1.49,-7.57 1,-2.31 2.38,-4.32 4.16,-6.04 1.78,-1.73 3.87,-3.07 6.29,-4.03 2.41,-0.96 5.06,-1.44 7.94,-1.44 2.84,0 5.46,0.47 7.86,1.42 2.4,0.94 4.49,2.27 6.29,3.99 1.79,1.73 3.18,3.74 4.15,6.05 0.98,2.31 1.47,4.85 1.47,7.62 0,2.77 -0.49,5.31 -1.47,7.62 -0.97,2.31 -2.36,4.33 -4.15,6.05 -1.8,1.72 -3.89,3.05 -6.29,4 -2.4,0.94 -5.02,1.41 -7.86,1.41zm0 -4.74c2.06,0 3.97,-0.36 5.73,-1.07 1.75,-0.71 3.28,-1.71 4.58,-3.01 1.3,-1.3 2.31,-2.82 3.04,-4.56 0.72,-1.74 1.09,-3.64 1.09,-5.7 0,-2.06 -0.37,-3.96 -1.09,-5.7 -0.73,-1.74 -1.74,-3.26 -3.04,-4.56 -1.3,-1.29 -2.83,-2.3 -4.58,-3.01 -1.76,-0.71 -3.67,-1.06 -5.73,-1.06 -2.1,0 -4.03,0.35 -5.78,1.06 -1.76,0.71 -3.3,1.72 -4.61,3.01 -1.32,1.3 -2.34,2.82 -3.07,4.56 -0.73,1.74 -1.09,3.64 -1.09,5.7 0,2.06 0.36,3.96 1.09,5.7 0.73,1.74 1.75,3.26 3.07,4.56 1.31,1.3 2.85,2.3 4.61,3.01 1.75,0.71 3.68,1.07 5.78,1.07zm-33.36 4.31l0 -37.3 5.33 0 0 37.3 -5.33 0zm-22.22 0.43c-2.84,0 -5.56,-0.44 -8.16,-1.31 -2.59,-0.87 -4.63,-2 -6.12,-3.38l1.97 -4.16c1.42,1.25 3.23,2.28 5.43,3.09 2.21,0.82 4.5,1.23 6.88,1.23 2.16,0 3.92,-0.25 5.27,-0.75 1.35,-0.49 2.35,-1.18 2.99,-2.05 0.64,-0.87 0.96,-1.85 0.96,-2.96 0,-1.28 -0.42,-2.31 -1.26,-3.09 -0.83,-0.78 -1.91,-1.41 -3.25,-1.89 -1.33,-0.48 -2.79,-0.9 -4.39,-1.25 -1.6,-0.36 -3.21,-0.77 -4.83,-1.25 -1.61,-0.48 -3.09,-1.1 -4.42,-1.84 -1.33,-0.75 -2.41,-1.75 -3.22,-3.01 -0.82,-1.26 -1.23,-2.89 -1.23,-4.88 0,-1.92 0.51,-3.68 1.52,-5.3 1.01,-1.62 2.58,-2.91 4.69,-3.89 2.11,-0.98 4.8,-1.47 8.07,-1.47 2.17,0 4.32,0.29 6.45,0.86 2.13,0.56 3.98,1.38 5.54,2.45l-1.76 4.26c-1.59,-1.07 -3.28,-1.84 -5.06,-2.32 -1.77,-0.48 -3.5,-0.72 -5.17,-0.72 -2.09,0 -3.82,0.27 -5.17,0.8 -1.35,0.54 -2.33,1.25 -2.95,2.13 -0.62,0.89 -0.94,1.89 -0.94,2.99 0,1.31 0.42,2.36 1.26,3.14 0.83,0.78 1.92,1.41 3.25,1.87 1.33,0.46 2.79,0.88 4.39,1.25 1.6,0.37 3.21,0.79 4.83,1.25 1.61,0.46 3.09,1.07 4.42,1.81 1.33,0.75 2.41,1.74 3.22,2.99 0.82,1.24 1.23,2.84 1.23,4.79 0,1.89 -0.52,3.64 -1.55,5.25 -1.03,1.62 -2.62,2.92 -4.77,3.89 -2.15,0.98 -4.85,1.47 -8.12,1.47zm-27.39 -0.43l0 -37.3 5.33 0 0 37.3 -5.33 0zm-23.88 0l0 -32.66 -12.79 0 0 -4.64 30.86 0 0 4.64 -12.79 0 0 32.66 -5.28 0zm-50.19 0l16.89 -37.3 5.27 0 16.95 37.3 -5.6 0 -15.08 -34.32 2.14 0 -15.09 34.32 -5.48 0zm7.19 -9.32l1.44 -4.27 20.99 0 1.55 4.27 -23.98 0zm-26.75 9.32l-16.41 -37.3 5.75 0 15.08 34.42 -3.3 0 15.19 -34.42 5.32 0 -16.36 37.3 -5.27 0zm-37.52 0.43c-2.84,0 -5.48,-0.48 -7.91,-1.44 -2.43,-0.96 -4.54,-2.3 -6.31,-4.02 -1.78,-1.73 -3.17,-3.74 -4.16,-6.05 -1,-2.31 -1.49,-4.83 -1.49,-7.57 0,-2.73 0.49,-5.26 1.49,-7.57 0.99,-2.31 2.38,-4.32 4.16,-6.04 1.77,-1.73 3.87,-3.07 6.28,-4.03 2.42,-0.96 5.07,-1.44 7.94,-1.44 2.85,0 5.47,0.47 7.86,1.42 2.4,0.94 4.5,2.27 6.29,3.99 1.8,1.73 3.18,3.74 4.16,6.05 0.98,2.31 1.46,4.85 1.46,7.62 0,2.77 -0.48,5.31 -1.46,7.62 -0.98,2.31 -2.36,4.33 -4.16,6.05 -1.79,1.72 -3.89,3.05 -6.29,4 -2.39,0.94 -5.01,1.41 -7.86,1.41zm0 -4.74c2.06,0 3.97,-0.36 5.73,-1.07 1.76,-0.71 3.29,-1.71 4.58,-3.01 1.3,-1.3 2.31,-2.82 3.04,-4.56 0.73,-1.74 1.09,-3.64 1.09,-5.7 0,-2.06 -0.36,-3.96 -1.09,-5.7 -0.73,-1.74 -1.74,-3.26 -3.04,-4.56 -1.29,-1.29 -2.82,-2.3 -4.58,-3.01 -1.76,-0.71 -3.67,-1.06 -5.73,-1.06 -2.09,0 -4.02,0.35 -5.78,1.06 -1.76,0.71 -3.29,1.72 -4.61,3.01 -1.31,1.3 -2.33,2.82 -3.06,4.56 -0.73,1.74 -1.09,3.64 -1.09,5.7 0,2.06 0.36,3.96 1.09,5.7 0.73,1.74 1.75,3.26 3.06,4.56 1.32,1.3 2.85,2.3 4.61,3.01 1.76,0.71 3.69,1.07 5.78,1.07zm-60.11 4.31l0 -37.3 4.37 0 24.68 30.64 -2.29 0 0 -30.64 5.32 0 0 37.3 -4.37 0 -24.67 -30.64 2.29 0 0 30.64 -5.33 0zm-43.27 0l0 -37.3 4.37 0 24.68 30.64 -2.3 0 0 -30.64 5.33 0 0 37.3 -4.37 0 -24.67 -30.64 2.29 0 0 30.64 -5.33 0zm-16.52 0l0 -37.3 5.33 0 0 37.3 -5.33 0zm-58.99 0l16.9 -37.3 5.27 0 16.95 37.3 -5.6 0 -15.08 -34.32 2.13 0 -15.08 34.32 -5.49 0zm7.2 -9.32l1.44 -4.27 20.99 0 1.55 4.27 -23.98 0zm-26.75 9.32l-16.42 -37.3 5.76 0 15.08 34.42 -3.3 0 15.18 -34.42 5.33 0 -16.36 37.3 -5.27 0zm-41.62 0l0 -37.3 5.33 0 0 37.3 -5.33 0zm-38.74 0l0 -37.3 14.55 0c3.26,0 6.05,0.51 8.36,1.55 2.31,1.03 4.09,2.52 5.33,4.47 1.24,1.96 1.87,4.28 1.87,6.98 0,2.7 -0.63,5.02 -1.87,6.96 -1.24,1.93 -3.02,3.42 -5.33,4.45 -2.31,1.03 -5.1,1.54 -8.36,1.54l-11.62 0 2.4 -2.45 0 13.8 -5.33 0zm24.94 0l-9.49 -13.53 5.7 0 9.6 13.53 -5.81 0zm-19.61 -13.27l-2.4 -2.61 11.46 0c3.41,0 5.99,-0.74 7.75,-2.21 1.76,-1.47 2.64,-3.54 2.64,-6.21 0,-2.66 -0.88,-4.72 -2.64,-6.18 -1.76,-1.46 -4.34,-2.18 -7.75,-2.18l-11.46 0 2.4 -2.67 0 22.06zm-49.99 13.27l16.89 -37.3 5.28 0 16.95 37.3 -5.6 0 -15.08 -34.32 2.13 0 -15.08 34.32 -5.49 0zm7.2 -9.32l1.43 -4.27 21 0 1.55 4.27 -23.98 0zm-33.2 9.32l0 -37.3 5.33 0 0 32.67 20.19 0 0 4.63 -25.52 0zm-16.52 -37.3l5.33 0 0 37.3 -5.33 0 0 -37.3zm-21.43 37.3l-5.32 0 0 -37.3 5.32 0 0 37.3zm21.91 -16.62l-22.44 0 0 -4.64 22.44 0 0 4.64zm-49.45 17.05c-2.85,0 -5.56,-0.44 -8.16,-1.31 -2.59,-0.87 -4.63,-2 -6.13,-3.38l1.98 -4.16c1.42,1.25 3.23,2.28 5.43,3.09 2.2,0.82 4.49,1.23 6.88,1.23 2.16,0 3.92,-0.25 5.27,-0.75 1.35,-0.49 2.35,-1.18 2.98,-2.05 0.64,-0.87 0.96,-1.85 0.96,-2.96 0,-1.28 -0.41,-2.31 -1.25,-3.09 -0.83,-0.78 -1.92,-1.41 -3.25,-1.89 -1.33,-0.48 -2.8,-0.9 -4.4,-1.25 -1.59,-0.36 -3.2,-0.77 -4.82,-1.25 -1.61,-0.48 -3.09,-1.1 -4.42,-1.84 -1.33,-0.75 -2.41,-1.75 -3.22,-3.01 -0.82,-1.26 -1.23,-2.89 -1.23,-4.88 0,-1.92 0.51,-3.68 1.52,-5.3 1.01,-1.62 2.57,-2.91 4.69,-3.89 2.11,-0.98 4.8,-1.47 8.07,-1.47 2.17,0 4.32,0.29 6.45,0.86 2.13,0.56 3.98,1.38 5.54,2.45l-1.76 4.26c-1.6,-1.07 -3.28,-1.84 -5.06,-2.32 -1.78,-0.48 -3.5,-0.72 -5.17,-0.72 -2.1,0 -3.82,0.27 -5.17,0.8 -1.35,0.54 -2.33,1.25 -2.96,2.13 -0.62,0.89 -0.93,1.89 -0.93,2.99 0,1.31 0.42,2.36 1.25,3.14 0.84,0.78 1.92,1.41 3.25,1.87 1.34,0.46 2.8,0.88 4.4,1.25 1.6,0.37 3.21,0.79 4.82,1.25 1.62,0.46 3.09,1.07 4.43,1.81 1.33,0.75 2.4,1.74 3.22,2.99 0.82,1.24 1.23,2.84 1.23,4.79 0,1.89 -0.52,3.64 -1.55,5.25 -1.03,1.62 -2.62,2.92 -4.77,3.89 -2.15,0.98 -4.86,1.47 -8.12,1.47zm-27.4 -0.43l0 -37.3 5.33 0 0 37.3 -5.33 0zm-39.8 0l0 -14.28 1.22 3.3 -16.04 -26.32 5.71 0 13.48 22.22 -3.09 0 13.53 -22.22 5.28 0 -15.99 26.32 1.17 -3.3 0 14.28 -5.27 0zm-25.53 0l0 -37.3 5.33 0 0 37.3 -5.33 0zm-50.89 0l0 -37.3 4.37 0 16.73 28.19 -2.34 0 16.52 -28.19 4.37 0 0.05 37.3 -5.11 0 -0.06 -29.25 1.23 0 -14.71 24.72 -2.45 0 -14.81 -24.72 1.33 0 0 29.25 -5.12 0zm-31.65 0l0 -37.3 5.33 0 0 32.67 20.19 0 0 4.63 -25.52 0zm-16.52 0l0 -37.3 5.33 0 0 37.3 -5.33 0zm888.27 -76.73c-2.88,0 -5.53,-0.47 -7.94,-1.41 -2.42,-0.94 -4.51,-2.28 -6.29,-4 -1.78,-1.72 -3.16,-3.74 -4.16,-6.05 -0.99,-2.31 -1.49,-4.85 -1.49,-7.62 0,-2.77 0.5,-5.31 1.49,-7.62 1,-2.31 2.39,-4.32 4.19,-6.05 1.79,-1.72 3.9,-3.05 6.31,-3.99 2.42,-0.94 5.08,-1.42 7.99,-1.42 2.95,0 5.65,0.48 8.1,1.44 2.46,0.96 4.53,2.4 6.24,4.32l-3.31 3.3c-1.52,-1.49 -3.18,-2.58 -4.98,-3.27 -1.79,-0.7 -3.74,-1.04 -5.83,-1.04 -2.13,0 -4.11,0.35 -5.94,1.06 -1.83,0.71 -3.41,1.71 -4.75,2.99 -1.33,1.28 -2.36,2.79 -3.09,4.55 -0.73,1.76 -1.09,3.67 -1.09,5.73 0,2.03 0.36,3.92 1.09,5.68 0.73,1.76 1.76,3.28 3.09,4.58 1.34,1.3 2.91,2.3 4.72,3.01 1.81,0.71 3.78,1.07 5.91,1.07 1.99,0 3.9,-0.31 5.73,-0.94 1.83,-0.62 3.53,-1.66 5.09,-3.11l3.04 4.05c-1.85,1.56 -4.01,2.74 -6.48,3.54 -2.46,0.8 -5.01,1.2 -7.64,1.2zm9 -5.44l0 -13.85 5.12 0 0 14.55 -5.12 -0.7zm-69.11 5.01l0 -37.3 4.37 0 24.67 30.64 -2.29 0 0 -30.64 5.33 0 0 37.3 -4.37 0 -24.67 -30.64 2.29 0 0 30.64 -5.33 0zm-16.52 0l0 -37.3 5.33 0 0 37.3 -5.33 0zm-43.27 0l0 -37.3 4.37 0 24.67 30.64 -2.29 0 0 -30.64 5.33 0 0 37.3 -4.37 0 -24.67 -30.64 2.29 0 0 30.64 -5.33 0zm-16.52 0l0 -37.3 5.33 0 0 37.3 -5.33 0zm-38.74 0l0 -37.3 14.54 0c3.27,0 6.06,0.52 8.37,1.55 2.31,1.03 4.09,2.52 5.33,4.47 1.24,1.96 1.87,4.28 1.87,6.98 0,2.7 -0.63,5.02 -1.87,6.96 -1.24,1.93 -3.02,3.42 -5.33,4.45 -2.31,1.03 -5.1,1.54 -8.37,1.54l-11.61 0 2.4 -2.45 0 13.8 -5.33 0zm24.94 0l-9.49 -13.53 5.7 0 9.59 13.53 -5.8 0zm-19.61 -13.27l-2.4 -2.61 11.46 0c3.41,0 5.99,-0.73 7.75,-2.21 1.76,-1.47 2.64,-3.54 2.64,-6.21 0,-2.66 -0.88,-4.72 -2.64,-6.18 -1.76,-1.46 -4.34,-2.18 -7.75,-2.18l-11.46 0 2.4 -2.67 0 22.06zm-49.99 13.27l16.89 -37.3 5.28 0 16.95 37.3 -5.6 0 -15.08 -34.32 2.13 0 -15.08 34.32 -5.49 0zm7.2 -9.32l1.43 -4.27 21 0 1.55 4.27 -23.98 0zm-33.2 9.32l0 -37.3 5.33 0 0 32.67 20.19 0 0 4.63 -25.52 0zm-44.66 0l16.89 -37.3 5.28 0 16.95 37.3 -5.6 0 -15.08 -34.32 2.13 0 -15.08 34.32 -5.49 0zm7.19 -9.32l1.44 -4.27 21 0 1.54 4.27 -23.98 0zm-23.76 9.75c-2.84,0 -5.56,-0.44 -8.15,-1.31 -2.6,-0.87 -4.64,-1.99 -6.13,-3.38l1.97 -4.16c1.42,1.25 3.23,2.28 5.43,3.09 2.21,0.82 4.5,1.23 6.88,1.23 2.17,0 3.92,-0.25 5.27,-0.75 1.35,-0.49 2.35,-1.18 2.99,-2.05 0.64,-0.87 0.96,-1.85 0.96,-2.96 0,-1.27 -0.42,-2.3 -1.25,-3.09 -0.84,-0.78 -1.92,-1.41 -3.26,-1.89 -1.33,-0.48 -2.79,-0.9 -4.39,-1.25 -1.6,-0.36 -3.21,-0.77 -4.82,-1.25 -1.62,-0.48 -3.1,-1.1 -4.43,-1.84 -1.33,-0.75 -2.4,-1.75 -3.22,-3.01 -0.82,-1.26 -1.23,-2.89 -1.23,-4.88 0,-1.92 0.51,-3.68 1.52,-5.3 1.01,-1.62 2.58,-2.91 4.69,-3.89 2.11,-0.98 4.81,-1.47 8.07,-1.47 2.17,0 4.32,0.29 6.45,0.86 2.13,0.57 3.98,1.38 5.54,2.45l-1.75 4.26c-1.6,-1.06 -3.29,-1.84 -5.07,-2.32 -1.77,-0.48 -3.5,-0.72 -5.17,-0.72 -2.09,0 -3.81,0.27 -5.17,0.8 -1.35,0.54 -2.33,1.25 -2.95,2.13 -0.62,0.89 -0.93,1.89 -0.93,2.99 0,1.31 0.41,2.36 1.25,3.14 0.83,0.78 1.92,1.41 3.25,1.87 1.33,0.46 2.8,0.88 4.39,1.25 1.6,0.37 3.21,0.79 4.83,1.25 1.61,0.46 3.09,1.07 4.42,1.81 1.33,0.75 2.41,1.75 3.22,2.99 0.82,1.24 1.23,2.84 1.23,4.79 0,1.89 -0.52,3.64 -1.55,5.25 -1.03,1.62 -2.62,2.92 -4.77,3.89 -2.14,0.98 -4.85,1.47 -8.12,1.47zm-55.53 -0.43l16.89 -37.3 5.28 0 16.95 37.3 -5.6 0 -15.08 -34.32 2.13 0 -15.08 34.32 -5.49 0zm7.2 -9.32l1.43 -4.27 21 0 1.55 4.27 -23.98 0zm-23.77 9.75c-2.84,0 -5.56,-0.44 -8.15,-1.31 -2.6,-0.87 -4.64,-1.99 -6.13,-3.38l1.97 -4.16c1.42,1.25 3.23,2.28 5.43,3.09 2.21,0.82 4.5,1.23 6.88,1.23 2.17,0 3.92,-0.25 5.27,-0.75 1.35,-0.49 2.35,-1.18 2.99,-2.05 0.64,-0.87 0.96,-1.85 0.96,-2.96 0,-1.27 -0.42,-2.3 -1.25,-3.09 -0.84,-0.78 -1.92,-1.41 -3.26,-1.89 -1.33,-0.48 -2.79,-0.9 -4.39,-1.25 -1.6,-0.36 -3.21,-0.77 -4.82,-1.25 -1.62,-0.48 -3.09,-1.1 -4.43,-1.84 -1.33,-0.75 -2.4,-1.75 -3.22,-3.01 -0.82,-1.26 -1.23,-2.89 -1.23,-4.88 0,-1.92 0.51,-3.68 1.52,-5.3 1.01,-1.62 2.58,-2.91 4.69,-3.89 2.11,-0.98 4.81,-1.47 8.07,-1.47 2.17,0 4.32,0.29 6.45,0.86 2.13,0.57 3.98,1.38 5.54,2.45l-1.75 4.26c-1.6,-1.06 -3.29,-1.84 -5.07,-2.32 -1.77,-0.48 -3.5,-0.72 -5.17,-0.72 -2.09,0 -3.81,0.27 -5.16,0.8 -1.35,0.54 -2.34,1.25 -2.96,2.13 -0.62,0.89 -0.93,1.89 -0.93,2.99 0,1.31 0.41,2.36 1.25,3.14 0.83,0.78 1.92,1.41 3.25,1.87 1.33,0.46 2.8,0.88 4.39,1.25 1.6,0.37 3.21,0.79 4.83,1.25 1.61,0.46 3.09,1.07 4.42,1.81 1.33,0.75 2.41,1.75 3.22,2.99 0.82,1.24 1.23,2.84 1.23,4.79 0,1.89 -0.52,3.64 -1.55,5.25 -1.03,1.62 -2.62,2.92 -4.76,3.89 -2.15,0.98 -4.86,1.47 -8.13,1.47zm-33.09 0c-2.85,0 -5.56,-0.44 -8.16,-1.31 -2.59,-0.87 -4.63,-1.99 -6.12,-3.38l1.97 -4.16c1.42,1.25 3.23,2.28 5.43,3.09 2.2,0.82 4.5,1.23 6.88,1.23 2.16,0 3.92,-0.25 5.27,-0.75 1.35,-0.49 2.35,-1.18 2.99,-2.05 0.64,-0.87 0.96,-1.85 0.96,-2.96 0,-1.27 -0.42,-2.3 -1.26,-3.09 -0.83,-0.78 -1.92,-1.41 -3.25,-1.89 -1.33,-0.48 -2.8,-0.9 -4.39,-1.25 -1.6,-0.36 -3.21,-0.77 -4.83,-1.25 -1.61,-0.48 -3.09,-1.1 -4.42,-1.84 -1.33,-0.75 -2.41,-1.75 -3.22,-3.01 -0.82,-1.26 -1.23,-2.89 -1.23,-4.88 0,-1.92 0.51,-3.68 1.52,-5.3 1.01,-1.62 2.58,-2.91 4.69,-3.89 2.11,-0.98 4.8,-1.47 8.07,-1.47 2.17,0 4.32,0.29 6.45,0.86 2.13,0.57 3.98,1.38 5.54,2.45l-1.76 4.26c-1.59,-1.06 -3.28,-1.84 -5.06,-2.32 -1.77,-0.48 -3.5,-0.72 -5.17,-0.72 -2.09,0 -3.82,0.27 -5.17,0.8 -1.35,0.54 -2.33,1.25 -2.95,2.13 -0.63,0.89 -0.94,1.89 -0.94,2.99 0,1.31 0.42,2.36 1.26,3.14 0.83,0.78 1.91,1.41 3.25,1.87 1.33,0.46 2.79,0.88 4.39,1.25 1.6,0.37 3.21,0.79 4.83,1.25 1.61,0.46 3.09,1.07 4.42,1.81 1.33,0.75 2.41,1.75 3.22,2.99 0.82,1.24 1.23,2.84 1.23,4.79 0,1.89 -0.52,3.64 -1.55,5.25 -1.03,1.62 -2.62,2.92 -4.77,3.89 -2.15,0.98 -4.86,1.47 -8.12,1.47zm-55.53 -0.43l16.89 -37.3 5.28 0 16.94 37.3 -5.59 0 -15.08 -34.32 2.13 0 -15.08 34.32 -5.49 0zm7.19 -9.32l1.44 -4.27 21 0 1.54 4.27 -23.98 0zm-27.44 9.75c-4.9,0 -8.76,-1.4 -11.56,-4.21 -2.81,-2.81 -4.21,-6.91 -4.21,-12.31l0 -21.21 5.33 0 0 21c0,4.15 0.91,7.19 2.74,9.11 1.83,1.92 4.41,2.88 7.75,2.88 3.38,0 5.98,-0.96 7.81,-2.88 1.83,-1.92 2.74,-4.96 2.74,-9.11l0 -21 5.17 0 0 21.21c0,5.4 -1.39,9.5 -4.18,12.31 -2.79,2.81 -6.65,4.21 -11.59,4.21zm-66.34 -0.43l0 -37.3 4.37 0 16.73 28.19 -2.35 0 16.52 -28.19 4.37 0 0.06 37.3 -5.12 0 -0.05 -29.25 1.22 0 -14.71 24.72 -2.45 0 -14.81 -24.72 1.33 0 0 29.25 -5.11 0zm-65.23 0l0 -37.3 4.37 0 16.73 28.19 -2.34 0 16.52 -28.19 4.37 0 0.05 37.3 -5.12 0 -0.05 -29.25 1.23 0 -14.71 24.72 -2.45 0 -14.82 -24.72 1.34 0 0 29.25 -5.12 0zm-16.52 0l0 -37.3 5.33 0 0 37.3 -5.33 0zm-31.65 0l0 -37.3 5.33 0 0 32.67 20.19 0 0 4.63 -25.52 0zm-8.42 -39.54l-2.67 10.82 -0.64 -3.09c1.03,0 1.89,0.32 2.56,0.96 0.68,0.64 1.01,1.49 1.01,2.56 0,1.06 -0.33,1.93 -1.01,2.61 -0.67,0.67 -1.51,1.01 -2.5,1.01 -1.03,0 -1.89,-0.35 -2.56,-1.04 -0.68,-0.69 -1.01,-1.55 -1.01,-2.58 0,-0.36 0.02,-0.7 0.08,-1.02 0.05,-0.32 0.15,-0.7 0.29,-1.14 0.14,-0.45 0.34,-0.99 0.59,-1.63l2.5 -7.46 3.36 0zm-46.58 39.54l16.9 -37.3 5.27 0 16.95 37.3 -5.6 0 -15.08 -34.32 2.13 0 -15.08 34.32 -5.49 0zm7.2 -9.32l1.44 -4.27 20.99 0 1.55 4.27 -23.98 0zm-23.56 9.32l0 -32.66 -12.79 0 0 -4.64 30.86 0 0 4.64 -12.79 0 0 32.66 -5.28 0zm-47.21 0l0 -14.28 1.23 3.3 -16.04 -26.32 5.7 0 13.48 22.22 -3.09 0 13.53 -22.22 5.28 0 -15.99 26.32 1.18 -3.3 0 14.28 -5.28 0zm-25.53 0l0 -37.3 5.33 0 0 37.3 -5.33 0zm-31.65 0l0 -37.3 5.33 0 0 32.67 20.2 0 0 4.63 -25.53 0zm-27.92 0.43c-2.84,0 -5.48,-0.48 -7.92,-1.44 -2.43,-0.96 -4.53,-2.3 -6.31,-4.02 -1.78,-1.73 -3.16,-3.74 -4.16,-6.05 -0.99,-2.31 -1.49,-4.83 -1.49,-7.57 0,-2.73 0.5,-5.26 1.49,-7.57 1,-2.3 2.38,-4.32 4.16,-6.04 1.78,-1.73 3.87,-3.07 6.29,-4.03 2.41,-0.96 5.06,-1.44 7.94,-1.44 2.84,0 5.46,0.48 7.86,1.42 2.4,0.94 4.49,2.27 6.29,3.99 1.79,1.73 3.18,3.74 4.15,6.05 0.98,2.31 1.47,4.85 1.47,7.62 0,2.77 -0.49,5.31 -1.47,7.62 -0.97,2.31 -2.36,4.33 -4.15,6.05 -1.8,1.72 -3.89,3.06 -6.29,4 -2.4,0.94 -5.02,1.41 -7.86,1.41zm0 -4.74c2.06,0 3.97,-0.36 5.73,-1.07 1.76,-0.71 3.28,-1.71 4.58,-3.01 1.3,-1.3 2.31,-2.82 3.04,-4.56 0.73,-1.74 1.09,-3.64 1.09,-5.7 0,-2.06 -0.36,-3.96 -1.09,-5.7 -0.73,-1.74 -1.74,-3.26 -3.04,-4.56 -1.3,-1.29 -2.82,-2.3 -4.58,-3.01 -1.76,-0.71 -3.67,-1.06 -5.73,-1.06 -2.1,0 -4.03,0.35 -5.78,1.06 -1.76,0.71 -3.3,1.72 -4.61,3.01 -1.32,1.3 -2.34,2.82 -3.07,4.56 -0.73,1.74 -1.09,3.64 -1.09,5.7 0,2.06 0.36,3.96 1.09,5.7 0.73,1.74 1.75,3.26 3.07,4.56 1.31,1.3 2.85,2.3 4.61,3.01 1.75,0.71 3.68,1.07 5.78,1.07zm-241.71 -127.8c-0.17,0.02 -0.32,0.02 -0.49,0.02 -1.65,-0.1 -2.97,-1.93 -2.97,-3.7 0,-1.75 1.32,-2.78 2.97,-2.7 0.17,0.02 0.32,0.02 0.49,0.07 -1.41,0.21 -2.49,1.3 -2.49,2.88 0,1.58 1.08,3.16 2.49,3.43zm1.45 -0.12c-0.1,-0.07 -0.21,-0.17 -0.35,-0.25 -0.11,0.12 -0.21,0.21 -0.35,0.31 0.03,-0.17 0.08,-0.31 0.12,-0.44 -0.11,-0.09 -0.21,-0.19 -0.35,-0.29l0.44 0.01c0.03,-0.18 0.09,-0.31 0.12,-0.44 0.04,0.13 0.09,0.28 0.12,0.42 0.16,0 0.3,0 0.45,-0.02 -0.11,0.09 -0.22,0.21 -0.36,0.3 0.07,0.12 0.13,0.27 0.16,0.4zm2.44 -0.28c-0.1,-0.08 -0.21,-0.14 -0.35,-0.21 -0.11,0.09 -0.21,0.21 -0.36,0.32 0.04,-0.17 0.09,-0.32 0.13,-0.47 -0.11,-0.08 -0.21,-0.14 -0.36,-0.23 0.16,-0.02 0.31,-0.02 0.45,-0.04 0.03,-0.17 0.08,-0.33 0.12,-0.48 0.04,0.14 0.09,0.29 0.16,0.42 0.12,-0.02 0.28,-0.04 0.41,-0.08 -0.11,0.1 -0.22,0.21 -0.36,0.33 0.07,0.17 0.11,0.3 0.16,0.44zm-0.14 -2.99c0.04,0.13 0.09,0.28 0.12,0.42 -0.1,-0.08 -0.21,-0.14 -0.35,-0.21 -0.11,0.11 -0.21,0.21 -0.35,0.32 0.03,-0.13 0.08,-0.3 0.12,-0.48 -0.11,-0.07 -0.21,-0.13 -0.35,-0.21 0.16,-0.01 0.3,-0.03 0.44,-0.07 0.03,-0.13 0.09,-0.31 0.12,-0.48 0.04,0.14 0.09,0.29 0.16,0.42 0.12,-0.02 0.28,-0.04 0.41,-0.07 -0.07,0.15 -0.18,0.26 -0.32,0.36zm2.6 2.45c-0.12,-0.07 -0.25,-0.11 -0.37,-0.19 -0.11,0.12 -0.21,0.23 -0.36,0.34 0.04,-0.13 0.09,-0.3 0.13,-0.47 -0.11,-0.08 -0.21,-0.12 -0.36,-0.19 0.16,-0.02 0.3,-0.08 0.45,-0.1 0.03,-0.17 0.08,-0.32 0.12,-0.49 0.03,0.13 0.11,0.28 0.16,0.42 0.12,-0.04 0.28,-0.08 0.41,-0.12 -0.11,0.12 -0.22,0.23 -0.36,0.38 0.05,0.14 0.11,0.29 0.18,0.42zm-0.16 -2.97c0.03,0.14 0.09,0.29 0.16,0.4 -0.13,-0.04 -0.25,-0.11 -0.37,-0.17 -0.11,0.12 -0.22,0.23 -0.36,0.34 0.04,-0.17 0.09,-0.32 0.13,-0.47 -0.11,-0.08 -0.22,-0.13 -0.36,-0.21 0.16,-0.02 0.3,-0.04 0.44,-0.1 0.04,-0.17 0.09,-0.32 0.13,-0.47 0.03,0.13 0.1,0.27 0.16,0.4 0.12,-0.02 0.28,-0.08 0.4,-0.12 -0.1,0.17 -0.21,0.29 -0.33,0.4zm0 -2.57c0.03,0.14 0.09,0.29 0.16,0.42 -0.13,-0.07 -0.25,-0.11 -0.37,-0.19 -0.11,0.12 -0.22,0.23 -0.36,0.34 0.04,-0.13 0.09,-0.3 0.13,-0.47 -0.11,-0.08 -0.22,-0.12 -0.36,-0.19 0.16,-0.04 0.3,-0.08 0.44,-0.1 0.04,-0.17 0.09,-0.32 0.13,-0.49 0.03,0.13 0.1,0.28 0.16,0.42 0.12,-0.04 0.28,-0.08 0.4,-0.12 -0.1,0.15 -0.21,0.27 -0.33,0.38zm2.58 4.84c-0.12,-0.04 -0.23,-0.1 -0.37,-0.17 -0.11,0.13 -0.21,0.26 -0.35,0.38 0.03,-0.17 0.08,-0.31 0.15,-0.48 -0.12,-0.07 -0.23,-0.11 -0.37,-0.19 0.16,-0.02 0.3,-0.07 0.44,-0.11 0.04,-0.17 0.09,-0.33 0.13,-0.5 0.03,0.14 0.1,0.29 0.16,0.4 0.12,-0.02 0.28,-0.07 0.4,-0.11 -0.1,0.11 -0.21,0.26 -0.35,0.38 0.05,0.15 0.09,0.28 0.16,0.4zm-0.14 -2.93c0.03,0.11 0.09,0.26 0.16,0.4 -0.13,-0.08 -0.23,-0.12 -0.37,-0.17 -0.11,0.11 -0.22,0.22 -0.36,0.38 0.04,-0.18 0.09,-0.33 0.16,-0.5 -0.12,-0.04 -0.23,-0.11 -0.37,-0.17 0.16,-0.04 0.3,-0.09 0.44,-0.13 0.04,-0.14 0.09,-0.31 0.13,-0.48 0.03,0.12 0.1,0.27 0.16,0.4 0.12,-0.04 0.28,-0.09 0.4,-0.13 -0.12,0.13 -0.23,0.24 -0.35,0.4zm0 -2.57c0.03,0.13 0.09,0.28 0.16,0.4 -0.13,-0.04 -0.23,-0.12 -0.37,-0.18 -0.11,0.12 -0.22,0.27 -0.36,0.39 0.04,-0.18 0.09,-0.31 0.16,-0.48 -0.12,-0.08 -0.23,-0.11 -0.37,-0.19 0.16,-0.02 0.3,-0.08 0.44,-0.12 0.04,-0.17 0.09,-0.32 0.13,-0.49 0.03,0.13 0.1,0.29 0.16,0.4 0.12,-0.02 0.28,-0.08 0.4,-0.11 -0.12,0.11 -0.23,0.24 -0.35,0.38zm2.58 4.74c-0.12,-0.04 -0.25,-0.1 -0.37,-0.17 -0.11,0.13 -0.21,0.26 -0.36,0.4 0.04,-0.18 0.09,-0.33 0.16,-0.5 -0.12,-0.04 -0.24,-0.11 -0.37,-0.17 0.16,-0.04 0.3,-0.1 0.44,-0.13 0.04,-0.17 0.09,-0.33 0.13,-0.5 0.07,0.13 0.1,0.29 0.16,0.42 0.12,-0.04 0.28,-0.09 0.44,-0.13 -0.13,0.11 -0.23,0.26 -0.37,0.38 0.03,0.13 0.09,0.24 0.14,0.4zm-0.16 -2.95c0.04,0.11 0.11,0.26 0.16,0.4 -0.12,-0.08 -0.25,-0.12 -0.37,-0.18 -0.11,0.12 -0.21,0.27 -0.36,0.39 0.04,-0.18 0.09,-0.33 0.16,-0.48 -0.12,-0.08 -0.24,-0.11 -0.37,-0.17 0.16,-0.04 0.3,-0.1 0.44,-0.13 0.04,-0.18 0.09,-0.33 0.13,-0.5 0.07,0.13 0.1,0.27 0.16,0.4 0.12,-0.04 0.28,-0.09 0.44,-0.13l-0.39 0.4zm0 -2.57c0.04,0.13 0.11,0.24 0.16,0.4 -0.12,-0.04 -0.25,-0.1 -0.37,-0.18 -0.11,0.14 -0.21,0.27 -0.36,0.4 0.04,-0.17 0.09,-0.32 0.16,-0.49 -0.12,-0.04 -0.24,-0.12 -0.37,-0.17 0.16,-0.04 0.3,-0.1 0.44,-0.14 0.04,-0.17 0.09,-0.32 0.13,-0.49 0.07,0.13 0.1,0.29 0.16,0.42 0.12,-0.04 0.28,-0.1 0.44,-0.13 -0.14,0.11 -0.27,0.26 -0.39,0.38zm-21 213.75c-2.3,-4.86 -6.66,-8.21 -6.66,-8.21 4.49,2.17 6.18,5.27 6.18,5.27 1.82,-5.75 7.83,-10.6 7.83,-10.6 -5.81,6.87 -7.35,13.54 -7.35,13.54zm-155.16 75.05l-1.05 -7.33 -2.58 -4.34 0.46 3.22 6.65 47.52c0,0 0.3,2.52 -1.19,2.63l-39.47 7.83 0 2.83 40.59 -8.26c0,0 2.38,-0.49 2.07,-4.04l-5.48 -40.06zm-1.7 33.86l-7.73 -55.31 -2.49 -4.19 8.22 58.37c0,0 0.53,3.22 -1.47,3.07l-32.01 6.25 0 3.02 34.01 -7.1c0.02,0 2.09,-1.05 1.47,-4.11zm-7.27 -6.4l-9.06 -63.42 -2.43 -4.08 9.5 66.38c0,0 0.76,3.52 -1.7,3.41l-24.52 4.89 0 3.14 26.32 -5.65c0.02,-0.01 2.51,-0.44 1.89,-4.67zm320.76 -27.46l1.05 -7.33 2.58 -4.34 -0.46 3.22 -6.65 47.52c0,0 -0.3,2.52 1.19,2.63l39.47 7.83 0 2.83 -40.59 -8.26c0,0 -2.38,-0.49 -2.07,-4.04l5.48 -40.06zm1.7 33.86l7.72 -55.31 2.5 -4.19 -8.22 58.37c0,0 -0.53,3.22 1.46,3.07l32.02 6.25 0 3.02 -34.01 -7.1c-0.02,0 -2.09,-1.05 -1.47,-4.11zm7.27 -6.4l9.06 -63.42 2.43 -4.08 -9.5 66.38c0,0 -0.76,3.52 1.7,3.41l24.52 4.89 0 3.14 -26.32 -5.65c-0.02,-0.01 -2.51,-0.44 -1.89,-4.67zm-264.29 7.85c-1.54,0.38 -3.14,0.79 -4.7,1.23 -10.48,2.61 -20.75,5.64 -20.75,5.64 -0.94,-4.44 -2.02,-8.84 -3.02,-13.16 -1.61,-6.72 -3.38,-13.25 -5.11,-19.59 -4.7,-17.14 -9.81,-32.75 -14.71,-46.33 -1.61,-4.51 -3.15,-8.77 -4.7,-12.74 -3.77,-9.74 -7.25,-18.1 -10.2,-24.84 -1.68,-3.93 -3.24,-7.33 -4.51,-10.06 -2.9,-6.28 -4.63,-9.69 -4.63,-9.69l3.08 -1.16 3.04 -1.18 6.48 -2.55 0.89 -0.33c1.22,3.41 2.4,6.99 3.62,10.8 5.78,17.38 12.02,38.1 17.61,57.5 0,0.06 0,0.12 0.07,0.12 4.03,14.18 7.79,27.78 10.87,38.9 4.63,16.98 7.72,28.48 7.72,28.48 3.75,-1.54 8.93,-2.34 13.77,-2.74 1.68,-0.15 3.36,-0.21 4.9,-0.21 5.09,-0.26 8.93,-0.06 8.93,-0.06 -2.53,0.54 -5.55,1.24 -8.65,1.97zm18.88 -12.74c-8.32,-0.12 -15.5,0 -20.75,0.26 -1.95,0.06 -3.57,0.12 -4.9,0.21 -2.35,0.12 -3.71,0.25 -3.71,0.25 -1.2,-6 -2.4,-11.82 -3.75,-17.5 -13.02,-58.83 -27.47,-96.48 -35,-113.86 -3.28,-7.52 -5.23,-11.24 -5.23,-11.24l3.38 -1.23 9.05 -3.26c13.36,44.23 22.02,75.21 27.59,96.65 0,0.15 0,0.27 0.09,0.33 3.75,14.79 6.17,24.98 7.58,31.89 2.19,10.39 2.35,13.54 2.35,13.54 0.6,-0.06 1.28,-0.14 1.89,-0.14 7.04,-0.64 14.11,-0.72 20.76,-0.38 26.03,1.32 47.55,8.25 50.36,9.22 -16.6,-3.51 -34.88,-4.61 -49.71,-4.74zm157.53 0.05c-14.1,0.27 -30.82,1.45 -46.06,4.65 2.69,-0.91 22.29,-7.33 46.72,-8.95 6.45,-0.53 13.31,-0.65 20.29,-0.11 1.61,0 3.24,0.11 4.9,0.32 0.33,0 0.6,0 0.93,0.06 0,0 0.22,-3.14 2.36,-13.54 3.62,-17.12 12.63,-53.98 35.33,-128.87l5.23 1.89 7.2 2.62c0,0 -4.72,8.95 -11.69,27.14 0,0.05 0,0.05 0,0.05 -7.92,20.66 -18.66,53.13 -28.6,97.84 -1.22,5.69 -2.49,11.5 -3.69,17.57 0,0 -2.83,-0.19 -7.67,-0.38 -1.47,-0.12 -3.15,-0.12 -4.97,-0.19 -5.5,-0.23 -12.48,-0.34 -20.28,-0.1zm94.24 -115.93c-1.27,2.49 -4.99,10.13 -9.95,21.76 -1.47,3.41 -3.03,7.14 -4.63,11.18 -3.36,8.18 -6.92,17.67 -10.66,28.23 -1.61,4.63 -3.24,9.54 -4.9,14.59 -2.76,8.49 -5.44,17.5 -8.06,26.98 -2.9,10.39 -5.64,21.36 -8.13,32.75 0,0 -0.87,-0.27 -2.4,-0.65 -4.23,-1.24 -13.56,-3.85 -22.17,-5.96 -1.61,-0.38 -3.24,-0.78 -4.76,-1.18 -1.68,-0.38 -3.28,-0.7 -4.77,-1.05 0,0 1.94,-0.11 4.9,-0.05 1.39,0 3.09,0 4.96,0.11 5.78,0.21 12.91,0.92 17.82,2.93 0,0 3.02,-11.5 7.71,-28.48 0.67,-2.49 1.34,-5.1 2.1,-7.77 5.43,-19.69 12.5,-44.65 19.54,-67.38 1.73,-5.7 3.5,-11.26 5.23,-16.55 1.73,-5.48 3.57,-10.8 5.23,-15.61l3.57 1.37 3.02 1.18 6.53 2.55 0.33 0.11c-0.05,0 -0.18,0.35 -0.51,0.94zm-23.86 -78.07c0.24,-0.02 0.45,-0.1 0.63,-0.21 0.18,-0.11 0.3,-0.27 0.39,-0.46 0.09,-0.19 0.16,-0.42 0.21,-0.66 0.04,-0.21 0.06,-0.42 0.04,-0.61 -0.02,-0.21 -0.09,-0.4 -0.21,-0.57 -0.13,-0.2 -0.3,-0.35 -0.55,-0.5 -0.25,-0.15 -0.58,-0.27 -0.97,-0.36 -0.64,-0.15 -0.96,-0.23 -1.61,-0.38 -0.27,1.29 -0.39,1.94 -0.66,3.23 0.73,0.18 1.08,0.25 1.81,0.42 0.35,0.1 0.67,0.12 0.92,0.1zm-25.28 -7.94c-0.82,1.56 -1.24,2.36 -2.05,3.92 1.08,0.21 1.61,0.31 2.68,0.53 -0.24,-1.79 -0.37,-2.68 -0.63,-4.45zm-22.35 -1.54c0.25,-0.04 0.46,-0.14 0.62,-0.25 0.16,-0.13 0.29,-0.29 0.36,-0.5 0.08,-0.19 0.14,-0.41 0.17,-0.68 0.04,-0.21 0.04,-0.42 -0.01,-0.61 -0.04,-0.21 -0.13,-0.38 -0.25,-0.55 -0.12,-0.17 -0.32,-0.33 -0.58,-0.44 -0.27,-0.13 -0.59,-0.23 -0.99,-0.29 -0.66,-0.09 -0.98,-0.15 -1.61,-0.24 -0.18,1.31 -0.27,1.96 -0.44,3.27 0.72,0.11 1.09,0.17 1.82,0.29 0.35,0.03 0.67,0.03 0.91,0zm-11.38 -4.15c-0.74,1.61 -1.11,2.41 -1.86,4.03 1.08,0.15 1.63,0.23 2.71,0.38 -0.35,-1.77 -0.51,-2.64 -0.85,-4.41zm-20.45 -2.54c-0.71,1.64 -1.04,2.46 -1.75,4.1 1.08,0.11 1.63,0.17 2.7,0.28 -0.37,-1.75 -0.56,-2.62 -0.95,-4.38zm-42.78 -3.18c-0.6,1.68 -0.9,2.52 -1.5,4.21 1.09,0.04 1.63,0.06 2.72,0.12 -0.49,-1.74 -0.74,-2.59 -1.22,-4.33zm-18.35 5.7c0.5,-0.71 0.75,-1.72 0.76,-3.03 0.02,-1.31 -0.21,-2.32 -0.69,-3.05 -0.47,-0.72 -1.22,-1.08 -2.21,-1.08 -0.99,0 -1.73,0.34 -2.22,1.06 -0.5,0.71 -0.73,1.74 -0.75,3.03 0,1.32 0.24,2.34 0.71,3.05 0.48,0.7 1.2,1.06 2.19,1.08 0.99,-0.02 1.74,-0.36 2.21,-1.06zm-44.75 -5.09c-0.46,1.74 -0.69,2.61 -1.14,4.34 1.08,-0.07 1.63,-0.09 2.73,-0.15 -0.64,-1.67 -0.96,-2.51 -1.59,-4.19zm-35.02 3.07c-0.37,1.75 -0.57,2.63 -0.92,4.4 1.08,-0.14 1.63,-0.19 2.7,-0.31 -0.7,-1.65 -1.06,-2.47 -1.78,-4.09zm-56.25 9.04c-0.25,1.79 -0.35,2.69 -0.58,4.46 1.08,-0.23 1.61,-0.34 2.69,-0.55 -0.84,-1.56 -1.26,-2.35 -2.11,-3.91zm-42.62 16.7c0.3,-0.82 0.3,-1.86 0,-3.14 -0.3,-1.28 -0.77,-2.19 -1.41,-2.74 -0.64,-0.55 -1.45,-0.71 -2.42,-0.42 -0.97,0.28 -1.61,0.84 -1.91,1.66 -0.3,0.83 -0.28,1.86 0.02,3.14 0.31,1.27 0.79,2.19 1.43,2.74 0.63,0.55 1.43,0.68 2.38,0.42 0.96,-0.27 1.61,-0.84 1.91,-1.66zm263.31 -43.37c-0.76,1.62 -1.15,2.41 -1.89,4.03 1.12,0.16 1.66,0.23 2.78,0.4 -0.36,-1.79 -0.53,-2.66 -0.89,-4.43zm-34.82 -2.48c0.27,-0.23 0.41,-0.55 0.44,-1.01 0.04,-0.49 -0.09,-0.84 -0.39,-1.08 -0.3,-0.23 -0.81,-0.38 -1.53,-0.44 -0.71,-0.06 -1.05,-0.1 -1.75,-0.15 -0.07,1.1 -0.13,1.65 -0.2,2.76 0.85,0.07 1.26,0.11 2.11,0.17 0.61,0.06 1.07,-0.04 1.32,-0.25zm-0.81 5.41c0.26,-0.06 0.49,-0.15 0.65,-0.29 0.18,-0.13 0.3,-0.3 0.37,-0.49 0.09,-0.19 0.13,-0.42 0.15,-0.67 0.03,-0.51 -0.08,-0.91 -0.32,-1.2 -0.25,-0.28 -0.71,-0.45 -1.4,-0.51 -0.9,-0.08 -1.36,-0.12 -2.26,-0.19 -0.09,1.29 -0.14,1.92 -0.23,3.22 0.79,0.05 1.2,0.09 2.01,0.17 0.44,0.04 0.76,0.02 1.03,-0.04zm-21.39 -5.88c0.28,-0.08 0.51,-0.2 0.67,-0.33 0.18,-0.15 0.28,-0.32 0.35,-0.55 0.08,-0.23 0.11,-0.48 0.13,-0.74 0.02,-0.29 0,-0.54 -0.05,-0.75 -0.06,-0.2 -0.16,-0.4 -0.32,-0.55 -0.16,-0.15 -0.37,-0.26 -0.64,-0.36 -0.26,-0.09 -0.62,-0.15 -1.04,-0.17 -0.69,-0.04 -1.03,-0.06 -1.72,-0.1 -0.05,1.41 -0.08,2.12 -0.14,3.53 0.69,0.04 1.04,0.05 1.73,0.09 0.41,0.02 0.76,0 1.03,-0.07zm-30.71 -1.13c0.25,-0.07 0.45,-0.19 0.61,-0.34 0.14,-0.15 0.24,-0.32 0.3,-0.53 0.05,-0.21 0.08,-0.44 0.08,-0.71 0,-0.21 -0.03,-0.42 -0.08,-0.61 -0.07,-0.19 -0.18,-0.36 -0.34,-0.51 -0.16,-0.15 -0.37,-0.27 -0.65,-0.36 -0.29,-0.08 -0.62,-0.14 -1.05,-0.14 -0.67,0 -1,0 -1.68,0 0,1.34 0,1.98 0,3.32 0.75,0 1.14,0 1.88,0 0.37,0 0.69,-0.04 0.93,-0.12zm-25.52 4.1c0.48,-0.73 0.69,-1.76 0.65,-3.07 -0.03,-1.31 -0.31,-2.3 -0.83,-3.01 -0.51,-0.7 -1.29,-1.03 -2.31,-0.99 -1.03,0.04 -1.77,0.42 -2.25,1.16 -0.47,0.75 -0.69,1.75 -0.63,3.07 0.05,1.31 0.33,2.32 0.84,3.01 0.52,0.68 1.28,1.01 2.29,0.97 1.02,-0.04 1.76,-0.42 2.24,-1.14zm-57.64 -0.18c0.21,-0.26 0.3,-0.62 0.24,-1.08 -0.05,-0.48 -0.24,-0.82 -0.56,-0.97 -0.34,-0.17 -0.87,-0.21 -1.59,-0.12 -0.71,0.1 -1.05,0.14 -1.75,0.23 0.12,1.11 0.17,1.64 0.3,2.74 0.83,-0.11 1.25,-0.15 2.1,-0.26 0.62,-0.08 1.04,-0.27 1.26,-0.54zm0.17 5.49c0.25,-0.12 0.46,-0.25 0.61,-0.42 0.14,-0.17 0.23,-0.36 0.28,-0.57 0.03,-0.21 0.05,-0.44 0.03,-0.69 -0.05,-0.51 -0.23,-0.87 -0.53,-1.1 -0.3,-0.23 -0.78,-0.31 -1.46,-0.23 -0.91,0.11 -1.35,0.17 -2.25,0.28 0.14,1.28 0.21,1.93 0.35,3.2 0.8,-0.09 1.21,-0.15 2,-0.24 0.41,-0.04 0.73,-0.12 0.97,-0.23zm-23.72 2.53c0.39,-0.78 0.5,-1.83 0.32,-3.12 -0.18,-1.3 -0.57,-2.27 -1.15,-2.88 -0.6,-0.63 -1.4,-0.85 -2.4,-0.7 -1.01,0.15 -1.72,0.65 -2.11,1.43 -0.39,0.78 -0.49,1.82 -0.3,3.12 0.2,1.29 0.59,2.26 1.17,2.87 0.58,0.63 1.38,0.84 2.39,0.69 0.99,-0.15 1.69,-0.63 2.08,-1.41z"/>
 </g>
</svg>
