<?xml version="1.0" encoding="UTF-8"?>
<!DOCTYPE svg PUBLIC "-//W3C//DTD SVG 1.1//EN" "http://www.w3.org/Graphics/SVG/1.1/DTD/svg11.dtd">
<!-- Creator: CorelDRAW -->
<svg xmlns="http://www.w3.org/2000/svg" xml:space="preserve" width="3494px" height="1074px" version="1.1" shape-rendering="geometricPrecision" text-rendering="geometricPrecision" image-rendering="optimizeQuality" fill-rule="evenodd" clip-rule="evenodd"
viewBox="0 0 1328.23 408.23"
 xmlns:xlink="http://www.w3.org/1999/xlink"
 xmlns:xodm="http://www.corel.com/coreldraw/odm/2003">
 <g id="Layer_x0020_1">
  <metadata id="CorelCorpID_0Corel-Layer"/>
  <path fill="#0A2177" fill-rule="nonzero" d="M85.89 101.45c-0.71,-0.17 -1.34,-0.49 -1.89,-0.95 -0.55,-0.45 -1.01,-1.04 -1.36,-1.75 -0.37,-0.7 -0.62,-1.54 -0.76,-2.49 -0.14,-0.95 -0.14,-1.82 0,-2.62 0.14,-0.8 0.41,-1.5 0.81,-2.13 0.41,-0.61 0.92,-1.12 1.56,-1.52 0.63,-0.4 1.37,-0.67 2.22,-0.8 0.87,-0.13 1.64,-0.13 2.37,0.06 0.72,0.17 1.34,0.49 1.89,0.95 0.54,0.45 0.99,1.04 1.32,1.77 0.35,0.72 0.58,1.56 0.71,2.51 0.12,0.95 0.12,1.82 -0.02,2.62 -0.14,0.8 -0.41,1.5 -0.8,2.11 -0.38,0.61 -0.9,1.1 -1.51,1.5 -0.64,0.4 -1.38,0.67 -2.23,0.8 -0.81,0.13 -1.59,0.12 -2.31,-0.06zm9.99 -13.44c0.02,1.71 0.02,2.55 0.02,4.26 -0.88,0.13 -1.33,0.19 -2.21,0.34 0.18,-1.73 0.27,-2.6 0.46,-4.33 0.71,-0.12 1.04,-0.16 1.73,-0.27zm7.17 1.12c-2.26,0.31 -3.39,0.48 -5.65,0.8 -0.11,-0.84 -0.16,-1.25 -0.27,-2.11 3.41,-0.5 5.12,-0.74 8.55,-1.2 0.09,0.72 0.12,1.08 0.21,1.81 -1.94,3.44 -2.89,5.17 -4.78,8.63 2.38,-0.34 3.56,-0.51 5.95,-0.82 0,0.86 0,1.3 0,2.15 -3.43,0.46 -5.12,0.71 -8.55,1.2 -0.09,-0.72 -0.14,-1.08 -0.23,-1.79 1.89,-3.48 2.83,-5.21 4.77,-8.67zm8.44 -3.25c0.85,-0.12 1.57,-0.12 2.13,-0.02 0.59,0.1 1.05,0.27 1.4,0.51 0.35,0.25 0.62,0.55 0.78,0.94 0.15,0.36 0.26,0.77 0.31,1.23 0.05,0.46 0,0.91 -0.16,1.33 -0.15,0.44 -0.47,0.82 -0.99,1.18 0.36,0.15 0.68,0.31 0.91,0.5 0.24,0.17 0.44,0.38 0.58,0.59 0.14,0.2 0.26,0.43 0.33,0.68 0.07,0.23 0.13,0.48 0.14,0.72 0.06,0.5 0.02,0.97 -0.07,1.43 -0.1,0.46 -0.3,0.87 -0.6,1.22 -0.3,0.36 -0.7,0.66 -1.23,0.91 -0.53,0.25 -1.19,0.44 -1.98,0.53 -1.75,0.21 -2.61,0.32 -4.36,0.55 -0.53,-4.71 -0.79,-7.07 -1.34,-11.77 1.64,-0.23 2.47,-0.32 4.15,-0.53zm14.21 -1.62c0.07,0.84 0.11,1.26 0.19,2.09 -2.19,0.23 -3.28,0.35 -5.47,0.59 0.11,1.03 0.14,1.54 0.25,2.59 2.05,-0.23 3.07,-0.34 5.12,-0.55 0.07,0.85 0.1,1.27 0.19,2.11 -2.05,0.21 -3.07,0.32 -5.12,0.55 0.11,1.16 0.16,1.75 0.28,2.91 2.3,-0.25 3.45,-0.38 5.76,-0.61 -0.02,0.86 -0.04,1.28 -0.05,2.13 -3.15,0.32 -4.73,0.5 -7.88,0.86 -0.47,-4.72 -0.7,-7.08 -1.16,-11.79 3.14,-0.38 4.71,-0.55 7.89,-0.88zm4.48 -0.45c0.16,1.9 0.23,2.83 0.39,4.73 1.54,-2.05 2.32,-3.08 3.89,-5.13 1.06,-0.1 1.59,-0.14 2.65,-0.23 -1.42,1.9 -2.12,2.87 -3.5,4.77 1.92,2.8 2.89,4.2 4.78,7.02 -1.06,0.09 -1.59,0.13 -2.64,0.23 -1.47,-2.21 -2.21,-3.29 -3.68,-5.48 -0.49,0.63 -0.76,0.95 -1.25,1.58 0.14,1.73 0.21,2.6 0.35,4.33 -0.95,0.1 -1.43,0.14 -2.4,0.23 -0.4,-4.71 -0.6,-7.09 -1,-11.81 0.95,-0.09 1.44,-0.15 2.41,-0.24zm10.93 -0.95c0.32,4.73 0.48,7.09 0.81,11.82 -0.95,0.08 -1.43,0.12 -2.38,0.19 -0.34,-4.73 -0.51,-7.09 -0.85,-11.82 0.97,-0.08 1.45,-0.12 2.42,-0.19zm5.39 9.2c0.42,0.3 1.02,0.42 1.8,0.38 0.37,-0.02 0.69,-0.1 0.93,-0.19 0.25,-0.1 0.46,-0.23 0.6,-0.38 0.16,-0.15 0.27,-0.32 0.32,-0.51 0.05,-0.19 0.09,-0.4 0.07,-0.63 -0.02,-0.31 -0.14,-0.59 -0.39,-0.86 -0.24,-0.24 -0.67,-0.42 -1.27,-0.51 -0.6,-0.08 -0.92,-0.11 -1.52,-0.17 -0.6,-0.08 -1.13,-0.17 -1.58,-0.33 -0.46,-0.15 -0.85,-0.34 -1.19,-0.6 -0.32,-0.27 -0.58,-0.59 -0.77,-0.99 -0.2,-0.4 -0.3,-0.88 -0.34,-1.45 -0.04,-0.57 0.04,-1.06 0.23,-1.52 0.19,-0.46 0.48,-0.84 0.85,-1.14 0.37,-0.32 0.83,-0.57 1.37,-0.76 0.55,-0.19 1.15,-0.31 1.81,-0.36 0.84,-0.06 1.55,0 2.13,0.15 0.58,0.17 1.04,0.4 1.41,0.7 0.37,0.31 0.64,0.67 0.83,1.09 0.2,0.41 0.32,0.85 0.41,1.33 -0.9,0.17 -1.36,0.26 -2.26,0.44 -0.16,-0.65 -0.41,-1.11 -0.78,-1.37 -0.35,-0.27 -0.88,-0.38 -1.57,-0.33 -0.4,0.02 -0.74,0.1 -1,0.17 -0.27,0.1 -0.48,0.19 -0.62,0.33 -0.16,0.13 -0.27,0.26 -0.32,0.44 -0.05,0.15 -0.07,0.32 -0.07,0.49 0.04,0.44 0.18,0.76 0.42,0.97 0.27,0.21 0.69,0.34 1.27,0.42 0.64,0.07 0.96,0.11 1.61,0.21 1.27,0.17 2.21,0.53 2.81,1.06 0.62,0.53 0.95,1.33 1,2.42 0.04,0.51 -0.03,1 -0.21,1.44 -0.16,0.46 -0.42,0.86 -0.77,1.2 -0.36,0.34 -0.8,0.63 -1.35,0.86 -0.54,0.22 -1.18,0.36 -1.94,0.4 -1.55,0.11 -2.77,-0.16 -3.63,-0.78 -0.87,-0.63 -1.4,-1.64 -1.54,-3.03 0.97,-0.07 1.46,-0.11 2.44,-0.19 0.12,0.78 0.38,1.3 0.81,1.6zm6.55 -7.89c-0.06,-0.86 -0.07,-1.3 -0.11,-2.15 3.78,-0.23 5.67,-0.32 9.43,-0.51 0.03,0.85 0.05,1.29 0.09,2.14 -1.4,0.06 -2.11,0.1 -3.5,0.18 0.18,3.88 0.26,5.81 0.42,9.71 -0.95,0.06 -1.44,0.08 -2.4,0.14 -0.17,-3.88 -0.28,-5.82 -0.46,-9.72 -1.37,0.09 -2.08,0.13 -3.47,0.21zm13.59 8.92c-0.69,-0.27 -1.27,-0.65 -1.77,-1.18 -0.49,-0.52 -0.88,-1.16 -1.16,-1.92 -0.28,-0.76 -0.44,-1.62 -0.48,-2.57 -0.03,-0.97 0.06,-1.83 0.29,-2.61 0.22,-0.78 0.56,-1.44 1.02,-2.01 0.46,-0.57 1.02,-1.01 1.69,-1.31 0.68,-0.33 1.45,-0.5 2.3,-0.52 0.86,-0.04 1.64,0.08 2.35,0.35 0.69,0.26 1.27,0.66 1.76,1.19 0.48,0.54 0.87,1.18 1.13,1.92 0.27,0.76 0.41,1.62 0.44,2.59 0.02,0.97 -0.07,1.83 -0.3,2.61 -0.23,0.78 -0.56,1.42 -1,1.99 -0.46,0.55 -1.01,0.99 -1.68,1.29 -0.67,0.31 -1.43,0.48 -2.3,0.52 -0.82,0.04 -1.6,-0.08 -2.29,-0.34zm11.62 -12.1c1.97,3.06 2.95,4.6 4.89,7.69 -0.04,-3.12 -0.06,-4.66 -0.11,-7.78 0.94,-0.02 1.41,-0.02 2.37,-0.04 0.05,4.75 0.07,7.11 0.1,11.87 -0.84,0 -1.27,0.01 -2.13,0.01 -1.93,-3.06 -2.9,-4.58 -4.88,-7.62 0.06,3.08 0.09,4.62 0.15,7.7 -0.94,0.02 -1.4,0.04 -2.34,0.06 -0.1,-4.74 -0.15,-7.11 -0.26,-11.87 0.9,0 1.34,0 2.21,-0.02zm17.25 -0.15c0.91,0 1.65,0.11 2.26,0.34 0.58,0.23 1.06,0.52 1.37,0.86 0.34,0.36 0.57,0.74 0.69,1.18 0.12,0.42 0.18,0.85 0.18,1.25 0,0.76 -0.14,1.41 -0.43,1.92 -0.28,0.52 -0.74,0.95 -1.37,1.3 0.92,2.01 1.37,3.04 2.27,5.05 -1.02,-0.01 -1.55,-0.01 -2.57,-0.01 -0.76,-1.79 -1.13,-2.69 -1.91,-4.47 -0.9,0 -1.36,0 -2.26,0 0,1.78 0,2.66 0,4.45 -0.94,0 -1.41,0 -2.35,0 0,-4.76 -0.02,-7.12 -0.02,-11.87 1.66,-0.02 2.49,-0.02 4.14,0zm14.44 0.23c-0.02,0.83 -0.04,1.27 -0.06,2.11 -2.19,-0.06 -3.3,-0.08 -5.49,-0.12 -0.01,1.05 -0.01,1.56 -0.03,2.59 2.06,0.04 3.09,0.06 5.13,0.11 -0.01,0.86 -0.03,1.28 -0.05,2.13 -2.05,-0.05 -3.07,-0.07 -5.14,-0.11 -0.01,1.18 -0.03,1.75 -0.05,2.93 2.31,0.04 3.46,0.08 5.77,0.13 -0.12,0.84 -0.17,1.26 -0.28,2.11 -3.16,-0.07 -4.73,-0.11 -7.91,-0.17 0.06,-4.75 0.09,-7.11 0.15,-11.86 3.19,0.01 4.78,0.05 7.96,0.15zm4.02 9.7c0.39,0.34 0.97,0.53 1.77,0.55 0.37,0.02 0.69,-0.02 0.95,-0.1 0.27,-0.07 0.48,-0.17 0.64,-0.3 0.16,-0.13 0.28,-0.29 0.37,-0.48 0.07,-0.19 0.12,-0.38 0.12,-0.61 0.02,-0.3 -0.09,-0.6 -0.3,-0.89 -0.21,-0.28 -0.62,-0.49 -1.22,-0.63 -0.6,-0.13 -0.9,-0.21 -1.5,-0.34 -0.58,-0.13 -1.11,-0.28 -1.55,-0.47 -0.44,-0.19 -0.81,-0.44 -1.11,-0.73 -0.3,-0.28 -0.53,-0.64 -0.67,-1.06 -0.16,-0.42 -0.23,-0.91 -0.22,-1.47 0.02,-0.57 0.14,-1.06 0.37,-1.48 0.23,-0.42 0.55,-0.78 0.96,-1.04 0.4,-0.29 0.88,-0.48 1.45,-0.61 0.56,-0.14 1.16,-0.19 1.83,-0.17 0.85,0.03 1.56,0.15 2.1,0.38 0.57,0.22 1.01,0.49 1.34,0.83 0.34,0.34 0.59,0.72 0.73,1.18 0.16,0.44 0.25,0.9 0.28,1.35 -0.92,0.08 -1.38,0.12 -2.29,0.21 -0.09,-0.66 -0.32,-1.14 -0.64,-1.44 -0.34,-0.31 -0.85,-0.46 -1.54,-0.5 -0.4,-0.02 -0.76,0.02 -1.02,0.08 -0.27,0.05 -0.48,0.15 -0.65,0.26 -0.16,0.12 -0.29,0.25 -0.36,0.4 -0.07,0.16 -0.1,0.31 -0.1,0.48 -0.02,0.44 0.1,0.78 0.33,1.01 0.23,0.22 0.66,0.41 1.22,0.55 0.64,0.15 0.96,0.23 1.57,0.38 1.24,0.3 2.14,0.74 2.7,1.35 0.57,0.59 0.82,1.42 0.78,2.51 -0.02,0.51 -0.12,0.99 -0.34,1.42 -0.21,0.44 -0.49,0.8 -0.88,1.11 -0.39,0.3 -0.85,0.55 -1.41,0.7 -0.57,0.15 -1.22,0.23 -1.96,0.21 -1.55,-0.06 -2.74,-0.44 -3.55,-1.16 -0.81,-0.72 -1.23,-1.77 -1.27,-3.18 0.97,0.02 1.47,0.04 2.44,0.08 0.03,0.74 0.24,1.27 0.63,1.62zm12.5 -9.05c0.88,0.03 1.62,0.19 2.19,0.41 0.57,0.23 1.02,0.54 1.34,0.9 0.32,0.36 0.55,0.76 0.65,1.21 0.11,0.46 0.16,0.94 0.13,1.41 -0.02,0.51 -0.13,1.01 -0.28,1.49 -0.16,0.47 -0.43,0.87 -0.78,1.21 -0.35,0.34 -0.83,0.61 -1.4,0.78 -0.58,0.17 -1.28,0.25 -2.15,0.21 -0.72,-0.04 -1.08,-0.06 -1.8,-0.09 -0.07,1.69 -0.11,2.54 -0.18,4.24 -0.93,-0.04 -1.41,-0.08 -2.34,-0.12 0.19,-4.73 0.28,-7.11 0.45,-11.85 1.68,0.06 2.51,0.1 4.17,0.2zm8.46 0.49c-0.16,2.81 -0.23,4.22 -0.39,7.05 -0.05,1.01 0.07,1.77 0.39,2.29 0.31,0.51 0.86,0.79 1.67,0.83 0.8,0.06 1.38,-0.15 1.75,-0.61 0.37,-0.45 0.58,-1.19 0.64,-2.2 0.17,-2.82 0.26,-4.22 0.44,-7.06 0.97,0.08 1.45,0.12 2.42,0.17 -0.18,2.82 -0.28,4.23 -0.46,7.04 -0.05,0.9 -0.21,1.66 -0.48,2.28 -0.26,0.63 -0.6,1.12 -1.02,1.52 -0.43,0.38 -0.92,0.65 -1.5,0.8 -0.58,0.16 -1.24,0.21 -1.94,0.16 -0.73,-0.06 -1.36,-0.2 -1.93,-0.44 -0.56,-0.23 -1.02,-0.57 -1.39,-1.01 -0.37,-0.44 -0.64,-0.99 -0.81,-1.65 -0.16,-0.67 -0.23,-1.45 -0.18,-2.34 0.14,-2.8 0.23,-4.21 0.37,-7 0.95,0.07 1.45,0.09 2.42,0.17zm13.22 0.99c0.85,0.07 1.55,0.21 2.1,0.44 0.55,0.21 0.97,0.47 1.27,0.79 0.3,0.33 0.5,0.69 0.59,1.07 0.08,0.4 0.12,0.82 0.08,1.27 -0.03,0.46 -0.16,0.9 -0.39,1.28 -0.22,0.4 -0.61,0.7 -1.18,0.95 0.34,0.21 0.6,0.44 0.8,0.66 0.21,0.23 0.35,0.46 0.46,0.71 0.1,0.25 0.17,0.49 0.19,0.74 0.04,0.25 0.04,0.49 0.02,0.74 -0.04,0.5 -0.14,0.95 -0.34,1.39 -0.18,0.44 -0.44,0.78 -0.81,1.08 -0.37,0.29 -0.83,0.5 -1.38,0.65 -0.56,0.13 -1.23,0.17 -2.03,0.11 -1.75,-0.15 -2.63,-0.22 -4.38,-0.36 0.32,-4.73 0.48,-7.09 0.82,-11.83 1.69,0.1 2.52,0.18 4.18,0.31zm8.76 0.8c-0.34,3.88 -0.5,5.82 -0.83,9.7 2.17,0.2 3.25,0.32 5.42,0.55 -0.18,0.83 -0.27,1.25 -0.46,2.09 -3,-0.33 -4.52,-0.48 -7.52,-0.76 0.39,-4.74 0.58,-7.1 0.97,-11.81 0.97,0.09 1.45,0.13 2.42,0.23zm9.46 1c-0.46,4.72 -0.69,7.08 -1.15,11.79 -0.95,-0.11 -1.43,-0.15 -2.38,-0.26 0.44,-4.72 0.67,-7.08 1.11,-11.81 0.97,0.13 1.45,0.19 2.42,0.28zm4.8 0.58c-0.19,1.88 -0.3,2.83 -0.49,4.71 1.89,-1.69 2.84,-2.53 4.75,-4.2 1.06,0.13 1.59,0.21 2.64,0.34 -1.73,1.56 -2.59,2.36 -4.32,3.94 1.38,3.15 2.05,4.73 3.39,7.91 -1.06,-0.13 -1.59,-0.21 -2.65,-0.34 -1.02,-2.48 -1.55,-3.71 -2.59,-6.16 -0.6,0.51 -0.92,0.76 -1.52,1.27 -0.18,1.73 -0.27,2.6 -0.46,4.34 -0.95,-0.12 -1.43,-0.18 -2.38,-0.29 0.47,-4.72 0.72,-7.07 1.2,-11.79 0.97,0.09 1.46,0.15 2.43,0.27zm14.58 1.93c1.15,4.95 1.72,7.44 2.81,12.38 -1.02,-0.15 -1.53,-0.22 -2.54,-0.38 -0.23,-1.14 -0.34,-1.71 -0.57,-2.85 -1.6,-0.23 -2.4,-0.34 -3.99,-0.57 -0.49,1.05 -0.74,1.56 -1.23,2.59 -0.99,-0.14 -1.47,-0.21 -2.46,-0.33 2.26,-4.48 3.39,-6.71 5.71,-11.18 0.9,0.14 1.36,0.21 2.27,0.34zm6.62 10.67c0.36,0.4 0.92,0.65 1.7,0.78 0.37,0.06 0.69,0.08 0.95,0.02 0.27,-0.04 0.5,-0.11 0.67,-0.23 0.18,-0.11 0.32,-0.24 0.41,-0.43 0.09,-0.18 0.16,-0.38 0.19,-0.59 0.04,-0.31 -0.03,-0.61 -0.21,-0.92 -0.19,-0.3 -0.56,-0.57 -1.15,-0.78 -0.58,-0.21 -0.86,-0.3 -1.44,-0.51 -0.57,-0.21 -1.08,-0.42 -1.5,-0.67 -0.43,-0.24 -0.78,-0.53 -1.05,-0.85 -0.26,-0.32 -0.46,-0.7 -0.56,-1.14 -0.11,-0.44 -0.12,-0.93 -0.05,-1.49 0.07,-0.55 0.24,-1.02 0.53,-1.42 0.28,-0.4 0.63,-0.71 1.06,-0.93 0.42,-0.23 0.93,-0.36 1.5,-0.44 0.56,-0.06 1.18,-0.04 1.83,0.06 0.85,0.13 1.54,0.34 2.07,0.62 0.53,0.29 0.95,0.63 1.25,1.01 0.3,0.38 0.5,0.8 0.6,1.26 0.11,0.45 0.16,0.91 0.14,1.38 -0.91,-0.03 -1.37,-0.05 -2.31,-0.07 -0.03,-0.67 -0.19,-1.16 -0.49,-1.5 -0.3,-0.35 -0.8,-0.58 -1.49,-0.67 -0.4,-0.06 -0.74,-0.08 -1.02,-0.06 -0.27,0.04 -0.5,0.1 -0.67,0.17 -0.18,0.1 -0.3,0.21 -0.39,0.35 -0.09,0.15 -0.14,0.3 -0.16,0.45 -0.05,0.44 0.02,0.78 0.23,1.05 0.21,0.26 0.6,0.49 1.17,0.7 0.61,0.23 0.91,0.34 1.53,0.57 1.2,0.46 2.05,1.01 2.56,1.68 0.5,0.66 0.67,1.52 0.51,2.58 -0.07,0.51 -0.23,0.97 -0.47,1.37 -0.25,0.4 -0.59,0.74 -0.99,0.99 -0.41,0.27 -0.9,0.44 -1.49,0.53 -0.58,0.1 -1.23,0.08 -1.97,-0.04 -1.56,-0.24 -2.69,-0.78 -3.43,-1.57 -0.72,-0.82 -1.04,-1.92 -0.92,-3.31 0.98,0.15 1.45,0.23 2.42,0.36 -0.05,0.74 0.09,1.29 0.44,1.69zm11.71 -7.77c-0.71,4.67 -1.04,7.03 -1.75,11.71 -0.95,-0.17 -1.41,-0.25 -2.36,-0.4 0.69,-4.7 1.02,-7.04 1.71,-11.71 0.95,0.15 1.43,0.22 2.4,0.4zm-286.5 46.95c-0.7,-0.1 -1.36,-0.34 -1.92,-0.72 -0.58,-0.4 -1.08,-0.94 -1.5,-1.6 -0.42,-0.67 -0.76,-1.47 -0.99,-2.4 -0.23,-0.93 -0.33,-1.81 -0.28,-2.6 0.05,-0.82 0.24,-1.54 0.56,-2.21 0.32,-0.67 0.78,-1.22 1.36,-1.69 0.58,-0.46 1.27,-0.82 2.1,-1.05 0.83,-0.23 1.59,-0.3 2.32,-0.21 0.72,0.1 1.36,0.34 1.94,0.74 0.56,0.4 1.06,0.94 1.48,1.62 0.41,0.67 0.73,1.48 0.95,2.42 0.23,0.93 0.31,1.8 0.25,2.6 -0.05,0.8 -0.25,1.52 -0.55,2.19 -0.31,0.65 -0.75,1.2 -1.32,1.65 -0.56,0.46 -1.27,0.8 -2.08,1.05 -0.85,0.23 -1.61,0.3 -2.32,0.21zm8.83 -14.59c0.88,3.79 1.31,5.67 2.19,9.45 2.07,-0.55 3.11,-0.83 5.17,-1.37 0.09,0.86 0.13,1.28 0.22,2.13 -2.88,0.75 -4.31,1.15 -7.19,1.92 -1.08,-4.6 -1.62,-6.9 -2.7,-11.5 0.92,-0.25 1.38,-0.38 2.31,-0.63zm9.06 -2.36c1,4.62 1.52,6.93 2.52,11.55 -0.91,0.23 -1.36,0.34 -2.27,0.59 -1.03,-4.62 -1.54,-6.93 -2.56,-11.55 0.91,-0.24 1.37,-0.36 2.31,-0.59zm1.27 -0.34c1.02,-0.26 1.55,-0.38 2.58,-0.65 1.36,1.64 2.03,2.46 3.37,4.09 0.58,-2.11 0.88,-3.17 1.5,-5.28 0.99,-0.23 1.48,-0.35 2.45,-0.59 -0.95,3.1 -1.41,4.66 -2.33,7.76 0.39,1.88 0.59,2.83 0.99,4.71 -0.92,0.23 -1.37,0.33 -2.28,0.55 -0.4,-1.88 -0.6,-2.83 -0.98,-4.71 -2.11,-2.34 -3.16,-3.52 -5.3,-5.88zm13.7 -1.08c-0.16,-0.84 -0.25,-1.26 -0.41,-2.09 3.62,-0.84 5.42,-1.24 9.06,-2 0.16,0.84 0.23,1.25 0.39,2.11 -1.34,0.29 -2.01,0.44 -3.36,0.72 0.73,3.81 1.08,5.73 1.8,9.53 -0.91,0.21 -1.37,0.3 -2.29,0.51 -0.74,-3.8 -1.1,-5.7 -1.84,-9.52 -1.34,0.28 -2.01,0.43 -3.35,0.74zm14.03 -5.23c2.51,4.31 3.75,6.48 6.18,10.82 -0.99,0.19 -1.48,0.28 -2.47,0.49 -0.55,-1.01 -0.81,-1.5 -1.34,-2.51 -1.55,0.33 -2.31,0.48 -3.87,0.8 -0.16,1.14 -0.23,1.73 -0.38,2.87 -0.96,0.21 -1.42,0.31 -2.37,0.52 0.78,-5.01 1.18,-7.52 2.03,-12.52 0.88,-0.21 1.32,-0.28 2.22,-0.47zm6.2 -1.24c-0.1,1.73 -0.16,2.61 -0.26,4.34 -0.67,0.13 -1.01,0.19 -1.66,0.32 -0.07,-1.69 -0.13,-2.55 -0.2,-4.26 0.85,-0.15 1.27,-0.25 2.12,-0.4zm4.15 -0.8c0.62,3.84 0.94,5.77 1.55,9.59 2.09,-0.4 3.15,-0.59 5.23,-0.95 0.03,0.85 0.05,1.29 0.07,2.15 -2.91,0.51 -4.36,0.79 -7.27,1.35 -0.78,-4.68 -1.17,-7.02 -1.93,-11.68 0.94,-0.19 1.41,-0.29 2.35,-0.46zm9.15 -1.65c0.7,4.68 1.04,7.04 1.74,11.71 -0.92,0.15 -1.37,0.25 -2.29,0.4 -0.71,-4.68 -1.08,-7.02 -1.79,-11.71 0.94,-0.15 1.4,-0.23 2.34,-0.4zm5.1 -0.86c1.62,3.31 2.42,4.99 4,8.31 0.66,-3.69 0.99,-5.53 1.68,-9.22 1.1,-0.17 1.64,-0.25 2.74,-0.42 0.62,4.7 0.92,7.06 1.53,11.75 -0.84,0.14 -1.27,0.19 -2.11,0.33 -0.43,-3.14 -0.62,-4.7 -1.05,-7.84 -0.6,3.29 -0.9,4.93 -1.48,8.22 -0.72,0.11 -1.08,0.17 -1.8,0.28 -1.45,-2.96 -2.17,-4.43 -3.65,-7.38 0.44,3.12 0.67,4.68 1.11,7.8 -0.83,0.13 -1.24,0.21 -2.07,0.34 -0.69,-4.69 -1.02,-7.03 -1.71,-11.71 1.13,-0.17 1.68,-0.27 2.81,-0.46zm13.84 7.15c-0.18,1.73 -0.27,2.61 -0.44,4.34 -0.67,0.09 -0.99,0.15 -1.66,0.25 -0.02,-1.71 -0.02,-2.57 -0.02,-4.28 0.85,-0.12 1.27,-0.19 2.12,-0.31zm11.63 -10.82c0.09,0.84 0.14,1.28 0.23,2.11 -2.01,0.25 -3.02,0.38 -5.03,0.65 0.12,1.1 0.19,1.65 0.32,2.78 1.89,-0.25 2.82,-0.36 4.71,-0.61 0.09,0.83 0.14,1.27 0.23,2.11 -1.89,0.23 -2.82,0.36 -4.7,0.61 0.22,1.92 0.32,2.87 0.55,4.79 -0.92,0.11 -1.39,0.19 -2.31,0.3 -0.55,-4.71 -0.83,-7.05 -1.38,-11.77 2.93,-0.4 4.42,-0.59 7.38,-0.97zm6.34 -0.74c2.15,4.53 3.21,6.79 5.31,11.33 -0.98,0.12 -1.5,0.16 -2.49,0.27 -0.45,-1.04 -0.68,-1.58 -1.14,-2.62 -1.56,0.17 -2.35,0.26 -3.9,0.45 -0.25,1.14 -0.38,1.7 -0.61,2.84 -0.95,0.11 -1.43,0.17 -2.38,0.28 1.17,-4.92 1.77,-7.38 2.98,-12.3 0.87,-0.1 1.33,-0.15 2.23,-0.25zm7.65 -0.82c2.13,2.91 3.17,4.38 5.27,7.31 -0.24,-3.1 -0.37,-4.64 -0.61,-7.74 0.91,-0.1 1.37,-0.14 2.29,-0.21 0.37,4.73 0.55,7.09 0.92,11.82 -0.83,0.08 -1.24,0.12 -2.07,0.2 -2.08,-2.91 -3.14,-4.36 -5.26,-7.23 0.27,3.06 0.41,4.6 0.67,7.68 -0.9,0.1 -1.36,0.13 -2.26,0.23 -0.42,-4.72 -0.63,-7.09 -1.06,-11.81 0.83,-0.11 1.26,-0.17 2.11,-0.25zm14.05 -1.27c1.32,3.27 1.97,4.89 3.26,8.16 0.9,-3.43 1.36,-5.16 2.28,-8.58 1.01,-0.08 1.52,-0.11 2.53,-0.17 -1.43,4.85 -2.14,7.28 -3.5,12.13 -0.88,0.06 -1.32,0.1 -2.19,0.17 -1.98,-4.6 -2.98,-6.9 -5.01,-11.5 1.06,-0.08 1.59,-0.12 2.63,-0.21zm13.4 -0.91c1.94,4.64 2.88,6.96 4.76,11.62 -1,0.05 -1.5,0.07 -2.49,0.13 -0.4,-1.09 -0.61,-1.62 -1.02,-2.68 -1.57,0.09 -2.35,0.13 -3.92,0.23 -0.3,1.12 -0.44,1.67 -0.74,2.79 -0.95,0.06 -1.45,0.1 -2.4,0.15 1.39,-4.85 2.1,-7.26 3.55,-12.11 0.9,-0.04 1.36,-0.08 2.26,-0.13zm11.42 -0.55c0.16,4.73 0.25,7.11 0.41,11.84 -0.94,0.04 -1.4,0.06 -2.33,0.1 -0.18,-4.74 -0.27,-7.11 -0.45,-11.85 0.96,-0.04 1.42,-0.06 2.37,-0.09zm4.43 -0.16c1.96,3.05 2.91,4.59 4.84,7.65 -0.07,-3.12 -0.11,-4.66 -0.18,-7.78 0.92,-0.02 1.38,-0.04 2.3,-0.06 0.08,4.76 0.14,7.11 0.23,11.87 -0.83,0.02 -1.26,0.02 -2.09,0.06 -1.9,-3.05 -2.87,-4.55 -4.82,-7.57 0.09,3.08 0.13,4.62 0.22,7.7 -0.9,0.04 -1.36,0.04 -2.26,0.08 -0.15,-4.74 -0.22,-7.12 -0.37,-11.87 0.86,-0.04 1.28,-0.06 2.13,-0.08zm11.39 -0.26c1.9,3.08 2.84,4.62 4.71,7.72 -0.02,-3.12 -0.03,-4.66 -0.05,-7.78 0.92,0 1.38,0 2.29,-0.02 0.02,4.76 0.02,7.11 0.04,11.87 -0.83,0 -1.25,0 -2.08,0.02 -1.86,-3.07 -2.81,-4.61 -4.7,-7.67 0.04,3.08 0.05,4.62 0.09,7.7 -0.9,0.02 -1.36,0.02 -2.26,0.04 -0.07,-4.75 -0.11,-7.11 -0.18,-11.86 0.87,0 1.29,-0.02 2.14,-0.02zm12 11.65c-0.65,-0.28 -1.22,-0.7 -1.66,-1.25 -0.46,-0.55 -0.81,-1.2 -1.06,-1.96 -0.24,-0.76 -0.37,-1.63 -0.37,-2.59 0,-0.96 0.13,-1.82 0.37,-2.58 0.25,-0.76 0.6,-1.43 1.08,-1.96 0.48,-0.55 1.04,-0.95 1.71,-1.24 0.67,-0.28 1.42,-0.41 2.26,-0.41 0.85,0 1.61,0.15 2.26,0.45 0.67,0.31 1.22,0.72 1.68,1.28 0.46,0.55 0.79,1.21 1.02,1.97 0.23,0.76 0.34,1.64 0.34,2.61 -0.02,0.97 -0.14,1.83 -0.39,2.59 -0.25,0.76 -0.6,1.4 -1.06,1.94 -0.46,0.53 -1.02,0.95 -1.68,1.21 -0.65,0.29 -1.41,0.42 -2.24,0.42 -0.86,-0.04 -1.6,-0.17 -2.26,-0.48zm10.61 -11.6c1.04,3.39 1.56,5.08 2.56,8.45 1.19,-3.33 1.79,-4.98 3,-8.31 1.01,0.04 1.52,0.04 2.55,0.07 -1.84,4.68 -2.74,7.04 -4.52,11.74 -0.89,-0.02 -1.33,-0.04 -2.21,-0.06 -1.57,-4.79 -2.38,-7.17 -4.01,-11.94 1.06,0.03 1.59,0.03 2.63,0.05zm13.42 0.44c1.54,4.81 2.28,7.23 3.74,12.04 -1,-0.06 -1.5,-0.08 -2.49,-0.12 -0.31,-1.1 -0.47,-1.67 -0.79,-2.77 -1.57,-0.08 -2.35,-0.1 -3.92,-0.15 -0.39,1.08 -0.58,1.61 -0.97,2.7 -0.96,-0.04 -1.45,-0.06 -2.4,-0.08 1.8,-4.7 2.72,-7.04 4.57,-11.71 0.9,0.03 1.36,0.05 2.26,0.09zm3.11 2.28c0.03,-0.85 0.05,-1.29 0.09,-2.15 3.67,0.18 5.5,0.27 9.18,0.5 -0.06,0.85 -0.07,1.29 -0.11,2.15 -1.36,-0.08 -2.03,-0.12 -3.39,-0.21 -0.19,3.88 -0.28,5.82 -0.48,9.7 -0.93,-0.06 -1.39,-0.08 -2.33,-0.14 0.18,-3.88 0.27,-5.81 0.44,-9.71 -1.35,-0.04 -2.04,-0.08 -3.4,-0.14zm12.69 8.18c0.37,0.36 0.94,0.57 1.7,0.61 0.37,0.02 0.67,0 0.93,-0.06 0.25,-0.05 0.46,-0.15 0.64,-0.28 0.16,-0.14 0.28,-0.29 0.37,-0.46 0.07,-0.19 0.12,-0.38 0.14,-0.61 0.02,-0.3 -0.07,-0.61 -0.27,-0.89 -0.19,-0.29 -0.6,-0.52 -1.16,-0.69 -0.58,-0.15 -0.87,-0.23 -1.45,-0.38 -0.56,-0.15 -1.06,-0.32 -1.5,-0.53 -0.42,-0.21 -0.78,-0.46 -1.06,-0.76 -0.28,-0.3 -0.49,-0.67 -0.62,-1.08 -0.14,-0.42 -0.19,-0.92 -0.16,-1.49 0.04,-0.57 0.16,-1.04 0.41,-1.46 0.25,-0.42 0.57,-0.76 0.95,-1.03 0.41,-0.26 0.89,-0.46 1.42,-0.57 0.54,-0.11 1.14,-0.15 1.78,-0.09 0.83,0.05 1.5,0.2 2.05,0.43 0.53,0.25 0.95,0.54 1.27,0.9 0.32,0.34 0.55,0.74 0.67,1.2 0.14,0.43 0.21,0.89 0.23,1.37 -0.9,0.05 -1.34,0.07 -2.24,0.13 -0.07,-0.67 -0.27,-1.14 -0.59,-1.47 -0.31,-0.3 -0.81,-0.49 -1.48,-0.53 -0.4,-0.02 -0.72,-0.02 -0.99,0.04 -0.26,0.06 -0.47,0.13 -0.63,0.25 -0.16,0.11 -0.29,0.23 -0.36,0.38 -0.07,0.15 -0.1,0.3 -0.12,0.47 -0.02,0.44 0.07,0.78 0.3,1.03 0.23,0.25 0.62,0.44 1.18,0.59 0.6,0.17 0.92,0.25 1.52,0.42 1.2,0.34 2.07,0.81 2.6,1.42 0.53,0.61 0.76,1.45 0.69,2.53 -0.04,0.51 -0.16,0.99 -0.38,1.41 -0.21,0.42 -0.51,0.78 -0.88,1.08 -0.39,0.31 -0.85,0.52 -1.39,0.67 -0.55,0.15 -1.19,0.19 -1.93,0.13 -1.52,-0.11 -2.65,-0.53 -3.42,-1.27 -0.76,-0.74 -1.15,-1.81 -1.13,-3.22 0.95,0.06 1.41,0.1 2.36,0.16 -0.01,0.74 0.18,1.29 0.55,1.65zm10.77 -8.8c-0.34,4.73 -0.51,7.09 -0.85,11.82 -0.93,-0.07 -1.39,-0.11 -2.31,-0.19 0.34,-4.73 0.49,-7.09 0.81,-11.83 0.94,0.08 1.41,0.12 2.35,0.2zm1.31 0.11c1.04,0.09 1.57,0.13 2.63,0.23 0.83,2 1.23,3 2.04,5 1.15,-1.83 1.73,-2.72 2.9,-4.55 1.01,0.1 1.5,0.16 2.49,0.25 -1.77,2.65 -2.65,3.98 -4.4,6.62 -0.15,1.92 -0.24,2.89 -0.4,4.81 -0.94,-0.09 -1.4,-0.13 -2.32,-0.21 0.16,-1.92 0.23,-2.89 0.39,-4.81 -1.3,-2.93 -1.97,-4.39 -3.33,-7.34zm15 1.48c1.26,4.91 1.86,7.36 3.06,12.27 -0.99,-0.12 -1.49,-0.17 -2.49,-0.29 -0.25,-1.12 -0.37,-1.69 -0.62,-2.83 -1.55,-0.17 -2.35,-0.27 -3.9,-0.42 -0.46,1.05 -0.69,1.58 -1.13,2.65 -0.96,-0.1 -1.43,-0.16 -2.4,-0.25 2.06,-4.57 3.12,-6.83 5.24,-11.37 0.9,0.09 1.34,0.13 2.24,0.24zm7.89 0.92c-0.4,3.88 -0.61,5.8 -1.02,9.67 2.1,0.27 3.16,0.4 5.26,0.67 -0.19,0.84 -0.3,1.26 -0.49,2.07 -2.93,-0.38 -4.38,-0.57 -7.31,-0.91 0.47,-4.72 0.72,-7.07 1.2,-11.79 0.95,0.12 1.43,0.17 2.36,0.29zm12.61 1.67c1.11,4.94 1.66,7.42 2.7,12.36 -0.99,-0.15 -1.48,-0.23 -2.47,-0.36 -0.21,-1.14 -0.32,-1.71 -0.55,-2.85 -1.55,-0.23 -2.33,-0.35 -3.88,-0.56 -0.48,1.05 -0.73,1.56 -1.2,2.61 -0.96,-0.13 -1.43,-0.19 -2.39,-0.32 2.21,-4.49 3.32,-6.74 5.56,-11.2 0.89,0.13 1.33,0.19 2.23,0.32zm9.5 1.43c0.88,0.13 1.59,0.36 2.13,0.66 0.55,0.31 0.96,0.67 1.22,1.07 0.28,0.4 0.44,0.81 0.51,1.25 0.07,0.44 0.07,0.86 0.02,1.28 -0.11,0.76 -0.33,1.37 -0.65,1.84 -0.34,0.47 -0.83,0.84 -1.5,1.08 0.62,2.13 0.93,3.22 1.53,5.35 -0.99,-0.17 -1.5,-0.25 -2.49,-0.4 -0.49,-1.88 -0.74,-2.82 -1.25,-4.7 -0.86,-0.13 -1.31,-0.21 -2.19,-0.34 -0.23,1.77 -0.35,2.64 -0.58,4.41 -0.92,-0.13 -1.36,-0.21 -2.28,-0.34 0.62,-4.7 0.92,-7.06 1.54,-11.75 1.59,0.2 2.4,0.34 3.99,0.59zm11.07 1.84c0.58,3.5 0.86,5.25 1.43,8.77 1.62,-3.12 2.43,-4.66 4.07,-7.76 1.01,0.19 1.51,0.28 2.51,0.47 -2.43,4.36 -3.65,6.54 -6.04,10.92 -0.86,-0.15 -1.3,-0.23 -2.17,-0.4 -0.93,-4.98 -1.41,-7.47 -2.4,-12.44 1.03,0.17 1.55,0.27 2.6,0.44zm13.24 2.49c0.88,5 1.3,7.49 2.13,12.49 -0.99,-0.2 -1.48,-0.3 -2.47,-0.49 -0.16,-1.14 -0.24,-1.73 -0.4,-2.87 -1.56,-0.3 -2.32,-0.46 -3.87,-0.76 -0.53,1.01 -0.8,1.52 -1.32,2.53 -0.96,-0.19 -1.43,-0.27 -2.39,-0.46 2.4,-4.37 3.62,-6.54 6.09,-10.88 0.9,0.18 1.34,0.25 2.23,0.44zm10.31 4.3c-2.19,-0.48 -3.27,-0.7 -5.46,-1.16 0.14,-0.84 0.23,-1.26 0.37,-2.09 3.31,0.68 4.96,1.02 8.25,1.77 -0.14,0.72 -0.21,1.06 -0.34,1.78 -2.8,2.61 -4.2,3.92 -6.95,6.56 2.29,0.48 3.44,0.75 5.73,1.24 -0.24,0.82 -0.37,1.22 -0.63,2.04 -3.3,-0.73 -4.94,-1.09 -8.25,-1.75 0.13,-0.71 0.2,-1.07 0.32,-1.79 2.76,-2.66 4.15,-3.98 6.96,-6.6zm7.08 -0.61c-0.9,4.64 -1.36,6.96 -2.28,11.6 -0.92,-0.21 -1.38,-0.3 -2.3,-0.51 0.9,-4.64 1.35,-6.98 2.23,-11.62 0.95,0.21 1.41,0.32 2.35,0.53zm6.21 1.45c0.87,0.21 1.57,0.47 2.08,0.83 0.52,0.34 0.91,0.72 1.17,1.14 0.25,0.42 0.39,0.86 0.42,1.3 0.04,0.43 0.02,0.87 -0.07,1.27 -0.16,0.74 -0.42,1.33 -0.77,1.79 -0.38,0.44 -0.89,0.76 -1.58,0.97 0.48,2.19 0.73,3.27 1.2,5.46 -0.98,-0.25 -1.48,-0.37 -2.47,-0.61 -0.37,-1.92 -0.56,-2.87 -0.95,-4.8 -0.86,-0.2 -1.29,-0.3 -2.15,-0.51 -0.36,1.75 -0.53,2.61 -0.89,4.36 -0.9,-0.21 -1.36,-0.33 -2.26,-0.54 0.92,-4.64 1.38,-6.96 2.32,-11.6 1.59,0.37 2.36,0.56 3.95,0.94zm8.53 2.07c-0.83,3.78 -1.24,5.68 -2.07,9.49 2.07,0.51 3.11,0.78 5.18,1.33 -0.29,0.8 -0.43,1.2 -0.71,2 -2.88,-0.75 -4.31,-1.13 -7.2,-1.83 0.99,-4.62 1.48,-6.94 2.47,-11.56 0.93,0.23 1.41,0.34 2.33,0.57zm9.06 2.36c-1.06,4.6 -1.59,6.9 -2.65,11.52 -0.9,-0.25 -1.36,-0.36 -2.28,-0.61 1.04,-4.6 1.57,-6.92 2.61,-11.52 0.94,0.25 1.4,0.36 2.32,0.61zm10.31 8.4c-0.48,1.94 -0.73,2.91 -1.2,4.85 -0.69,0.38 -1.47,0.63 -2.32,0.71 -0.84,0.07 -1.68,0 -2.49,-0.23 -0.86,-0.25 -1.59,-0.59 -2.15,-1.07 -0.58,-0.47 -1.03,-1.03 -1.33,-1.67 -0.29,-0.65 -0.47,-1.37 -0.51,-2.17 -0.03,-0.8 0.06,-1.65 0.25,-2.57 0.21,-0.93 0.53,-1.75 0.94,-2.41 0.4,-0.69 0.9,-1.22 1.46,-1.62 0.57,-0.4 1.18,-0.66 1.89,-0.76 0.69,-0.11 1.43,-0.06 2.21,0.17 0.7,0.19 1.3,0.46 1.76,0.78 0.46,0.33 0.83,0.71 1.11,1.12 0.29,0.42 0.46,0.88 0.57,1.37 0.11,0.5 0.14,0.99 0.11,1.5 -0.94,-0.13 -1.42,-0.2 -2.35,-0.34 0,-0.3 0,-0.59 -0.04,-0.81 -0.03,-0.25 -0.1,-0.48 -0.24,-0.67 -0.13,-0.21 -0.3,-0.38 -0.53,-0.53 -0.23,-0.16 -0.53,-0.29 -0.9,-0.38 -0.9,-0.25 -1.65,-0.1 -2.26,0.49 -0.6,0.57 -1.06,1.5 -1.36,2.76 -0.3,1.27 -0.32,2.32 -0.04,3.14 0.28,0.81 0.92,1.35 1.91,1.63 0.47,0.13 0.9,0.19 1.29,0.19 0.37,0 0.76,-0.06 1.13,-0.19 0.19,-0.76 0.28,-1.14 0.46,-1.92 -0.83,-0.23 -1.26,-0.36 -2.09,-0.59 0.2,-0.8 0.28,-1.2 0.48,-1.99 1.71,0.49 2.56,0.72 4.24,1.21zm5.47 -3.97c-1.17,4.58 -1.75,6.86 -2.92,11.45 -0.9,-0.27 -1.35,-0.4 -2.26,-0.67 1.15,-4.58 1.72,-6.87 2.88,-11.45 0.92,0.27 1.38,0.4 2.3,0.67zm5.21 64.31l-2.95 0 -7.19 -0.11 -3.16 0 -6.9 -0.06 -3.16 -0.06 -1.34 0 2.1 -5.28 4.89 -12.48 3.35 -8.56 -2.22 0.16 -3.16 0.11 -7.03 0.38 -3.16 0.13 -8.24 0.46 -3.83 0.21 7.18 -22.46 0.48 -1.42c0,0 -0.14,0 -0.27,0 -1.6,0 -9.79,0.24 -22.72,2.73 -1.69,0.33 -3.42,0.75 -5.31,1.13 -4.48,0.97 -9.38,2.22 -14.76,3.78l13.75 3.12 4.89 1.12 5.51 1.24c0,0 -4.41,11.81 -10.47,31.26 -3.28,10.69 -7.11,23.83 -10.93,38.59 -5.56,21.79 -11.21,47.25 -15.16,73.95 -0.2,1.1 -0.41,2.17 -0.46,3.2 0,0 -6.51,-0.06 -16.49,1.04 -18.73,1.96 -49.64,7.91 -73.04,25.33 -1.21,0.78 -2.22,1.64 -3.28,2.55 -0.93,0.7 -1.82,1.43 -2.61,2.13l-2.7 -2.13c-1.06,-0.91 -2.14,-1.77 -3.36,-2.55 -25.01,-18.62 -58.56,-24.09 -76.6,-25.73 -7.91,-0.7 -12.87,-0.64 -12.87,-0.64 -0.12,-1.05 -0.34,-2.1 -0.46,-3.2 -6.11,-41.11 -16.12,-79.11 -24.03,-105.75 -0.07,0 -0.07,-0.06 0,-0.11 -3.95,-12.94 -7.36,-23.19 -9.64,-29.71 -1.88,-5.29 -2.94,-8.23 -2.94,-8.23l1.67 -0.38 4.89 -1.12 17.64 -3.98c-7.04,-2.09 -13.42,-3.61 -18.93,-4.64 -1.88,-0.38 -3.61,-0.7 -5.29,-0.97 -11.67,-2.02 -18.59,-2.02 -18.93,-2.02l7.72 23.89 -7.86 -0.4 -8.26 -0.46 -3.2 -0.11 -6.99 -0.4 -1.34 -0.06 2.01 5.16 8.39 21.16 -5.44 0.06 -3.14 0 -6.9 0.11 -3.09 0 -7.31 0.06 -2.9 0.08 -1 0c0.4,0.59 0.81,1.23 1.27,1.9 1.27,1.9 2.56,3.91 3.74,5.93 3.43,5.55 6.66,11.54 9.8,17.76 1.43,2.99 2.89,6.07 4.29,9.15 3.76,8.21 7.32,16.7 10.54,25.25 1.68,4.43 3.28,8.88 4.89,13.24 4.48,12.93 8.37,25.52 11.65,36.95 0.55,1.9 1.01,3.73 1.55,5.55 1.56,5.54 2.95,10.69 4.17,15.4 1.8,6.93 3.2,12.8 4.2,17.29 0.55,2.42 1.03,4.45 1.27,5.95 0.55,2.29 0.82,3.52 0.82,3.52 1.05,-0.11 2.06,-0.26 3.14,-0.38 9.21,-1.12 18.39,-2.09 27.64,-3.02 1.61,-0.12 3.29,-0.25 4.89,-0.38 6.85,-0.65 13.69,-1.18 20.52,-1.64 1.48,-0.11 2.95,-0.26 4.43,-0.32 21.06,-1.45 42.25,-2.23 63.45,-2.34 2.81,-0.13 5.63,-0.13 8.44,-0.13 2.82,0 5.72,0 8.6,0.13 21.18,0.11 42.31,0.89 63.31,2.34 0.33,0 0.67,0.06 1,0.06 6.69,0.47 13.42,0.91 20.06,1.56 1.6,0.05 3.28,0.26 4.89,0.38 9.12,0.85 18.25,1.76 27.29,2.87 2.49,0.26 4.89,0.53 7.38,0.85 0,0 0.27,-1.23 0.8,-3.52 0.21,-1.12 0.54,-2.54 0.88,-4.18 0,-0.06 0,-0.06 0,-0.06 0.14,-0.59 0.26,-1.12 0.41,-1.71 0.47,-2.01 1,-4.29 1.67,-6.84 1.7,-6.98 3.97,-15.86 6.73,-25.85 1.89,-6.8 4.02,-14.11 6.44,-21.75 1.61,-5.21 3.36,-10.63 5.23,-16.11 3.35,-9.74 7.02,-19.72 11.05,-29.51 1.48,-3.52 2.95,-7.06 4.56,-10.52 3.16,-7.11 6.51,-14.03 10.06,-20.55 1.27,-2.42 2.61,-4.7 3.95,-6.98 2.07,-3.6 4.29,-7.06 6.52,-10.31l-4.98 -0.1zm-113.1 149.12l-0.24 0.05 0.24 -0.06 0 0.01zm22.35 37.45c1.2,-6.52 3.89,-8.61 3.89,-8.61 3.69,-4.24 20.51,-3.78 20.51,-3.78l73.37 4.18c-7.38,-6.39 -28.44,-9.79 -28.44,-9.79 -24.48,-3.01 -49.09,-5.42 -73.9,-7.06l-12.48 55.49 114.82 0 0 -9.79 -101.81 -3.39 4.04 -17.25zm97.86 -275.66l0 14.64c-3.85,-4.2 -8.24,-7.97 -12.87,-11.33 -2.1,-1.56 -4.17,-2.93 -6.3,-4.32 -1.01,-0.59 -1.94,-1.16 -2.95,-1.75l0 -0.06c-2.22,-1.23 -4.38,-2.49 -6.57,-3.61 -1.02,-0.51 -2.03,-1.04 -3.03,-1.48 -2.41,-1.18 -4.75,-2.3 -7.03,-3.27 -9.06,-3.92 -16.84,-6.39 -21.13,-7.65 -2.14,-0.57 -3.41,-0.89 -3.41,-0.89 -0.55,-0.15 -1.01,-0.33 -1.55,-0.48 -6.36,-1.82 -12.8,-3.51 -19.26,-4.94 -36.94,-8.43 -75.18,-10.92 -107.91,-10.78l-0.79 0c-33.74,-0.16 -73.46,2.49 -111.42,11.54 -5.75,1.37 -11.6,2.93 -17.28,4.64 0,0 -0.89,0.19 -2.42,0.65 -1.22,0.32 -2.9,0.78 -4.89,1.42 -5.23,1.69 -12.8,4.38 -21.06,8.18 -2.28,1.1 -4.7,2.22 -7.05,3.52 -1,0.45 -2.01,1.04 -3.02,1.56 -2.13,1.23 -4.36,2.54 -6.51,3.91 -1.01,0.65 -2.01,1.32 -2.95,2.02 -2.14,1.45 -4.29,2.95 -6.3,4.58 -0.94,0.78 -1.89,1.56 -2.81,2.4 -2.28,1.96 -4.43,4.05 -6.51,6.27 0,0 0,0 0,0.06 -0.25,0.27 -0.48,0.51 -0.71,0.78l0 -14.7c22.28,-25.2 64.23,-35.43 64.23,-35.43 42.63,-12.69 89.04,-16.2 127.74,-16.05l0 -48.81c0,0 -1.18,-0.8 0.85,-2.76 0,0 2,1.81 0.81,2.7l0 48.87 0.09 0c38.91,-0.21 85.64,3.26 128.7,16.05 0.02,0.04 40.93,10.01 63.31,34.52zm-273.85 260.91l10.2 45.18 27.22 0 -0.07 -39.9 43.68 0.08 43.52 -0.08 -0.07 39.9 27.31 0 10.19 -45.18 -0.46 0 -0.48 -0.14 -0.07 0.14 -143.12 0 -0.2 -0.06 0 0.06 -17.65 0zm-14 14.75c-1.2,-6.52 -3.89,-8.61 -3.89,-8.61 -3.69,-4.24 -20.51,-3.78 -20.51,-3.78l-73.37 4.18c7.38,-6.39 28.44,-9.79 28.44,-9.79 24.48,-3.01 49.09,-5.42 73.9,-7.06l12.48 55.49 -114.84 0 0 -9.79 101.81 -3.39 -4.02 -17.25zm126.1 -5.28l0 35.71 -6.71 -2.62 0.27 -29.57 0.74 -0.78 -24.88 0.07 -24.82 -0.07 0.74 0.78 0.27 29.57 -6.71 2.62 0 -35.71 3.23 1.9 0 -1.9 27.29 0.13 27.37 -0.13 0 1.9 3.21 -1.9zm56.51 -23.64l-0.05 0.13 -0.28 0 0.33 -0.13zm55.84 -8.56l1.19 -8.88 4.11 -30.77 2.46 -4.1 -2.92 21.54 -2.81 20.54c0,0 -0.75,3.36 1.19,3.29l46.06 9.34 0.07 3.06 -47.47 -10.04c0,-0.02 -2.26,-0.54 -1.88,-3.98zm33.55 -26.79c0,0 -0.69,3.84 2.89,3.93l12.87 1.43 0.04 3.77 -16.46 -2.08c0,0 -4.52,-0.99 -4.2,-4.56l10.54 -62.45 0 -0.02 -0.02 0 2.6 -15.44 5.49 -9.26 -4.45 27.76 0.02 0.02 -3.02 18.79 9.41 4.05 0 2.49 -9.83 -4.28 -2.14 12.69 12.06 5.19 0 2.36 -12.4 -5.08 -3.03 18.37 -0.37 2.32zm-320.48 26.79l-1.19 -8.88 -4.11 -30.77 -2.45 -4.1 2.91 21.54 2.81 20.54c0,0 0.76,3.36 -1.19,3.29l-46.06 9.34 -0.07 3.06 47.48 -10.04c0,-0.02 2.26,-0.54 1.87,-3.98zm-33.55 -26.79c0,0 0.69,3.84 -2.89,3.93l-12.87 1.43 -0.04 3.77 16.46 -2.08c0,0 4.52,-0.99 4.2,-4.56l-10.54 -62.45 0 -0.02 0.02 0 -2.6 -15.44 -5.49 -9.26 4.45 27.76 -0.02 0.02 3.02 18.79 -9.41 4.05 0 2.49 9.84 -4.28 2.13 12.69 -12.06 5.19 0 2.36 12.4 -5.08 3.03 18.37 0.37 2.32zm133.13 -45.15c-2.62,-2.42 -6.56,-2.1 -8.82,0.71 -2.25,2.82 -1.95,7.07 0.66,9.5 2.62,2.42 6.57,2.1 8.82,-0.71 2.25,-2.82 1.95,-7.07 -0.66,-9.5zm-12.95 -16.32c-1.82,-3.16 -5.67,-4.13 -8.6,-2.17 -2.93,1.96 -3.84,6.11 -2.02,9.27 1.82,3.16 5.68,4.13 8.61,2.17 2.93,-1.96 3.83,-6.11 2.01,-9.27zm-7.81 -19.79c-0.85,-3.6 -4.26,-5.77 -7.6,-4.85 -3.35,0.92 -5.36,4.59 -4.51,8.19 0.86,3.6 4.26,5.78 7.61,4.85 3.34,-0.92 5.36,-4.59 4.5,-8.19zm-7.92 -28.46c-3.44,-0.2 -6.39,2.64 -6.58,6.36 -0.18,3.71 2.46,6.88 5.9,7.08 3.45,0.2 6.4,-2.64 6.58,-6.36 0.19,-3.71 -2.45,-6.88 -5.9,-7.08zm6.35 -22.63c-3.23,-1.31 -6.83,0.45 -8.05,3.93 -1.21,3.49 0.43,7.37 3.66,8.67 3.23,1.31 6.83,-0.45 8.04,-3.93 1.22,-3.49 -0.42,-7.37 -3.65,-8.67zm12.37 -19.56c-2.72,-2.29 -6.65,-1.78 -8.77,1.15 -2.13,2.93 -1.65,7.16 1.07,9.45 2.72,2.29 6.65,1.78 8.77,-1.15 2.13,-2.93 1.65,-7.16 -1.07,-9.45zm17.23 -14.61c-1.95,-3.07 -5.84,-3.84 -8.69,-1.74 -2.84,2.11 -3.57,6.3 -1.61,9.36 1.95,3.07 5.84,3.85 8.69,1.74 2.84,-2.11 3.56,-6.3 1.61,-9.36zm20.52 -8.37c-1.01,-3.56 -4.51,-5.56 -7.81,-4.47 -3.3,1.09 -5.16,4.85 -4.15,8.41 1.02,3.55 4.51,5.55 7.81,4.46 3.3,-1.08 5.16,-4.85 4.15,-8.4zm15.69 -8.17c-3.45,-0.03 -6.27,2.96 -6.3,6.68 -0.03,3.71 2.75,6.75 6.2,6.78 3.45,0.03 6.27,-2.96 6.3,-6.68 0.03,-3.72 -2.75,-6.75 -6.2,-6.78zm23.41 4.14c-3.28,-1.15 -6.8,0.79 -7.86,4.33 -1.07,3.54 0.74,7.33 4.02,8.48 3.29,1.14 6.81,-0.8 7.87,-4.34 1.06,-3.53 -0.74,-7.33 -4.03,-8.47zm21.23 11.4c-2.81,-2.15 -6.72,-1.44 -8.71,1.6 -2,3.03 -1.34,7.23 1.47,9.38 2.82,2.15 6.72,1.44 8.72,-1.59 2,-3.03 1.33,-7.23 -1.48,-9.39zm17.09 17.87c-2.08,-2.97 -6,-3.55 -8.75,-1.3 -2.75,2.24 -3.29,6.47 -1.21,9.43 2.09,2.96 6.01,3.54 8.76,1.3 2.75,-2.25 3.29,-6.47 1.2,-9.43zm11.28 22.42c-1.16,-3.5 -4.74,-5.33 -7.99,-4.07 -3.25,1.25 -4.94,5.1 -3.77,8.6 1.16,3.5 4.74,5.33 7.99,4.07 3.24,-1.25 4.94,-5.1 3.77,-8.6zm4.46 25.16c-0.13,-3.72 -3.03,-6.61 -6.48,-6.47 -3.45,0.15 -6.14,3.28 -6,6.99 0.13,3.72 3.03,6.61 6.48,6.47 3.45,-0.15 6.14,-3.28 6,-6.99zm-7.02 17.17c-3.32,-0.98 -6.76,1.14 -7.67,4.72 -0.9,3.59 1.06,7.29 4.39,8.27 3.33,0.98 6.76,-1.14 7.67,-4.73 0.91,-3.58 -1.05,-7.28 -4.39,-8.26zm-7.13 22.35c-2.91,-2.01 -6.77,-1.1 -8.64,2.03 -1.86,3.13 -1.02,7.29 1.88,9.3 2.91,2.01 6.77,1.1 8.64,-2.03 1.86,-3.12 1.02,-7.29 -1.88,-9.3zm-13.03 18.9c-2.21,-2.85 -6.15,-3.24 -8.81,-0.85 -2.65,2.38 -3,6.62 -0.79,9.48 2.21,2.85 6.15,3.24 8.8,0.86 2.65,-2.39 3.01,-6.63 0.8,-9.49zm-82.09 -16.17c-1.9,-1.76 -4.76,-1.53 -6.4,0.52 -1.63,2.05 -1.42,5.13 0.48,6.89 1.9,1.76 4.77,1.53 6.4,-0.52 1.64,-2.04 1.42,-5.13 -0.48,-6.89zm-9.41 -11.86c-1.32,-2.29 -4.11,-3 -6.24,-1.57 -2.13,1.42 -2.79,4.43 -1.47,6.73 1.33,2.29 4.12,3 6.25,1.57 2.13,-1.42 2.79,-4.43 1.46,-6.73zm-5.67 -14.41c-0.62,-2.61 -3.09,-4.19 -5.52,-3.52 -2.43,0.67 -3.89,3.33 -3.27,5.95 0.62,2.61 3.09,4.19 5.52,3.52 2.43,-0.67 3.89,-3.33 3.27,-5.95zm-5.77 -20.7c-2.5,-0.14 -4.64,1.92 -4.77,4.62 -0.14,2.69 1.78,5 4.28,5.14 2.5,0.15 4.64,-1.92 4.78,-4.61 0.13,-2.7 -1.79,-5 -4.29,-5.15zm4.62 -16.47c-2.35,-0.95 -4.97,0.33 -5.85,2.86 -0.88,2.53 0.31,5.35 2.66,6.29 2.34,0.95 4.96,-0.33 5.84,-2.85 0.88,-2.53 -0.31,-5.35 -2.65,-6.3zm8.99 -14.22c-1.98,-1.67 -4.83,-1.29 -6.37,0.83 -1.55,2.13 -1.2,5.2 0.78,6.86 1.97,1.67 4.82,1.29 6.36,-0.83 1.55,-2.13 1.2,-5.2 -0.77,-6.86zm12.53 -10.63c-1.42,-2.22 -4.25,-2.79 -6.31,-1.26 -2.07,1.53 -2.59,4.57 -1.17,6.8 1.42,2.22 4.24,2.79 6.31,1.26 2.06,-1.53 2.58,-4.57 1.17,-6.8zm14.94 -6.09c-0.74,-2.58 -3.27,-4.03 -5.67,-3.24 -2.4,0.79 -3.74,3.52 -3.01,6.1 0.73,2.59 3.27,4.04 5.67,3.25 2.39,-0.79 3.74,-3.53 3.01,-6.11zm11.41 -5.94c-2.51,-0.03 -4.56,2.15 -4.58,4.85 -0.02,2.69 2,4.9 4.51,4.92 2.5,0.02 4.55,-2.15 4.57,-4.85 0.02,-2.7 -2,-4.9 -4.5,-4.92zm17.03 3.02c-2.38,-0.83 -4.94,0.58 -5.71,3.15 -0.77,2.57 0.54,5.32 2.92,6.15 2.39,0.83 4.94,-0.57 5.71,-3.14 0.77,-2.57 -0.53,-5.33 -2.92,-6.16zm15.42 8.28c-2.04,-1.56 -4.87,-1.04 -6.32,1.16 -1.45,2.2 -0.97,5.25 1.07,6.81 2.04,1.56 4.88,1.05 6.33,-1.15 1.45,-2.21 0.97,-5.26 -1.08,-6.82zm12.44 13.01c-1.52,-2.15 -4.36,-2.57 -6.36,-0.94 -2,1.63 -2.39,4.69 -0.88,6.85 1.52,2.15 4.36,2.57 6.36,0.94 2,-1.63 2.39,-4.7 0.88,-6.85zm8.21 16.29c-0.85,-2.54 -3.44,-3.86 -5.8,-2.95 -2.36,0.91 -3.59,3.71 -2.75,6.25 0.85,2.54 3.45,3.86 5.8,2.95 2.36,-0.91 3.59,-3.7 2.75,-6.25zm3.23 18.3c-0.1,-2.7 -2.21,-4.8 -4.71,-4.69 -2.51,0.1 -4.46,2.37 -4.36,5.07 0.1,2.7 2.21,4.8 4.71,4.69 2.5,-0.1 4.46,-2.37 4.36,-5.07zm-5.09 12.52c-2.42,-0.71 -4.91,0.82 -5.57,3.43 -0.66,2.6 0.77,5.29 3.19,6 2.41,0.71 4.91,-0.83 5.57,-3.43 0.66,-2.61 -0.77,-5.29 -3.19,-6zm-5.19 16.26c-2.11,-1.46 -4.91,-0.8 -6.27,1.47 -1.35,2.27 -0.74,5.3 1.37,6.76 2.11,1.45 4.91,0.8 6.27,-1.48 1.35,-2.27 0.74,-5.29 -1.37,-6.75zm-9.47 13.72c-1.61,-2.08 -4.47,-2.36 -6.39,-0.63 -1.93,1.73 -2.18,4.81 -0.58,6.89 1.61,2.07 4.47,2.35 6.39,0.62 1.93,-1.73 2.19,-4.81 0.58,-6.88zm-56.71 -15.55c-1.2,-1.11 -3.01,-0.96 -4.04,0.33 -1.03,1.29 -0.89,3.23 0.31,4.34 1.19,1.11 3,0.96 4.03,-0.32 1.03,-1.29 0.89,-3.24 -0.3,-4.35zm-5.91 -7.48c-0.83,-1.44 -2.6,-1.89 -3.94,-0.99 -1.34,0.9 -1.75,2.8 -0.92,4.24 0.83,1.45 2.6,1.89 3.94,0.99 1.34,-0.89 1.75,-2.79 0.92,-4.24zm-3.56 -9.1c-0.39,-1.65 -1.95,-2.64 -3.48,-2.22 -1.53,0.42 -2.45,2.1 -2.06,3.75 0.39,1.64 1.95,2.64 3.48,2.22 1.53,-0.43 2.45,-2.1 2.06,-3.75zm-3.68 -13.04c-1.57,-0.09 -2.92,1.21 -3.01,2.91 -0.08,1.7 1.13,3.15 2.7,3.25 1.58,0.09 2.93,-1.21 3.02,-2.91 0.08,-1.7 -1.13,-3.15 -2.71,-3.25zm2.92 -10.39c-1.48,-0.6 -3.12,0.21 -3.68,1.8 -0.55,1.59 0.2,3.37 1.67,3.97 1.48,0.59 3.13,-0.21 3.69,-1.81 0.55,-1.59 -0.2,-3.36 -1.68,-3.96zm5.68 -8.98c-1.25,-1.05 -3.05,-0.81 -4.02,0.53 -0.97,1.34 -0.75,3.27 0.49,4.32 1.25,1.05 3.04,0.81 4.02,-0.53 0.97,-1.34 0.75,-3.27 -0.49,-4.32zm7.91 -6.69c-0.9,-1.4 -2.68,-1.76 -3.98,-0.8 -1.3,0.97 -1.63,2.88 -0.74,4.29 0.9,1.4 2.68,1.76 3.98,0.79 1.3,-0.96 1.63,-2.88 0.74,-4.28zm9.42 -3.83c-0.46,-1.62 -2.06,-2.54 -3.57,-2.04 -1.51,0.5 -2.36,2.22 -1.9,3.85 0.47,1.63 2.06,2.54 3.57,2.04 1.52,-0.5 2.36,-2.22 1.9,-3.85zm7.2 -3.76c-1.58,-0.02 -2.87,1.35 -2.88,3.05 -0.01,1.71 1.26,3.1 2.84,3.11 1.57,0.01 2.86,-1.36 2.88,-3.06 0.01,-1.7 -1.26,-3.09 -2.84,-3.1zm10.71 1.94c-1.5,-0.53 -3.11,0.36 -3.6,1.98 -0.48,1.62 0.34,3.36 1.85,3.88 1.5,0.52 3.11,-0.36 3.6,-1.98 0.48,-1.62 -0.34,-3.36 -1.85,-3.88zm9.74 5.2c-1.28,-0.99 -3.07,-0.66 -3.98,0.73 -0.92,1.38 -0.62,3.31 0.67,4.29 1.29,0.99 3.08,0.66 3.99,-0.73 0.91,-1.38 0.61,-3.31 -0.68,-4.29zm7.85 8.21c-0.95,-1.35 -2.74,-1.62 -4,-0.59 -1.26,1.02 -1.51,2.96 -0.55,4.31 0.95,1.36 2.74,1.63 4,0.6 1.26,-1.03 1.51,-2.96 0.55,-4.32zm5.17 10.25c-0.54,-1.61 -2.17,-2.44 -3.66,-1.87 -1.49,0.58 -2.26,2.34 -1.73,3.94 0.53,1.6 2.17,2.44 3.66,1.86 1.48,-0.57 2.26,-2.33 1.73,-3.93zm2.02 11.55c-0.06,-1.7 -1.39,-3.02 -2.97,-2.96 -1.58,0.07 -2.81,1.5 -2.75,3.2 0.07,1.7 1.4,3.02 2.97,2.96 1.58,-0.07 2.81,-1.5 2.75,-3.2zm-3.19 7.89c-1.53,-0.45 -3.1,0.52 -3.52,2.16 -0.41,1.64 0.49,3.34 2.01,3.78 1.53,0.45 3.1,-0.52 3.51,-2.16 0.42,-1.64 -0.48,-3.33 -2,-3.78zm-3.26 10.27c-1.33,-0.92 -3.1,-0.5 -3.95,0.93 -0.85,1.43 -0.47,3.34 0.86,4.26 1.33,0.92 3.1,0.5 3.95,-0.93 0.86,-1.43 0.47,-3.34 -0.86,-4.26zm-5.99 8.62c-1.01,-1.3 -2.81,-1.48 -4.03,-0.39 -1.21,1.09 -1.37,3.03 -0.36,4.34 1.01,1.31 2.81,1.48 4.03,0.39 1.21,-1.09 1.37,-3.03 0.36,-4.34zm-9.37 51.11l-27.91 0c-0.6,0 -1.09,-0.53 -1.09,-1.18l0 -7.36c0,-0.64 0.49,-1.17 1.09,-1.17l27.91 -0.01c0.6,0 1.1,0.54 1.1,1.18l0 7.36c-0.02,0.67 -0.5,1.18 -1.1,1.18zm3.02 -14.16l-33.95 0c-0.72,0 -1.32,-0.65 -1.32,-1.43l0 -8.96c0,-0.78 0.6,-1.42 1.32,-1.42l15.43 0 0 -46.08c-9.81,-1.41 -12.74,-12.88 -12.74,-12.88 10.75,-1.5 13.98,9.53 13.98,9.53 2.63,-19.62 17.42,-18.81 17.41,-18.79 -2.42,19.08 -15.47,21.87 -15.47,21.87l0 46.35 15.34 0c0.73,0 1.33,0.64 1.33,1.42l0 8.96c0,0.8 -0.6,1.43 -1.33,1.43zm-7.31 25.57l-19.35 0c-0.6,0 -1.09,-0.53 -1.09,-1.18l0 -4.6c0,-0.65 0.49,-1.18 1.09,-1.18l19.35 0c0.6,0 1.1,0.54 1.1,1.18l0 4.6c0,0.65 -0.5,1.18 -1.1,1.18zm30.21 -278.34l0 8.51c-12.38,-8 -24.73,7.99 -37.11,0l0 -8.51c12.38,7.98 24.73,-8.01 37.11,0zm-37.11 -19.76l0 8.54c12.38,7.98 24.73,-7.99 37.11,0l0 -8.52c-12.38,-8.01 -24.73,7.96 -37.11,-0.02zm37.11 9.87l0 8.52c-12.38,-8.01 -24.73,7.98 -37.11,0l0 -8.52c12.38,7.98 24.73,-8.01 37.11,0zm927.94 363.5l0 -37.57 10.63 0 0 37.57 -10.63 0zm-21.52 0.75c-3.07,0 -6.03,-0.38 -8.88,-1.15 -2.84,-0.77 -5.16,-1.76 -6.95,-2.98l3.49 -7.84c1.68,1.08 3.62,1.96 5.82,2.66 2.2,0.7 4.39,1.05 6.58,1.05 1.46,0 2.64,-0.14 3.54,-0.4 0.89,-0.27 1.55,-0.63 1.96,-1.08 0.41,-0.45 0.61,-0.97 0.61,-1.58 0,-0.86 -0.39,-1.54 -1.18,-2.04 -0.78,-0.5 -1.8,-0.91 -3.05,-1.24 -1.26,-0.32 -2.64,-0.64 -4.16,-0.96 -1.52,-0.32 -3.05,-0.73 -4.57,-1.24 -1.52,-0.5 -2.9,-1.15 -4.16,-1.95 -1.25,-0.81 -2.27,-1.86 -3.05,-3.17 -0.79,-1.31 -1.18,-2.96 -1.18,-4.97 0,-2.25 0.61,-4.29 1.85,-6.11 1.23,-1.83 3.08,-3.29 5.55,-4.4 2.47,-1.11 5.55,-1.67 9.23,-1.67 2.47,0 4.89,0.28 7.27,0.83 2.38,0.56 4.5,1.37 6.36,2.45l-3.27 7.89c-1.79,-0.97 -3.56,-1.69 -5.31,-2.18 -1.76,-0.48 -3.46,-0.72 -5.1,-0.72 -1.47,0 -2.65,0.15 -3.54,0.45 -0.9,0.31 -1.54,0.71 -1.94,1.21 -0.39,0.5 -0.59,1.07 -0.59,1.72 0,0.82 0.39,1.47 1.16,1.96 0.77,0.48 1.79,0.87 3.06,1.18 1.27,0.3 2.66,0.62 4.18,0.94 1.52,0.32 3.04,0.72 4.56,1.2 1.53,0.49 2.91,1.13 4.16,1.94 1.26,0.8 2.27,1.86 3.04,3.16 0.77,1.31 1.15,2.95 1.15,4.91 0,2.19 -0.62,4.2 -1.85,6.04 -1.24,1.84 -3.08,3.32 -5.53,4.43 -2.45,1.11 -5.54,1.66 -9.26,1.66zm-59.89 -0.75l16.58 -37.57 10.47 0 16.64 37.57 -11.06 0 -12.99 -32.36 4.19 0 -12.99 32.36 -10.84 0zm9.07 -7.3l2.74 -7.83 18.35 0 2.74 7.83 -23.83 0zm-55.76 7.3l0 -37.57 8.75 0 15.56 25.55 -4.61 0 15.13 -25.55 8.75 0 0.1 37.57 -9.76 0 -0.11 -22.7 1.66 0 -11.32 19 -4.72 0 -11.65 -19 2.04 0 0 22.7 -9.82 0zm-39.71 0l0 -37.57 17.17 0c3.43,0 6.39,0.56 8.88,1.67 2.49,1.11 4.41,2.71 5.77,4.8 1.36,2.09 2.04,4.57 2.04,7.43 0,2.83 -0.68,5.27 -2.04,7.33 -1.36,2.06 -3.28,3.63 -5.77,4.72 -2.49,1.09 -5.45,1.64 -8.88,1.64l-11.27 0 4.72 -4.46 0 14.44 -10.62 0zm23.23 0l-9.33 -13.68 11.32 0 9.39 13.68 -11.38 0zm-12.61 -13.31l-4.72 -4.88 10.63 0c2.21,0 3.87,-0.49 4.96,-1.45 1.09,-0.97 1.64,-2.31 1.64,-4.03 0,-1.75 -0.55,-3.11 -1.64,-4.08 -1.09,-0.96 -2.75,-1.44 -4.96,-1.44l-10.63 0 4.72 -4.89 0 20.77zm-37.08 14.06c-3.01,0 -5.78,-0.48 -8.32,-1.45 -2.54,-0.96 -4.75,-2.33 -6.63,-4.1 -1.88,-1.77 -3.34,-3.84 -4.37,-6.2 -1.04,-2.36 -1.56,-4.96 -1.56,-7.78 0,-2.83 0.52,-5.42 1.56,-7.78 1.03,-2.37 2.49,-4.43 4.37,-6.2 1.88,-1.77 4.09,-3.14 6.63,-4.11 2.54,-0.96 5.31,-1.45 8.32,-1.45 3.04,0 5.82,0.49 8.34,1.45 2.52,0.97 4.72,2.34 6.58,4.11 1.86,1.77 3.32,3.83 4.37,6.2 1.06,2.36 1.58,4.95 1.58,7.78 0,2.82 -0.52,5.43 -1.58,7.81 -1.05,2.38 -2.51,4.44 -4.37,6.19 -1.86,1.76 -4.06,3.12 -6.58,4.08 -2.52,0.97 -5.3,1.45 -8.34,1.45zm0 -8.8c1.43,0 2.76,-0.25 4,-0.75 1.23,-0.5 2.3,-1.23 3.22,-2.17 0.91,-0.95 1.62,-2.09 2.14,-3.41 0.52,-1.33 0.78,-2.79 0.78,-4.4 0,-1.65 -0.26,-3.12 -0.78,-4.43 -0.52,-1.31 -1.23,-2.43 -2.14,-3.38 -0.92,-0.95 -1.99,-1.67 -3.22,-2.17 -1.24,-0.51 -2.57,-0.76 -4,-0.76 -1.43,0 -2.77,0.25 -4,0.76 -1.24,0.5 -2.31,1.22 -3.22,2.17 -0.91,0.95 -1.63,2.07 -2.15,3.38 -0.52,1.31 -0.78,2.78 -0.78,4.43 0,1.61 0.26,3.07 0.78,4.4 0.52,1.32 1.24,2.46 2.15,3.41 0.91,0.94 1.98,1.67 3.22,2.17 1.23,0.5 2.57,0.75 4,0.75zm-43.2 -13.04l17.33 0 0 8.21 -17.33 0 0 -8.21zm0.75 21.09l-10.63 0 0 -37.57 29.46 0 0 8.22 -18.83 0 0 29.35zm-36.71 0l0 -29.14 -11.54 0 0 -8.43 33.65 0 0 8.43 -11.49 0 0 29.14 -10.62 0zm-52.81 0l16.58 -37.57 10.47 0 16.63 37.57 -11.05 0 -12.99 -32.36 4.19 0 -12.99 32.36 -10.84 0zm9.07 -7.3l2.74 -7.83 18.35 0 2.74 7.83 -23.83 0zm-37.68 7.3l0 -37.57 10.63 0 0 29.15 17.93 0 0 8.42 -28.56 0zm-39.01 0l0 -37.57 17.17 0c3.44,0 6.4,0.56 8.88,1.67 2.49,1.11 4.41,2.71 5.77,4.8 1.36,2.09 2.04,4.57 2.04,7.43 0,2.83 -0.68,5.28 -2.04,7.36 -1.36,2.07 -3.28,3.67 -5.77,4.8 -2.48,1.13 -5.44,1.69 -8.88,1.69l-11.27 0 4.72 -4.62 0 14.44 -10.62 0zm10.62 -13.31l-4.72 -4.88 10.63 0c2.22,0 3.87,-0.49 4.96,-1.45 1.09,-0.97 1.64,-2.31 1.64,-4.03 0,-1.75 -0.55,-3.11 -1.64,-4.08 -1.09,-0.96 -2.74,-1.44 -4.96,-1.44l-10.63 0 4.72 -4.89 0 20.77zm-44.38 -24.26l10.63 0 0 37.57 -10.63 0 0 -37.57zm-14.49 37.57l-10.63 0 0 -37.57 10.63 0 0 37.57zm15.24 -14.65l-15.99 0 0 -8.8 15.99 0 0 8.8zm-47.39 15.4c-3.07,0 -6.03,-0.38 -8.88,-1.15 -2.84,-0.77 -5.16,-1.76 -6.95,-2.98l3.49 -7.84c1.68,1.08 3.62,1.96 5.82,2.66 2.2,0.7 4.39,1.05 6.58,1.05 1.46,0 2.64,-0.14 3.54,-0.4 0.89,-0.27 1.55,-0.63 1.96,-1.08 0.41,-0.45 0.62,-0.97 0.62,-1.58 0,-0.86 -0.4,-1.54 -1.19,-2.04 -0.78,-0.5 -1.8,-0.91 -3.05,-1.24 -1.26,-0.32 -2.64,-0.64 -4.16,-0.96 -1.52,-0.32 -3.04,-0.73 -4.57,-1.24 -1.52,-0.5 -2.9,-1.15 -4.15,-1.95 -1.26,-0.81 -2.28,-1.86 -3.06,-3.17 -0.79,-1.31 -1.18,-2.96 -1.18,-4.97 0,-2.25 0.61,-4.29 1.85,-6.11 1.23,-1.83 3.08,-3.29 5.55,-4.4 2.47,-1.11 5.55,-1.67 9.23,-1.67 2.47,0 4.9,0.28 7.28,0.83 2.37,0.56 4.49,1.37 6.35,2.45l-3.27 7.89c-1.79,-0.97 -3.56,-1.69 -5.31,-2.18 -1.76,-0.48 -3.45,-0.72 -5.1,-0.72 -1.47,0 -2.65,0.15 -3.54,0.45 -0.9,0.31 -1.54,0.71 -1.93,1.21 -0.4,0.5 -0.6,1.07 -0.6,1.72 0,0.82 0.39,1.47 1.16,1.96 0.77,0.48 1.79,0.87 3.06,1.18 1.27,0.3 2.66,0.62 4.18,0.94 1.52,0.32 3.04,0.72 4.57,1.2 1.52,0.49 2.9,1.13 4.15,1.94 1.26,0.8 2.27,1.86 3.04,3.16 0.77,1.31 1.15,2.95 1.15,4.91 0,2.19 -0.62,4.2 -1.85,6.04 -1.24,1.84 -3.08,3.32 -5.53,4.43 -2.45,1.11 -5.54,1.66 -9.26,1.66zm-59.89 -0.75l16.58 -37.57 10.47 0 16.64 37.57 -11.06 0 -12.99 -32.36 4.19 0 -12.99 32.36 -10.84 0zm9.07 -7.3l2.74 -7.83 18.35 0 2.74 7.83 -23.83 0zm-37.67 7.3l0 -37.57 10.62 0 0 29.15 17.93 0 0 8.42 -28.55 0zm-26.46 0.75c-3.01,0 -5.78,-0.48 -8.32,-1.45 -2.54,-0.96 -4.75,-2.33 -6.63,-4.1 -1.88,-1.77 -3.33,-3.84 -4.37,-6.2 -1.04,-2.36 -1.56,-4.96 -1.56,-7.78 0,-2.83 0.52,-5.42 1.56,-7.78 1.04,-2.37 2.49,-4.43 4.37,-6.2 1.88,-1.77 4.09,-3.14 6.63,-4.11 2.54,-0.96 5.31,-1.45 8.32,-1.45 3.04,0 5.82,0.49 8.34,1.45 2.53,0.97 4.72,2.34 6.58,4.11 1.86,1.77 3.32,3.83 4.37,6.2 1.06,2.36 1.58,4.95 1.58,7.78 0,2.82 -0.52,5.43 -1.58,7.81 -1.05,2.38 -2.51,4.44 -4.37,6.19 -1.86,1.76 -4.05,3.12 -6.58,4.08 -2.52,0.97 -5.3,1.45 -8.34,1.45zm0 -8.8c1.43,0 2.76,-0.25 4,-0.75 1.23,-0.5 2.3,-1.23 3.22,-2.17 0.91,-0.95 1.62,-2.09 2.14,-3.41 0.52,-1.33 0.78,-2.79 0.78,-4.4 0,-1.65 -0.26,-3.12 -0.78,-4.43 -0.52,-1.31 -1.23,-2.43 -2.14,-3.38 -0.92,-0.95 -1.99,-1.67 -3.22,-2.17 -1.24,-0.51 -2.57,-0.76 -4,-0.76 -1.43,0 -2.77,0.25 -4,0.76 -1.23,0.5 -2.31,1.22 -3.22,2.17 -0.91,0.95 -1.63,2.07 -2.15,3.38 -0.52,1.31 -0.78,2.78 -0.78,4.43 0,1.61 0.26,3.07 0.78,4.4 0.52,1.32 1.24,2.46 2.15,3.41 0.91,0.94 1.99,1.67 3.22,2.17 1.23,0.5 2.57,0.75 4,0.75zm-37.09 -29.52l10.63 0 0 37.57 -10.63 0 0 -37.57zm-14.49 37.57l-10.62 0 0 -37.57 10.62 0 0 37.57zm15.24 -14.65l-15.99 0 0 -8.8 15.99 0 0 8.8zm-72.55 14.65l16.58 -37.57 10.47 0 16.63 37.57 -11.05 0 -12.99 -32.36 4.19 0 -12.99 32.36 -10.84 0zm9.07 -7.3l2.73 -7.83 18.36 0 2.74 7.83 -23.83 0zm-45.84 7.3l0 -37.57 19.22 0c4.93,0 8.62,0.91 11.05,2.71 2.44,1.81 3.65,4.18 3.65,7.11 0,1.94 -0.51,3.63 -1.53,5.08 -1.02,1.45 -2.45,2.59 -4.29,3.43 -1.84,0.84 -4.03,1.26 -6.57,1.26l1.07 -2.57c2.65,0 4.95,0.4 6.92,1.2 1.97,0.81 3.5,1.97 4.59,3.49 1.09,1.52 1.64,3.37 1.64,5.56 0,3.25 -1.32,5.78 -3.95,7.59 -2.63,1.81 -6.46,2.71 -11.51,2.71l-20.29 0zm10.52 -7.67l8.91 0c1.83,0 3.21,-0.32 4.16,-0.94 0.95,-0.63 1.42,-1.59 1.42,-2.87 0,-1.29 -0.47,-2.25 -1.42,-2.88 -0.95,-0.62 -2.33,-0.93 -4.16,-0.93l-9.66 0 0 -7.36 8.05 0c1.79,0 3.13,-0.3 4.03,-0.91 0.89,-0.61 1.34,-1.52 1.34,-2.74 0,-1.21 -0.45,-2.12 -1.34,-2.71 -0.9,-0.59 -2.24,-0.88 -4.03,-0.88l-7.3 0 0 22.22zm648.5 -69.91l0 -37.26 5.32 0 0 37.26 -5.32 0zm-43.22 0l0 -37.26 4.37 0 24.64 30.61 -2.29 0 0 -30.61 5.32 0 0 37.26 -4.36 0 -24.64 -30.6 2.28 0 0 30.6 -5.32 0zm-16.5 0l0 -37.26 5.32 0 0 37.26 -5.32 0zm-38.69 0l0 -37.26 14.53 0c3.26,0 6.05,0.52 8.36,1.55 2.3,1.03 4.08,2.52 5.32,4.47 1.24,1.95 1.86,4.27 1.86,6.97 0,2.7 -0.62,5.01 -1.86,6.95 -1.24,1.93 -3.02,3.41 -5.32,4.44 -2.31,1.03 -5.1,1.54 -8.36,1.54l-11.6 0 2.39 -2.44 0 13.78 -5.32 0zm24.91 0l-9.48 -13.52 5.7 0 9.58 13.52 -5.8 0zm-19.59 -13.25l-2.39 -2.61 11.44 0c3.41,0 5.99,-0.74 7.74,-2.21 1.76,-1.47 2.64,-3.54 2.64,-6.2 0,-2.66 -0.88,-4.72 -2.64,-6.17 -1.75,-1.46 -4.33,-2.19 -7.74,-2.19l-11.44 0 2.39 -2.66 0 22.04zm-49.92 13.25l16.87 -37.26 5.27 0 16.93 37.26 -5.59 0 -15.06 -34.28 2.12 0 -15.06 34.28 -5.48 0zm7.19 -9.31l1.43 -4.26 20.97 0 1.55 4.26 -23.95 0zm-33.16 9.31l0 -37.26 5.32 0 0 32.63 20.17 0 0 4.63 -25.49 0zm-44.6 0l16.87 -37.26 5.27 0 16.92 37.26 -5.58 0 -15.07 -34.28 2.13 0 -15.06 34.28 -5.48 0zm7.18 -9.31l1.44 -4.26 20.97 0 1.54 4.26 -23.95 0zm-23.25 9.74c-2.2,0 -4.26,-0.47 -6.18,-1.39 -1.91,-0.92 -3.47,-2.25 -4.68,-3.99l3.09 -3.62c1.02,1.42 2.19,2.51 3.48,3.27 1.3,0.77 2.72,1.15 4.29,1.15 4.25,0 6.38,-2.52 6.38,-7.56l0 -20.92 -13.46 0 0 -4.63 18.73 0 0 25.28c0,4.16 -0.98,7.26 -2.95,9.32 -1.97,2.06 -4.87,3.09 -8.7,3.09zm-21.29 -0.43l0 -37.26 5.32 0 0 37.26 -5.32 0zm-23.85 0l0 -32.63 -12.77 0 0 -4.63 30.82 0 0 4.63 -12.78 0 0 32.63 -5.27 0zm-50.13 0l16.87 -37.26 5.27 0 16.92 37.26 -5.58 0 -15.07 -34.28 2.13 0 -15.06 34.28 -5.48 0zm7.18 -9.31l1.44 -4.26 20.97 0 1.54 4.26 -23.95 0zm-44.76 9.31l0 -37.26 4.37 0 24.64 30.61 -2.29 0 0 -30.61 5.32 0 0 37.26 -4.36 0 -24.64 -30.6 2.29 0 0 30.6 -5.33 0zm-30.81 0l0 -37.26 5.32 0 0 37.26 -5.32 0zm-23.84 0l0 -32.63 -12.78 0 0 -4.63 30.82 0 0 4.63 -12.78 0 0 32.63 -5.26 0zm-50.14 0l16.87 -37.26 5.27 0 16.93 37.26 -5.59 0 -15.06 -34.28 2.12 0 -15.06 34.28 -5.48 0zm7.19 -9.31l1.43 -4.26 20.97 0 1.55 4.26 -23.95 0zm-24.75 9.31l0 -14.26 1.22 3.3 -16.02 -26.3 5.7 0 13.46 22.2 -3.08 0 13.51 -22.2 5.27 0 -15.96 26.3 1.17 -3.3 0 14.26 -5.27 0zm-25.49 0l0 -37.26 5.32 0 0 37.26 -5.32 0zm-31.62 0l0 -37.26 5.32 0 0 32.63 20.17 0 0 4.63 -25.49 0zm-27.89 0.43c-2.84,0 -5.47,-0.48 -7.9,-1.44 -2.43,-0.96 -4.53,-2.3 -6.31,-4.02 -1.77,-1.72 -3.16,-3.73 -4.15,-6.04 -0.99,-2.31 -1.49,-4.83 -1.49,-7.56 0,-2.73 0.5,-5.25 1.49,-7.56 0.99,-2.3 2.38,-4.32 4.15,-6.04 1.78,-1.72 3.87,-3.06 6.28,-4.01 2.42,-0.96 5.06,-1.44 7.93,-1.44 2.84,0 5.46,0.47 7.85,1.41 2.4,0.94 4.49,2.27 6.28,3.99 1.8,1.72 3.18,3.73 4.15,6.04 0.98,2.31 1.47,4.84 1.47,7.61 0,2.77 -0.49,5.31 -1.47,7.61 -0.97,2.31 -2.35,4.32 -4.15,6.04 -1.79,1.72 -3.88,3.05 -6.28,4 -2.39,0.94 -5.01,1.41 -7.85,1.41zm0 -4.74c2.06,0 3.97,-0.36 5.72,-1.07 1.76,-0.71 3.29,-1.71 4.58,-3 1.3,-1.3 2.31,-2.82 3.04,-4.55 0.72,-1.74 1.09,-3.64 1.09,-5.7 0,-2.06 -0.37,-3.95 -1.09,-5.69 -0.73,-1.74 -1.74,-3.26 -3.04,-4.55 -1.29,-1.3 -2.82,-2.3 -4.58,-3.01 -1.75,-0.71 -3.66,-1.06 -5.72,-1.06 -2.09,0 -4.02,0.35 -5.77,1.06 -1.76,0.71 -3.29,1.71 -4.61,3.01 -1.31,1.29 -2.33,2.81 -3.06,4.55 -0.72,1.74 -1.09,3.63 -1.09,5.69 0,2.06 0.37,3.96 1.09,5.7 0.73,1.73 1.75,3.25 3.06,4.55 1.32,1.29 2.85,2.29 4.61,3 1.75,0.71 3.68,1.07 5.77,1.07zm-60.88 4.31l16.87 -37.26 5.27 0 16.92 37.26 -5.59 0 -15.06 -34.28 2.13 0 -15.06 34.28 -5.48 0zm7.18 -9.31l1.44 -4.26 20.97 0 1.54 4.26 -23.95 0zm-28.84 -10.33l19.21 0 0 4.58 -19.21 0 0 -4.58zm0.53 19.64l-5.32 0 0 -37.26 26.29 0 0 4.63 -20.97 0 0 32.63zm842.39 -77.06l0 -37.26 4.37 0 24.64 30.6 -2.29 0 0 -30.6 5.32 0 0 37.26 -4.36 0 -24.64 -30.61 2.28 0 0 30.61 -5.32 0zm-27.89 0.42c-2.84,0 -5.47,-0.48 -7.9,-1.43 -2.43,-0.96 -4.53,-2.3 -6.31,-4.02 -1.77,-1.72 -3.16,-3.74 -4.15,-6.04 -0.99,-2.31 -1.49,-4.83 -1.49,-7.56 0,-2.73 0.5,-5.25 1.49,-7.56 0.99,-2.3 2.38,-4.32 4.15,-6.04 1.78,-1.72 3.87,-3.06 6.28,-4.02 2.42,-0.96 5.06,-1.43 7.93,-1.43 2.84,0 5.46,0.47 7.85,1.41 2.4,0.94 4.49,2.27 6.28,3.99 1.8,1.72 3.18,3.73 4.15,6.04 0.98,2.31 1.47,4.84 1.47,7.61 0,2.77 -0.49,5.3 -1.47,7.61 -0.97,2.31 -2.35,4.32 -4.15,6.04 -1.79,1.72 -3.88,3.05 -6.28,3.99 -2.39,0.94 -5.01,1.41 -7.85,1.41zm0 -4.73c2.06,0 3.97,-0.36 5.72,-1.07 1.76,-0.71 3.29,-1.71 4.58,-3.01 1.3,-1.29 2.31,-2.81 3.03,-4.55 0.73,-1.73 1.1,-3.63 1.1,-5.69 0,-2.06 -0.37,-3.96 -1.1,-5.7 -0.72,-1.73 -1.73,-3.25 -3.03,-4.55 -1.29,-1.29 -2.82,-2.29 -4.58,-3 -1.75,-0.71 -3.66,-1.07 -5.72,-1.07 -2.09,0 -4.02,0.36 -5.77,1.07 -1.76,0.71 -3.29,1.71 -4.61,3 -1.31,1.3 -2.33,2.82 -3.06,4.55 -0.72,1.74 -1.09,3.64 -1.09,5.7 0,2.06 0.37,3.96 1.09,5.69 0.73,1.74 1.75,3.26 3.06,4.55 1.32,1.3 2.85,2.3 4.61,3.01 1.75,0.71 3.68,1.07 5.77,1.07zm-33.31 4.31l0 -37.26 5.32 0 0 37.26 -5.32 0zm-22.2 0.42c-2.84,0 -5.55,-0.43 -8.14,-1.3 -2.59,-0.87 -4.63,-2 -6.12,-3.38l1.97 -4.15c1.42,1.24 3.23,2.27 5.43,3.08 2.2,0.82 4.49,1.23 6.86,1.23 2.17,0 3.92,-0.25 5.27,-0.75 1.35,-0.49 2.34,-1.18 2.98,-2.05 0.64,-0.86 0.96,-1.85 0.96,-2.95 0,-1.28 -0.42,-2.31 -1.25,-3.09 -0.83,-0.78 -1.92,-1.41 -3.25,-1.89 -1.33,-0.47 -2.79,-0.89 -4.39,-1.25 -1.59,-0.35 -3.2,-0.77 -4.81,-1.25 -1.62,-0.48 -3.09,-1.09 -4.42,-1.83 -1.33,-0.75 -2.41,-1.75 -3.22,-3.01 -0.82,-1.26 -1.23,-2.88 -1.23,-4.87 0,-1.92 0.51,-3.68 1.52,-5.29 1.01,-1.62 2.57,-2.91 4.68,-3.89 2.12,-0.98 4.8,-1.46 8.07,-1.46 2.16,0 4.31,0.28 6.44,0.85 2.13,0.57 3.97,1.38 5.53,2.45l-1.75 4.25c-1.6,-1.06 -3.29,-1.83 -5.06,-2.31 -1.77,-0.48 -3.5,-0.72 -5.16,-0.72 -2.1,0 -3.82,0.27 -5.17,0.8 -1.34,0.53 -2.33,1.24 -2.95,2.13 -0.62,0.88 -0.93,1.88 -0.93,2.98 0,1.31 0.42,2.36 1.25,3.14 0.83,0.78 1.92,1.4 3.25,1.86 1.33,0.46 2.79,0.88 4.39,1.25 1.59,0.37 3.2,0.79 4.81,1.25 1.62,0.46 3.09,1.07 4.42,1.81 1.33,0.75 2.41,1.74 3.22,2.98 0.82,1.24 1.23,2.84 1.23,4.79 0,1.88 -0.52,3.63 -1.55,5.24 -1.03,1.62 -2.61,2.91 -4.76,3.89 -2.15,0.97 -4.85,1.46 -8.12,1.46zm-27.35 -0.42l0 -37.26 5.32 0 0 37.26 -5.32 0zm-23.85 0l0 -32.63 -12.77 0 0 -4.63 30.82 0 0 4.63 -12.78 0 0 32.63 -5.27 0zm-50.13 0l16.87 -37.26 5.27 0 16.92 37.26 -5.58 0 -15.07 -34.28 2.13 0 -15.06 34.28 -5.48 0zm7.18 -9.32l1.44 -4.25 20.97 0 1.54 4.25 -23.95 0zm-26.71 9.32l-16.4 -37.26 5.75 0 15.06 34.38 -3.3 0 15.17 -34.38 5.32 0 -16.33 37.26 -5.27 0zm-37.47 0.42c-2.84,0 -5.47,-0.48 -7.91,-1.43 -2.43,-0.96 -4.53,-2.3 -6.3,-4.02 -1.78,-1.72 -3.16,-3.74 -4.15,-6.04 -1,-2.31 -1.49,-4.83 -1.49,-7.56 0,-2.73 0.49,-5.25 1.49,-7.56 0.99,-2.3 2.37,-4.32 4.15,-6.04 1.77,-1.72 3.87,-3.06 6.28,-4.02 2.41,-0.96 5.05,-1.43 7.93,-1.43 2.84,0 5.45,0.47 7.85,1.41 2.39,0.94 4.49,2.27 6.28,3.99 1.79,1.72 3.17,3.73 4.15,6.04 0.98,2.31 1.46,4.84 1.46,7.61 0,2.77 -0.48,5.3 -1.46,7.61 -0.98,2.31 -2.36,4.32 -4.15,6.04 -1.79,1.72 -3.89,3.05 -6.28,3.99 -2.4,0.94 -5.01,1.41 -7.85,1.41zm0 -4.73c2.06,0 3.96,-0.36 5.72,-1.07 1.76,-0.71 3.28,-1.71 4.58,-3.01 1.29,-1.29 2.3,-2.81 3.03,-4.55 0.73,-1.73 1.09,-3.63 1.09,-5.69 0,-2.06 -0.36,-3.96 -1.09,-5.7 -0.73,-1.73 -1.74,-3.25 -3.03,-4.55 -1.3,-1.29 -2.82,-2.29 -4.58,-3 -1.76,-0.71 -3.66,-1.07 -5.72,-1.07 -2.09,0 -4.02,0.36 -5.78,1.07 -1.75,0.71 -3.29,1.71 -4.6,3 -1.31,1.3 -2.33,2.82 -3.06,4.55 -0.73,1.74 -1.09,3.64 -1.09,5.7 0,2.06 0.36,3.96 1.09,5.69 0.73,1.74 1.75,3.26 3.06,4.55 1.31,1.3 2.85,2.3 4.6,3.01 1.76,0.71 3.69,1.07 5.78,1.07zm-60.04 4.31l0 -37.26 4.37 0 24.64 30.6 -2.29 0 0 -30.6 5.32 0 0 37.26 -4.36 0 -24.64 -30.61 2.29 0 0 30.61 -5.33 0zm-43.21 0l0 -37.26 4.36 0 24.64 30.6 -2.28 0 0 -30.6 5.32 0 0 37.26 -4.37 0 -24.64 -30.61 2.29 0 0 30.61 -5.32 0zm-16.5 0l0 -37.26 5.32 0 0 37.26 -5.32 0zm-58.92 0l16.87 -37.26 5.27 0 16.93 37.26 -5.59 0 -15.06 -34.28 2.13 0 -15.07 34.28 -5.48 0zm7.19 -9.32l1.43 -4.25 20.97 0 1.55 4.25 -23.95 0zm-26.72 9.32l-16.39 -37.26 5.75 0 15.06 34.38 -3.3 0 15.17 -34.38 5.32 0 -16.34 37.26 -5.27 0zm-41.57 0l0 -37.26 5.33 0 0 37.26 -5.33 0zm-38.69 0l0 -37.26 14.53 0c3.27,0 6.05,0.52 8.36,1.55 2.3,1.02 4.08,2.51 5.32,4.47 1.24,1.95 1.86,4.27 1.86,6.97 0,2.69 -0.62,5.01 -1.86,6.94 -1.24,1.94 -3.02,3.42 -5.32,4.45 -2.31,1.03 -5.09,1.54 -8.36,1.54l-11.6 0 2.39 -2.45 0 13.79 -5.32 0zm24.91 0l-9.47 -13.52 5.69 0 9.58 13.52 -5.8 0zm-19.59 -13.26l-2.39 -2.6 11.44 0c3.41,0 5.99,-0.74 7.75,-2.21 1.75,-1.47 2.63,-3.54 2.63,-6.2 0,-2.66 -0.88,-4.72 -2.63,-6.18 -1.76,-1.45 -4.34,-2.18 -7.75,-2.18l-11.44 0 2.39 -2.66 0 22.03zm-49.92 13.26l16.87 -37.26 5.27 0 16.93 37.26 -5.59 0 -15.06 -34.28 2.13 0 -15.07 34.28 -5.48 0zm7.19 -9.32l1.43 -4.25 20.97 0 1.55 4.25 -23.95 0zm-33.16 9.32l0 -37.26 5.32 0 0 32.63 20.17 0 0 4.63 -25.49 0zm-16.5 -37.26l5.32 0 0 37.26 -5.32 0 0 -37.26zm-21.39 37.26l-5.33 0 0 -37.26 5.33 0 0 37.26zm21.87 -16.61l-22.41 0 0 -4.63 22.41 0 0 4.63zm-49.39 17.03c-2.84,0 -5.55,-0.43 -8.14,-1.3 -2.59,-0.87 -4.63,-2 -6.12,-3.38l1.97 -4.15c1.42,1.24 3.23,2.27 5.43,3.08 2.2,0.82 4.48,1.23 6.86,1.23 2.17,0 3.92,-0.25 5.27,-0.75 1.35,-0.49 2.34,-1.18 2.98,-2.05 0.64,-0.86 0.96,-1.85 0.96,-2.95 0,-1.28 -0.42,-2.31 -1.25,-3.09 -0.84,-0.78 -1.92,-1.41 -3.25,-1.89 -1.33,-0.47 -2.79,-0.89 -4.39,-1.25 -1.6,-0.35 -3.2,-0.77 -4.82,-1.25 -1.61,-0.48 -3.08,-1.09 -4.41,-1.83 -1.33,-0.75 -2.41,-1.75 -3.22,-3.01 -0.82,-1.26 -1.23,-2.88 -1.23,-4.87 0,-1.92 0.51,-3.68 1.52,-5.29 1.01,-1.62 2.57,-2.91 4.68,-3.89 2.11,-0.98 4.8,-1.46 8.07,-1.46 2.16,0 4.31,0.28 6.44,0.85 2.12,0.57 3.97,1.38 5.53,2.45l-1.76 4.25c-1.59,-1.06 -3.28,-1.83 -5.05,-2.31 -1.78,-0.48 -3.5,-0.72 -5.16,-0.72 -2.1,0 -3.82,0.27 -5.17,0.8 -1.35,0.53 -2.33,1.24 -2.95,2.13 -0.62,0.88 -0.93,1.88 -0.93,2.98 0,1.31 0.42,2.36 1.25,3.14 0.83,0.78 1.92,1.4 3.25,1.86 1.33,0.46 2.79,0.88 4.39,1.25 1.59,0.37 3.2,0.79 4.81,1.25 1.62,0.46 3.09,1.07 4.42,1.81 1.33,0.75 2.4,1.74 3.22,2.98 0.82,1.24 1.22,2.84 1.22,4.79 0,1.88 -0.51,3.63 -1.54,5.24 -1.03,1.62 -2.62,2.91 -4.76,3.89 -2.15,0.97 -4.85,1.46 -8.12,1.46zm-27.35 -0.42l0 -37.26 5.32 0 0 37.26 -5.32 0zm-39.76 0l0 -14.27 1.22 3.3 -16.02 -26.29 5.7 0 13.46 22.2 -3.08 0 13.51 -22.2 5.27 0 -15.96 26.29 1.17 -3.3 0 14.27 -5.27 0zm-25.49 0l0 -37.26 5.32 0 0 37.26 -5.32 0zm-50.83 0l0 -37.26 4.36 0 16.71 28.16 -2.34 0 16.5 -28.16 4.37 0 0.05 37.26 -5.11 0 -0.05 -29.22 1.22 0 -14.69 24.69 -2.45 0 -14.79 -24.69 1.33 0 0 29.22 -5.11 0zm-31.61 0l0 -37.26 5.32 0 0 32.63 20.17 0 0 4.63 -25.49 0zm-16.5 0l0 -37.26 5.32 0 0 37.26 -5.32 0zm887.15 -76.64c-2.88,0 -5.52,-0.47 -7.93,-1.41 -2.41,-0.94 -4.51,-2.27 -6.28,-3.99 -1.78,-1.72 -3.16,-3.74 -4.15,-6.04 -1,-2.31 -1.49,-4.85 -1.49,-7.61 0,-2.77 0.49,-5.31 1.49,-7.61 0.99,-2.31 2.38,-4.32 4.17,-6.04 1.8,-1.73 3.9,-3.06 6.31,-4 2.41,-0.94 5.08,-1.41 7.98,-1.41 2.95,0 5.65,0.48 8.09,1.44 2.45,0.96 4.53,2.4 6.23,4.31l-3.3 3.3c-1.52,-1.49 -3.18,-2.58 -4.97,-3.27 -1.8,-0.69 -3.74,-1.04 -5.83,-1.04 -2.13,0 -4.11,0.36 -5.94,1.06 -1.82,0.71 -3.4,1.71 -4.73,2.99 -1.33,1.27 -2.36,2.79 -3.09,4.55 -0.73,1.75 -1.09,3.66 -1.09,5.72 0,2.02 0.36,3.91 1.09,5.67 0.73,1.75 1.76,3.28 3.09,4.57 1.33,1.3 2.9,2.3 4.71,3.01 1.81,0.71 3.78,1.06 5.9,1.06 1.99,0 3.9,-0.31 5.73,-0.93 1.82,-0.62 3.52,-1.66 5.08,-3.11l3.03 4.04c-1.84,1.56 -4,2.74 -6.46,3.54 -2.47,0.8 -5.02,1.2 -7.64,1.2zm8.99 -5.43l0 -13.84 5.11 0 0 14.53 -5.11 -0.69zm-69.03 5l0 -37.25 4.37 0 24.64 30.6 -2.29 0 0 -30.6 5.32 0 0 37.25 -4.36 0 -24.64 -30.6 2.29 0 0 30.6 -5.33 0zm-16.49 0l0 -37.25 5.32 0 0 37.25 -5.32 0zm-43.22 0l0 -37.25 4.36 0 24.65 30.6 -2.29 0 0 -30.6 5.32 0 0 37.25 -4.37 0 -24.64 -30.6 2.29 0 0 30.6 -5.32 0zm-16.5 0l0 -37.25 5.32 0 0 37.25 -5.32 0zm-38.69 0l0 -37.25 14.53 0c3.26,0 6.05,0.51 8.35,1.54 2.31,1.03 4.08,2.52 5.33,4.47 1.24,1.95 1.86,4.28 1.86,6.98 0,2.69 -0.62,5.01 -1.86,6.94 -1.25,1.93 -3.02,3.42 -5.33,4.45 -2.3,1.02 -5.09,1.54 -8.35,1.54l-11.6 0 2.39 -2.45 0 13.78 -5.32 0zm24.91 0l-9.48 -13.51 5.7 0 9.58 13.51 -5.8 0zm-19.59 -13.25l-2.39 -2.61 11.44 0c3.4,0 5.99,-0.73 7.74,-2.2 1.76,-1.48 2.64,-3.54 2.64,-6.2 0,-2.67 -0.88,-4.72 -2.64,-6.18 -1.75,-1.45 -4.34,-2.18 -7.74,-2.18l-11.44 0 2.39 -2.66 0 22.03zm-49.92 13.25l16.87 -37.25 5.27 0 16.92 37.25 -5.58 0 -15.07 -34.27 2.13 0 -15.06 34.27 -5.48 0zm7.18 -9.31l1.44 -4.26 20.97 0 1.54 4.26 -23.95 0zm-33.15 9.31l0 -37.25 5.32 0 0 32.62 20.17 0 0 4.63 -25.49 0zm-44.6 0l16.87 -37.25 5.27 0 16.92 37.25 -5.59 0 -15.06 -34.27 2.13 0 -15.06 34.27 -5.48 0zm7.18 -9.31l1.44 -4.26 20.97 0 1.54 4.26 -23.95 0zm-23.74 9.74c-2.83,0 -5.55,-0.43 -8.14,-1.3 -2.59,-0.87 -4.63,-2 -6.12,-3.38l1.97 -4.15c1.42,1.24 3.23,2.27 5.43,3.08 2.2,0.82 4.49,1.23 6.86,1.23 2.17,0 3.93,-0.25 5.27,-0.75 1.35,-0.5 2.35,-1.18 2.98,-2.05 0.64,-0.87 0.96,-1.85 0.96,-2.95 0,-1.28 -0.41,-2.31 -1.25,-3.09 -0.83,-0.78 -1.91,-1.41 -3.25,-1.89 -1.33,-0.48 -2.79,-0.89 -4.39,-1.25 -1.59,-0.35 -3.2,-0.77 -4.81,-1.25 -1.62,-0.48 -3.09,-1.09 -4.42,-1.84 -1.33,-0.74 -2.4,-1.74 -3.22,-3 -0.82,-1.26 -1.22,-2.89 -1.22,-4.87 0,-1.92 0.5,-3.68 1.51,-5.3 1.01,-1.61 2.58,-2.91 4.69,-3.88 2.11,-0.98 4.8,-1.47 8.06,-1.47 2.16,0 4.31,0.29 6.44,0.86 2.13,0.56 3.97,1.38 5.53,2.44l-1.75 4.26c-1.6,-1.06 -3.28,-1.83 -5.06,-2.31 -1.77,-0.48 -3.49,-0.72 -5.16,-0.72 -2.09,0 -3.81,0.26 -5.16,0.8 -1.35,0.53 -2.34,1.24 -2.96,2.12 -0.62,0.89 -0.93,1.89 -0.93,2.99 0,1.31 0.42,2.35 1.25,3.13 0.84,0.79 1.92,1.41 3.25,1.87 1.33,0.46 2.79,0.88 4.39,1.25 1.6,0.37 3.2,0.79 4.82,1.25 1.61,0.46 3.08,1.06 4.41,1.81 1.33,0.74 2.41,1.74 3.22,2.98 0.82,1.24 1.23,2.84 1.23,4.79 0,1.88 -0.52,3.63 -1.55,5.24 -1.02,1.62 -2.61,2.91 -4.76,3.89 -2.15,0.97 -4.85,1.46 -8.12,1.46zm-55.45 -0.43l16.87 -37.25 5.27 0 16.92 37.25 -5.59 0 -15.06 -34.27 2.13 0 -15.06 34.27 -5.48 0zm7.18 -9.31l1.44 -4.26 20.97 0 1.54 4.26 -23.95 0zm-23.73 9.74c-2.84,0 -5.56,-0.43 -8.15,-1.3 -2.59,-0.87 -4.63,-2 -6.12,-3.38l1.97 -4.15c1.42,1.24 3.23,2.27 5.43,3.08 2.2,0.82 4.49,1.23 6.87,1.23 2.16,0 3.92,-0.25 5.27,-0.75 1.34,-0.5 2.34,-1.18 2.98,-2.05 0.63,-0.87 0.95,-1.85 0.95,-2.95 0,-1.28 -0.41,-2.31 -1.25,-3.09 -0.83,-0.78 -1.91,-1.41 -3.24,-1.89 -1.33,-0.48 -2.8,-0.89 -4.39,-1.25 -1.6,-0.35 -3.21,-0.77 -4.82,-1.25 -1.62,-0.48 -3.09,-1.09 -4.42,-1.84 -1.33,-0.74 -2.4,-1.74 -3.22,-3 -0.81,-1.26 -1.22,-2.89 -1.22,-4.87 0,-1.92 0.5,-3.68 1.51,-5.3 1.02,-1.61 2.58,-2.91 4.69,-3.88 2.11,-0.98 4.8,-1.47 8.06,-1.47 2.17,0 4.31,0.29 6.44,0.86 2.13,0.56 3.97,1.38 5.54,2.44l-1.76 4.26c-1.6,-1.06 -3.28,-1.83 -5.06,-2.31 -1.77,-0.48 -3.49,-0.72 -5.16,-0.72 -2.09,0 -3.81,0.26 -5.16,0.8 -1.35,0.53 -2.33,1.24 -2.96,2.12 -0.62,0.89 -0.93,1.89 -0.93,2.99 0,1.31 0.42,2.35 1.25,3.13 0.84,0.79 1.92,1.41 3.25,1.87 1.33,0.46 2.79,0.88 4.39,1.25 1.6,0.37 3.2,0.79 4.82,1.25 1.61,0.46 3.08,1.06 4.41,1.81 1.34,0.74 2.41,1.74 3.23,2.98 0.81,1.24 1.22,2.84 1.22,4.79 0,1.88 -0.52,3.63 -1.54,5.24 -1.03,1.62 -2.62,2.91 -4.77,3.89 -2.14,0.97 -4.85,1.46 -8.11,1.46zm-33.05 0c-2.84,0 -5.56,-0.43 -8.15,-1.3 -2.59,-0.87 -4.63,-2 -6.12,-3.38l1.97 -4.15c1.42,1.24 3.23,2.27 5.43,3.08 2.2,0.82 4.49,1.23 6.87,1.23 2.16,0 3.92,-0.25 5.26,-0.75 1.35,-0.5 2.35,-1.18 2.98,-2.05 0.64,-0.87 0.96,-1.85 0.96,-2.95 0,-1.28 -0.41,-2.31 -1.25,-3.09 -0.83,-0.78 -1.91,-1.41 -3.24,-1.89 -1.33,-0.48 -2.8,-0.89 -4.4,-1.25 -1.59,-0.35 -3.2,-0.77 -4.81,-1.25 -1.62,-0.48 -3.09,-1.09 -4.42,-1.84 -1.33,-0.74 -2.4,-1.74 -3.22,-3 -0.82,-1.26 -1.22,-2.89 -1.22,-4.87 0,-1.92 0.5,-3.68 1.51,-5.3 1.01,-1.61 2.58,-2.91 4.69,-3.88 2.11,-0.98 4.8,-1.47 8.06,-1.47 2.16,0 4.31,0.29 6.44,0.86 2.13,0.56 3.97,1.38 5.54,2.44l-1.76 4.26c-1.6,-1.06 -3.28,-1.83 -5.06,-2.31 -1.77,-0.48 -3.49,-0.72 -5.16,-0.72 -2.09,0 -3.81,0.26 -5.16,0.8 -1.35,0.53 -2.34,1.24 -2.96,2.12 -0.62,0.89 -0.93,1.89 -0.93,2.99 0,1.31 0.42,2.35 1.25,3.13 0.84,0.79 1.92,1.41 3.25,1.87 1.33,0.46 2.79,0.88 4.39,1.25 1.6,0.37 3.2,0.79 4.82,1.25 1.61,0.46 3.08,1.06 4.41,1.81 1.34,0.74 2.41,1.74 3.22,2.98 0.82,1.24 1.23,2.84 1.23,4.79 0,1.88 -0.52,3.63 -1.54,5.24 -1.03,1.62 -2.62,2.91 -4.77,3.89 -2.15,0.97 -4.85,1.46 -8.11,1.46zm-55.46 -0.43l16.87 -37.25 5.27 0 16.92 37.25 -5.58 0 -15.07 -34.27 2.13 0 -15.06 34.27 -5.48 0zm7.18 -9.31l1.44 -4.26 20.97 0 1.54 4.26 -23.95 0zm-27.41 9.74c-4.89,0 -8.74,-1.4 -11.54,-4.2 -2.81,-2.81 -4.21,-6.91 -4.21,-12.3l0 -21.18 5.32 0 0 20.97c0,4.15 0.92,7.18 2.74,9.1 1.83,1.92 4.41,2.87 7.75,2.87 3.37,0 5.97,-0.95 7.79,-2.87 1.83,-1.92 2.75,-4.95 2.75,-9.1l0 -20.97 5.16 0 0 21.18c0,5.39 -1.39,9.49 -4.18,12.3 -2.78,2.8 -6.64,4.2 -11.58,4.2zm-66.26 -0.43l0 -37.25 4.37 0 16.71 28.15 -2.34 0 16.5 -28.15 4.36 0 0.05 37.25 -5.11 0 -0.05 -29.21 1.22 0 -14.68 24.69 -2.45 0 -14.8 -24.69 1.33 0 0 29.21 -5.11 0zm-65.14 0l0 -37.25 4.36 0 16.72 28.15 -2.35 0 16.5 -28.15 4.37 0 0.05 37.25 -5.11 0 -0.05 -29.21 1.22 0 -14.69 24.69 -2.45 0 -14.79 -24.69 1.33 0 0 29.21 -5.11 0zm-16.5 0l0 -37.25 5.32 0 0 37.25 -5.32 0zm-31.61 0l0 -37.25 5.32 0 0 32.62 20.17 0 0 4.63 -25.49 0zm-8.41 -39.49l-2.66 10.81 -0.64 -3.09c1.03,0 1.88,0.32 2.55,0.96 0.68,0.64 1.01,1.49 1.01,2.55 0,1.07 -0.33,1.94 -1.01,2.61 -0.67,0.68 -1.5,1.01 -2.5,1.01 -1.03,0 -1.88,-0.34 -2.55,-1.03 -0.68,-0.7 -1.01,-1.56 -1.01,-2.59 0,-0.35 0.02,-0.69 0.08,-1.01 0.05,-0.32 0.15,-0.7 0.29,-1.14 0.14,-0.44 0.34,-0.99 0.58,-1.62l2.51 -7.46 3.35 0zm-46.52 39.49l16.87 -37.25 5.27 0 16.93 37.25 -5.59 0 -15.06 -34.27 2.13 0 -15.07 34.27 -5.48 0zm7.19 -9.31l1.43 -4.26 20.97 0 1.55 4.26 -23.95 0zm-23.53 9.31l0 -32.62 -12.77 0 0 -4.63 30.82 0 0 4.63 -12.78 0 0 32.62 -5.27 0zm-47.15 0l0 -14.26 1.22 3.3 -16.02 -26.29 5.7 0 13.46 22.19 -3.08 0 13.52 -22.19 5.26 0 -15.96 26.29 1.17 -3.3 0 14.26 -5.27 0zm-25.49 0l0 -37.25 5.32 0 0 37.25 -5.32 0zm-31.62 0l0 -37.25 5.32 0 0 32.62 20.18 0 0 4.63 -25.5 0zm-27.89 0.43c-2.83,0 -5.47,-0.48 -7.9,-1.44 -2.43,-0.95 -4.53,-2.29 -6.31,-4.01 -1.77,-1.73 -3.15,-3.74 -4.15,-6.05 -0.99,-2.3 -1.49,-4.82 -1.49,-7.55 0,-2.73 0.5,-5.25 1.49,-7.56 1,-2.31 2.38,-4.32 4.15,-6.04 1.78,-1.72 3.87,-3.06 6.28,-4.02 2.42,-0.96 5.06,-1.44 7.93,-1.44 2.84,0 5.46,0.47 7.85,1.41 2.4,0.94 4.49,2.27 6.28,4 1.8,1.72 3.18,3.73 4.16,6.04 0.97,2.3 1.46,4.84 1.46,7.61 0,2.76 -0.49,5.3 -1.46,7.61 -0.98,2.3 -2.36,4.32 -4.16,6.04 -1.79,1.72 -3.88,3.05 -6.28,3.99 -2.39,0.94 -5.01,1.41 -7.85,1.41zm0 -4.74c2.06,0 3.97,-0.35 5.73,-1.06 1.75,-0.71 3.28,-1.71 4.57,-3.01 1.3,-1.29 2.31,-2.81 3.04,-4.55 0.72,-1.74 1.09,-3.64 1.09,-5.69 0,-2.06 -0.37,-3.96 -1.09,-5.7 -0.73,-1.74 -1.74,-3.25 -3.04,-4.55 -1.29,-1.29 -2.82,-2.3 -4.57,-3.01 -1.76,-0.7 -3.67,-1.06 -5.73,-1.06 -2.09,0 -4.01,0.36 -5.77,1.06 -1.76,0.71 -3.29,1.72 -4.6,3.01 -1.32,1.3 -2.34,2.81 -3.06,4.55 -0.73,1.74 -1.1,3.64 -1.1,5.7 0,2.05 0.37,3.95 1.1,5.69 0.72,1.74 1.74,3.26 3.06,4.55 1.31,1.3 2.84,2.3 4.6,3.01 1.76,0.71 3.68,1.06 5.77,1.06zm-241.4 -127.64c-0.17,0.02 -0.31,0.02 -0.49,0.02 -1.64,-0.09 -2.97,-1.92 -2.97,-3.69 0,-1.75 1.33,-2.77 2.97,-2.7 0.18,0.02 0.32,0.02 0.49,0.08 -1.41,0.21 -2.49,1.29 -2.49,2.87 0,1.58 1.08,3.16 2.49,3.42zm1.45 -0.11c-0.11,-0.08 -0.21,-0.17 -0.35,-0.25 -0.11,0.12 -0.21,0.21 -0.36,0.31 0.04,-0.17 0.09,-0.31 0.13,-0.44 -0.11,-0.1 -0.21,-0.19 -0.36,-0.29l0.45 0c0.03,-0.17 0.08,-0.3 0.12,-0.43 0.03,0.13 0.09,0.28 0.12,0.42 0.16,0 0.3,0 0.44,-0.02 -0.1,0.09 -0.21,0.21 -0.35,0.3 0.07,0.12 0.13,0.27 0.16,0.4zm2.44 -0.28c-0.11,-0.08 -0.22,-0.14 -0.36,-0.21 -0.1,0.09 -0.21,0.21 -0.35,0.32 0.04,-0.17 0.09,-0.32 0.12,-0.48 -0.1,-0.07 -0.21,-0.13 -0.35,-0.22 0.16,-0.02 0.3,-0.02 0.44,-0.04 0.04,-0.17 0.09,-0.33 0.13,-0.48 0.03,0.14 0.08,0.29 0.15,0.42 0.13,-0.02 0.29,-0.04 0.41,-0.08 -0.11,0.1 -0.21,0.21 -0.35,0.33 0.07,0.17 0.1,0.3 0.16,0.44zm-0.14 -2.99c0.03,0.13 0.08,0.28 0.12,0.42 -0.11,-0.08 -0.21,-0.14 -0.35,-0.21 -0.11,0.11 -0.22,0.21 -0.36,0.32 0.04,-0.13 0.09,-0.3 0.13,-0.47 -0.11,-0.08 -0.22,-0.14 -0.36,-0.21 0.16,-0.02 0.3,-0.04 0.44,-0.08 0.04,-0.13 0.09,-0.3 0.13,-0.47 0.03,0.13 0.09,0.28 0.16,0.41 0.12,-0.01 0.28,-0.03 0.4,-0.07 -0.07,0.15 -0.17,0.26 -0.31,0.36zm2.59 2.45c-0.12,-0.07 -0.25,-0.11 -0.37,-0.19 -0.11,0.12 -0.21,0.23 -0.35,0.34 0.03,-0.13 0.08,-0.3 0.12,-0.47 -0.11,-0.08 -0.21,-0.12 -0.35,-0.19 0.16,-0.02 0.3,-0.08 0.44,-0.1 0.03,-0.17 0.09,-0.32 0.12,-0.49 0.04,0.13 0.11,0.28 0.16,0.42 0.12,-0.04 0.28,-0.08 0.41,-0.12 -0.11,0.12 -0.21,0.23 -0.36,0.38 0.06,0.14 0.11,0.29 0.18,0.42zm-0.16 -2.96c0.04,0.13 0.09,0.28 0.16,0.4 -0.12,-0.04 -0.25,-0.12 -0.37,-0.18 -0.11,0.12 -0.21,0.23 -0.35,0.35 0.03,-0.17 0.08,-0.33 0.12,-0.48 -0.11,-0.07 -0.21,-0.13 -0.35,-0.21 0.16,-0.02 0.3,-0.04 0.44,-0.09 0.03,-0.17 0.09,-0.33 0.12,-0.48 0.04,0.14 0.11,0.27 0.16,0.4 0.12,-0.02 0.28,-0.07 0.41,-0.11 -0.11,0.17 -0.21,0.28 -0.34,0.4zm0 -2.57c0.04,0.13 0.09,0.28 0.16,0.42 -0.12,-0.08 -0.25,-0.12 -0.37,-0.19 -0.11,0.11 -0.21,0.23 -0.35,0.34 0.03,-0.13 0.08,-0.31 0.12,-0.48 -0.11,-0.07 -0.21,-0.11 -0.35,-0.19 0.16,-0.04 0.3,-0.07 0.44,-0.09 0.03,-0.17 0.09,-0.32 0.12,-0.5 0.04,0.14 0.11,0.29 0.16,0.42 0.12,-0.04 0.28,-0.07 0.41,-0.11 -0.11,0.15 -0.21,0.26 -0.34,0.38zm2.58 4.83c-0.12,-0.04 -0.23,-0.1 -0.37,-0.17 -0.11,0.13 -0.21,0.26 -0.35,0.38 0.03,-0.17 0.08,-0.31 0.15,-0.48 -0.12,-0.07 -0.23,-0.11 -0.37,-0.19 0.16,-0.02 0.3,-0.07 0.44,-0.11 0.04,-0.17 0.09,-0.33 0.13,-0.5 0.03,0.14 0.1,0.29 0.16,0.4 0.12,-0.02 0.28,-0.07 0.4,-0.11 -0.1,0.11 -0.21,0.26 -0.35,0.38 0.05,0.15 0.09,0.29 0.16,0.4zm-0.14 -2.93c0.03,0.12 0.09,0.27 0.16,0.4 -0.13,-0.08 -0.23,-0.11 -0.37,-0.17 -0.11,0.11 -0.22,0.23 -0.36,0.38 0.04,-0.17 0.09,-0.32 0.16,-0.49 -0.12,-0.04 -0.23,-0.12 -0.37,-0.18 0.16,-0.03 0.3,-0.09 0.44,-0.13 0.04,-0.13 0.09,-0.3 0.13,-0.47 0.03,0.11 0.1,0.26 0.15,0.4 0.13,-0.04 0.29,-0.1 0.41,-0.14 -0.12,0.13 -0.23,0.25 -0.35,0.4zm0 -2.57c0.03,0.14 0.09,0.29 0.16,0.4 -0.13,-0.04 -0.23,-0.11 -0.37,-0.17 -0.11,0.12 -0.22,0.27 -0.36,0.38 0.04,-0.17 0.09,-0.3 0.16,-0.47 -0.12,-0.08 -0.23,-0.12 -0.37,-0.19 0.16,-0.02 0.3,-0.08 0.44,-0.12 0.04,-0.17 0.09,-0.32 0.13,-0.49 0.03,0.13 0.1,0.28 0.15,0.4 0.13,-0.02 0.29,-0.08 0.41,-0.12 -0.12,0.12 -0.23,0.25 -0.35,0.38zm2.58 4.74c-0.13,-0.04 -0.25,-0.1 -0.38,-0.17 -0.1,0.13 -0.21,0.26 -0.35,0.4 0.04,-0.17 0.09,-0.33 0.16,-0.5 -0.12,-0.04 -0.25,-0.11 -0.37,-0.17 0.16,-0.04 0.3,-0.09 0.44,-0.13 0.04,-0.17 0.09,-0.33 0.12,-0.5 0.08,0.14 0.11,0.29 0.16,0.42 0.13,-0.04 0.29,-0.09 0.44,-0.13 -0.12,0.11 -0.23,0.27 -0.37,0.38 0.04,0.13 0.09,0.25 0.15,0.4zm-0.16 -2.95c0.03,0.11 0.1,0.27 0.16,0.4 -0.13,-0.08 -0.25,-0.11 -0.38,-0.17 -0.1,0.11 -0.21,0.27 -0.35,0.38 0.04,-0.17 0.09,-0.32 0.16,-0.48 -0.12,-0.07 -0.25,-0.11 -0.37,-0.17 0.16,-0.03 0.3,-0.09 0.44,-0.13 0.04,-0.17 0.09,-0.32 0.12,-0.49 0.07,0.13 0.11,0.26 0.16,0.4 0.13,-0.04 0.28,-0.1 0.44,-0.14l-0.38 0.4zm0 -2.57c0.03,0.14 0.1,0.25 0.16,0.4 -0.13,-0.04 -0.25,-0.09 -0.38,-0.17 -0.1,0.13 -0.21,0.27 -0.35,0.4 0.04,-0.17 0.09,-0.32 0.16,-0.49 -0.12,-0.04 -0.25,-0.12 -0.37,-0.17 0.16,-0.04 0.3,-0.1 0.44,-0.14 0.04,-0.17 0.09,-0.32 0.12,-0.49 0.07,0.13 0.11,0.28 0.16,0.42 0.13,-0.04 0.28,-0.1 0.44,-0.14 -0.14,0.12 -0.26,0.27 -0.38,0.38zm-20.98 213.48c-2.29,-4.84 -6.65,-8.19 -6.65,-8.19 4.48,2.17 6.18,5.27 6.18,5.27 1.81,-5.75 7.82,-10.6 7.82,-10.6 -5.81,6.87 -7.35,13.52 -7.35,13.52zm-154.97 74.97l-1.04 -7.32 -2.58 -4.34 0.46 3.21 6.64 47.47c0,0 0.3,2.51 -1.18,2.62l-39.42 7.82 0 2.83 40.53 -8.25c0,0 2.38,-0.49 2.07,-4.03l-5.48 -40.01zm-1.69 33.81l-7.72 -55.24 -2.49 -4.19 8.21 58.31c0,0 0.53,3.21 -1.46,3.06l-31.97 6.24 0 3.02 33.96 -7.09c0.02,0 2.09,-1.05 1.47,-4.11zm-7.26 -6.39l-9.05 -63.34 -2.42 -4.07 9.48 66.29c0,0 0.76,3.52 -1.7,3.4l-24.48 4.89 0 3.14 26.28 -5.65c0.02,0 2.51,-0.44 1.89,-4.66zm320.36 -27.42l1.04 -7.32 2.58 -4.34 -0.46 3.21 -6.64 47.47c0,0 -0.3,2.51 1.18,2.62l39.43 7.82 0 2.83 -40.54 -8.25c0,0 -2.38,-0.49 -2.06,-4.03l5.47 -40.01zm1.69 33.81l7.72 -55.24 2.49 -4.19 -8.21 58.31c0,0 -0.53,3.21 1.46,3.06l31.98 6.24 0 3.02 -33.97 -7.09c-0.02,0 -2.08,-1.05 -1.47,-4.11zm7.26 -6.39l9.06 -63.34 2.42 -4.07 -9.49 66.29c0,0 -0.75,3.52 1.7,3.4l24.49 4.89 0 3.14 -26.29 -5.65c-0.02,0 -2.51,-0.44 -1.89,-4.66zm-263.95 7.84c-1.54,0.38 -3.14,0.79 -4.7,1.23 -10.47,2.61 -20.72,5.63 -20.72,5.63 -0.94,-4.43 -2.02,-8.82 -3.02,-13.14 -1.61,-6.71 -3.37,-13.24 -5.1,-19.57 -4.7,-17.11 -9.8,-32.71 -14.69,-46.27 -1.61,-4.5 -3.14,-8.76 -4.7,-12.72 -3.76,-9.73 -7.24,-18.08 -10.18,-24.81 -1.68,-3.92 -3.24,-7.33 -4.51,-10.05 -2.89,-6.27 -4.62,-9.67 -4.62,-9.67l3.07 -1.16 3.04 -1.18 6.48 -2.55 0.88 -0.32c1.22,3.4 2.4,6.97 3.62,10.78 5.77,17.36 12,38.05 17.58,57.43 0,0.05 0,0.11 0.07,0.11 4.03,14.17 7.79,27.75 10.86,38.85 4.63,16.97 7.71,28.45 7.71,28.45 3.75,-1.54 8.92,-2.34 13.76,-2.74 1.68,-0.15 3.35,-0.21 4.89,-0.21 5.08,-0.26 8.91,-0.05 8.91,-0.05 -2.52,0.53 -5.54,1.23 -8.63,1.96zm18.85 -12.73c-8.31,-0.11 -15.48,0 -20.72,0.27 -1.94,0.06 -3.57,0.11 -4.89,0.21 -2.35,0.11 -3.71,0.25 -3.71,0.25 -1.2,-5.99 -2.4,-11.81 -3.74,-17.48 -13.01,-58.76 -27.44,-96.36 -34.96,-113.72 -3.28,-7.51 -5.22,-11.22 -5.22,-11.22l3.37 -1.24 9.04 -3.25c13.34,44.18 21.99,75.12 27.56,96.53 0,0.15 0,0.27 0.08,0.32 3.75,14.78 6.16,24.95 7.58,31.86 2.19,10.38 2.35,13.52 2.35,13.52 0.6,-0.06 1.27,-0.13 1.88,-0.13 7.03,-0.65 14.09,-0.73 20.73,-0.38 26.01,1.31 47.49,8.23 50.3,9.2 -16.58,-3.5 -34.83,-4.6 -49.65,-4.74zm157.34 0.06c-14.09,0.27 -30.79,1.45 -46.01,4.64 2.69,-0.91 22.26,-7.32 46.66,-8.94 6.45,-0.53 13.3,-0.64 20.27,-0.11 1.61,0 3.23,0.11 4.89,0.32 0.34,0 0.6,0 0.94,0.06 0,0 0.21,-3.14 2.34,-13.52 3.62,-17.1 12.63,-53.91 35.29,-128.71l5.23 1.89 7.19 2.62c0,0 -4.72,8.94 -11.67,27.1 0,0.06 0,0.06 0,0.06 -7.91,20.63 -18.65,53.05 -28.57,97.7 -1.22,5.69 -2.49,11.49 -3.69,17.56 0,0 -2.82,-0.19 -7.66,-0.38 -1.47,-0.12 -3.14,-0.12 -4.96,-0.2 -5.49,-0.22 -12.47,-0.34 -20.25,-0.09zm94.11 -115.79c-1.27,2.49 -4.97,10.11 -9.93,21.73 -1.47,3.41 -3.02,7.14 -4.63,11.17 -3.35,8.17 -6.9,17.64 -10.65,28.2 -1.6,4.62 -3.23,9.53 -4.89,14.57 -2.75,8.48 -5.43,17.47 -8.05,26.94 -2.89,10.39 -5.63,21.34 -8.12,32.71 0,0 -0.86,-0.27 -2.4,-0.65 -4.22,-1.23 -13.54,-3.84 -22.14,-5.95 -1.6,-0.38 -3.23,-0.78 -4.74,-1.18 -1.68,-0.38 -3.29,-0.7 -4.77,-1.04 0,0 1.94,-0.12 4.89,-0.06 1.39,0 3.09,0 4.96,0.11 5.77,0.21 12.89,0.92 17.8,2.93 0,0 3.01,-11.48 7.69,-28.45 0.67,-2.49 1.34,-5.09 2.1,-7.75 5.42,-19.67 12.49,-44.6 19.51,-67.3 1.73,-5.69 3.5,-11.24 5.23,-16.53 1.73,-5.48 3.56,-10.78 5.22,-15.59l3.57 1.37 3.02 1.17 6.51 2.55 0.34 0.12c-0.06,0 -0.18,0.34 -0.52,0.93zm-23.83 -77.97c0.25,-0.02 0.46,-0.1 0.64,-0.21 0.17,-0.11 0.3,-0.27 0.39,-0.46 0.08,-0.19 0.15,-0.41 0.21,-0.66 0.03,-0.21 0.05,-0.42 0.03,-0.61 -0.01,-0.21 -0.08,-0.4 -0.21,-0.57 -0.12,-0.19 -0.3,-0.34 -0.55,-0.5 -0.24,-0.15 -0.58,-0.26 -0.97,-0.36 -0.63,-0.15 -0.95,-0.23 -1.6,-0.38 -0.27,1.3 -0.39,1.94 -0.66,3.24 0.73,0.17 1.08,0.24 1.8,0.41 0.36,0.1 0.67,0.12 0.92,0.1zm-25.24 -7.93c-0.82,1.56 -1.24,2.36 -2.05,3.92 1.07,0.21 1.6,0.3 2.68,0.53 -0.25,-1.79 -0.37,-2.68 -0.63,-4.45zm-22.32 -1.54c0.25,-0.04 0.46,-0.13 0.62,-0.25 0.16,-0.13 0.28,-0.28 0.35,-0.49 0.09,-0.19 0.14,-0.42 0.18,-0.69 0.03,-0.21 0.03,-0.42 -0.02,-0.61 -0.03,-0.21 -0.12,-0.38 -0.25,-0.55 -0.12,-0.17 -0.31,-0.32 -0.58,-0.44 -0.26,-0.13 -0.58,-0.22 -0.99,-0.28 -0.65,-0.1 -0.97,-0.15 -1.6,-0.25 -0.18,1.31 -0.27,1.96 -0.45,3.27 0.73,0.12 1.1,0.17 1.82,0.29 0.36,0.04 0.67,0.04 0.92,0zm-11.37 -4.15c-0.74,1.62 -1.11,2.42 -1.85,4.03 1.07,0.16 1.62,0.23 2.7,0.39 -0.35,-1.77 -0.51,-2.65 -0.85,-4.42zm-20.42 -2.53c-0.71,1.64 -1.05,2.46 -1.75,4.09 1.07,0.12 1.62,0.17 2.7,0.29 -0.37,-1.75 -0.57,-2.63 -0.95,-4.38zm-42.73 -3.17c-0.6,1.67 -0.9,2.51 -1.5,4.2 1.1,0.04 1.63,0.06 2.72,0.12 -0.5,-1.74 -0.74,-2.59 -1.22,-4.32zm-18.32 5.68c0.49,-0.7 0.74,-1.71 0.76,-3.02 0.01,-1.31 -0.22,-2.32 -0.69,-3.04 -0.48,-0.72 -1.22,-1.09 -2.21,-1.09 -0.99,0 -1.73,0.35 -2.22,1.07 -0.5,0.7 -0.73,1.73 -0.75,3.02 0,1.32 0.23,2.34 0.71,3.05 0.48,0.7 1.2,1.06 2.19,1.08 0.99,-0.02 1.73,-0.36 2.21,-1.07zm-44.7 -5.07c-0.46,1.73 -0.69,2.6 -1.13,4.33 1.07,-0.07 1.62,-0.09 2.71,-0.15 -0.63,-1.67 -0.95,-2.51 -1.58,-4.18zm-34.98 3.06c-0.37,1.75 -0.56,2.62 -0.92,4.39 1.08,-0.13 1.63,-0.19 2.7,-0.3 -0.7,-1.66 -1.05,-2.48 -1.78,-4.09zm-56.17 9.03c-0.25,1.79 -0.36,2.68 -0.59,4.45 1.08,-0.23 1.61,-0.34 2.69,-0.55 -0.83,-1.56 -1.26,-2.34 -2.1,-3.9zm-42.57 16.68c0.3,-0.82 0.3,-1.86 0,-3.14 -0.3,-1.27 -0.78,-2.19 -1.41,-2.74 -0.64,-0.55 -1.45,-0.7 -2.42,-0.42 -0.97,0.29 -1.61,0.84 -1.91,1.66 -0.3,0.84 -0.28,1.86 0.02,3.14 0.32,1.27 0.79,2.18 1.43,2.74 0.64,0.55 1.43,0.68 2.38,0.41 0.96,-0.26 1.61,-0.83 1.91,-1.65zm262.98 -43.32c-0.76,1.62 -1.15,2.41 -1.89,4.03 1.11,0.15 1.66,0.23 2.77,0.4 -0.35,-1.79 -0.53,-2.66 -0.88,-4.43zm-34.78 -2.47c0.27,-0.23 0.41,-0.55 0.44,-1.01 0.04,-0.5 -0.09,-0.84 -0.39,-1.08 -0.3,-0.23 -0.81,-0.38 -1.53,-0.44 -0.71,-0.06 -1.04,-0.1 -1.75,-0.15 -0.07,1.1 -0.12,1.65 -0.19,2.75 0.84,0.08 1.25,0.12 2.1,0.17 0.62,0.06 1.07,-0.03 1.32,-0.24zm-0.81 5.4c0.26,-0.06 0.49,-0.15 0.65,-0.29 0.18,-0.13 0.3,-0.3 0.37,-0.49 0.09,-0.19 0.13,-0.42 0.15,-0.67 0.03,-0.51 -0.08,-0.91 -0.32,-1.2 -0.25,-0.28 -0.71,-0.45 -1.4,-0.51 -0.9,-0.08 -1.36,-0.11 -2.26,-0.19 -0.09,1.29 -0.14,1.92 -0.23,3.21 0.8,0.06 1.2,0.1 2.02,0.18 0.44,0.03 0.75,0.01 1.02,-0.04zm-21.36 -5.88c0.28,-0.07 0.51,-0.19 0.67,-0.32 0.18,-0.15 0.28,-0.32 0.35,-0.55 0.07,-0.23 0.11,-0.48 0.12,-0.74 0.02,-0.29 0,-0.54 -0.05,-0.75 -0.05,-0.21 -0.16,-0.4 -0.31,-0.55 -0.16,-0.15 -0.38,-0.26 -0.64,-0.36 -0.27,-0.09 -0.62,-0.15 -1.04,-0.17 -0.69,-0.04 -1.03,-0.06 -1.71,-0.1 -0.06,1.41 -0.09,2.12 -0.15,3.52 0.69,0.04 1.05,0.06 1.73,0.1 0.41,0.02 0.76,0 1.03,-0.08zm-30.67 -1.12c0.25,-0.08 0.44,-0.19 0.6,-0.34 0.14,-0.15 0.25,-0.33 0.3,-0.53 0.06,-0.21 0.09,-0.44 0.09,-0.71 0,-0.21 -0.03,-0.42 -0.09,-0.61 -0.07,-0.19 -0.17,-0.36 -0.33,-0.51 -0.16,-0.15 -0.37,-0.27 -0.66,-0.36 -0.28,-0.08 -0.61,-0.14 -1.04,-0.14 -0.67,0 -1,0 -1.68,0 0,1.34 0,1.98 0,3.31 0.75,0 1.13,0 1.88,0 0.37,0 0.69,-0.03 0.93,-0.11zm-25.49 4.09c0.48,-0.72 0.69,-1.75 0.65,-3.06 -0.03,-1.32 -0.31,-2.3 -0.83,-3.01 -0.51,-0.7 -1.29,-1.03 -2.31,-0.99 -1.02,0.04 -1.77,0.42 -2.24,1.16 -0.48,0.74 -0.69,1.75 -0.64,3.06 0.05,1.32 0.34,2.32 0.85,3.01 0.51,0.68 1.27,1.01 2.28,0.97 1.02,-0.04 1.76,-0.42 2.24,-1.14zm-57.57 -0.17c0.21,-0.27 0.3,-0.63 0.24,-1.09 -0.05,-0.47 -0.24,-0.82 -0.56,-0.97 -0.34,-0.17 -0.86,-0.21 -1.59,-0.11 -0.7,0.09 -1.04,0.13 -1.75,0.23 0.13,1.1 0.18,1.63 0.3,2.74 0.83,-0.12 1.26,-0.16 2.11,-0.27 0.61,-0.08 1.04,-0.27 1.25,-0.53zm0.18 5.47c0.24,-0.11 0.45,-0.24 0.6,-0.41 0.14,-0.18 0.23,-0.37 0.28,-0.58 0.03,-0.2 0.05,-0.43 0.03,-0.68 -0.05,-0.51 -0.23,-0.88 -0.53,-1.1 -0.3,-0.23 -0.77,-0.31 -1.46,-0.23 -0.9,0.11 -1.34,0.17 -2.24,0.28 0.14,1.28 0.21,1.92 0.35,3.2 0.79,-0.1 1.2,-0.15 1.99,-0.25 0.41,-0.04 0.73,-0.11 0.98,-0.23zm-23.7 2.53c0.39,-0.78 0.5,-1.82 0.32,-3.12 -0.18,-1.29 -0.56,-2.26 -1.15,-2.87 -0.6,-0.62 -1.39,-0.85 -2.4,-0.7 -1,0.15 -1.71,0.65 -2.1,1.43 -0.39,0.78 -0.49,1.82 -0.3,3.11 0.19,1.3 0.58,2.27 1.17,2.88 0.58,0.62 1.37,0.83 2.38,0.68 0.99,-0.15 1.69,-0.63 2.08,-1.41z"/>
 </g>
</svg>
