<svg width="38" height="38" viewBox="0 0 38 38" fill="none" xmlns="http://www.w3.org/2000/svg">
<g id="Frame">
<g id="Group">
<path id="Vector" d="M11.5058 26.3561L9.99934 26.4296L7.07854 34.8212C6.98547 35.0885 7.20204 35.3618 7.48355 35.3323L11.5777 34.9036C11.6342 34.8977 11.6912 34.9043 11.7449 34.923C11.7985 34.9416 11.8474 34.9719 11.888 35.0116L14.8311 37.8897C15.0335 38.0876 15.3729 38.0078 15.4659 37.7406L18.4058 29.2941L17.5389 28.4527L11.5058 26.3561Z" fill="#FF4755"/>
<path id="Vector_2" d="M18.4055 29.294L18.9995 27.5874L10.5913 24.728L9.99902 26.4296C12.3866 28.1333 15.2776 29.1763 18.4055 29.294Z" fill="#FC2B3A"/>
<path id="Vector_3" d="M26.4936 26.3561L28.0001 26.4296L30.9209 34.8212C31.014 35.0885 30.7974 35.3618 30.5159 35.3323L26.4218 34.9036C26.3653 34.8977 26.3083 34.9043 26.2546 34.923C26.201 34.9416 26.1522 34.9719 26.1116 35.0116L23.1684 37.8897C22.9661 38.0876 22.6266 38.0078 22.5336 37.7406L19.5938 29.2941L20.4606 28.4527L26.4936 26.3561Z" fill="#FF4755"/>
<path id="Vector_4" d="M19.594 29.294L19 27.5874L27.4082 24.728L28.0005 26.4296C25.6129 28.1333 22.7219 29.1763 19.594 29.294Z" fill="#FC2B3A"/>
<path id="Vector_5" d="M18.9998 26.7274C5.20608 26.7274 5.21187 13.3287 5.2233 13.0984C5.58541 5.80346 11.6149 0 18.9998 0C26.3847 0 32.4142 5.80346 32.7763 13.0985C32.7877 13.3288 32.7935 26.7274 18.9998 26.7274Z" fill="#FFE27A"/>
<path id="Vector_6" d="M18.9998 26.1969C11.6148 26.1969 5.58561 20.3935 5.22342 13.0984C5.21189 13.33 5.2061 13.5618 5.20605 13.7937C5.20605 21.4117 11.3817 27.5874 18.9998 27.5874C26.6178 27.5874 32.7935 21.4117 32.7935 13.7937C32.7935 13.5605 32.7875 13.3288 32.7761 13.0984C32.4139 20.3935 26.3847 26.1969 18.9998 26.1969Z" fill="#F9CF58"/>
<path id="Vector_7" d="M18.9999 23.7593C8.15525 23.7593 8.14071 13.0954 8.15526 12.8655C8.51381 7.18807 13.232 2.69427 18.9999 2.69427C24.7677 2.69427 29.4859 7.18807 29.8445 12.8655C29.859 13.0954 29.8445 23.7593 18.9999 23.7593Z" fill="#FFBA57"/>
<path id="Vector_8" d="M18.9993 23.2698C13.2316 23.2698 8.51415 18.7758 8.1556 13.0984C8.14068 13.3299 8.13308 13.5617 8.13281 13.7937C8.13281 19.7951 12.9979 24.6602 18.9993 24.6602C25.0007 24.6602 29.8658 19.7951 29.8658 13.7937C29.8658 13.56 29.8576 13.3284 29.8431 13.0984C29.4845 18.7758 24.7671 23.2698 18.9993 23.2698Z" fill="#FFAC3E"/>
<path id="Vector_9" d="M19.6193 20.2484C18.8648 20.2484 18.2532 19.6368 18.2532 18.8823V11.2266C18.2532 11.2266 17.4358 12.0463 16.4578 11.5545C15.6953 11.171 15.6953 10.1839 15.6953 10.1839L17.3796 7.34091C17.5005 7.13683 17.6724 6.96775 17.8785 6.8503C18.0846 6.73285 18.3177 6.67109 18.5549 6.67108H19.6193C20.3737 6.67108 20.9853 7.28264 20.9853 8.03715V18.8823C20.9853 19.6368 20.3737 20.2484 19.6193 20.2484Z" fill="#FFE27A"/>
<g id="Group_2">
<path id="Vector_10" d="M18.0659 10.1531C17.7033 10.7652 16.9324 11.0306 16.2895 10.726C16.0415 10.6095 15.8344 10.4209 15.6953 10.1849C15.3159 10.8266 15.5213 11.6521 16.1529 12.0422C16.8042 12.4444 17.6746 12.2042 18.0647 11.5456L18.2537 11.2265V10.2044C18.2537 10.1019 18.1182 10.0648 18.0659 10.1531ZM19.6196 19.5259C18.8652 19.5259 18.2536 18.9143 18.2536 18.1598V19.5503C18.2536 20.3048 18.8652 20.9163 19.6196 20.9163C20.3741 20.9163 20.9857 20.3048 20.9857 19.5503V18.1598C20.9857 18.9143 20.3741 19.5259 19.6196 19.5259Z" fill="#F9CF58"/>
</g>
</g>
</g>
</svg>
