<svg width="38" height="38" viewBox="0 0 38 38" fill="none" xmlns="http://www.w3.org/2000/svg">
<g id="Frame">
<g id="Group">
<path id="Vector" d="M16.9065 28.4098L10.7813 26.2915L9.42988 26.4292L6.5092 34.8207C6.41613 35.0879 6.6327 35.3613 6.91421 35.3317L11.0083 34.903C11.0647 34.8971 11.1218 34.9037 11.1755 34.9224C11.2291 34.9411 11.278 34.9713 11.3186 35.011L14.2617 37.8891C14.464 38.087 14.8035 38.0072 14.8964 37.7399L17.8363 29.2936L16.9065 28.4098Z" fill="#98DB7C"/>
<path id="Vector_2" d="M17.836 29.2936L18.43 27.587L10.0219 24.7277L9.42969 26.4292C11.8173 28.1329 14.7082 29.1758 17.836 29.2936Z" fill="#82D361"/>
<path id="Vector_3" d="M19.9541 28.4098L26.0792 26.2915L27.4307 26.4292L30.3514 34.8207C30.4444 35.0879 30.2279 35.3613 29.9464 35.3317L25.8524 34.903C25.7959 34.8971 25.7388 34.9037 25.6852 34.9224C25.6316 34.9411 25.5827 34.9713 25.5421 35.011L22.599 37.8891C22.3967 38.087 22.0572 38.0072 21.9642 37.7399L19.0244 29.2936L19.9541 28.4098Z" fill="#98DB7C"/>
<path id="Vector_4" d="M19.0247 29.2936L18.4307 27.587L26.8388 24.7277L27.431 26.4292C25.0434 28.1329 22.1525 29.1758 19.0247 29.2936Z" fill="#82D361"/>
<path id="Vector_5" d="M18.4302 26.6766C4.65393 26.6766 4.6425 13.3286 4.65393 13.0983C5.01603 5.80337 11.0454 0 18.4302 0C25.8101 0 31.8363 5.79565 32.2057 13.0837C32.2177 13.3188 32.2057 26.6766 18.4302 26.6766Z" fill="#E0E0E0"/>
<path id="Vector_6" d="M18.4302 26.1965C11.0454 26.1965 5.01627 20.3932 4.65409 13.0983C4.64255 13.3298 4.63676 13.5616 4.63672 13.7935C4.63672 21.4114 10.8123 27.5869 18.4302 27.5869C26.0481 27.5869 32.2237 21.4114 32.2237 13.7935C32.2237 13.5603 32.2177 13.3286 32.2063 13.0983C31.8441 20.3932 25.815 26.1965 18.4302 26.1965Z" fill="#CECECE"/>
<path id="Vector_7" d="M18.4295 23.7964C7.56313 23.7964 7.57047 13.3281 7.58502 13.0982C7.94357 7.42085 12.6617 2.92712 18.4295 2.92712C24.1972 2.92712 28.9154 7.42085 29.2739 13.0982C29.2885 13.3281 29.2739 23.7964 18.4295 23.7964Z" fill="#9E9E9E"/>
<path id="Vector_8" d="M18.4308 23.2695C12.6631 23.2695 7.94578 18.7756 7.58724 13.0984C7.57232 13.3298 7.56472 13.5617 7.56445 13.7936C7.56445 19.7949 12.4295 24.6599 18.4308 24.6599C24.4321 24.6599 29.2971 19.7949 29.2971 13.7936C29.2971 13.5599 29.2889 13.3283 29.2743 13.0984C28.9158 18.7756 24.1985 23.2695 18.4308 23.2695Z" fill="#898989"/>
<path id="Vector_9" d="M21.5584 20.248H15.3299C14.5755 20.248 13.9929 18.9347 14.0497 18.6345C14.2082 17.7961 14.581 17.0129 15.1319 16.3612L19.5144 11.1817C19.9244 10.6971 19.7415 10.1749 19.6756 10.0263C19.5955 9.8457 19.3465 9.42348 18.7664 9.40388C18.7492 9.40329 18.732 9.40299 18.7147 9.40299C17.8999 9.40299 17.2371 10.0659 17.2371 10.8807C17.2371 11.6352 16.6254 12.2468 15.871 12.2468C15.1166 12.2468 14.505 11.6352 14.505 10.8807C14.505 8.55951 16.3934 6.6709 18.7147 6.6709C18.7628 6.6709 18.8106 6.67171 18.8581 6.67335C20.3106 6.72233 21.5806 7.58281 22.1731 8.9188C22.7744 10.2748 22.5548 11.818 21.5999 12.9464L17.2175 18.1259C17.2014 18.145 17.1856 18.1643 17.1702 18.1839H21.5585C22.0587 18.1839 22.4961 18.4528 22.7341 18.8539C22.855 19.0577 22.3128 20.248 21.5584 20.248Z" fill="#E0E0E0"/>
<path id="Vector_10" d="M21.5584 19.5255H15.3299C14.7429 19.5255 14.2437 19.1545 14.0506 18.6348C13.9932 18.9365 13.9642 19.2428 13.9639 19.5499C13.9639 20.3044 14.5755 20.916 15.3299 20.916H21.5584C22.3128 20.916 22.9244 20.3044 22.9244 19.5499C22.9244 19.2957 22.8537 19.0585 22.7328 18.8547C22.4948 19.2558 22.0586 19.5255 21.5584 19.5255Z" fill="#CECECE"/>
</g>
</g>
</svg>
