<svg width="38" height="38" viewBox="0 0 38 38" fill="none" xmlns="http://www.w3.org/2000/svg">
<g id="Frame" clip-path="url(#clip0_344_1660)">
<g id="Group">
<path id="Vector" d="M17.3661 28.3378L11.6701 26.4392L10.0003 26.4298L7.07951 34.8214C6.98644 35.0887 7.20301 35.362 7.48453 35.3325L11.5787 34.9038C11.6352 34.8979 11.6923 34.9045 11.7459 34.9232C11.7995 34.9418 11.8484 34.9721 11.889 35.0118L14.8322 37.8899C15.0345 38.0878 15.374 38.008 15.467 37.7408L18.4069 29.2942L17.3661 28.3378Z" fill="#0083FD"/>
<path id="Vector_2" d="M18.4065 29.2943L19.0006 27.5876L10.5923 24.7283L10 26.4299C12.3876 28.1336 15.2786 29.1765 18.4065 29.2943Z" fill="#0072FC"/>
<path id="Vector_3" d="M20.6354 28.3378L26.3314 26.4392L28.0012 26.4298L30.922 34.8215C31.0151 35.0888 30.7985 35.3621 30.517 35.3326L26.4228 34.9039C26.3664 34.898 26.3093 34.9046 26.2557 34.9232C26.202 34.9419 26.1532 34.9722 26.1126 35.0119L23.1694 37.89C22.9671 38.0879 22.6276 38.0081 22.5346 37.7408L19.5947 29.2943L20.6354 28.3378Z" fill="#0083FD"/>
<path id="Vector_4" d="M19.595 29.2943L19.001 27.5876L27.4093 24.7283L28.0016 26.4299C25.6139 28.1336 22.7229 29.1765 19.595 29.2943Z" fill="#0072FC"/>
<path id="Vector_5" d="M19.0008 26.4299C5.22424 26.4299 5.21281 13.3289 5.22424 13.0986C5.58635 5.8035 11.6159 0 19.0008 0C26.3858 0 32.4153 5.8035 32.7774 13.0986C32.7888 13.3289 32.7774 26.4299 19.0008 26.4299Z" fill="#FF9838"/>
<path id="Vector_6" d="M19.0008 26.1972C11.6159 26.1972 5.58659 20.3936 5.2244 13.0986C5.21286 13.3302 5.20707 13.562 5.20703 13.7938C5.20703 21.4119 11.3827 27.5877 19.0008 27.5877C26.6189 27.5877 32.7946 21.4119 32.7946 13.7938C32.7946 13.5607 32.7887 13.3289 32.7773 13.0986C32.4151 20.3936 26.3858 26.1972 19.0008 26.1972Z" fill="#FF8709"/>
<path id="Vector_7" d="M29.867 13.7938C29.867 18.4469 25.0018 23.9925 19.0004 23.9925C12.9989 23.9925 8.13379 18.1418 8.13379 13.7938C8.13379 13.5603 8.14114 13.3285 8.15568 13.0986C8.51416 7.42108 13.2325 2.92725 19.0004 2.92725C24.7683 2.92725 29.4866 7.42108 29.8451 13.0986C29.8596 13.3285 29.867 13.5603 29.867 13.7938Z" fill="#CE7430"/>
<path id="Vector_8" d="M19.0004 23.2699C13.2326 23.2699 8.51513 18.776 8.15657 13.0986C8.14165 13.3301 8.13406 13.5619 8.13379 13.7938C8.13379 19.7953 12.9989 24.6604 19.0004 24.6604C25.0018 24.6604 29.867 19.7953 29.867 13.7938C29.867 13.5602 29.8587 13.3286 29.8442 13.0986C29.4856 18.776 24.7682 23.2699 19.0004 23.2699Z" fill="#BC672E"/>
<path id="Vector_9" d="M19.0148 20.2485C16.6745 20.2485 15.1853 18.6352 14.8987 16.7211C14.8726 16.547 14.8644 16.1733 14.8644 16.1733C15.0637 15.6655 15.5581 15.306 16.1365 15.306C16.891 15.306 17.5026 15.9176 17.5026 16.6721C17.5026 17.5059 18.181 18.1843 19.0148 18.1843C19.8487 18.1843 20.5271 17.5059 20.5271 16.6721C20.5274 16.4299 20.4692 16.1912 20.3574 15.9764C20.3574 15.9764 20.2548 14.6882 19.088 14.6882C17.9176 14.6882 17.8392 13.0978 17.8392 13.0978C18.0772 12.6967 18.5146 12.4278 19.0149 12.4278C19.8487 12.4278 20.5272 11.7494 20.5272 10.9156C20.5272 10.0817 19.8487 9.40335 19.0149 9.40335C18.181 9.40335 17.5027 10.0817 17.5027 10.9156C17.5027 11.6701 16.891 12.2816 16.1366 12.2816C15.3821 12.2816 14.7705 11.6701 14.7705 10.9156C14.7705 8.57529 16.6745 6.67126 19.0148 6.67126C21.3552 6.67126 23.2592 8.57529 23.2592 10.9156C23.2592 12.0253 22.8312 13.0368 22.1315 13.7939C22.6821 14.3896 23.0644 15.1427 23.2024 15.9773C23.2024 15.9773 23.2066 16.4354 23.1669 16.6687C22.8283 18.6594 21.3552 20.2485 19.0148 20.2485Z" fill="#FFAA5C"/>
<g id="Group_2">
<path id="Vector_10" d="M19.0149 13.7694C18.5146 13.7694 18.0785 13.4997 17.8405 13.0986C17.7151 13.3088 17.6489 13.5491 17.6489 13.7938C17.6489 14.5484 18.2604 15.1599 19.015 15.1599C19.5981 15.1599 20.1043 15.4923 20.3565 15.977C20.4686 15.7624 20.5272 15.5239 20.5273 15.2818C20.5272 14.4478 19.8487 13.7694 19.0149 13.7694ZM19.0149 19.526C16.9806 19.526 15.2767 18.0871 14.8657 16.1738C14.803 16.3325 14.7707 16.5016 14.7705 16.6722C14.7705 19.0126 16.6745 20.9166 19.0149 20.9166C21.3552 20.9166 23.2593 19.0126 23.2593 16.6722C23.2593 16.4355 23.2387 16.2037 23.2013 15.9775C22.8682 17.9878 21.1183 19.526 19.0149 19.526Z" fill="#EA9957"/>
</g>
</g>
</g>
<defs>
<clipPath id="clip0_344_1660">
<rect width="38" height="38" fill="white"/>
</clipPath>
</defs>
</svg>
