<?xml version="1.0" encoding="UTF-8"?>
<!DOCTYPE svg PUBLIC "-//W3C//DTD SVG 1.1//EN" "http://www.w3.org/Graphics/SVG/1.1/DTD/svg11.dtd">
<!-- Creator: CorelDRAW -->
<svg xmlns="http://www.w3.org/2000/svg" xml:space="preserve" width="142px" height="150px" version="1.1" style="shape-rendering:geometricPrecision; text-rendering:geometricPrecision; image-rendering:optimizeQuality; fill-rule:evenodd; clip-rule:evenodd"
viewBox="0 0 8.84 9.36"
 xmlns:xlink="http://www.w3.org/1999/xlink"
 xmlns:xodm="http://www.corel.com/coreldraw/odm/2003">
 <defs>
  <style type="text/css">
   <![CDATA[
    .fil0 {fill:#0A2177;fill-rule:nonzero}
    .fil1 {fill:#67992F;fill-rule:nonzero}
   ]]>
  </style>
 </defs>
 <g id="Layer_x0020_1">
  <metadata id="CorelCorpID_0Corel-Layer"/>
  <g id="_2714004042240">
   <g>
    <g>
     <path class="fil0" d="M1.97 2.33c-0.02,-0.01 -0.03,-0.02 -0.04,-0.03 -0.02,-0.01 -0.03,-0.02 -0.04,-0.04 0,-0.01 -0.01,-0.03 -0.01,-0.05 -0.01,-0.03 -0.01,-0.05 0,-0.06 0,-0.02 0.01,-0.04 0.02,-0.05 0,-0.02 0.02,-0.03 0.03,-0.04 0.02,-0.01 0.03,-0.01 0.05,-0.02 0.02,0 0.04,0 0.06,0.01 0.01,0 0.03,0.01 0.04,0.02 0.01,0.01 0.02,0.02 0.03,0.04 0.01,0.01 0.01,0.03 0.02,0.06 0,0.02 0,0.04 0,0.06 -0.01,0.01 -0.01,0.03 -0.02,0.04 -0.01,0.02 -0.02,0.03 -0.04,0.04 -0.01,0.01 -0.03,0.01 -0.05,0.02 -0.02,0 -0.03,0 -0.05,0zm0.09 -0.08c0.01,-0.02 0.01,-0.05 0.01,-0.08 0,-0.02 -0.01,-0.05 -0.03,-0.06 -0.01,-0.02 -0.03,-0.02 -0.05,-0.02 -0.02,0.01 -0.04,0.02 -0.05,0.04 -0.01,0.01 -0.01,0.04 -0.01,0.07 0.01,0.03 0.02,0.05 0.03,0.06 0.01,0.02 0.03,0.02 0.06,0.02 0.02,0 0.03,-0.02 0.04,-0.03z"/>
     <path class="fil0" d="M2.2 2.02c0,0.04 0,0.06 0,0.1 -0.02,0 -0.03,0 -0.05,0 0,-0.04 0,-0.06 0.01,-0.1 0.01,0 0.02,0 0.04,0z"/>
     <path class="fil0" d="M2.36 2.04c-0.05,0.01 -0.08,0.01 -0.13,0.02 0,-0.02 0,-0.03 0,-0.05 0.07,-0.01 0.11,-0.01 0.19,-0.02 0,0.01 0.01,0.02 0.01,0.04 -0.05,0.08 -0.07,0.12 -0.11,0.19 0.05,0 0.08,-0.01 0.13,-0.01 0,0.02 0,0.03 0,0.05 -0.07,0.01 -0.11,0.01 -0.19,0.02 0,-0.01 0,-0.02 -0.01,-0.04 0.05,-0.08 0.07,-0.12 0.11,-0.2z"/>
     <path class="fil0" d="M2.56 1.97c0.02,0 0.03,0 0.04,0 0.02,0 0.03,0 0.04,0.01 0,0.01 0.01,0.01 0.01,0.02 0.01,0.01 0.01,0.02 0.01,0.03 0,0.01 0,0.02 0,0.03 -0.01,0.01 -0.01,0.02 -0.02,0.03 0,0 0.01,0 0.02,0.01 0,0 0.01,0.01 0.01,0.01 0,0.01 0.01,0.01 0.01,0.02 0,0 0,0.01 0,0.01 0,0.02 0,0.03 0,0.04 0,0.01 -0.01,0.02 -0.02,0.02 0,0.01 -0.01,0.02 -0.02,0.03 -0.02,0 -0.03,0.01 -0.05,0.01 -0.04,0 -0.06,0.01 -0.1,0.01 -0.01,-0.11 -0.02,-0.16 -0.03,-0.27 0.04,0 0.06,-0.01 0.1,-0.01zm0.04 0.09c0.01,0 0.01,-0.01 0.01,-0.02 0,-0.01 -0.01,-0.02 -0.02,-0.02 0,-0.01 -0.01,-0.01 -0.03,-0.01 -0.02,0.01 -0.03,0.01 -0.04,0.01 0,0.02 0,0.04 0.01,0.06 0.01,0 0.02,0 0.04,0 0.02,-0.01 0.03,-0.01 0.03,-0.02zm0.01 0.13c0,0 0.01,-0.01 0.01,-0.01 0,-0.01 0.01,-0.01 0.01,-0.01 0,-0.01 0,-0.01 0,-0.02 0,-0.01 -0.01,-0.02 -0.01,-0.03 -0.01,0 -0.02,0 -0.04,0 -0.02,0 -0.03,0 -0.05,0.01 0,0.03 0.01,0.04 0.01,0.07 0.02,0 0.03,0 0.04,-0.01 0.01,0 0.02,0 0.03,0z"/>
     <path class="fil0" d="M2.88 1.93c0,0.02 0,0.03 0.01,0.05 -0.05,0 -0.08,0.01 -0.13,0.01 0,0.03 0,0.04 0.01,0.06 0.04,0 0.07,-0.01 0.11,-0.01 0.01,0.02 0.01,0.03 0.01,0.05 -0.05,0 -0.07,0.01 -0.12,0.01 0,0.03 0,0.04 0.01,0.07 0.05,-0.01 0.08,-0.01 0.13,-0.02 0,0.02 0,0.03 0,0.05 -0.07,0.01 -0.11,0.01 -0.18,0.02 -0.01,-0.11 -0.02,-0.16 -0.03,-0.27 0.07,-0.01 0.11,-0.01 0.18,-0.02z"/>
     <path class="fil0" d="M2.98 1.92c0.01,0.04 0.01,0.07 0.01,0.11 0.04,-0.05 0.06,-0.07 0.09,-0.12 0.03,0 0.04,0 0.06,0 -0.03,0.04 -0.05,0.06 -0.08,0.11 0.05,0.06 0.07,0.09 0.11,0.16 -0.02,0 -0.03,0 -0.06,0 -0.03,-0.05 -0.05,-0.07 -0.08,-0.12 -0.01,0.01 -0.02,0.02 -0.03,0.03 0,0.04 0,0.06 0.01,0.1 -0.02,0 -0.04,0.01 -0.06,0.01 -0.01,-0.11 -0.01,-0.17 -0.02,-0.27 0.02,-0.01 0.03,-0.01 0.05,-0.01z"/>
     <path class="fil0" d="M3.23 1.9c0.01,0.11 0.02,0.16 0.02,0.27 -0.02,0 -0.03,0 -0.05,0 -0.01,-0.1 -0.01,-0.16 -0.02,-0.27 0.02,0 0.03,0 0.05,0z"/>
     <path class="fil0" d="M3.36 2.11c0.01,0.01 0.02,0.01 0.04,0.01 0.01,0 0.02,0 0.02,-0.01 0.01,0 0.01,0 0.01,0 0.01,-0.01 0.01,-0.01 0.01,-0.02 0,0 0,0 0,-0.01 0,-0.01 0,-0.01 -0.01,-0.02 0,-0.01 -0.01,-0.01 -0.02,-0.01 -0.02,0 -0.03,0 -0.04,-0.01 -0.01,0 -0.03,0 -0.04,0 -0.01,-0.01 -0.02,-0.01 -0.02,-0.02 -0.01,0 -0.02,-0.01 -0.02,-0.02 0,-0.01 -0.01,-0.02 -0.01,-0.03 0,-0.02 0,-0.03 0.01,-0.04 0,-0.01 0.01,-0.02 0.02,-0.02 0,-0.01 0.02,-0.02 0.03,-0.02 0.01,-0.01 0.02,-0.01 0.04,-0.01 0.02,0 0.03,0 0.05,0 0.01,0.01 0.02,0.01 0.03,0.02 0.01,0.01 0.02,0.02 0.02,0.03 0,0 0.01,0.01 0.01,0.03 -0.02,0 -0.03,0 -0.05,0.01 -0.01,-0.02 -0.01,-0.03 -0.02,-0.04 -0.01,0 -0.02,0 -0.04,0 -0.01,0 -0.01,0 -0.02,0 -0.01,0 -0.01,0.01 -0.01,0.01 -0.01,0 -0.01,0 -0.01,0.01 0,0 0,0.01 0,0.01 0,0.01 0,0.02 0.01,0.02 0,0.01 0.01,0.01 0.03,0.01 0.01,0 0.02,0 0.03,0.01 0.03,0 0.05,0.01 0.07,0.02 0.01,0.01 0.02,0.03 0.02,0.06 0,0.01 0,0.02 0,0.03 -0.01,0.01 -0.01,0.02 -0.02,0.03 -0.01,0 -0.02,0.01 -0.03,0.02 -0.02,0 -0.03,0 -0.05,0.01 -0.03,0 -0.06,-0.01 -0.08,-0.02 -0.02,-0.02 -0.03,-0.04 -0.04,-0.07 0.03,0 0.04,0 0.06,-0.01 0,0.02 0.01,0.03 0.02,0.04z"/>
     <path class="fil0" d="M3.51 1.93c0,-0.02 0,-0.03 0,-0.05 0.08,-0.01 0.13,-0.01 0.21,-0.01 0,0.02 0,0.03 0,0.05 -0.03,0 -0.04,0 -0.08,0 0.01,0.09 0.01,0.13 0.01,0.22 -0.02,0.01 -0.03,0.01 -0.05,0.01 -0.01,-0.09 -0.01,-0.14 -0.01,-0.23 -0.03,0.01 -0.05,0.01 -0.08,0.01z"/>
     <path class="fil0" d="M3.82 2.13c-0.02,0 -0.03,-0.01 -0.04,-0.02 -0.01,-0.01 -0.02,-0.03 -0.03,-0.05 0,-0.01 -0.01,-0.03 -0.01,-0.06 0,-0.02 0,-0.04 0.01,-0.06 0,-0.01 0.01,-0.03 0.02,-0.04 0.01,-0.02 0.03,-0.03 0.04,-0.03 0.02,-0.01 0.03,-0.01 0.05,-0.01 0.02,0 0.04,0 0.06,0 0.01,0.01 0.03,0.02 0.04,0.03 0.01,0.01 0.02,0.03 0.02,0.05 0.01,0.01 0.01,0.03 0.01,0.05 0,0.03 0,0.05 0,0.06 -0.01,0.02 -0.02,0.04 -0.03,0.05 -0.01,0.01 -0.02,0.02 -0.03,0.03 -0.02,0.01 -0.04,0.01 -0.06,0.01 -0.02,0 -0.03,0 -0.05,-0.01zm0.1 -0.06c0.01,-0.02 0.02,-0.04 0.02,-0.07 0,-0.03 -0.01,-0.06 -0.02,-0.07 -0.01,-0.02 -0.03,-0.03 -0.06,-0.02 -0.02,0 -0.04,0 -0.05,0.02 -0.01,0.02 -0.01,0.04 -0.01,0.07 0,0.03 0.01,0.05 0.02,0.07 0.01,0.02 0.03,0.02 0.05,0.02 0.02,0 0.04,-0.01 0.05,-0.02z"/>
     <path class="fil0" d="M4.09 1.86c0.04,0.07 0.06,0.1 0.11,0.17 0,-0.07 0,-0.1 0,-0.18 0.02,0 0.03,0 0.05,0 0,0.11 0,0.17 0,0.28 -0.02,0 -0.03,0 -0.05,0 -0.04,-0.07 -0.06,-0.11 -0.11,-0.18 0,0.07 0,0.11 0.01,0.18 -0.03,0 -0.04,0 -0.06,0 0,-0.11 0,-0.16 0,-0.27 0.02,0 0.03,0 0.05,0z"/>
     <path class="fil0" d="M4.48 1.85c0.02,0 0.04,0.01 0.05,0.01 0.02,0.01 0.03,0.01 0.04,0.02 0,0.01 0.01,0.02 0.01,0.03 0,0.01 0,0.02 0,0.03 0,0.01 0,0.03 0,0.04 -0.01,0.01 -0.02,0.02 -0.04,0.03 0.02,0.05 0.04,0.07 0.06,0.12 -0.03,0 -0.04,0 -0.06,0 -0.02,-0.05 -0.03,-0.07 -0.05,-0.11 -0.02,0 -0.03,0 -0.05,0 0,0.04 0,0.06 0,0.11 -0.02,0 -0.03,0 -0.05,0 0,-0.11 0,-0.17 0,-0.28 0.03,0 0.05,0 0.09,0zm0.03 0.12c0,0 0.01,0 0.01,0 0,-0.01 0.01,-0.01 0.01,-0.02 0,0 0,-0.01 0,-0.01 0,-0.01 0,-0.01 0,-0.02 0,0 -0.01,-0.01 -0.01,-0.01 0,0 -0.01,0 -0.02,-0.01 0,0 -0.01,0 -0.02,0 -0.01,0 -0.02,0 -0.04,0 0,0.03 0,0.05 0,0.08 0.02,0 0.03,0 0.04,0 0.01,0 0.02,-0.01 0.03,-0.01z"/>
     <path class="fil0" d="M4.81 1.86c0,0.02 0,0.03 0,0.05 -0.05,0 -0.07,0 -0.12,-0.01 0,0.03 0,0.04 -0.01,0.06 0.05,0 0.08,0 0.12,0.01 0,0.02 0,0.03 0,0.04 -0.05,0 -0.07,0 -0.12,0 0,0.03 0,0.04 0,0.07 0.06,0 0.08,0 0.13,0 0,0.02 0,0.03 0,0.05 -0.07,0 -0.11,0 -0.18,0 0,-0.11 0,-0.17 0,-0.28 0.07,0.01 0.11,0.01 0.18,0.01z"/>
     <path class="fil0" d="M4.91 2.08c0,0.01 0.02,0.01 0.04,0.01 0,0 0.01,0 0.02,0 0,0 0.01,0 0.01,-0.01 0.01,0 0.01,0 0.01,-0.01 0,0 0,-0.01 0,-0.01 0,-0.01 0,-0.01 0,-0.02 -0.01,-0.01 -0.02,-0.01 -0.03,-0.02 -0.02,0 -0.02,0 -0.04,0 -0.01,-0.01 -0.02,-0.01 -0.03,-0.01 -0.01,-0.01 -0.02,-0.01 -0.03,-0.02 0,-0.01 -0.01,-0.02 -0.01,-0.03 -0.01,0 -0.01,-0.02 -0.01,-0.03 0,-0.01 0.01,-0.02 0.01,-0.03 0.01,-0.01 0.01,-0.02 0.02,-0.03 0.01,0 0.02,-0.01 0.04,-0.01 0.01,0 0.02,-0.01 0.04,0 0.02,0 0.03,0 0.05,0 0.01,0.01 0.02,0.02 0.03,0.02 0,0.01 0.01,0.02 0.01,0.03 0.01,0.01 0.01,0.02 0.01,0.03 -0.02,0 -0.03,0 -0.05,0.01 0,-0.02 -0.01,-0.03 -0.02,-0.04 0,0 -0.02,-0.01 -0.03,-0.01 -0.01,0 -0.02,0 -0.03,0 0,0 -0.01,0.01 -0.01,0.01 0,0 -0.01,0.01 -0.01,0.01 0,0 0,0.01 0,0.01 0,0.01 0,0.02 0.01,0.02 0,0.01 0.01,0.01 0.02,0.02 0.02,0 0.03,0 0.04,0 0.03,0.01 0.05,0.02 0.06,0.03 0.02,0.02 0.02,0.04 0.02,0.06 0,0.01 0,0.03 -0.01,0.04 0,0.01 -0.01,0.01 -0.02,0.02 -0.01,0.01 -0.02,0.01 -0.03,0.02 -0.01,0 -0.03,0 -0.04,0 -0.04,0 -0.07,-0.01 -0.09,-0.03 -0.01,-0.01 -0.02,-0.04 -0.03,-0.07 0.03,0 0.04,0 0.06,0 0,0.02 0.01,0.03 0.02,0.04z"/>
     <path class="fil0" d="M5.19 1.87c0.02,0 0.04,0.01 0.05,0.01 0.01,0.01 0.03,0.01 0.03,0.02 0.01,0.01 0.01,0.02 0.02,0.03 0,0.01 0,0.02 0,0.03 0,0.02 0,0.03 -0.01,0.04 0,0.01 -0.01,0.02 -0.01,0.03 -0.01,0 -0.02,0.01 -0.04,0.01 -0.01,0.01 -0.03,0.01 -0.05,0.01 -0.01,0 -0.02,0 -0.04,0 0,0.03 0,0.05 0,0.09 -0.02,0 -0.03,0 -0.05,0 0,-0.11 0,-0.16 0.01,-0.27 0.03,0 0.05,0 0.09,0zm0.02 0.13c0.01,0 0.01,-0.01 0.01,-0.01 0.01,0 0.01,-0.01 0.01,-0.01 0,-0.01 0.01,-0.01 0.01,-0.02 0,0 0,-0.01 -0.01,-0.02 0,0 0,0 0,-0.01 -0.01,0 -0.01,0 -0.02,-0.01 0,0 -0.01,0 -0.02,0 -0.02,0 -0.02,0 -0.04,0 0,0.03 0,0.05 0,0.08 0.01,0 0.02,0 0.04,0 0.01,0 0.01,0 0.02,0z"/>
     <path class="fil0" d="M5.39 1.88c-0.01,0.07 -0.01,0.1 -0.01,0.17 0,0.02 0,0.04 0.01,0.05 0,0.01 0.02,0.02 0.03,0.02 0.02,0 0.04,-0.01 0.04,-0.02 0.01,-0.01 0.02,-0.02 0.02,-0.05 0,-0.06 0,-0.09 0.01,-0.16 0.02,0 0.03,0 0.05,0.01 0,0.06 0,0.09 -0.01,0.16 0,0.02 0,0.03 -0.01,0.05 0,0.01 -0.01,0.02 -0.02,0.03 -0.01,0.01 -0.02,0.02 -0.04,0.02 -0.01,0.01 -0.02,0.01 -0.04,0.01 -0.02,-0.01 -0.03,-0.01 -0.04,-0.01 -0.02,-0.01 -0.03,-0.02 -0.04,-0.03 0,-0.01 -0.01,-0.02 -0.01,-0.04 -0.01,-0.01 -0.01,-0.03 -0.01,-0.05 0,-0.06 0.01,-0.1 0.01,-0.16 0.02,0 0.03,0 0.06,0z"/>
     <path class="fil0" d="M5.69 1.91c0.02,0 0.03,0 0.05,0.01 0.01,0 0.02,0.01 0.03,0.02 0,0 0.01,0.01 0.01,0.02 0,0.01 0,0.02 0,0.03 0,0.01 0,0.02 -0.01,0.03 0,0.01 -0.01,0.01 -0.02,0.02 0,0 0.01,0.01 0.01,0.02 0.01,0 0.01,0.01 0.01,0.01 0.01,0.01 0.01,0.01 0.01,0.02 0,0 0,0.01 0,0.02 0,0.01 0,0.02 -0.01,0.03 0,0.01 -0.01,0.02 -0.02,0.02 -0.01,0.01 -0.02,0.01 -0.03,0.02 -0.01,0 -0.03,0 -0.05,0 -0.04,0 -0.06,-0.01 -0.1,-0.01 0.01,-0.11 0.01,-0.16 0.02,-0.27 0.04,0 0.06,0 0.1,0.01zm0.03 0.1c0,-0.01 0.01,-0.01 0.01,-0.02 0,-0.01 0,-0.02 -0.01,-0.03 -0.01,0 -0.02,-0.01 -0.04,-0.01 -0.01,0 -0.02,0 -0.04,0 0,0.02 0,0.04 0,0.06 0.02,0 0.03,0 0.05,0.01 0.01,0 0.02,-0.01 0.03,-0.01zm-0.02 0.12c0.01,0 0.01,0 0.01,0 0.01,-0.01 0.01,-0.01 0.01,-0.01 0,-0.01 0.01,-0.01 0.01,-0.02 0,-0.01 -0.01,-0.02 -0.01,-0.03 -0.01,0 -0.02,-0.01 -0.03,-0.01 -0.02,0 -0.03,0 -0.06,0 0,0.03 0,0.04 0,0.07 0.02,0 0.03,0 0.05,0 0.01,0.01 0.01,0 0.02,0z"/>
     <path class="fil0" d="M5.89 1.93c-0.01,0.08 -0.01,0.13 -0.02,0.22 0.05,0 0.07,0.01 0.12,0.01 0,0.02 0,0.03 -0.01,0.05 -0.06,-0.01 -0.1,-0.01 -0.17,-0.02 0.01,-0.11 0.01,-0.16 0.02,-0.27 0.03,0 0.04,0 0.06,0.01z"/>
     <path class="fil0" d="M6.11 1.95c-0.01,0.11 -0.02,0.16 -0.03,0.27 -0.02,0 -0.03,0 -0.05,-0.01 0.01,-0.11 0.01,-0.16 0.02,-0.27 0.02,0.01 0.03,0.01 0.06,0.01z"/>
     <path class="fil0" d="M6.22 1.96c-0.01,0.04 -0.01,0.07 -0.02,0.11 0.05,-0.04 0.07,-0.06 0.11,-0.1 0.03,0.01 0.04,0.01 0.06,0.01 -0.04,0.04 -0.06,0.06 -0.09,0.09 0.03,0.07 0.04,0.11 0.07,0.18 -0.02,0 -0.03,0 -0.06,0 -0.02,-0.06 -0.03,-0.09 -0.06,-0.15 -0.01,0.02 -0.02,0.02 -0.03,0.03 -0.01,0.04 -0.01,0.06 -0.01,0.1 -0.02,0 -0.04,0 -0.06,0 0.01,-0.11 0.02,-0.17 0.03,-0.27 0.02,0 0.03,0 0.06,0z"/>
     <path class="fil0" d="M6.55 2.01c0.03,0.11 0.04,0.17 0.06,0.28 -0.02,0 -0.03,-0.01 -0.05,-0.01 -0.01,-0.02 -0.01,-0.04 -0.02,-0.06 -0.03,-0.01 -0.05,-0.01 -0.09,-0.02 -0.01,0.03 -0.01,0.04 -0.03,0.06 -0.02,0 -0.03,0 -0.05,-0.01 0.05,-0.1 0.08,-0.15 0.13,-0.25 0.02,0 0.03,0 0.05,0.01zm-0.04 0.06c-0.01,0.03 -0.02,0.05 -0.04,0.09 0.03,0 0.04,0 0.07,0.01 -0.01,-0.04 -0.02,-0.06 -0.03,-0.1z"/>
     <path class="fil0" d="M6.7 2.25c0.01,0.01 0.02,0.02 0.04,0.02 0.01,0 0.02,0 0.02,0 0.01,0 0.01,0 0.02,-0.01 0,0 0.01,0 0.01,-0.01 0,0 0,0 0,-0.01 0,-0.01 0,-0.01 0,-0.02 -0.01,-0.01 -0.02,-0.01 -0.03,-0.02 -0.01,0 -0.02,-0.01 -0.03,-0.01 -0.02,-0.01 -0.03,-0.01 -0.04,-0.02 -0.01,0 -0.01,-0.01 -0.02,-0.02 -0.01,0 -0.01,-0.01 -0.01,-0.02 -0.01,-0.01 -0.01,-0.02 0,-0.04 0,-0.01 0,-0.02 0.01,-0.03 0,-0.01 0.01,-0.01 0.02,-0.02 0.01,0 0.02,-0.01 0.04,-0.01 0.01,0 0.02,0 0.04,0 0.02,0 0.03,0.01 0.05,0.02 0.01,0 0.02,0.01 0.02,0.02 0.01,0.01 0.02,0.02 0.02,0.03 0,0.01 0,0.02 0,0.03 -0.02,0 -0.03,0 -0.05,0 0,-0.02 -0.01,-0.03 -0.01,-0.04 -0.01,0 -0.02,-0.01 -0.04,-0.01 -0.01,0 -0.01,0 -0.02,0 -0.01,0 -0.01,0 -0.02,0 0,0 0,0.01 0,0.01 -0.01,0 -0.01,0.01 -0.01,0.01 0,0.01 0,0.02 0.01,0.02 0,0.01 0.01,0.01 0.02,0.02 0.02,0 0.02,0.01 0.04,0.01 0.03,0.01 0.05,0.03 0.06,0.04 0.01,0.02 0.01,0.04 0.01,0.06 0,0.01 -0.01,0.02 -0.01,0.03 -0.01,0.01 -0.02,0.02 -0.02,0.02 -0.01,0.01 -0.03,0.01 -0.04,0.02 -0.01,0 -0.03,0 -0.04,0 -0.04,-0.01 -0.07,-0.02 -0.08,-0.04 -0.02,-0.02 -0.03,-0.04 -0.02,-0.08 0.02,0.01 0.03,0.01 0.05,0.01 0,0.02 0,0.03 0.01,0.04z"/>
     <path class="fil0" d="M6.97 2.07c-0.02,0.11 -0.02,0.16 -0.04,0.27 -0.02,0 -0.03,0 -0.05,-0.01 0.01,-0.11 0.02,-0.16 0.04,-0.27 0.02,0.01 0.03,0.01 0.05,0.01z"/>
     <path class="fil0" d="M0.4 3.15c-0.01,0 -0.03,-0.01 -0.04,-0.02 -0.01,-0.01 -0.03,-0.02 -0.04,-0.03 -0.01,-0.02 -0.01,-0.04 -0.02,-0.06 0,-0.02 -0.01,-0.04 0,-0.06 0,-0.02 0,-0.03 0.01,-0.05 0.01,-0.01 0.02,-0.03 0.03,-0.04 0.01,-0.01 0.03,-0.02 0.05,-0.02 0.02,-0.01 0.03,-0.01 0.05,-0.01 0.02,0 0.03,0.01 0.05,0.02 0.01,0.01 0.02,0.02 0.03,0.04 0.01,0.01 0.02,0.03 0.02,0.05 0.01,0.02 0.01,0.04 0.01,0.06 0,0.02 -0.01,0.04 -0.02,0.05 0,0.02 -0.01,0.03 -0.03,0.04 -0.01,0.01 -0.03,0.02 -0.04,0.02 -0.02,0.01 -0.04,0.01 -0.06,0.01zm0.09 -0.09c0,-0.02 0,-0.04 0,-0.07 -0.01,-0.03 -0.02,-0.05 -0.04,-0.07 -0.01,-0.01 -0.03,-0.01 -0.05,0 -0.02,0 -0.04,0.01 -0.05,0.03 0,0.02 0,0.05 0.01,0.07 0,0.03 0.01,0.06 0.03,0.07 0.01,0.01 0.03,0.01 0.05,0.01 0.02,-0.01 0.04,-0.02 0.05,-0.04z"/>
     <path class="fil0" d="M0.61 2.81c0.02,0.09 0.03,0.13 0.05,0.22 0.04,-0.01 0.07,-0.02 0.11,-0.03 0.01,0.02 0.01,0.03 0.01,0.05 -0.07,0.02 -0.1,0.02 -0.17,0.04 -0.02,-0.1 -0.03,-0.16 -0.06,-0.26 0.02,-0.01 0.03,-0.01 0.06,-0.02z"/>
     <path class="fil0" d="M0.81 2.76c0.03,0.11 0.04,0.16 0.06,0.26 -0.02,0.01 -0.03,0.01 -0.05,0.02 -0.02,-0.11 -0.04,-0.16 -0.06,-0.27 0.02,0 0.03,0 0.05,-0.01z"/>
     <path class="fil0" d="M0.84 2.75c0.03,0 0.04,-0.01 0.06,-0.01 0.03,0.04 0.05,0.05 0.08,0.09 0.01,-0.05 0.02,-0.07 0.03,-0.12 0.03,-0.01 0.04,-0.01 0.06,-0.01 -0.02,0.07 -0.03,0.1 -0.05,0.17 0,0.05 0.01,0.07 0.02,0.11 -0.02,0.01 -0.03,0.01 -0.05,0.02 -0.01,-0.05 -0.02,-0.07 -0.03,-0.11 -0.04,-0.06 -0.07,-0.08 -0.12,-0.14z"/>
     <path class="fil0" d="M1.16 2.73c-0.01,-0.02 -0.01,-0.03 -0.01,-0.05 0.08,-0.02 0.12,-0.03 0.2,-0.05 0.01,0.02 0.01,0.03 0.01,0.05 -0.03,0.01 -0.04,0.01 -0.07,0.02 0.01,0.09 0.02,0.13 0.04,0.22 -0.02,0 -0.03,0 -0.05,0.01 -0.02,-0.09 -0.03,-0.13 -0.05,-0.22 -0.03,0.01 -0.04,0.01 -0.07,0.02z"/>
     <path class="fil0" d="M1.48 2.61c0.06,0.1 0.08,0.15 0.14,0.25 -0.02,0 -0.03,0 -0.06,0.01 -0.01,-0.03 -0.02,-0.04 -0.03,-0.06 -0.03,0.01 -0.05,0.01 -0.09,0.02 0,0.02 0,0.04 -0.01,0.06 -0.02,0.01 -0.03,0.01 -0.05,0.02 0.02,-0.12 0.03,-0.18 0.05,-0.29 0.02,-0.01 0.03,-0.01 0.05,-0.01zm-0.02 0.07c0,0.04 -0.01,0.06 -0.01,0.1 0.02,-0.01 0.04,-0.01 0.06,-0.01 -0.02,-0.04 -0.03,-0.06 -0.05,-0.09z"/>
     <path class="fil0" d="M1.62 2.58c0,0.04 0,0.06 -0.01,0.1 -0.01,0 -0.02,0 -0.03,0.01 -0.01,-0.04 -0.01,-0.06 -0.01,-0.1 0.02,0 0.03,-0.01 0.05,-0.01z"/>
     <path class="fil0" d="M1.72 2.56c0.01,0.09 0.02,0.13 0.03,0.22 0.05,-0.01 0.07,-0.01 0.12,-0.02 0,0.02 0,0.03 0,0.05 -0.06,0.01 -0.1,0.02 -0.16,0.03 -0.02,-0.11 -0.03,-0.16 -0.05,-0.27 0.02,0 0.03,-0.01 0.06,-0.01z"/>
     <path class="fil0" d="M1.92 2.52c0.02,0.11 0.03,0.16 0.04,0.27 -0.02,0.01 -0.03,0.01 -0.05,0.01 -0.01,-0.11 -0.02,-0.16 -0.04,-0.27 0.02,0 0.03,0 0.05,-0.01z"/>
     <path class="fil0" d="M2.04 2.5c0.04,0.08 0.06,0.12 0.09,0.19 0.02,-0.08 0.03,-0.12 0.04,-0.21 0.03,0 0.04,0 0.06,-0.01 0.02,0.11 0.03,0.16 0.04,0.27 -0.02,0.01 -0.03,0.01 -0.05,0.01 -0.01,-0.07 -0.01,-0.11 -0.02,-0.18 -0.02,0.08 -0.02,0.11 -0.04,0.19 -0.01,0 -0.02,0 -0.04,0.01 -0.03,-0.07 -0.05,-0.11 -0.08,-0.17 0.01,0.07 0.01,0.1 0.02,0.17 -0.02,0.01 -0.02,0.01 -0.04,0.01 -0.02,-0.11 -0.03,-0.16 -0.04,-0.27 0.02,0 0.04,0 0.06,-0.01z"/>
     <path class="fil0" d="M2.36 2.67c-0.01,0.04 -0.01,0.06 -0.01,0.1 -0.02,0 -0.02,0 -0.04,0 0,-0.04 0,-0.06 0,-0.1 0.02,0 0.03,0 0.05,0z"/>
     <path class="fil0" d="M2.63 2.42c0,0.02 0,0.03 0,0.05 -0.05,0 -0.07,0.01 -0.11,0.01 0,0.03 0,0.04 0,0.07 0.05,-0.01 0.07,-0.01 0.11,-0.02 0,0.02 0,0.03 0.01,0.05 -0.05,0.01 -0.07,0.01 -0.11,0.01 0,0.05 0.01,0.07 0.01,0.11 -0.02,0.01 -0.03,0.01 -0.05,0.01 -0.01,-0.11 -0.02,-0.16 -0.03,-0.27 0.06,-0.01 0.1,-0.01 0.17,-0.02z"/>
     <path class="fil0" d="M2.77 2.4c0.05,0.11 0.07,0.16 0.12,0.26 -0.02,0 -0.03,0.01 -0.05,0.01 -0.01,-0.03 -0.02,-0.04 -0.03,-0.06 -0.04,0 -0.05,0 -0.09,0.01 -0.01,0.02 -0.01,0.04 -0.01,0.06 -0.03,0.01 -0.04,0.01 -0.06,0.01 0.03,-0.11 0.04,-0.17 0.07,-0.28 0.02,0 0.03,-0.01 0.05,-0.01zm-0.02 0.07c-0.01,0.04 -0.01,0.06 -0.02,0.1 0.02,0 0.04,0 0.06,-0.01 -0.02,-0.03 -0.02,-0.05 -0.04,-0.09z"/>
     <path class="fil0" d="M2.95 2.38c0.05,0.07 0.07,0.1 0.12,0.17 -0.01,-0.07 -0.01,-0.11 -0.02,-0.18 0.02,0 0.03,0 0.06,0 0,0.11 0.01,0.16 0.02,0.27 -0.02,0 -0.03,0 -0.05,0 -0.05,-0.06 -0.07,-0.1 -0.12,-0.16 0,0.07 0.01,0.1 0.01,0.17 -0.02,0.01 -0.03,0.01 -0.05,0.01 -0.01,-0.11 -0.01,-0.16 -0.02,-0.27 0.02,0 0.03,0 0.05,-0.01z"/>
     <path class="fil0" d="M3.27 2.35c0.03,0.08 0.04,0.12 0.07,0.19 0.02,-0.08 0.03,-0.12 0.06,-0.2 0.02,0 0.03,0 0.05,0 -0.03,0.11 -0.05,0.17 -0.08,0.28 -0.02,0 -0.03,0 -0.05,0 -0.04,-0.1 -0.07,-0.16 -0.11,-0.26 0.02,0 0.03,0 0.06,-0.01z"/>
     <path class="fil0" d="M3.58 2.33c0.04,0.11 0.06,0.16 0.1,0.27 -0.02,0 -0.03,0 -0.05,0 -0.01,-0.02 -0.02,-0.03 -0.03,-0.06 -0.03,0 -0.05,0 -0.09,0.01 0,0.02 -0.01,0.04 -0.01,0.06 -0.02,0 -0.04,0 -0.06,0 0.03,-0.11 0.05,-0.16 0.08,-0.27 0.02,0 0.03,-0.01 0.06,-0.01zm-0.03 0.07c-0.01,0.04 -0.01,0.06 -0.02,0.1 0.02,0 0.03,0 0.06,0 -0.02,-0.04 -0.02,-0.06 -0.04,-0.1z"/>
     <path class="fil0" d="M3.84 2.32c0,0.11 0,0.16 0.01,0.27 -0.02,0 -0.04,0 -0.06,0 0,-0.1 0,-0.16 -0.01,-0.27 0.03,0 0.04,0 0.06,0z"/>
     <path class="fil0" d="M3.94 2.32c0.04,0.07 0.07,0.1 0.11,0.17 0,-0.07 0,-0.1 0,-0.18 0.02,0 0.03,0 0.05,0 0,0.11 0,0.17 0,0.28 -0.02,0 -0.03,0 -0.04,0 -0.05,-0.07 -0.07,-0.11 -0.11,-0.18 0,0.07 0,0.11 0,0.18 -0.02,0 -0.03,0 -0.05,0 0,-0.11 -0.01,-0.16 -0.01,-0.27 0.02,0 0.03,0 0.05,0z"/>
     <path class="fil0" d="M4.2 2.31c0.04,0.07 0.07,0.11 0.11,0.18 0,-0.07 0,-0.11 0,-0.18 0.02,0 0.03,0 0.05,0 0,0.11 0,0.16 0,0.27 -0.02,0 -0.03,0 -0.05,0 -0.04,-0.07 -0.06,-0.1 -0.11,-0.17 0.01,0.07 0.01,0.1 0.01,0.17 -0.02,0 -0.03,0 -0.05,0 -0.01,-0.11 -0.01,-0.16 -0.01,-0.27 0.02,0 0.03,0 0.05,0z"/>
     <path class="fil0" d="M4.48 2.58c-0.02,-0.01 -0.03,-0.02 -0.04,-0.03 -0.01,-0.01 -0.02,-0.03 -0.03,-0.05 0,-0.01 -0.01,-0.03 -0.01,-0.05 0,-0.03 0.01,-0.05 0.01,-0.06 0.01,-0.02 0.02,-0.04 0.03,-0.05 0.01,-0.01 0.02,-0.02 0.04,-0.03 0.01,0 0.03,-0.01 0.05,-0.01 0.02,0 0.04,0.01 0.05,0.01 0.02,0.01 0.03,0.02 0.04,0.03 0.01,0.02 0.02,0.03 0.02,0.05 0.01,0.02 0.01,0.04 0.01,0.06 0,0.02 0,0.04 -0.01,0.06 0,0.01 -0.01,0.03 -0.02,0.04 -0.01,0.01 -0.03,0.02 -0.04,0.03 -0.02,0.01 -0.03,0.01 -0.05,0.01 -0.02,0 -0.04,0 -0.05,-0.01zm0.1 -0.06c0.01,-0.02 0.01,-0.04 0.01,-0.07 0,-0.03 0,-0.06 -0.01,-0.07 -0.01,-0.02 -0.03,-0.03 -0.05,-0.03 -0.03,0 -0.04,0.01 -0.05,0.03 -0.01,0.01 -0.02,0.04 -0.02,0.07 0,0.03 0,0.05 0.02,0.07 0.01,0.01 0.02,0.02 0.05,0.02 0.02,0 0.04,-0.01 0.05,-0.02z"/>
     <path class="fil0" d="M4.72 2.31c0.02,0.08 0.03,0.12 0.06,0.2 0.02,-0.08 0.04,-0.12 0.07,-0.19 0.02,0 0.03,0 0.05,0 -0.04,0.1 -0.06,0.16 -0.1,0.27 -0.02,0 -0.03,0 -0.05,0 -0.04,-0.11 -0.05,-0.17 -0.09,-0.28 0.02,0 0.03,0 0.06,0z"/>
     <path class="fil0" d="M5.03 2.32c0.03,0.11 0.05,0.17 0.08,0.28 -0.02,0 -0.03,0 -0.06,0 0,-0.03 -0.01,-0.04 -0.01,-0.07 -0.04,0 -0.06,0 -0.09,0 -0.01,0.02 -0.02,0.04 -0.03,0.06 -0.02,0 -0.03,0 -0.05,0 0.04,-0.11 0.06,-0.16 0.1,-0.27 0.02,0 0.04,0 0.06,0zm-0.03 0.07c-0.02,0.03 -0.02,0.05 -0.04,0.09 0.03,0 0.04,0 0.06,0 -0.01,-0.03 -0.01,-0.05 -0.02,-0.09z"/>
     <path class="fil0" d="M5.1 2.37c0,-0.01 0,-0.02 0,-0.04 0.08,0 0.13,0 0.21,0.01 0,0.02 0,0.03 0,0.05 -0.03,-0.01 -0.05,-0.01 -0.08,-0.01 0,0.09 -0.01,0.13 -0.01,0.22 -0.02,0 -0.03,0 -0.05,0 0,-0.09 0,-0.13 0.01,-0.22 -0.04,0 -0.05,0 -0.08,-0.01z"/>
     <path class="fil0" d="M5.39 2.56c0.01,0.01 0.02,0.02 0.04,0.02 0.01,0 0.01,0 0.02,0 0,-0.01 0.01,-0.01 0.01,-0.01 0.01,0 0.01,-0.01 0.01,-0.01 0,-0.01 0,-0.01 0,-0.02 0.01,0 0,-0.01 0,-0.02 -0.01,0 -0.02,-0.01 -0.03,-0.01 -0.01,-0.01 -0.02,-0.01 -0.03,-0.01 -0.01,0 -0.03,-0.01 -0.04,-0.01 -0.01,-0.01 -0.01,-0.01 -0.02,-0.02 -0.01,-0.01 -0.01,-0.02 -0.01,-0.03 -0.01,0 -0.01,-0.02 -0.01,-0.03 0,-0.01 0.01,-0.02 0.01,-0.03 0.01,-0.01 0.01,-0.02 0.02,-0.03 0.01,0 0.02,-0.01 0.04,-0.01 0.01,0 0.02,0 0.04,0 0.02,0 0.03,0 0.04,0.01 0.02,0 0.03,0.01 0.03,0.02 0.01,0.01 0.02,0.02 0.02,0.03 0,0.01 0,0.02 0,0.03 -0.02,0 -0.03,0 -0.05,0 0,-0.01 0,-0.03 -0.01,-0.03 -0.01,-0.01 -0.02,-0.01 -0.04,-0.02 0,0 -0.01,0 -0.02,0.01 0,0 -0.01,0 -0.01,0 -0.01,0 -0.01,0.01 -0.01,0.01 0,0 0,0.01 0,0.01 0,0.01 0,0.02 0,0.02 0.01,0.01 0.02,0.01 0.03,0.02 0.01,0 0.02,0 0.04,0.01 0.02,0.01 0.04,0.02 0.05,0.03 0.02,0.01 0.02,0.03 0.02,0.06 0,0.01 0,0.02 -0.01,0.03 0,0.01 -0.01,0.02 -0.02,0.03 -0.01,0 -0.02,0.01 -0.03,0.01 -0.01,0 -0.03,0.01 -0.04,0 -0.04,0 -0.06,-0.01 -0.08,-0.03 -0.02,-0.01 -0.03,-0.04 -0.03,-0.07 0.02,0 0.03,0 0.06,0 0,0.02 0,0.03 0.01,0.04z"/>
     <path class="fil0" d="M5.64 2.36c-0.01,0.11 -0.02,0.16 -0.02,0.27 -0.03,0 -0.04,0 -0.06,0 0.01,-0.11 0.01,-0.17 0.02,-0.27 0.02,0 0.03,0 0.06,0z"/>
     <path class="fil0" d="M5.67 2.36c0.02,0.01 0.03,0.01 0.06,0.01 0.01,0.04 0.02,0.07 0.04,0.11 0.03,-0.04 0.04,-0.06 0.07,-0.1 0.02,0 0.03,0 0.06,0 -0.04,0.07 -0.07,0.1 -0.11,0.16 0,0.04 0,0.06 0,0.11 -0.03,-0.01 -0.04,-0.01 -0.06,-0.01 0.01,-0.04 0.01,-0.06 0.01,-0.11 -0.03,-0.07 -0.04,-0.1 -0.07,-0.17z"/>
     <path class="fil0" d="M6.01 2.4c0.03,0.11 0.04,0.17 0.07,0.28 -0.02,0 -0.03,-0.01 -0.06,-0.01 0,-0.02 -0.01,-0.04 -0.01,-0.06 -0.04,-0.01 -0.06,-0.01 -0.09,-0.01 -0.01,0.02 -0.02,0.03 -0.03,0.06 -0.02,0 -0.03,-0.01 -0.05,-0.01 0.04,-0.1 0.07,-0.15 0.12,-0.26 0.02,0 0.03,0 0.05,0.01zm-0.03 0.06c-0.02,0.04 -0.03,0.05 -0.04,0.09 0.02,0 0.03,0.01 0.06,0.01 -0.01,-0.04 -0.02,-0.06 -0.02,-0.1z"/>
     <path class="fil0" d="M6.19 2.42c-0.01,0.09 -0.01,0.13 -0.02,0.22 0.04,0.01 0.07,0.01 0.12,0.02 -0.01,0.01 -0.01,0.02 -0.01,0.04 -0.07,-0.01 -0.1,-0.01 -0.17,-0.02 0.01,-0.11 0.01,-0.16 0.03,-0.27 0.02,0 0.03,0.01 0.05,0.01z"/>
     <path class="fil0" d="M6.48 2.46c0.02,0.11 0.04,0.17 0.06,0.28 -0.02,0 -0.03,-0.01 -0.06,-0.01 0,-0.02 0,-0.04 -0.01,-0.06 -0.03,-0.01 -0.05,-0.01 -0.09,-0.02 -0.01,0.03 -0.01,0.04 -0.02,0.06 -0.03,0 -0.04,0 -0.06,0 0.05,-0.11 0.08,-0.16 0.13,-0.26 0.02,0 0.03,0 0.05,0.01zm-0.04 0.06c-0.01,0.03 -0.02,0.05 -0.04,0.09 0.03,0 0.04,0 0.06,0.01 0,-0.04 -0.01,-0.06 -0.02,-0.1z"/>
     <path class="fil0" d="M6.7 2.49c0.02,0 0.03,0.01 0.05,0.01 0.01,0.01 0.02,0.02 0.02,0.03 0.01,0.01 0.01,0.02 0.02,0.03 0,0.01 0,0.02 0,0.03 -0.01,0.01 -0.01,0.03 -0.02,0.04 -0.01,0.01 -0.02,0.02 -0.03,0.02 0.01,0.05 0.02,0.08 0.03,0.13 -0.02,-0.01 -0.03,-0.01 -0.06,-0.01 -0.01,-0.05 -0.01,-0.07 -0.02,-0.11 -0.02,0 -0.03,-0.01 -0.05,-0.01 -0.01,0.04 -0.01,0.06 -0.02,0.1 -0.02,0 -0.03,0 -0.05,0 0.01,-0.11 0.02,-0.17 0.04,-0.27 0.03,0 0.05,0 0.09,0.01zm0 0.12c0.01,0 0.02,0 0.02,0 0,-0.01 0.01,-0.01 0.01,-0.02 0,0 0,0 0,-0.01 0,-0.01 0,-0.01 0,-0.02 0,0 0,0 -0.01,-0.01 0,0 0,-0.01 -0.01,-0.01 0,0 -0.01,0 -0.02,0 -0.02,-0.01 -0.02,-0.01 -0.04,-0.01 0,0.03 0,0.04 -0.01,0.08 0.02,0 0.03,0 0.04,0 0.01,0 0.02,0 0.02,0z"/>
     <path class="fil0" d="M6.95 2.53c0.01,0.08 0.02,0.12 0.03,0.2 0.04,-0.07 0.06,-0.1 0.1,-0.18 0.02,0.01 0.03,0.01 0.05,0.02 -0.05,0.1 -0.08,0.15 -0.13,0.25 -0.02,-0.01 -0.03,-0.01 -0.05,-0.01 -0.03,-0.12 -0.04,-0.17 -0.06,-0.29 0.02,0.01 0.04,0.01 0.06,0.01z"/>
     <path class="fil0" d="M7.25 2.59c0.02,0.11 0.03,0.17 0.05,0.28 -0.02,0 -0.03,0 -0.05,-0.01 -0.01,-0.02 -0.01,-0.04 -0.01,-0.06 -0.04,-0.01 -0.06,-0.01 -0.09,-0.02 -0.01,0.02 -0.02,0.04 -0.03,0.06 -0.02,-0.01 -0.03,-0.01 -0.06,-0.01 0.06,-0.1 0.09,-0.15 0.14,-0.25 0.02,0 0.03,0 0.05,0.01zm-0.03 0.06c-0.02,0.03 -0.03,0.05 -0.05,0.09 0.02,0 0.04,0 0.06,0.01 0,-0.04 -0.01,-0.06 -0.01,-0.1z"/>
     <path class="fil0" d="M7.49 2.69c-0.05,-0.01 -0.07,-0.02 -0.12,-0.03 0,-0.02 0,-0.03 0,-0.05 0.08,0.02 0.12,0.03 0.19,0.04 0,0.02 0,0.03 -0.01,0.04 -0.06,0.06 -0.09,0.09 -0.15,0.15 0.05,0.02 0.07,0.02 0.13,0.03 -0.01,0.02 -0.01,0.03 -0.02,0.05 -0.07,-0.02 -0.11,-0.03 -0.19,-0.04 0.01,-0.02 0.01,-0.03 0.01,-0.04 0.06,-0.06 0.1,-0.09 0.16,-0.15z"/>
     <path class="fil0" d="M7.65 2.67c-0.02,0.11 -0.03,0.16 -0.05,0.27 -0.02,-0.01 -0.03,-0.01 -0.05,-0.01 0.02,-0.11 0.03,-0.16 0.05,-0.27 0.02,0.01 0.03,0.01 0.05,0.01z"/>
     <path class="fil0" d="M7.79 2.71c0.02,0 0.04,0.01 0.05,0.02 0.01,0 0.02,0.01 0.03,0.02 0.01,0.01 0.01,0.02 0.01,0.03 0,0.01 0,0.02 0,0.03 -0.01,0.02 -0.01,0.03 -0.02,0.04 -0.01,0.01 -0.02,0.02 -0.04,0.02 0.01,0.05 0.02,0.08 0.03,0.13 -0.02,-0.01 -0.03,-0.01 -0.06,-0.02 0,-0.04 -0.01,-0.06 -0.02,-0.11 -0.02,0 -0.03,0 -0.05,-0.01 0,0.04 -0.01,0.06 -0.02,0.1 -0.02,0 -0.03,0 -0.05,-0.01 0.02,-0.11 0.03,-0.16 0.05,-0.27 0.04,0.01 0.06,0.02 0.09,0.03zm0 0.12c0.01,0 0.02,0 0.02,-0.01 0,0 0.01,0 0.01,-0.01 0,0 0,-0.01 0,-0.01 0,-0.01 0,-0.01 0,-0.02 0,0 0,0 0,-0.01 0,0 -0.01,-0.01 -0.01,-0.01 -0.01,0 -0.02,-0.01 -0.03,-0.01 -0.01,0 -0.02,0 -0.03,-0.01 -0.01,0.03 -0.01,0.05 -0.02,0.08 0.02,0 0.03,0 0.04,0.01 0.01,0 0.02,0 0.02,0z"/>
     <path class="fil0" d="M7.99 2.75c-0.02,0.09 -0.03,0.13 -0.05,0.22 0.05,0.01 0.07,0.02 0.12,0.03 0,0.02 -0.01,0.03 -0.01,0.05 -0.07,-0.02 -0.1,-0.03 -0.17,-0.04 0.02,-0.11 0.03,-0.16 0.06,-0.27 0.02,0.01 0.03,0.01 0.05,0.01z"/>
     <path class="fil0" d="M8.2 2.81c-0.03,0.1 -0.04,0.16 -0.06,0.26 -0.02,0 -0.03,-0.01 -0.05,-0.01 0.02,-0.11 0.03,-0.16 0.06,-0.27 0.02,0.01 0.03,0.01 0.05,0.02z"/>
     <path class="fil0" d="M8.43 3c-0.01,0.04 -0.01,0.07 -0.02,0.11 -0.02,0.01 -0.04,0.02 -0.06,0.02 -0.02,0 -0.03,0 -0.05,-0.01 -0.02,0 -0.04,-0.01 -0.05,-0.02 -0.02,-0.01 -0.03,-0.03 -0.03,-0.04 -0.01,-0.02 -0.01,-0.03 -0.01,-0.05 -0.01,-0.02 0,-0.04 0,-0.06 0.01,-0.02 0.01,-0.04 0.02,-0.05 0.01,-0.02 0.02,-0.03 0.04,-0.04 0.01,-0.01 0.02,-0.02 0.04,-0.02 0.02,0 0.03,0 0.05,0.01 0.02,0 0.03,0.01 0.04,0.01 0.01,0.01 0.02,0.02 0.03,0.03 0,0.01 0.01,0.02 0.01,0.03 0,0.01 0,0.02 0,0.03 -0.02,0 -0.03,0 -0.05,0 0,-0.01 0,-0.02 0,-0.02 0,-0.01 -0.01,-0.01 -0.01,-0.02 0,0 -0.01,-0.01 -0.01,-0.01 -0.01,0 -0.01,-0.01 -0.02,-0.01 -0.02,0 -0.04,0 -0.05,0.01 -0.02,0.02 -0.03,0.04 -0.03,0.07 -0.01,0.03 -0.01,0.05 -0.01,0.07 0.01,0.02 0.03,0.03 0.05,0.04 0.01,0 0.02,0 0.03,0 0.01,0 0.02,0 0.02,0 0.01,-0.02 0.01,-0.03 0.01,-0.05 -0.01,0 -0.02,-0.01 -0.04,-0.01 0,-0.02 0,-0.03 0.01,-0.05 0.04,0.01 0.06,0.02 0.09,0.03z"/>
     <path class="fil0" d="M8.56 2.91c-0.03,0.1 -0.04,0.16 -0.07,0.26 -0.02,0 -0.03,-0.01 -0.05,-0.01 0.03,-0.11 0.04,-0.16 0.07,-0.27 0.02,0.01 0.03,0.01 0.05,0.02z"/>
    </g>
   </g>
   <g>
    <g>
     <polygon class="fil0" points="6.08,7.8 6.09,7.8 6.09,7.8 "/>
     <path class="fil0" d="M8.68 4.38l-0.07 0 -0.16 0 -0.08 0 -0.15 0 -0.08 0 -0.03 0 0.05 -0.12 0.11 -0.29 0.08 -0.19 -0.05 0 -0.07 0 -0.16 0.01 -0.08 0 -0.19 0.01 -0.08 0.01 0.16 -0.52 0.01 -0.03c0,0 0,0 0,0 -0.04,0 -0.23,0.01 -0.52,0.06 -0.04,0.01 -0.08,0.02 -0.13,0.03 -0.1,0.02 -0.21,0.05 -0.33,0.09l0.31 0.07 0.11 0.02 0.13 0.03c0,0 -0.1,0.27 -0.24,0.72 -0.08,0.24 -0.16,0.54 -0.25,0.88 -0.13,0.5 -0.26,1.09 -0.35,1.7 0,0.02 -0.01,0.05 -0.01,0.07 0,0 -0.15,0 -0.38,0.03 -0.43,0.04 -1.14,0.18 -1.67,0.58 -0.03,0.01 -0.05,0.03 -0.08,0.05 -0.02,0.02 -0.04,0.04 -0.06,0.05l-0.06 -0.05c-0.02,-0.02 -0.05,-0.04 -0.08,-0.05 -0.57,-0.43 -1.34,-0.56 -1.75,-0.59 -0.18,-0.02 -0.3,-0.02 -0.3,-0.02 0,-0.02 0,-0.05 -0.01,-0.07 -0.14,-0.94 -0.37,-1.82 -0.55,-2.43 0,0 0,0 0,0 -0.09,-0.3 -0.17,-0.53 -0.22,-0.68 -0.04,-0.12 -0.07,-0.19 -0.07,-0.19l0.04 -0.01 0.11 -0.02 0.41 -0.09c-0.16,-0.05 -0.31,-0.09 -0.44,-0.11 -0.04,-0.01 -0.08,-0.02 -0.12,-0.02 -0.27,-0.05 -0.42,-0.05 -0.43,-0.05l0.18 0.55 -0.18 -0.01 -0.19 -0.01 -0.08 0 -0.16 -0.01 -0.03 0 0.05 0.11 0.19 0.49 -0.12 0 -0.08 0 -0.15 0 -0.08 0 -0.16 0 -0.07 0.01 -0.02 0c0.01,0.01 0.02,0.02 0.03,0.04 0.03,0.04 0.06,0.09 0.08,0.14 0.08,0.12 0.15,0.26 0.23,0.4 0.03,0.07 0.06,0.14 0.1,0.21 0.08,0.19 0.16,0.39 0.24,0.58 0.04,0.1 0.07,0.21 0.11,0.31 0.1,0.29 0.19,0.58 0.27,0.84 0.01,0.05 0.02,0.09 0.03,0.13 0.04,0.13 0.07,0.24 0.1,0.35 0.04,0.16 0.07,0.3 0.09,0.4 0.02,0.05 0.03,0.1 0.03,0.14 0.02,0.05 0.02,0.08 0.02,0.08 0.03,-0.01 0.05,-0.01 0.07,-0.01 0.21,-0.03 0.43,-0.05 0.64,-0.07 0.03,0 0.07,-0.01 0.11,-0.01 0.16,-0.02 0.31,-0.03 0.47,-0.04 0.03,0 0.07,0 0.1,-0.01 0.48,-0.03 0.97,-0.05 1.46,-0.05 0.06,0 0.12,0 0.19,0 0.06,0 0.13,0 0.2,0 0.48,0 0.97,0.02 1.45,0.05 0.01,0 0.01,0.01 0.02,0.01 0.15,0.01 0.31,0.02 0.46,0.03 0.04,0 0.08,0.01 0.11,0.01 0.21,0.02 0.42,0.04 0.63,0.07 0.05,0 0.11,0.01 0.17,0.02 0,0 0,-0.03 0.02,-0.09 0,-0.02 0.01,-0.05 0.02,-0.09 0,0 0,0 0,0 0,-0.02 0,-0.03 0,-0.04 0.02,-0.05 0.03,-0.1 0.04,-0.16 0.04,-0.16 0.09,-0.36 0.16,-0.59 0.04,-0.16 0.09,-0.32 0.15,-0.5 0.03,-0.12 0.07,-0.24 0.12,-0.37 0.07,-0.22 0.16,-0.45 0.25,-0.68 0.03,-0.08 0.07,-0.16 0.1,-0.24 0.08,-0.16 0.15,-0.32 0.23,-0.47 0.03,-0.05 0.06,-0.11 0.09,-0.16 0.05,-0.08 0.1,-0.16 0.15,-0.23l-0.11 -0.01zm-6.54 3.18c-0.03,0.01 -0.07,0.02 -0.1,0.03 -0.24,0.06 -0.48,0.13 -0.48,0.13 -0.02,-0.1 -0.04,-0.2 -0.07,-0.3 -0.03,-0.16 -0.07,-0.31 -0.11,-0.45 -0.11,-0.39 -0.23,-0.75 -0.34,-1.06 -0.04,-0.11 -0.07,-0.2 -0.11,-0.29 -0.08,-0.23 -0.16,-0.42 -0.23,-0.57 -0.04,-0.09 -0.08,-0.17 -0.11,-0.23 -0.06,-0.15 -0.1,-0.22 -0.1,-0.22l0.07 -0.03 0.07 -0.03 0.15 -0.06 0.02 0c0.03,0.07 0.05,0.16 0.08,0.24 0.13,0.4 0.28,0.88 0.4,1.32 0,0 0,0 0.01,0 0.09,0.33 0.17,0.64 0.24,0.89 0.11,0.39 0.18,0.65 0.18,0.65 0.09,-0.03 0.21,-0.05 0.32,-0.06 0.03,0 0.07,0 0.11,0 0.12,-0.01 0.2,0 0.2,0 -0.06,0.01 -0.12,0.02 -0.2,0.04zm0.44 -0.29c-0.19,0 -0.36,0 -0.48,0.01 -0.04,0 -0.08,0 -0.11,0 -0.05,0 -0.09,0.01 -0.09,0.01 -0.02,-0.14 -0.05,-0.28 -0.08,-0.4 -0.3,-1.35 -0.63,-2.21 -0.8,-2.61 -0.08,-0.17 -0.12,-0.26 -0.12,-0.26l0.08 -0.03 0.2 -0.07c0.31,1.01 0.51,1.72 0.63,2.21 0,0 0,0.01 0.01,0.01 0.08,0.34 0.14,0.57 0.17,0.73 0.05,0.24 0.05,0.31 0.05,0.31 0.02,0 0.03,0 0.05,0 0.16,-0.02 0.32,-0.02 0.47,-0.01 0.6,0.03 1.09,0.19 1.16,0.21 -0.38,-0.08 -0.8,-0.11 -1.14,-0.11zm3.51 0.53l-0.01 0 0.01 0 0 0zm0.09 -0.53c-0.32,0.01 -0.7,0.03 -1.05,0.11 0.06,-0.02 0.51,-0.17 1.07,-0.21 0.15,-0.01 0.3,-0.01 0.46,0 0.04,0 0.08,0 0.12,0.01 0,0 0.01,0 0.02,0 0,0 0,-0.07 0.05,-0.31 0.08,-0.39 0.29,-1.24 0.81,-2.95l0.12 0.04 0.16 0.06c0,0 -0.1,0.21 -0.26,0.62 0,0 0,0 0,0 -0.18,0.48 -0.43,1.22 -0.66,2.24 -0.03,0.13 -0.06,0.27 -0.08,0.41 0,0 -0.07,-0.01 -0.18,-0.01 -0.03,-0.01 -0.07,-0.01 -0.11,-0.01 -0.13,0 -0.29,-0.01 -0.47,0zm2.16 -2.65c-0.03,0.05 -0.11,0.23 -0.23,0.49 -0.03,0.08 -0.07,0.17 -0.1,0.26 -0.08,0.19 -0.16,0.4 -0.25,0.65 -0.03,0.1 -0.07,0.22 -0.11,0.33 -0.06,0.2 -0.12,0.4 -0.18,0.62 -0.07,0.24 -0.13,0.49 -0.19,0.75 0,0 -0.02,-0.01 -0.05,-0.02 -0.1,-0.03 -0.31,-0.08 -0.51,-0.13 -0.04,-0.01 -0.08,-0.02 -0.11,-0.03 -0.04,-0.01 -0.08,-0.02 -0.11,-0.02 0,0 0.04,-0.01 0.11,-0.01 0.03,0 0.07,0 0.12,0.01 0.13,0 0.29,0.02 0.4,0.06 0,0 0.07,-0.26 0.18,-0.65 0.02,-0.05 0.03,-0.11 0.05,-0.18 0.12,-0.45 0.28,-1.02 0.45,-1.54 0.04,-0.13 0.08,-0.26 0.12,-0.38 0.03,-0.12 0.08,-0.24 0.12,-0.35l0.08 0.03 0.07 0.02 0.15 0.06 0 0c0,0 0,0.01 -0.01,0.03z"/>
    </g>
   </g>
   <path class="fil0" d="M8.84 2.34l0 0.34c-0.09,-0.1 -0.19,-0.19 -0.29,-0.26 -0.05,-0.04 -0.1,-0.07 -0.15,-0.1 -0.02,-0.02 -0.04,-0.03 -0.06,-0.04l0 0c-0.06,-0.03 -0.11,-0.06 -0.16,-0.09 -0.02,-0.01 -0.04,-0.02 -0.06,-0.03 -0.06,-0.03 -0.11,-0.05 -0.17,-0.07 -0.2,-0.09 -0.38,-0.15 -0.48,-0.18 -0.05,-0.01 -0.08,-0.02 -0.08,-0.02 -0.01,0 -0.02,-0.01 -0.03,-0.01 -0.15,-0.04 -0.3,-0.08 -0.45,-0.11 -0.84,-0.2 -1.72,-0.26 -2.47,-0.25l-0.02 0c-0.77,-0.01 -1.68,0.05 -2.55,0.26 -0.13,0.03 -0.27,0.07 -0.4,0.11 0,0 -0.02,0 -0.05,0.01 -0.03,0.01 -0.07,0.02 -0.12,0.04 -0.12,0.04 -0.29,0.1 -0.48,0.18 -0.05,0.03 -0.11,0.05 -0.16,0.08 -0.02,0.01 -0.05,0.03 -0.07,0.04 -0.05,0.03 -0.1,0.06 -0.15,0.09 -0.02,0.01 -0.04,0.03 -0.07,0.05 -0.04,0.03 -0.09,0.06 -0.14,0.1 -0.02,0.02 -0.04,0.04 -0.06,0.06 -0.06,0.04 -0.11,0.09 -0.15,0.14 0,0 0,0 0,0 -0.01,0.01 -0.01,0.01 -0.02,0.02l0 -0.34c0.51,-0.58 1.47,-0.81 1.47,-0.81 0.99,-0.29 2.06,-0.37 2.95,-0.37l0.02 0c0.89,0 1.96,0.08 2.95,0.37 0,0 0.94,0.23 1.45,0.79z"/>
   <polygon class="fil0" points="2.56,8.32 2.8,9.36 3.42,9.36 3.42,8.44 4.42,8.45 5.42,8.44 5.42,9.36 6.04,9.36 6.28,8.32 "/>
   <path class="fil0" d="M6.6 8.66c0.03,-0.15 0.09,-0.2 0.09,-0.2 0.08,-0.09 0.47,-0.08 0.47,-0.08l1.68 0.09c-0.17,-0.14 -0.65,-0.22 -0.65,-0.22 -0.56,-0.07 -1.13,-0.13 -1.7,-0.16l-0.28 1.27 2.63 0 0 -0.23 -2.33 -0.07 0.09 -0.4z"/>
   <path class="fil0" d="M2.24 8.66c-0.02,-0.15 -0.09,-0.2 -0.09,-0.2 -0.08,-0.09 -0.47,-0.08 -0.47,-0.08l-1.68 0.09c0.17,-0.14 0.65,-0.22 0.65,-0.22 0.57,-0.07 1.13,-0.13 1.7,-0.16l0.28 1.27 -2.63 0 0 -0.23 2.34 -0.07 -0.1 -0.4z"/>
   <polygon class="fil0" points="5.13,8.54 5.13,9.36 4.98,9.3 4.99,8.62 5,8.6 4.43,8.6 3.86,8.6 3.88,8.62 3.89,9.3 3.73,9.36 3.73,8.54 3.81,8.58 3.81,8.54 4.43,8.54 5.06,8.54 5.06,8.58 "/>
   <polygon class="fil0" points="6.43,8 6.43,8 6.42,8 "/>
   <polygon class="fil0" points="6.27,8.32 6.25,8.32 6.26,8.32 "/>
   <polygon class="fil0" points="2.97,8.32 2.97,8.32 2.97,8.32 "/>
   <g>
    <g>
     <g>
      <path class="fil0" d="M7.71 7.8l0.03 -0.2 0.09 -0.71 0.06 -0.09 -0.07 0.49 -0.06 0.47c0,0 -0.02,0.08 0.02,0.08l1.06 0.21 0 0.07 -1.09 -0.23c0,0 -0.05,-0.01 -0.04,-0.09zm0.28 -1.05l0.02 -0.17 0.06 -0.09 -0.01 0.07 -0.15 1.09c0,0 -0.01,0.05 0.03,0.06l0.9 0.18 0 0.06 -0.93 -0.19c0,0 -0.05,-0.01 -0.05,-0.09l0.13 -0.92zm0.04 0.78l0.18 -1.27 0.05 -0.09 -0.19 1.33c0,0 -0.01,0.08 0.04,0.07l0.73 0.15 0 0.06 -0.78 -0.16c0,0 -0.04,-0.02 -0.03,-0.09zm0.17 -0.15l0.2 -1.45 0.06 -0.09 -0.22 1.52c0,0 -0.02,0.08 0.04,0.07l0.56 0.12 0 0.07 -0.6 -0.13c0,0 -0.06,-0.01 -0.04,-0.11z"/>
     </g>
    </g>
    <path class="fil0" d="M8.48 7.19c0,0 -0.02,0.09 0.07,0.09l0.29 0.03 0 0.09 -0.38 -0.05c0,0 -0.1,-0.02 -0.09,-0.11l0.24 -1.43 0 0 0 0 0.06 -0.35 0.12 -0.21 -0.1 0.63 0 0 -0.07 0.43 0.22 0.1 0 0.05 -0.23 -0.09 -0.05 0.29 0.28 0.12 0 0.05 -0.28 -0.12 -0.07 0.42 -0.01 0.06z"/>
   </g>
   <g>
    <g>
     <g>
      <path class="fil0" d="M1.13 7.8l-0.02 -0.2 -0.1 -0.71 -0.06 -0.09 0.07 0.49 0.07 0.47c0,0 0.01,0.08 -0.03,0.08l-1.06 0.21 0 0.07 1.09 -0.23c0,0 0.05,-0.01 0.04,-0.09zm-0.28 -1.05l-0.02 -0.17 -0.06 -0.09 0.01 0.07 0.15 1.09c0,0 0.01,0.05 -0.03,0.06l-0.9 0.18 0 0.06 0.93 -0.19c0,0 0.05,-0.01 0.05,-0.09l-0.13 -0.92zm-0.04 0.78l-0.17 -1.27 -0.06 -0.09 0.19 1.33c0,0 0.01,0.08 -0.04,0.07l-0.73 0.15 0 0.06 0.78 -0.16c0,0 0.05,-0.02 0.03,-0.09zm-0.16 -0.15l-0.21 -1.45 -0.06 -0.09 0.22 1.52c0,0 0.02,0.08 -0.04,0.07l-0.56 0.12 0 0.07 0.6 -0.13c0,0 0.06,-0.01 0.05,-0.11z"/>
     </g>
    </g>
    <path class="fil0" d="M0.36 7.19c0,0 0.02,0.09 -0.06,0.09l-0.3 0.03 0 0.09 0.38 -0.05c0,0 0.1,-0.02 0.09,-0.11l-0.24 -1.43 0 0 0 0 -0.06 -0.35 -0.12 -0.21 0.1 0.63 0 0 0.07 0.43 -0.22 0.1 0 0.05 0.23 -0.09 0.05 0.29 -0.28 0.12 0 0.05 0.29 -0.12 0.06 0.42 0.01 0.06z"/>
   </g>
   <g>
    <g>
     <g>
      <circle class="fil1" transform="matrix(0.13544 -0.169558 0.157411 0.145892 3.32165 6.26921)" r="0.69"/>
      <circle class="fil1" transform="matrix(0.176454 -0.117953 0.109503 0.190071 2.99667 5.85948)" r="0.69"/>
      <circle class="fil1" transform="matrix(0.201188 -0.0554755 0.0515014 0.216712 2.80052 5.36274)" r="0.69"/>
      <circle class="fil1" transform="matrix(0.0112555 -0.223356 0.207355 0.0121241 2.74999 4.82606)" r="0.69"/>
      <circle class="fil1" transform="matrix(0.0729741 -0.20942 0.194418 0.0786052 2.85291 4.29767)" r="0.69"/>
      <circle class="fil1" transform="matrix(0.127964 -0.17618 0.163558 0.137839 3.09858 3.82639)" r="0.69"/>
      <circle class="fil1" transform="matrix(0.171159 -0.126677 0.117602 0.184367 3.46374 3.45733)" r="0.69"/>
      <circle class="fil1" transform="matrix(0.198571 -0.0654969 0.0608048 0.213894 3.91512 3.2232)" r="0.69"/>
      <circle class="fil1" transform="matrix(0.00160102 -0.223692 0.207667 0.00172457 4.41073 3.14506)" r="0.69"/>
      <circle class="fil1" transform="matrix(0.0638575 -0.212843 0.197595 0.0687852 4.90457 3.23249)" r="0.69"/>
      <circle class="fil1" transform="matrix(0.120218 -0.182398 0.169332 0.129495 5.35224 3.47294)" r="0.69"/>
      <circle class="fil1" transform="matrix(0.16551 -0.13511 0.125431 0.178282 5.71287 3.84981)" r="0.69"/>
      <circle class="fil1" transform="matrix(0.195518 -0.0753841 0.0699837 0.210606 5.95071 4.32254)" r="0.69"/>
      <circle class="fil1" transform="matrix(0.207501 -0.00867923 0.00805747 0.223513 6.04473 4.85334)" r="0.69"/>
      <circle class="fil1" transform="matrix(0.0545956 -0.215818 0.200357 0.0588085 5.98929 5.38986)" r="0.69"/>
      <circle class="fil1" transform="matrix(0.112223 -0.188214 0.174731 0.120883 5.78589 5.8832)" r="0.69"/>
      <circle class="fil1" transform="matrix(0.159488 -0.143274 0.133011 0.171795 5.4546 6.28552)" r="0.69"/>
      <circle class="fil1" transform="matrix(0.13544 -0.169558 0.157411 0.145892 3.61512 5.90087)" r="0.5"/>
      <circle class="fil1" transform="matrix(0.176454 -0.117953 0.109503 0.190071 3.37892 5.6032)" r="0.5"/>
      <circle class="fil1" transform="matrix(0.201188 -0.0554755 0.0515014 0.216712 3.23641 5.24156)" r="0.5"/>
      <circle class="fil1" transform="matrix(0.0112555 -0.223356 0.207355 0.0121241 3.19938 4.85109)" r="0.5"/>
      <circle class="fil1" transform="matrix(0.0729741 -0.20942 0.194418 0.0786052 3.2742 4.46659)" r="0.5"/>
      <circle class="fil1" transform="matrix(0.127964 -0.17618 0.163558 0.137839 3.45277 4.12382)" r="0.5"/>
      <circle class="fil1" transform="matrix(0.171159 -0.126677 0.117602 0.184367 3.71833 3.85549)" r="0.5"/>
      <circle class="fil1" transform="matrix(0.198571 -0.0654969 0.0608048 0.213894 4.04711 3.68523)" r="0.5"/>
      <circle class="fil1" transform="matrix(0.00160113 -0.223692 0.207667 0.00172468 4.4073 3.62816)" r="0.5"/>
      <circle class="fil1" transform="matrix(0.0638575 -0.212843 0.197595 0.0687852 4.76665 3.69213)" r="0.5"/>
      <circle class="fil1" transform="matrix(0.120218 -0.182398 0.169332 0.129495 5.09195 3.86664)" r="0.5"/>
      <circle class="fil1" transform="matrix(0.16551 -0.13511 0.125431 0.178282 5.35425 4.14121)" r="0.5"/>
      <circle class="fil1" transform="matrix(0.195518 -0.0753841 0.0699837 0.210606 5.52747 4.48478)" r="0.5"/>
      <circle class="fil1" transform="matrix(0.207501 -0.00867923 0.00805747 0.223513 5.59552 4.87076)" r="0.5"/>
      <circle class="fil1" transform="matrix(0.0545956 -0.215818 0.200357 0.0588085 5.55551 5.26142)" r="0.5"/>
      <circle class="fil1" transform="matrix(0.112223 -0.188214 0.174731 0.120883 5.40766 5.62044)" r="0.5"/>
      <circle class="fil1" transform="matrix(0.159488 -0.143274 0.133011 0.171795 5.16687 5.91231)" r="0.5"/>
      <circle class="fil1" transform="matrix(0.13544 -0.169558 0.157411 0.145892 3.9039 5.53775)" r="0.32"/>
      <circle class="fil1" transform="matrix(0.176454 -0.117953 0.109503 0.190071 3.75558 5.35004)" r="0.32"/>
      <circle class="fil1" transform="matrix(0.201188 -0.0554755 0.0515014 0.216712 3.66615 5.12159)" r="0.32"/>
      <circle class="fil1" transform="matrix(0.0112555 -0.223356 0.207355 0.0121241 3.64187 4.87582)" r="0.32"/>
      <circle class="fil1" transform="matrix(0.0729741 -0.20942 0.194418 0.0786052 3.6893 4.63311)" r="0.32"/>
      <circle class="fil1" transform="matrix(0.127964 -0.17618 0.163558 0.137839 3.80197 4.41675)" r="0.32"/>
      <circle class="fil1" transform="matrix(0.171159 -0.126677 0.117602 0.184367 3.96965 4.24777)" r="0.32"/>
      <circle class="fil1" transform="matrix(0.198571 -0.0654969 0.0608048 0.213894 4.17707 4.14082)" r="0.32"/>
      <circle class="fil1" transform="matrix(0.00160149 -0.223692 0.207667 0.00172507 4.40425 4.1044)" r="0.32"/>
      <circle class="fil1" transform="matrix(0.0638575 -0.212843 0.197595 0.0687852 4.63022 4.14545)" r="0.32"/>
      <circle class="fil1" transform="matrix(0.120218 -0.182398 0.169332 0.129495 4.83568 4.25506)" r="0.32"/>
      <circle class="fil1" transform="matrix(0.16551 -0.13511 0.125431 0.178282 5.00136 4.4284)" r="0.32"/>
      <circle class="fil1" transform="matrix(0.195518 -0.0753841 0.0699837 0.210606 5.11019 4.64437)" r="0.32"/>
      <circle class="fil1" transform="matrix(0.207501 -0.00867923 0.00805747 0.223513 5.15282 4.88817)" r="0.32"/>
      <circle class="fil1" transform="matrix(0.0545956 -0.215818 0.200357 0.0588085 5.12787 5.13445)" r="0.32"/>
      <circle class="fil1" transform="matrix(0.112223 -0.188214 0.174731 0.120883 5.03509 5.36125)" r="0.32"/>
      <circle class="fil1" transform="matrix(0.159488 -0.143274 0.133011 0.171795 4.88281 5.54462)" r="0.32"/>
     </g>
     <g>
      <path class="fil1" d="M4.79 6.35l-0.78 0c-0.02,0 -0.03,-0.02 -0.03,-0.04l0 -0.2c0,-0.02 0.01,-0.03 0.03,-0.03l0.78 0c0.01,0 0.03,0.01 0.03,0.03l0 0.2c0,0.02 -0.02,0.04 -0.03,0.04z"/>
      <path class="fil1" d="M4.72 6.67l-0.64 0c-0.02,0 -0.03,-0.01 -0.03,-0.03l0 -0.16c0,-0.02 0.01,-0.03 0.03,-0.03l0.64 0c0.01,0 0.02,0.01 0.02,0.03l0 0.16c0,0.02 -0.01,0.03 -0.02,0.03z"/>
      <path class="fil1" d="M4.62 6.93l-0.44 0c-0.02,0 -0.03,-0.01 -0.03,-0.02l0 -0.11c0,-0.01 0.01,-0.03 0.03,-0.03l0.44 0c0.01,0 0.03,0.02 0.03,0.03l0 0.11c0,0.01 -0.02,0.02 -0.03,0.02z"/>
     </g>
    </g>
    <path class="fil1" d="M4.39 4.94c0,0 -0.07,-0.25 -0.32,-0.22 0,0 0.07,0.27 0.29,0.3l0 1.06 0.08 0 0 -1.07c0,0 0.3,-0.06 0.35,-0.5 0,0 -0.34,-0.02 -0.4,0.43zm0.01 0.09c-0.05,-0.11 -0.15,-0.18 -0.15,-0.18 0.1,0.05 0.14,0.12 0.14,0.12 0.05,-0.13 0.18,-0.25 0.18,-0.25 -0.13,0.16 -0.17,0.31 -0.17,0.31z"/>
   </g>
   <g>
    <path class="fil0" d="M4.4 1.39l0 -1.33c0,0 -0.03,-0.02 0.02,-0.06 0,0 0.05,0.04 0.02,0.06l0 1.33 -0.04 0 0 0z"/>
    <g>
     <path class="fil0" d="M5.31 0.55l0 0.2c-0.28,-0.19 -0.56,0.18 -0.85,0l0 -0.2c0.29,0.18 0.57,-0.18 0.85,0z"/>
     <path class="fil0" d="M4.46 0.1l0 0.19c0.29,0.19 0.57,-0.18 0.85,0l0 -0.19c-0.28,-0.18 -0.56,0.18 -0.85,0zm0.17 0.22c0,0 -0.01,0 -0.01,0 -0.04,0 -0.07,-0.04 -0.07,-0.08 0,-0.04 0.03,-0.07 0.07,-0.06 0,0 0.01,0 0.01,0 -0.03,0 -0.05,0.03 -0.05,0.06 0,0.04 0.02,0.08 0.05,0.08zm0.04 0c-0.01,0 -0.01,0 -0.01,-0.01 -0.01,0.01 -0.01,0.01 -0.01,0.01 0,0 0,-0.01 0,-0.01 0,0 0,0 -0.01,-0.01l0.01 0c0,0 0.01,0 0.01,-0.01 0,0.01 0,0.01 0,0.01 0,0 0.01,0 0.01,0 0,0.01 -0.01,0.01 -0.01,0.01 0,0 0,0.01 0.01,0.01zm0.05 -0.01c0,0 0,0 -0.01,0 0,0 0,0 0,0.01 0,-0.01 0,-0.01 0,-0.02 0,0 -0.01,0 -0.01,0 0,0 0.01,0 0.01,0 0,-0.01 0,-0.01 0,-0.01 0,0 0,0 0.01,0.01 0,0 0,0 0.01,0 -0.01,0 -0.01,0 -0.01,0 0,0.01 0,0.01 0,0.01zm0 -0.07c0,0.01 0,0.01 0,0.01 0,0 0,0 -0.01,0 0,0 0,0 -0.01,0.01 0.01,-0.01 0.01,-0.01 0.01,-0.01 0,-0.01 -0.01,-0.01 -0.01,-0.01 0,0 0.01,0 0.01,0 0,0 0,-0.01 0,-0.01 0,0 0,0 0.01,0.01 0,0 0,0 0.01,0 -0.01,0 -0.01,0 -0.01,0zm0.06 0.06c-0.01,0 -0.01,0 -0.01,0 0,0 -0.01,0 -0.01,0 0,0 0,0 0,-0.01 0,0 0,0 0,0 0,0 0,0 0.01,0 0,-0.01 0,-0.01 0,-0.01 0,0 0,0 0,0 0.01,0 0.01,0 0.01,0 0,0 0,0.01 -0.01,0.01 0,0 0.01,0.01 0.01,0.01zm-0.01 -0.07c0,0.01 0.01,0.01 0.01,0.01 -0.01,0 -0.01,0 -0.01,0 0,0 -0.01,0 -0.01,0.01 0,-0.01 0,-0.01 0,-0.02 0,0 0,0 0,0 0,0 0,0 0.01,0 0,-0.01 0,-0.01 0,-0.01 0,0 0,0 0,0.01 0.01,0 0.01,-0.01 0.01,-0.01 0,0.01 0,0.01 -0.01,0.01zm0 -0.06c0,0.01 0.01,0.01 0.01,0.01 -0.01,0 -0.01,0 -0.01,0 0,0 -0.01,0 -0.01,0.01 0,-0.01 0,-0.01 0,-0.01 0,-0.01 0,-0.01 0,-0.01 0,0 0,0 0.01,0 0,0 0,-0.01 0,-0.01 0,0 0,0 0,0.01 0.01,0 0.01,0 0.01,-0.01 0,0.01 0,0.01 -0.01,0.01zm0.06 0.11c0,0 0,0 -0.01,0 0,0 0,0.01 0,0.01 0,0 0,-0.01 0,-0.01 0,0 -0.01,0 -0.01,-0.01 0.01,0 0.01,0 0.01,0 0,0 0,-0.01 0,-0.01 0.01,0 0.01,0.01 0.01,0.01 0,0 0,0 0.01,0 -0.01,0 -0.01,0 -0.01,0.01 0,0 0,0 0,0zm0 -0.06c0,0 0,0 0,0.01 0,-0.01 0,-0.01 -0.01,-0.01 0,0 0,0.01 0,0.01 0,0 0,-0.01 0,-0.01 0,0 0,0 -0.01,0 0.01,-0.01 0.01,-0.01 0.01,-0.01 0,0 0,0 0,-0.01 0.01,0 0.01,0.01 0.01,0.01 0,0 0,0 0.01,0 -0.01,0 -0.01,0 -0.01,0.01zm0 -0.06c0,0 0,0 0,0.01 0,0 0,-0.01 -0.01,-0.01 0,0.01 0,0.01 0,0.01 0,0 0,0 0,-0.01 0,0 0,0 -0.01,0 0.01,0 0.01,0 0.01,-0.01 0,0 0,0 0,-0.01 0.01,0.01 0.01,0.01 0.01,0.01 0,0 0,0 0.01,0 -0.01,0 -0.01,0.01 -0.01,0.01zm0.06 0.11c0,0 -0.01,-0.01 -0.01,-0.01 0,0.01 0,0.01 -0.01,0.01 0,0 0,-0.01 0.01,-0.01 -0.01,0 -0.01,0 -0.01,0 0,0 0,-0.01 0.01,-0.01 0,0 0,0 0,-0.01 0,0.01 0,0.01 0,0.01 0.01,0 0.01,0 0.01,0 0,0 0,0 0,0.01 0,0 0,0 0,0.01zm0 -0.07c0,0 0,0.01 0,0.01 0,0 -0.01,0 -0.01,-0.01 0,0.01 0,0.01 -0.01,0.01 0,0 0,0 0.01,-0.01 -0.01,0 -0.01,0 -0.01,0 0,0 0,0 0.01,0 0,-0.01 0,-0.01 0,-0.02 0,0.01 0,0.01 0,0.01 0.01,0 0.01,0 0.01,0l0 0.01zm0 -0.06c0,0 0,0.01 0,0.01 0,0 -0.01,0 -0.01,0 0,0 0,0 -0.01,0 0,0 0,0 0.01,-0.01 -0.01,0 -0.01,0 -0.01,0 0,0 0,0 0.01,0 0,-0.01 0,-0.01 0,-0.01 0,0 0,0 0,0 0.01,0 0.01,0 0.01,0 0,0 0,0.01 0,0.01z"/>
     <path class="fil0" d="M5.31 0.33l0 0.19c-0.28,-0.18 -0.56,0.18 -0.85,0l0 -0.19c0.29,0.18 0.57,-0.19 0.85,0z"/>
    </g>
   </g>
  </g>
 </g>
</svg>
