<?xml version="1.0" encoding="UTF-8"?>
<svg xmlns="http://www.w3.org/2000/svg" xmlns:xlink="http://www.w3.org/1999/xlink" viewBox="0 0 349.57 299.69">
  <defs>
    <style>
      .cls-1 {
        fill: url(#linear-gradient-2);
      }

      .cls-2 {
        fill: url(#linear-gradient-17);
      }

      .cls-3 {
        opacity: .39;
      }

      .cls-3, .cls-4 {
        fill: #fff;
        mix-blend-mode: soft-light;
      }

      .cls-5, .cls-6 {
        fill: #47417d;
      }

      .cls-7 {
        fill: url(#linear-gradient-15);
      }

      .cls-8, .cls-9 {
        fill: #594e83;
      }

      .cls-10 {
        fill: url(#linear-gradient-18);
      }

      .cls-11 {
        fill: url(#linear-gradient);
        mix-blend-mode: screen;
      }

      .cls-12 {
        fill: url(#linear-gradient-14);
      }

      .cls-13 {
        fill: url(#linear-gradient-6);
      }

      .cls-14 {
        isolation: isolate;
      }

      .cls-6, .cls-9, .cls-15 {
        mix-blend-mode: multiply;
      }

      .cls-16 {
        fill: url(#linear-gradient-11);
      }

      .cls-17 {
        clip-path: url(#clippath-1);
      }

      .cls-18 {
        fill: url(#linear-gradient-10);
      }

      .cls-19 {
        stroke: #5ebbd8;
        stroke-width: 1.52px;
      }

      .cls-19, .cls-20, .cls-21 {
        fill: none;
      }

      .cls-19, .cls-21 {
        stroke-linecap: round;
        stroke-linejoin: round;
      }

      .cls-22 {
        fill: url(#radial-gradient);
      }

      .cls-23 {
        fill: url(#linear-gradient-16);
      }

      .cls-24 {
        fill: url(#linear-gradient-5);
      }

      .cls-25 {
        fill: url(#linear-gradient-7);
      }

      .cls-26 {
        fill: url(#linear-gradient-9);
      }

      .cls-27 {
        fill: url(#linear-gradient-3);
      }

      .cls-28 {
        fill: url(#linear-gradient-4);
      }

      .cls-29 {
        fill: url(#linear-gradient-8);
      }

      .cls-30 {
        fill: url(#linear-gradient-12);
      }

      .cls-21 {
        stroke: #8d87bc;
        stroke-width: 1.5px;
      }

      .cls-31 {
        fill: url(#linear-gradient-13);
      }
    </style>
    <radialGradient id="radial-gradient" cx="173.43" cy="88.37" fx="173.43" fy="88.37" r="88.37" gradientUnits="userSpaceOnUse">
      <stop offset="0" stop-color="#e1deef"/>
      <stop offset=".18" stop-color="#d9d6ea"/>
      <stop offset=".46" stop-color="#c6c0dd"/>
      <stop offset=".81" stop-color="#a59cc8"/>
      <stop offset="1" stop-color="#9186bb"/>
    </radialGradient>
    <clipPath id="clippath-1">
      <path class="cls-20" d="m259.35,88.37c0,47.46-38.47,85.93-85.93,85.93s-85.92-38.47-85.92-85.93S125.97,2.44,173.42,2.44s85.93,38.47,85.93,85.92Z"/>
    </clipPath>
    <linearGradient id="linear-gradient" x1="173.42" y1="226.39" x2="173.42" y2="138.84" gradientUnits="userSpaceOnUse">
      <stop offset=".04" stop-color="#fff"/>
      <stop offset=".04" stop-color="#fafafa"/>
      <stop offset=".15" stop-color="silver"/>
      <stop offset=".25" stop-color="#8d8d8d"/>
      <stop offset=".36" stop-color="#626262"/>
      <stop offset=".47" stop-color="#3e3e3e"/>
      <stop offset=".57" stop-color="#232323"/>
      <stop offset=".68" stop-color="#0f0f0f"/>
      <stop offset=".79" stop-color="#030303"/>
      <stop offset=".9" stop-color="#000"/>
    </linearGradient>
    <linearGradient id="linear-gradient-2" x1="139.73" y1="251.46" x2="207.12" y2="251.46" gradientUnits="userSpaceOnUse">
      <stop offset="0" stop-color="#5e559d"/>
      <stop offset="1" stop-color="#a19bc8"/>
    </linearGradient>
    <linearGradient id="linear-gradient-3" x1="140.73" y1="242.59" x2="206.13" y2="242.59" gradientUnits="userSpaceOnUse">
      <stop offset="0" stop-color="#30338c"/>
      <stop offset=".84" stop-color="#6d69aa"/>
      <stop offset="1" stop-color="#7a75b1"/>
    </linearGradient>
    <linearGradient id="linear-gradient-4" x1="139.73" y1="245.4" x2="207.12" y2="245.4" gradientUnits="userSpaceOnUse">
      <stop offset="0" stop-color="#a19bc8"/>
      <stop offset="1" stop-color="#bfbbdb"/>
    </linearGradient>
    <linearGradient id="linear-gradient-5" y1="236.36" y2="236.36" xlink:href="#linear-gradient-2"/>
    <linearGradient id="linear-gradient-6" x1="139.73" y1="225.62" x2="207.12" y2="225.62" gradientUnits="userSpaceOnUse">
      <stop offset="0" stop-color="#827db6"/>
      <stop offset="1" stop-color="#b2b3d7"/>
    </linearGradient>
    <linearGradient id="linear-gradient-7" x1="26.21" y1="278.71" x2="44.23" y2="269.09" xlink:href="#linear-gradient-3"/>
    <linearGradient id="linear-gradient-8" x1="82.65" y1="288.37" x2="82.65" y2="258.56" gradientUnits="userSpaceOnUse">
      <stop offset="0" stop-color="#9186bb"/>
      <stop offset="1" stop-color="#c7c4e1"/>
    </linearGradient>
    <linearGradient id="linear-gradient-9" x1="18.73" y1="251.93" x2="109.87" y2="249.78" gradientUnits="userSpaceOnUse">
      <stop offset="0" stop-color="#786fad"/>
      <stop offset="1" stop-color="#b2b3d7"/>
    </linearGradient>
    <linearGradient id="linear-gradient-10" x1="7.89" y1="243.62" x2="26.3" y2="233.79" xlink:href="#linear-gradient-3"/>
    <linearGradient id="linear-gradient-11" x1="48.32" y1="261.15" x2="48.32" y2="206.74" xlink:href="#linear-gradient-8"/>
    <linearGradient id="linear-gradient-12" x1="16.43" y1="197.45" x2="76.91" y2="196.03" gradientUnits="userSpaceOnUse">
      <stop offset="0" stop-color="#b2b3d7"/>
      <stop offset="1" stop-color="#786fad"/>
    </linearGradient>
    <linearGradient id="linear-gradient-13" x1="-4774.62" y1="278.71" x2="-4756.6" y2="269.09" gradientTransform="translate(-4450.5) rotate(-180) scale(1 -1)" xlink:href="#linear-gradient-3"/>
    <linearGradient id="linear-gradient-14" x1="-4718.18" x2="-4718.18" gradientTransform="translate(-4450.5) rotate(-180) scale(1 -1)" xlink:href="#linear-gradient-8"/>
    <linearGradient id="linear-gradient-15" x1="-4782.1" y1="251.93" x2="-4690.96" y2="249.78" gradientTransform="translate(-4450.5) rotate(-180) scale(1 -1)" xlink:href="#linear-gradient-9"/>
    <linearGradient id="linear-gradient-16" x1="-4792.94" y1="243.62" x2="-4774.53" y2="233.79" gradientTransform="translate(-4450.5) rotate(-180) scale(1 -1)" xlink:href="#linear-gradient-3"/>
    <linearGradient id="linear-gradient-17" x1="-4752.51" y1="261.15" x2="-4752.51" y2="206.74" gradientTransform="translate(-4450.5) rotate(-180) scale(1 -1)" xlink:href="#linear-gradient-8"/>
    <linearGradient id="linear-gradient-18" x1="-4784.4" y1="197.45" x2="-4723.92" y2="196.03" gradientTransform="translate(-4450.5) rotate(-180) scale(1 -1)" xlink:href="#linear-gradient-12"/>
  </defs>
  <g class="cls-14">
    <g id="Layer_2" data-name="Layer 2">
      <g id="Capa_1" data-name="Capa 1">
        <g>
          <line class="cls-21" x1="194.14" y1="44.29" x2="46.67" y2="147.74"/>
          <line class="cls-21" x1="154.25" y1="44.29" x2="301.72" y2="147.74"/>
          <line class="cls-21" x1="46.67" y1="147.74" x2="46.67" y2="205.74"/>
          <line class="cls-21" x1="301.72" y1="205.74" x2="301.72" y2="147.74"/>
        </g>
        <g>
          <g>
            <path class="cls-22" d="m261.79,88.37c0,48.8-39.56,88.37-88.37,88.37s-88.37-39.56-88.37-88.37S124.62,0,173.43,0s88.37,39.56,88.37,88.37Z"/>
            <g class="cls-17">
              <g class="cls-15">
                <path class="cls-8" d="m85.4,21.78l7.87-.23s3.25-.23,4.4.35c1.16.58,4.06,1.85,4.06,1.85,0,0,.58-.76.58,1.04s.46,3.01,0,3.36c-.46.35-.35,0-1.27.58-.93.58-1.39,1.28-1.39,1.28l.23,1.51,1.27,1.16s.23.58.11,1.5c-.11.93-.92,2.32-1.04,3.13-.11.81-1.5,2.08-1.97,2.78-.46.69-1.27,2.43-1.39,3.01-.11.58-1.27,3.36-1.39,4.28-.12.93-.81,1.27.23,3.36,1.04,2.08,1.97,5.09,2.2,5.67.23.58.81,2.2.81,3.24s.46,2.78,1.39,4.05c.93,1.28,1.97,1.74,1.97,1.74,0,0,.58-.69.35-1.62-.24-.93-.47-1.97-.81-3.12-.35-1.16-.7-2.2-1.04-2.66-.35-.46-.93-4.05-.93-4.05,1.51,1.27,2.09,4.51,2.9,5.44.81.93,3.24,3.01,3.24,4.52s-1.04,5.44,0,5.9c1.04.46,2.89,1.16,3.47,1.5.58.35,1.04.46,1.74.81.7.35,3.12,1.04,3.7,1.04s2.66-.46,3.24-.12c.57.35.81.58,1.97.58s3.13.23,3.94.69c.81.46,2.31,2.2,3.82,3.13,1.51.93-.69,2.08.35,4.05,1.04,1.97,4.98,5.55,5.21,6.14.23.58.93,2.08,1.16,2.89.23.81-.46,4.28-2.43,5.79-1.97,1.5-2.09,1.85-.23,4.51,1.85,2.66,2.78,4.86,5.21,6.95,2.44,2.08,1.39,3.12,3.36,4.63,1.97,1.51,4.29,2.66,4.86,3.24.57.58,2.89,3.24,3.12,5.56.23,2.31.7,5.09,0,6.02-.7.92-1.51,1.96-1.62,3.36-.12,1.39.12,9.03.23,10.3.12,1.27.81,3.48,2.09,4.05,1.27.58,2.77,2.9,3.01,4.52.23,1.61-.81,4.98-.23,5.67.58.7,2.43,1.85,3.25,2.2.81.35,2.55,1.51,3.24,1.62.7.11,1.74.11,1.74.11,0,0,1.73-1.16,1.04-1.97-.69-.81-2.2-1.62-3.01-3.01-.81-1.39-1.62-3.24-1.62-3.59s-.35-5.9-.69-5.9-1.74-2.32,0-3.01c1.74-.7,4.98-4.4,4.98-4.4,0,0,1.51-.81,2.21-1.39.69-.58,1.27.58,2.19-2.31.93-2.9.12-4.29,1.39-4.86,1.27-.58.93-3.71,3.24-5.56,2.32-1.85,2.78-2.77,5.1-3.59,2.31-.81,3.47-.69,3.47-3.47s-.46-6.37.46-7.87c.92-1.5,1.62-2.55,2.32-4.28.7-1.74.58-4.17-1.04-5.33-1.62-1.16-.12-1.5-3.47-1.85-3.36-.35-5.33-1.16-6.26-1.16s-2.31-.58-4.86-.93c-2.54-.34-1.51-1.16-.46-3.24,1.04-2.08,2.66-4.4-.35-4.98-3.01-.58-2.55.11-4.74-.93-2.2-1.04-5.44-4.75-7.87-5.67-2.43-.92-4.75,1.16-6.25.69-1.5-.46-3.59-.58-4.86-1.39-1.27-.81-2.31-.93-2.89.35-.58,1.27-.7,2.78-2.43,2.78s-3.47.23-3.59-.69c-.12-.93-2.09-1.16-1.39-3.01.69-1.85,1.16-1.74.93-2.89-.23-1.16-.23-1.62-1.39-2.08-1.16-.46-6.14-2.43-7.88-3.24-1.74-.81-3.47-2.43-4.28-3.71-.81-1.27-1.62-1.62-1.62-2.78s-.46-4.4,1.74-5.32c2.2-.92,3.35-1.39,5.9-1.39s4.28-.81,4.63-.93c.35-.12,2.43,1.16,3.36,2.66.92,1.51.69,4.98,2.66,2.78,1.97-2.2,1.85-1.27,1.97-3.82.11-2.55-.93-2.55.35-3.36,1.27-.81,4.17-2.43,6.14-6.71,1.97-4.28-.35-5.21,2.66-5.44,3.01-.23,4.17.35,5.1-.46.92-.81,0-.92,1.5-1.97,1.51-1.04,3.59-.46,4.64-.69,1.04-.23,2.66,0,3.47-1.85.81-1.85,0-3.47,0-3.82s1.74-1.51,2.31-1.51,3.82-.23,4.75.12c.93.35,3.94-.76,3.7-3.13-.23-2.37.58-2.43-1.16-3.82-1.74-1.39-5.44.11-7.64-.81-2.2-.93-2.09-1.86-3.25-2.9-1.16-1.04-.46-1.85-2.08-1.27-1.62.58-2.66,0-3.7,1.73-1.04,1.74-1.39,2.48-2.2,3.59-.81,1.11-.93,1.85-2.2,2.78-1.28.93-1.28,4.21-4.06,1.27-2.78-2.94-3.24-3.59-3.82-3.7-.58-.12-1.85.81-1.85-1.39s-1.39-2.66.46-3.47c1.86-.81,4.63-1.97,5.67-2.31,1.05-.35,1.85-.58,3.24-1.28,1.39-.69,1.85-.46,2.78-1.74.92-1.28,1.5-1.04,1.15-2.2-.34-1.16-1.04-2.78-3.47-2.2-2.43.58-3.12,1.97-5.32,1.27-2.2-.69-2.55,0-3.82-1.39-1.27-1.39-1.62-2.55-3.36-2.78-1.73-.23-1.73-.69-2.78-.23-1.04.46-1.39,1.97-.81,2.78.58.81,2.2.58,2.2,1.85s2.66,3.82-1.39,1.74c-4.06-2.08-1.97-1.97-4.86-2.55-2.9-.58-4.17-1.39-5.79-1.04-1.62.35,4.63,1.16-3.01.35-7.64-.81-9.03-1.16-10.19-1.16s-5.56-.12-8.8-.24c-3.24-.11-4.29,0-5.32.81-1.04.81-1.86.81-2.43,1.27-.58.46-2.01,1.27-4.63,2.78-2.61,1.51-4.17,1.62-5.09,2.55-.93.93-2.66,1.04-3.59,2.32-.92,1.27-1.97,2.66-1.62,3.36.35.69.23,1.27,2.08.81,1.85-.46,4.12-2.31,4.86-1.97Z"/>
                <path class="cls-8" d="m217.1,51.18c-1.39,0-6.02,1.62-6.95,3.47-.92,1.85-.47,1.62-2.09,4.63-1.62,3.01-4.17,6.72-4.86,7.88-.69,1.15-2.31,1.62-1.62,2.77.69,1.16,2.78,3.71,3.24,5.33.47,1.62-.23,4.17,0,5.33.23,1.16,2.08,3.01,3.24,4.17,1.16,1.16,2.31,1.85,3.71,1.85s3.24-.46,3.24-.46c0,0,5.91-.12,7.18-.7,1.27-.58,2.67-1.27,3.36-.23.69,1.04.93,2.77,2.89,2.31,1.97-.46,2.43-.7,2.66,0,.23.69.35,1.73.23,3.47-.12,1.73-.35,1.73-.46,3.24-.12,1.51.58,4.05,1.16,4.17.58.12.93,0,1.73,2.2.81,2.2,1.51,3.36,1.51,3.36,0,0,.35.58-.12,1.85-.46,1.27-1.04,1.73-1.27,3.36-.23,1.62-.69,4.17-.58,5.44.12,1.28,1.04,2.67,1.51,2.9.46.23,1.27,2.66,1.27,3.47s.81,3.13,1.97,5.67c1.16,2.55,1.51,3.01,1.97,3.82.46.81.12,2.78.12,2.78,0,0,.69.81,1.39.93.69.12,1.39,0,2.66-.12,1.27-.12,1.85.23,2.89,0,1.04-.23,1.86-.92,2.66-2.08.81-1.16,1.51-2.67,2.09-2.67s.46-.12,1.85-1.97c1.39-1.85-.58-2.31,2.43-3.71,3.01-1.39,3.83-.69,3.59-2.43-.24-1.74-1.04-3.82-1.04-4.63s.23-3.24,2.66-4.05c2.43-.8,3.12-3.01,3.12-4.62s.69-1.62-.23-3.82c-.93-2.2-2.08-3.82-1.74-5.09.34-1.28,1.27-2.66,3.59-4.52,2.31-1.85,4.17-3.48,5.09-4.4.93-.93,1.85-1.16,2.9-3.59,1.04-2.43.69-3.13,1.16-3.94.47-.81,1.74-2.08,1.04-3.24-.69-1.16-1.04.11-4.98.23-3.94.12-4.17.81-4.98-.58-.81-1.39-2.32-.93-4.52-5.33-2.2-4.4-1.27-4.05-2.66-6.37-1.39-2.32-1.86-3.59-1.86-3.59,0,0,1.51,1.05-.11-2.2-1.62-3.24-2.55-3.71-1.62-3.82.93-.11,3.01-.58,3.01-1.5s-1.62-3.59-.11-2.66c1.5.92,1.85,1.85,1.62,3.24-.23,1.39-1.16,1.62-.81,2.66.35,1.05,2.32,5.21,2.67,6.14.35.92,1.27,2.55,1.97,3.71.7,1.16,1.51,3.01,2.66,4.17,1.16,1.16,1.39,3.71,1.85,4.17.47.46,1.39.7,3.48-.46,2.08-1.16,3.82-1.97,4.75-2.78.92-.81.69-1.85,2.78-2.55,2.08-.7,1.97-.58,3.36-1.62,1.39-1.04,1.97-2.08,2.2-2.78.23-.7.93-1.16-.35-1.85-1.27-.69-1.39-1.51-2.55-2.43-1.15-.93-.69-1.74-2.08-1.16-1.39.58-1.15.92-2.43,1.16-1.28.23-1.62-.46-2.43-.81-.81-.35-1.28.81-2.78-1.39-1.51-2.2-2.89-2.66-2.43-3.36.47-.7,0-1.39,1.27-1.27,1.28.11,1.28-.24,2.43.57,1.16.81.93,1.27,1.97,1.74q1.05.46,2.9.93c1.85.47,3.94.81,3.94.81,0,0,1.5.93,1.85,1.27.35.35,1.62.58,4.17.58s3.36-1.62,4.63.58c1.28,2.2,2.2,4.06,2.55,4.52.35.46,1.27.35,2.2.93.92.58,1.96,2.32,2.66,3.7.69,1.39.93,4.29,1.04,4.86.11.58,3.01,6.37,3.01,6.37,0,0,2.78,1.85,3.24-1.39.46-3.24-1.97-3.24.46-5.56,2.43-2.32,6.37-8.1,7.18-9.03.81-.93-.58-2.67,2.08-1.51,2.67,1.16,2.43-.23,3.24,1.51.81,1.73,1.62,4.4,1.85,5.21.23.81,2.89,2.2,3.24,2.2s.81-2.2.81-2.2c0,0,1.39,5.32,1.85,7.18.46,1.85-.46,2.2.46,3.7.93,1.51,2.32,3.24,2.78,3.94.46.69,1.04,2.55,1.04,2.55,0,0,.34,1.62,1.16,1.97.81.35.93,1.86,1.51.35.58-1.51,1.62-.12.69-2.78-.93-2.66-1.39-3.12-2.43-3.82-1.04-.69-.12.23-1.62-1.62-1.5-1.85-2.2-2.08-2.2-3.13s.34-3.48.34-3.48c0,0,2.66.12,3.01,1.28.35,1.16.58,3.7,2.09,3.47,1.5-.23.46,0,2.43-1.16,1.97-1.16,5.91-.46,3.36-3.47-2.55-3.01-1.74-2.78-3.13-4.17-1.39-1.39-1.85-5.33-.81-5.79,1.04-.46.35-.93,2.78-.93s3.12-.23,4.4-.92c1.27-.69.46-.35,1.97-1.86,1.5-1.5,3.36-1.97,3.13-4.4-.24-2.43,0-2.89-1.04-4.17-1.04-1.27-2.78-3.47-3.01-4.51-.23-1.04-1.51-.93-.34-1.74,1.15-.81,2.08-.7,1.96-1.04-.12-.35-2.66.23-4.17-1.51-1.51-1.73-4.05-1.62-1.51-2.2,2.55-.58,2.32-.69,4.05-.35,1.74.35,2.89.93,3.24.23.35-.69.46-2.89,1.16-1.04.69,1.85-1.27,3.59-.23,4.75,1.04,1.16,1.5,2.43,3.12,2.66,1.62.23,2.66,1.51,2.89.23.23-1.28,1.16-1.97-.23-2.66-1.39-.7-1.85-.7-1.97-2.32-.11-1.62-.58-2.08-.35-3.13.23-1.04.58-1.97,1.74-2.78,1.16-.81,1.51-1.74,1.74-2.08.23-.35.46-1.39.23-2.09-.23-.69-.58-1.85-.58-1.85,0,0,3.01,0,3.82,1.27.81,1.27.81,1.85.93,2.32.11.46,1.73,3.01,1.04-.46-.69-3.47-1.73-4.75-1.73-4.75,0,0-8.11-6.48-6.83-3.94,1.28,2.55,1.39,3.82-.81,2.2-2.2-1.62-1.85-1.85-3.7-2.78-1.85-.92-3.82-.93-2.66-2.43,1.16-1.51,3.59-2.31,4.4-2.31s.93.46,3.59-.47c2.66-.92,4.75-3.47,5.33-3.71.58-.23,1.85.12,2.2.35.35.23.69-1.74,1.74,1.51,1.04,3.24,1.16,5.9,1.5,6.25.35.35.93,1.27,1.86,1.85.92.58,2.43,1.85,3.59,2.43,1.16.57,1.39,1.15,1.97.57.58-.57.93-4.16.35-5.32-.58-1.16-.35-1.27-1.39-1.97-1.04-.69-2.32-2.32-2.32-2.32,0,0-.12-.81.69-1.16.81-.34,1.39-.81,2.66-.81s1.85.58,2.66-.35c.81-.93-1.04-2.55-1.27-2.9-.23-.35-.11.69-.23-.35-.12-1.04,1.62-1.62,2.78-.81,1.16.81,2.2,1.04,2.66,1.04s5.21-.58.46-1.62c-4.74-1.04-6.71-3.13-10.88-3.13s.92-.35-6.48,0c-7.41.35-14.24.35-15.29.35s-1.27-2.43-2.43-2.43-4.52,1.16-9.38.93c-4.86-.23-20.38-2.66-20.38-2.66,0,0-1.04-.35-4.63-.35s-6.37,0-5.32-.69c1.04-.7,2.08-.93-.7-1.39-2.78-.46-8.45-1.27-8.45-1.27,0,0,.12,0-1.39,1.16-1.5,1.16-4.17.81-5.44,1.39-1.27.58-3.94,1.5-4.28,2.2-.35.69-1.62,1.16-1.39,2.55.23,1.39.58,3.13.58,3.47s-.81,2.78-1.39,1.04c-.58-1.74-.81-1.39-.81-3.36s2.32-2.55-.81-3.13c-3.12-.58-5.79-1.62-6.25-1.16-.47.46,0,3.13.35,3.47.35.35,1.97.81,2.08,1.39.12.58-2.78,1.16-4.05.46-1.28-.69-1.39-.58-3.24-1.16-1.85-.58-4.4-1.85-3.01-3.24,1.39-1.39.46-.93,2.78-1.74,2.32-.81,3.48-1.04,2.9-1.51-.58-.46-2.09-3.01-4.51-.81-2.43,2.2-2.67,2.08-3.48,2.66-.81.58-1.27.12-1.27,1.16s.46,2.2,1.04,2.78c.58.58,2.77,1.16,1.04,1.62-1.73.46-2.66.58-4.05,1.16-1.39.58-1.97,1.16-3.7,1.62-1.74.46-2.66.93-3.83.46-1.15-.46-4.97-3.47-3.12-3.47s4.63,3.13,6.02.81c1.39-2.32-.23-3.59-2.32-3.59s-5.21.12-6.6.12-11.35.11-12.97,2.2c-1.62,2.08-3.59,3.94-5.21,4.75-1.62.81-2.43.23-2.2,1.85.23,1.62-.58,2.9,1.74,3.01,2.32.12,2.78-.12,2.78-.12,0,0-.12.58,1.27,1.74,1.39,1.16.69,4.86,2.78,1.51,2.09-3.36,1.85-3.36,2.43-4.98.58-1.62.23-1.97,1.39-2.78,1.16-.81,1.51-4.05,2.66-3.24,1.16.81.93,1.62.93,3.01s-.23,3.36,1.28,3.47c1.5.12,2.78-1.27,3.24,0,.47,1.27.81,1.74.58,3.24-.23,1.5.46,2.66-2.09,1.85-2.55-.81-2.89-1.27-4.51-.58-1.62.69-2.09,1.27-2.32,1.97-.23.7.35,1.62-2.2,1.74-2.55.11-3.47.92-4.98.23-1.5-.69-3.13-1.74-4.51-.58-1.39,1.16-4.06,2.08-4.63,3.36-.58,1.27-1.16,1.97-2.43,1.97s-4.17-3.47-3.59-.12c.58,3.36,4.4,3.12,3.82,4.51-.58,1.39-4.86,2.94-6.48,2.94s-2.66.3-2.66,1.69,3.13,5.21,4.05,5.21,1.16,1.27,2.9-.11c1.74-1.39,1.39-1.5,2.2-2.32.81-.81.46-1.85,2.08-2.78,1.62-.93,1.27-1.74,3.13-2.43,1.85-.69,2.2-3.24,4.17-1.85,1.97,1.39-.23.56,3.01,2.6,3.24,2.04,4.17.88,4.17,2.5s-.12,1.96-.92,2.31c-.81.35-2.78.93-1.16,1.62,1.62.7,2.43,1.85,3.24.12.81-1.74.81-1.04.81-2.78s1.39-3.77-.35-3.77-1.39-1.32-2.55-1.32-4.52.12-2.55-.92c1.97-1.04,2.78-1.16,3.94-.23,1.16.93,2.78,3.7,2.89,4.05.11.35,1.04.93,1.62,2.78.58,1.85.69,2.43,2.08,2.66,1.39.23,1.62-.23,1.04-2.55-.58-2.31.46-3.59,1.97-3.12,1.5.46,3.59-1.62,3.7.58.11,2.2-2.67,4.28-1.16,4.51,1.51.23,2.78-.11,5.21,0,2.43.12,3.48-.69,3.82-.11.35.58.35,3.13-.81,3.48-1.16.35-2.78,2.2-3.36,2.89-.58.7-.11,2.43-2.78,1.04-2.66-1.39-4.17-1.97-5.91-1.97s-1.5.46-3.24,1.04c-1.74.58-2.2.58-4.17.58s-3.47,1.04-4.75-1.27c-1.27-2.31-2.08-3.24-2.78-4.4-.7-1.16-1.51-1.97-4.05-.93-2.55,1.04-6.37,1.85-6.83,1.97-.46.12-3.01.7-3.01.7Z"/>
                <path class="cls-8" d="m356.08,130.38s-8.34,6.71-10.88,5.09c-2.55-1.62-7.18-4.63-4.63-8.34,2.55-3.7,1.39-8.57,4.4-8.8,3.01-.23,3.24-1.85,6.94-2.54,3.71-.7,8.57-2.78,9.73-4.63,1.16-1.85-.23-5.56,2.09-5.56s4.63-1.39,6.71.92c2.08,2.32-.46,7.41,2.55,6.02,3.01-1.38,6.02-3.01,3.93-7.4-2.09-4.4-4.63-4.86-4.63-6.25s-2.55-4.17.69-3.7c3.24.46,4.4.46,5.56,2.08,1.16,1.62,3.71.93,4.17,1.62.46.7-1.16,3.24-2.32,5.56-1.16,2.32-1.85,5.09-.93,6.48.93,1.39,3.47,3.24,3.94,4.87.46,1.62,1.16,5.32,1.16,6.02s.69,4.4,0,5.56c-.69,1.16-2.78,5.1-5.09,6.48-2.32,1.39-1.39,2.78-4.4,3.71-3.01.93-4.17,1.16-6.72,1.39-2.54.23-1.85,5.09-4.86-1.39-3.01-6.48-2.32-7.41-3.47-7.87-1.16-.47-1.39-1.62-2.08-1.62s-1.85,2.31-1.85,2.31Z"/>
                <path class="cls-8" d="m342.71,94.43s-3.47-3.65,1.04-5.73c4.51-2.08,5.38-1.22,6.25-3.47.87-2.25,1.39-6.6,1.39-6.6,0,0,2.26,3.65,2.26,5.73s-.69,4.69-1.39,6.42c-.7,1.74-1.39,2.95-1.91,4.52s-5.21,2.08-5.73,2.08.7,1.22-1.91-2.95Z"/>
                <path class="cls-8" d="m179.35,14.26c.58.22,2.43-2.43,1.39-4.16-1.04-1.74-1.74-3.24-2.43-3.71-.7-.46-3.59-.35-4.28-.46-.69-.11-2.55-2.66-1.97-2.66s4.17-1.39,5.67-1.51c1.5-.12,5.55-1.5,6.25-1.5s3.01.92,4.4.92.35.81,3.71-.23c3.36-1.04-1.16-1.27,3.82-1.27s5.33.11,7.06,0c1.74-.12,3.71-.58,4.52-.34.81.23,2.32,1.15,2.32,1.15,0,0,.47-.23.58,1.05.11,1.27-1.73,1.39-2.55,3.01-.81,1.62-2.08,3.01-3.71,4.28-1.62,1.28-1.5.58-1.97,2.32-.46,1.74,1.5,2.32-1.74,2.43-3.24.12-3.82-.69-6.13.69-2.32,1.39-1.62.58-3.93,2.09-2.32,1.51-4.64,2.9-6.14,3.82-1.51.93-4.75,1.85-5.9-.35-1.16-2.2.11-5.91,1.04-5.56Z"/>
                <path class="cls-8" d="m204.82,15.65c-1.19-.2-2.2,1.39-2.2,1.39,0,0,.58.93,1.16,1.16.58.23,1.04.35,2.08.23,1.04-.12,1.15-.58,1.62-.69.46-.12.7-.47,1.62-.7.93-.23,1.73-1.27.69-1.51-1.04-.23-1.04-.7-2.2-.46-1.15.23-2.08.7-2.78.58Z"/>
                <path class="cls-8" d="m161.7,15.7s3.01-.23,1.56-1.21c-1.44-.98-1.68-1.22-2.83-1.85-1.16-.64-1.74-1.91-2.66-1.56-.93.34-1.05.86-1.97.75-.93-.11-4.17,0-4.17-.35s-.41-1.33,1.33-2.31c1.73-.98,2.32-2.37,2.61-1.56.29.81.17,1.28.17,1.45s.98.64,2.2.17c1.22-.46,1.8-.98,2.61-.69.81.29,1.44,1.16,2.6,1.16s1.8-1.79,2.95-.06c1.16,1.74,1.05,1.56,1.56,2.66.52,1.1.64,1.16.64,1.79s1.04.75-.29,1.5c-1.33.75-1.22.7-2.2.75-.98.06-.75-.23-.98.06-.23.29-.12.29-.46.93-.35.64-.75,0-.75.99s.23,1.68.23,1.68c0,0-.46,1.33-1.85,0-1.39-1.33-1.74-1.28-2.14-1.85-.41-.58-1.45-.4-.58-1.27.87-.87,2.02-1.74,2.43-1.16Z"/>
              </g>
            </g>
          </g>
          <polygon class="cls-11" points="245.97 138.84 100.88 138.84 139.73 226.39 207.1 226.39 245.97 138.84"/>
          <g>
            <g>
              <path class="cls-1" d="m207.12,241c.11,5.05-9.03,8.58-9.28,8.67-4.6,1.71-23.93,9.03-48.02-.03-7.23-2.72-9.94-5.78-10.08-8.65h0v7.48s0,.04,0,.06v.35h0c.17,2.84,2.9,5.88,10.08,8.59,24.09,9.06,43.42,1.74,48.02.02.25-.09,9.32-3.59,9.28-8.61h0s0-7.89,0-7.89h0Z"/>
              <g>
                <path class="cls-27" d="m206.12,233.29c.11,4.49-8.76,7.63-9,7.71-4.47,1.52-23.23,8.03-46.6-.02-7.01-2.42-9.65-5.14-9.79-7.69h0v6.65s0,.04,0,.06v.31h0c.17,2.53,2.81,5.23,9.78,7.63,23.37,8.05,42.13,1.54,46.6.02.24-.08,9.04-3.19,9.01-7.66h0s0-7.01,0-7.01h0Z"/>
                <path class="cls-28" d="m207.12,239.6c0-1.39-1-2.9-1-2.9v3.61h0c.04,4.46-8.76,7.57-9.01,7.65-4.47,1.52-23.23,8.03-46.6-.02-6.97-2.4-9.61-5.11-9.78-7.64h0s0-.3,0-.3c0-.02,0-.04,0-.06v-3.24s-1,.94-1,2.65v1.65h0c.14,2.87,2.86,5.93,10.08,8.65,24.09,9.06,43.42,1.74,48.02.03.25-.09,9.39-3.62,9.28-8.67h0v-.36h0s0-.78,0-1.04Z"/>
                <path class="cls-9" d="m197.11,246.62c-4.47,1.52-23.23,8.03-46.6-.02-6.97-2.4-9.61-5.11-9.78-7.64h0v.98s0,.04,0,.06v.31h0c.17,2.53,2.81,5.23,9.78,7.63,23.37,8.05,42.13,1.54,46.6.02.24-.08,9.04-3.19,9.01-7.66h0s0-1.33,0-1.33h0c.04,4.46-8.76,7.57-9.01,7.65Z"/>
              </g>
            </g>
            <path class="cls-24" d="m207.12,225.9c.11,5.05-9.03,8.58-9.28,8.67-4.6,1.71-23.93,9.03-48.02-.02-7.23-2.72-9.94-5.78-10.08-8.65h0v7.48s0,.04,0,.06v.35h0c.17,2.84,2.9,5.88,10.08,8.59,24.09,9.06,43.42,1.73,48.02.02.25-.09,9.32-3.59,9.28-8.62h0s0-7.89,0-7.89h0Z"/>
            <path class="cls-13" d="m149.6,216.28c-8.02,2.77-17.59,11.57.21,18.26,24.09,9.06,43.42,1.73,48.02.02.4-.15,22.76-8.78-3.39-18.49-17.19-6.38-33.43-3.75-44.85.2Z"/>
          </g>
        </g>
        <polygon class="cls-19" points="270.99 209.21 298.69 228.55 348.81 263.77 298.69 298.93 298.69 298.93 298.69 298.93 298.69 298.93 220.87 244.43 270.99 209.21"/>
        <g>
          <polygon class="cls-19" points="78.58 209.21 50.88 228.55 .76 263.77 50.88 298.93 50.88 298.93 50.88 298.93 50.88 298.93 128.7 244.43 78.58 209.21"/>
          <g>
            <g>
              <g>
                <path class="cls-25" d="m51.56,287.46c-2.92-2.15-22.16-15.46-29.92-20.88-.77-.54-1.66-1.19-2.25-1.6-1.91-1.33-1.32-4.93-1.32-4.93l34.24,24.02v3.7s-.34,0-.76-.31Z"/>
                <path class="cls-29" d="m53,287.51c4.33-3.03,44.67-31.47,58.53-41.19,1.96-1.37,1.37-4.75,1.37-4.75l-60.59,42.5v3.7c.17,0,.44-.09.69-.26Z"/>
                <polygon class="cls-26" points="78.63 217.57 78.63 217.57 78.63 217.57 78.63 217.57 18.07 260.06 52.31 284.08 52.31 284.08 52.31 284.08 52.31 284.08 112.91 241.58 78.63 217.57"/>
                <polygon class="cls-4" points="78.45 220.09 78.45 220.09 78.45 220.09 78.45 220.09 22.36 259.48 41.18 272.74 41.18 272.74 41.18 272.74 41.18 272.74 97.28 233.34 78.45 220.09"/>
                <polygon class="cls-4" points="80.89 247.52 62.53 260.59 72.43 267.56 72.43 267.56 72.43 267.56 72.43 267.56 90.79 254.48 80.89 247.52"/>
              </g>
              <path class="cls-18" d="m18.07,260.05s-2.05-.07-2.05-2.17v-39.59c0-.43.32-1.05.32-1.05l1.73.96v41.85Z"/>
              <polygon class="cls-16" points="18.07 260.05 78.58 217.57 78.58 175.72 18.07 218.2 18.07 260.05"/>
              <polygon class="cls-6" points="18.07 260.05 78.58 217.57 78.58 175.72 18.07 218.2 18.07 260.05"/>
              <path class="cls-30" d="m74.22,176.28c-13.27,9.28-51.37,36.09-56.92,39.89-.76.52-.96,1.07-.96,1.07l1.73.97h0l60.51-42.48s-1.5-1.45-4.36.56Z"/>
              <polygon class="cls-9" points="20.5 255.46 76.67 216.04 76.67 179.99 20.5 219.42 20.5 255.46"/>
              <polygon class="cls-3" points="50.9 198.18 20.63 219.42 20.63 255.46 76.6 216.18 50.9 198.18"/>
              <polygon class="cls-3" points="20.37 255.41 74.55 217.38 59.56 206.84 20.37 234.36 20.37 255.41"/>
              <polygon class="cls-3" points="20.63 229.78 38.02 217.4 30.78 212.3 20.63 219.42 20.63 229.78"/>
            </g>
            <g class="cls-15">
              <polygon class="cls-5" points="46.67 281.27 51.23 284.5 51.23 285.9 46.67 282.68 46.67 281.27"/>
              <polygon class="cls-5" points="40.74 277.09 45.3 280.31 45.3 281.71 40.74 278.5 40.74 277.09"/>
              <polygon class="cls-5" points="27.22 267.62 38.61 275.62 38.61 277.03 27.22 269.03 27.22 267.62"/>
              <polygon class="cls-5" points="19.07 261.92 23.63 265.14 23.63 266.55 19.07 263.33 19.07 261.92"/>
            </g>
          </g>
        </g>
        <g>
          <g>
            <g>
              <path class="cls-31" d="m298.78,287.46c2.92-2.15,22.16-15.46,29.92-20.88.77-.54,1.66-1.19,2.25-1.6,1.91-1.33,1.32-4.93,1.32-4.93l-34.24,24.02v3.7s.34,0,.76-.31Z"/>
              <path class="cls-12" d="m297.33,287.51c-4.33-3.03-44.67-31.47-58.53-41.19-1.96-1.37-1.37-4.75-1.37-4.75l60.59,42.5v3.7c-.17,0-.44-.09-.69-.26Z"/>
              <polygon class="cls-7" points="271.7 217.57 271.7 217.57 271.7 217.57 271.7 217.57 332.26 260.06 298.02 284.08 298.02 284.08 298.02 284.08 298.02 284.08 237.43 241.58 271.7 217.57"/>
              <polygon class="cls-4" points="271.89 220.09 271.89 220.09 271.89 220.09 271.89 220.09 327.97 259.48 309.15 272.74 309.15 272.74 309.15 272.74 309.15 272.74 253.05 233.34 271.89 220.09"/>
              <polygon class="cls-4" points="269.44 247.52 287.8 260.59 277.91 267.56 277.91 267.56 277.91 267.56 277.91 267.56 259.54 254.48 269.44 247.52"/>
            </g>
            <path class="cls-23" d="m332.26,260.05s2.05-.07,2.05-2.17v-39.59c0-.43-.32-1.05-.32-1.05l-1.73.96v41.85Z"/>
            <polygon class="cls-2" points="332.26 260.05 271.75 217.57 271.75 175.72 332.26 218.2 332.26 260.05"/>
            <polygon class="cls-6" points="332.26 260.05 271.75 217.57 271.75 175.72 332.26 218.2 332.26 260.05"/>
            <path class="cls-10" d="m276.12,176.28c13.27,9.28,51.37,36.09,56.92,39.89.76.52.96,1.07.96,1.07l-1.73.97h0l-60.51-42.48s1.5-1.45,4.36.56Z"/>
            <polygon class="cls-9" points="329.83 255.46 273.67 216.04 273.67 179.99 329.83 219.42 329.83 255.46"/>
            <polygon class="cls-3" points="299.44 198.18 329.7 219.42 329.7 255.46 273.73 216.18 299.44 198.18"/>
            <polygon class="cls-3" points="329.96 255.41 275.78 217.38 290.77 206.84 329.96 234.36 329.96 255.41"/>
            <polygon class="cls-3" points="329.7 229.78 312.31 217.4 319.56 212.3 329.7 219.42 329.7 229.78"/>
          </g>
          <g class="cls-15">
            <polygon class="cls-5" points="303.66 281.27 299.11 284.5 299.11 285.9 303.66 282.68 303.66 281.27"/>
            <polygon class="cls-5" points="309.59 277.09 305.04 280.31 305.04 281.71 309.59 278.5 309.59 277.09"/>
            <polygon class="cls-5" points="323.12 267.62 311.72 275.62 311.72 277.03 323.12 269.03 323.12 267.62"/>
            <polygon class="cls-5" points="331.26 261.92 326.71 265.14 326.71 266.55 331.26 263.33 331.26 261.92"/>
          </g>
        </g>
      </g>
    </g>
  </g>
</svg>