<?xml version="1.0" encoding="UTF-8"?>
<svg id="Layer_2" data-name="Layer 2" xmlns="http://www.w3.org/2000/svg" xmlns:xlink="http://www.w3.org/1999/xlink" viewBox="0 0 340.5 311.44">
  <defs>
    <style>
      .cls-1 {
        fill: #343434;
      }

      .cls-2 {
        fill: url(#linear-gradient-2);
      }

      .cls-3 {
        opacity: .7;
      }

      .cls-4 {
        fill: #fff;
      }

      .cls-5 {
        fill: url(#linear-gradient-6);
      }

      .cls-6 {
        fill: #333;
      }

      .cls-7 {
        fill: url(#linear-gradient-5);
      }

      .cls-8 {
        fill: url(#linear-gradient-3);
      }

      .cls-9 {
        fill: url(#linear-gradient);
      }

      .cls-10 {
        fill: url(#linear-gradient-4);
      }
    </style>
    <linearGradient id="linear-gradient" x1="-47.53" y1="218.55" x2="-30.26" y2="187.46" gradientTransform="translate(125.27) rotate(-180) scale(1 -1)" gradientUnits="userSpaceOnUse">
      <stop offset="0" stop-color="#0072bb"/>
      <stop offset="1" stop-color="#008fd5"/>
    </linearGradient>
    <linearGradient id="linear-gradient-2" x1="-62.47" y1="233.12" x2="-49.52" y2="210.66" gradientTransform="translate(125.27) rotate(-180) scale(1 -1)" gradientUnits="userSpaceOnUse">
      <stop offset="0" stop-color="#008fd5"/>
      <stop offset="1" stop-color="#00adef"/>
    </linearGradient>
    <linearGradient id="linear-gradient-3" x1="-86.43" y1="264.82" x2="-61.93" y2="222.07" gradientTransform="translate(125.27) rotate(-180) scale(1 -1)" gradientUnits="userSpaceOnUse">
      <stop offset="0" stop-color="#a42538"/>
      <stop offset="1" stop-color="#ff4c1b"/>
    </linearGradient>
    <linearGradient id="linear-gradient-4" x1="18.72" y1="118.42" x2="33.4" y2="118.42" gradientTransform="translate(271.96) rotate(-180) scale(1 -1)" xlink:href="#linear-gradient-2"/>
    <linearGradient id="linear-gradient-5" x1="165.28" y1="99.93" x2="179.97" y2="99.93" gradientTransform="translate(271.96) rotate(-180) scale(1 -1)" xlink:href="#linear-gradient"/>
    <linearGradient id="linear-gradient-6" x1="257.27" y1="219.86" x2="271.96" y2="219.86" gradientTransform="translate(271.96) rotate(-180) scale(1 -1)" xlink:href="#linear-gradient-3"/>
  </defs>
  <g id="Layer_1-2" data-name="Layer 1">
    <g>
      <g>
        <polygon class="cls-9" points="98.82 220.19 98.96 290.67 246.13 205.7 246.03 149.48 244.06 141.78 233.22 164.57 216.83 160.39 193.83 172.22 185.34 193.62 168.46 196.41 156.21 214.9 144.99 194.4 136.78 203.04 130.05 213.32 119.64 212.2 111.72 217.2 98.82 220.19"/>
        <polygon class="cls-2" points="114.56 236.6 114.67 300.11 261.84 215.14 261.8 176.03 261.41 167.15 255.05 171.3 252.26 164.69 247.69 174.73 236.18 179.43 230.38 183.98 224.72 187.99 220.11 186.42 210.92 191.72 203.58 197.03 196.85 204.09 191.65 208.14 189.81 208.15 185.21 211.86 184.29 210.28 173.28 220.86 170.51 221.4 164.07 216.68 158.91 226.12 153.98 233.06 145.72 239.95 134.67 237.87 128.21 234.19 121.12 250.15 114.56 236.6"/>
        <polygon class="cls-8" points="171.87 230.85 165.47 246.9 159.81 248.93 155.83 243.92 144.34 258.04 139.77 268.41 136.98 259.43 130.61 262.31 130.29 277.7 130.37 311.44 277.55 226.47 277.47 191.03 269.08 185.7 262.92 196.02 255.49 186.1 244.51 206.58 236.23 207.82 227.07 208.9 222.49 218.36 217.85 214.91 215.09 218.27 204.05 217.58 203.14 221.63 198.54 222.52 196.7 225.35 191.5 226.6 184.74 225.2 178.82 235.69 171.87 230.85"/>
      </g>
      <path class="cls-4" d="m255.5,186.95c.17,0,.33-.05.48-.15.39-.27.49-.79.22-1.18l-7.8-11.37c-.09-.12-.2-.23-.34-.29l-30.87-14.34c-.42-.2-.93-.01-1.13.41-.2.43-.01.93.41,1.13l30.66,14.24,7.67,11.18c.16.24.43.37.7.37Z"/>
      <path class="cls-4" d="m227.06,209.75c.31,0,.61-.17.76-.47.21-.42.04-.93-.38-1.14l-23.49-11.87c-.11-.06-.24-.09-.37-.09l-35.11-.61c-.44-.06-.86.36-.87.83,0,.47.37.86.84.87l34.92.61,23.32,11.78c.12.06.25.09.38.09Z"/>
      <path class="cls-4" d="m155.83,244.77c.35,0,.68-.22.8-.57.16-.44-.08-.93-.52-1.08l-26.99-9.51,1.77-20.21c.04-.47-.31-.88-.77-.92-.46-.02-.88.31-.92.77l-1.83,20.87c-.03.39.2.75.57.88l27.62,9.73c.09.03.19.05.28.05Z"/>
      <g class="cls-3">
        <path class="cls-4" d="m252.31,171.99c0,2.88-2.04,6.43-4.56,7.88-2.51,1.45-4.57.28-4.58-2.61,0-2.89,2.04-6.44,4.55-7.89,2.52-1.45,4.58-.28,4.59,2.62Zm-4.56,6.5c1.86-1.07,3.36-3.68,3.36-5.8,0-2.13-1.52-2.98-3.38-1.91-1.85,1.06-3.35,3.66-3.34,5.79,0,2.12,1.52,2.99,3.37,1.92h0Z"/>
      </g>
      <g class="cls-3">
        <path class="cls-4" d="m221.4,157.82c0,2.88-2.04,6.43-4.56,7.88-2.51,1.45-4.57.27-4.58-2.61,0-2.89,2.04-6.44,4.55-7.89,2.52-1.45,4.58-.28,4.59,2.62Zm-4.56,6.5c1.86-1.07,3.36-3.68,3.35-5.8,0-2.14-1.52-2.99-3.38-1.91-1.85,1.06-3.35,3.66-3.34,5.79,0,2.12,1.52,2.99,3.37,1.92h0Z"/>
      </g>
      <g class="cls-3">
        <path class="cls-4" d="m231.73,206.13c0,2.88-2.04,6.43-4.56,7.88-2.51,1.45-4.57.27-4.58-2.61,0-2.89,2.04-6.44,4.55-7.89,2.52-1.45,4.58-.28,4.59,2.62Zm-4.56,6.5c1.86-1.07,3.36-3.68,3.36-5.8,0-2.14-1.52-2.99-3.38-1.91-1.85,1.07-3.35,3.66-3.35,5.79,0,2.12,1.52,2.99,3.37,1.92h0Z"/>
      </g>
      <g class="cls-3">
        <path class="cls-4" d="m208.05,194.38c0,2.88-2.04,6.43-4.56,7.88-2.51,1.45-4.57.27-4.58-2.61,0-2.89,2.04-6.44,4.55-7.89,2.52-1.45,4.58-.28,4.59,2.61Zm-4.56,6.5c1.86-1.07,3.36-3.68,3.36-5.8,0-2.14-1.52-2.99-3.38-1.91-1.85,1.06-3.35,3.66-3.34,5.79,0,2.12,1.52,2.99,3.37,1.92h0Z"/>
      </g>
      <g class="cls-3">
        <path class="cls-4" d="m172.98,193.82c0,2.88-2.04,6.43-4.56,7.88-2.51,1.45-4.57.28-4.58-2.61,0-2.89,2.04-6.44,4.55-7.89,2.52-1.45,4.58-.28,4.59,2.61Zm-4.56,6.5c1.86-1.07,3.36-3.68,3.36-5.8,0-2.14-1.52-2.99-3.38-1.91-1.85,1.06-3.35,3.66-3.34,5.79,0,2.12,1.52,2.99,3.37,1.92h0Z"/>
      </g>
      <g class="cls-3">
        <path class="cls-4" d="m160.63,241.07c0,2.88-2.04,6.43-4.56,7.88-2.51,1.45-4.57.28-4.58-2.61,0-2.89,2.04-6.44,4.55-7.89,2.52-1.45,4.58-.28,4.59,2.61Zm-4.56,6.5c1.86-1.07,3.36-3.68,3.36-5.8,0-2.14-1.52-2.99-3.38-1.91-1.85,1.06-3.35,3.66-3.34,5.79,0,2.12,1.52,2.99,3.37,1.92h0Z"/>
      </g>
      <g class="cls-3">
        <path class="cls-4" d="m132.77,231.5c0,2.88-2.04,6.43-4.56,7.88-2.51,1.45-4.57.28-4.58-2.61,0-2.89,2.04-6.44,4.55-7.89,2.52-1.45,4.58-.28,4.59,2.61Zm-4.56,6.5c1.86-1.07,3.36-3.68,3.36-5.8,0-2.13-1.52-2.98-3.38-1.91-1.85,1.07-3.35,3.66-3.34,5.79,0,2.12,1.52,2.99,3.37,1.92h0Z"/>
      </g>
      <g class="cls-3">
        <path class="cls-4" d="m134.39,210.56c0,2.88-2.04,6.43-4.56,7.88-2.51,1.45-4.57.27-4.58-2.61,0-2.89,2.04-6.44,4.55-7.89,2.52-1.46,4.58-.28,4.59,2.61Zm-4.56,6.5c1.86-1.07,3.36-3.68,3.36-5.8,0-2.13-1.52-2.99-3.38-1.91-1.85,1.06-3.35,3.66-3.34,5.79,0,2.12,1.52,2.99,3.37,1.92h0Z"/>
      </g>
      <g class="cls-3">
        <path class="cls-4" d="m260.18,183.5c0,2.88-2.04,6.43-4.56,7.88-2.51,1.45-4.57.27-4.58-2.61,0-2.89,2.04-6.44,4.55-7.89,2.52-1.45,4.58-.28,4.59,2.61Zm-4.56,6.5c1.86-1.07,3.36-3.68,3.36-5.8,0-2.13-1.52-2.99-3.38-1.91-1.85,1.06-3.35,3.66-3.34,5.79,0,2.12,1.52,2.98,3.37,1.92h0Z"/>
      </g>
    </g>
    <path class="cls-4" d="m261.41,167.81h0c-.36,0-.66-.3-.65-.67l.42-36.67-15.41-9.98c-.31-.2-.39-.61-.2-.91.2-.31.61-.39.91-.2l15.71,10.18c.19.12.3.34.3.56l-.43,37.04c0,.36-.3.65-.66.65Z"/>
    <path class="cls-4" d="m130.61,262.97h-65.96c-.13,0-.26-.04-.37-.11L6.98,224.67c-.3-.2-.39-.61-.18-.92.2-.3.61-.39.92-.18l57.14,38.08h65.76c.36,0,.66.3.66.66s-.3.66-.66.66Z"/>
    <path class="cls-4" d="m193.93,172.88c-.36,0-.66-.3-.66-.66v-23.83l-96.67-47.86c-.33-.16-.46-.56-.3-.88.16-.33.56-.46.88-.3l97.04,48.05c.22.11.37.34.37.59v24.24c0,.36-.3.66-.66.66Z"/>
    <g>
      <g>
        <polygon class="cls-4" points="242.26 75.09 242.45 124.66 340.5 68.06 340.31 18.48 242.26 75.09"/>
        <g>
          <polygon class="cls-1" points="268.43 71.17 268.44 76.51 303.21 56.44 303.19 51.09 268.43 71.17"/>
          <polygon class="cls-6" points="315.34 66.06 315.35 71.4 330.16 62.85 330.15 57.5 315.34 66.06"/>
          <polygon class="cls-6" points="311.82 57.09 311.84 62.44 330.13 51.87 330.12 46.53 311.82 57.09"/>
          <polygon class="cls-1" points="306.22 49.35 306.23 54.69 330.1 40.91 330.09 35.57 306.22 49.35"/>
          <polygon class="cls-6" points="278.25 87.47 278.26 92.81 312.33 73.14 312.32 67.8 278.25 87.47"/>
          <polygon class="cls-6" points="252.66 102.24 252.68 107.58 274.94 94.73 274.93 89.39 252.66 102.24"/>
          <polygon class="cls-6" points="252.63 91.27 252.64 96.61 279.09 81.34 279.07 76 252.63 91.27"/>
          <polygon class="cls-6" points="252.6 80.31 252.61 85.64 265.12 78.43 265.1 73.08 252.6 80.31"/>
          <polygon class="cls-6" points="282.4 74.08 282.41 79.42 308.81 64.18 308.8 58.84 282.4 74.08"/>
        </g>
      </g>
      <path class="cls-10" d="m245.87,109.98c-4.06,2.34-7.33,8.01-7.32,12.68.01,4.66,3.31,6.54,7.36,4.2,4.06-2.34,7.34-8.02,7.32-12.68-.01-4.67-3.31-6.55-7.37-4.2Z"/>
    </g>
    <g>
      <g>
        <polygon class="cls-4" points="95.7 56.61 95.89 106.18 193.93 49.57 193.74 0 95.7 56.61"/>
        <g>
          <polygon class="cls-1" points="121.86 52.68 121.88 58.02 156.64 37.95 156.63 32.61 121.86 52.68"/>
          <polygon class="cls-6" points="168.77 47.57 168.79 52.91 183.6 44.36 183.58 39.02 168.77 47.57"/>
          <polygon class="cls-6" points="165.26 38.61 165.27 43.95 183.57 33.39 183.55 28.05 165.26 38.61"/>
          <polygon class="cls-1" points="159.65 30.86 159.66 36.21 183.54 22.43 183.52 17.08 159.65 30.86"/>
          <polygon class="cls-6" points="131.68 68.99 131.7 74.33 165.77 54.66 165.75 49.31 131.68 68.99"/>
          <polygon class="cls-6" points="106.1 83.76 106.11 89.1 128.38 76.24 128.36 70.9 106.1 83.76"/>
          <polygon class="cls-6" points="106.07 72.78 106.08 78.13 132.53 62.86 132.51 57.52 106.07 72.78"/>
          <polygon class="cls-6" points="106.03 61.82 106.05 67.16 118.55 59.94 118.54 54.6 106.03 61.82"/>
          <polygon class="cls-6" points="135.83 55.6 135.85 60.94 162.25 45.7 162.23 40.36 135.83 55.6"/>
        </g>
      </g>
      <path class="cls-7" d="m99.31,91.49c-4.06,2.34-7.33,8.01-7.32,12.68.01,4.66,3.31,6.54,7.36,4.2,4.06-2.34,7.34-8.02,7.32-12.68-.01-4.67-3.31-6.55-7.37-4.2Z"/>
    </g>
    <g>
      <g>
        <polygon class="cls-4" points="3.71 176.54 3.9 226.11 101.94 169.5 101.75 119.93 3.71 176.54"/>
        <g>
          <polygon class="cls-1" points="29.87 172.61 29.89 177.95 64.65 157.88 64.64 152.54 29.87 172.61"/>
          <polygon class="cls-6" points="76.78 167.5 76.8 172.84 91.61 164.29 91.59 158.95 76.78 167.5"/>
          <polygon class="cls-6" points="73.27 158.54 73.29 163.88 91.58 153.32 91.56 147.98 73.27 158.54"/>
          <polygon class="cls-1" points="67.66 150.79 67.68 156.14 91.55 142.36 91.53 137.01 67.66 150.79"/>
          <polygon class="cls-6" points="39.69 188.92 39.71 194.26 73.78 174.59 73.76 169.25 39.69 188.92"/>
          <polygon class="cls-6" points="14.11 203.69 14.12 209.03 36.39 196.17 36.37 190.83 14.11 203.69"/>
          <polygon class="cls-6" points="14.08 192.72 14.09 198.06 40.54 182.79 40.52 177.45 14.08 192.72"/>
          <polygon class="cls-6" points="14.05 181.75 14.06 187.09 26.56 179.87 26.55 174.53 14.05 181.75"/>
          <polygon class="cls-6" points="43.85 175.53 43.86 180.87 70.26 165.63 70.24 160.29 43.85 175.53"/>
        </g>
      </g>
      <path class="cls-5" d="m7.32,211.43C3.26,213.77-.01,219.44,0,224.11c.01,4.66,3.31,6.54,7.36,4.2,4.06-2.35,7.34-8.02,7.32-12.68-.01-4.67-3.31-6.54-7.37-4.2Z"/>
    </g>
  </g>
</svg>