<svg width="24" height="24" viewBox="0 0 24 24" fill="none" xmlns="http://www.w3.org/2000/svg">
<g id="call_made_FILL1_wght300_GRAD0_opsz24 1">
<path id="Vector" d="M4.87147 19.1248C4.72799 18.9813 4.65625 18.8064 4.65625 18.6C4.65625 18.3936 4.72869 18.2179 4.87357 18.0731L16.1967 6.74995H10.0005C9.78797 6.74995 9.60986 6.67805 9.46613 6.53425C9.32238 6.39043 9.2505 6.21223 9.2505 5.99965C9.2505 5.78705 9.32238 5.60896 9.46613 5.46538C9.60986 5.32179 9.78797 5.25 10.0005 5.25H17.8466C18.1027 5.25 18.3174 5.33662 18.4906 5.50985C18.6638 5.68308 18.7505 5.89774 18.7505 6.15383V14C18.7505 14.2125 18.6785 14.3906 18.5347 14.5343C18.3909 14.6781 18.2127 14.75 18.0001 14.75C17.7875 14.75 17.6095 14.6781 17.4659 14.5343C17.3223 14.3906 17.2505 14.2125 17.2505 14V7.80378L5.90238 19.1519C5.76661 19.2903 5.59998 19.3596 5.4025 19.3596C5.205 19.3596 5.02799 19.2813 4.87147 19.1248Z" fill="black"/>
</g>
</svg>
