<svg width="24" height="24" viewBox="0 0 24 24" fill="none" xmlns="http://www.w3.org/2000/svg">
<g id="dark_mode_FILL1_wght300_GRAD0_opsz24 1">
<path id="Vector" d="M12.0293 20.5C9.66005 20.5 7.65109 19.6757 6.00237 18.027C4.35366 16.3782 3.5293 14.3693 3.5293 12.0001C3.5293 10.027 4.13986 8.27318 5.361 6.73858C6.58213 5.20397 8.20871 4.21486 10.2407 3.77126C10.6446 3.66997 10.9584 3.76869 11.1821 4.06741C11.4058 4.36612 11.4247 4.69432 11.2388 5.05201C11.0324 5.42764 10.8792 5.81866 10.7792 6.22508C10.6792 6.63148 10.6292 7.05647 10.6292 7.50006C10.6292 9.14109 11.2023 10.5347 12.3485 11.6809C13.4946 12.827 14.8882 13.4001 16.5293 13.4001C17.0203 13.4001 17.4895 13.3379 17.9369 13.2136C18.3844 13.0892 18.776 12.945 19.1119 12.7809C19.4299 12.6373 19.7241 12.6601 19.9946 12.8492C20.2651 13.0383 20.3626 13.3258 20.2869 13.7117C19.9318 15.6783 18.975 17.3013 17.4167 18.5808C15.8584 19.8603 14.0626 20.5 12.0293 20.5Z" fill="#2861F5"/>
</g>
</svg>
