<svg width="24" height="24" viewBox="0 0 24 24" fill="none" xmlns="http://www.w3.org/2000/svg">
<g id="doc">
<g id="Group">
<path id="Vector" d="M15.8502 0H3.41216C3.06587 0 2.78516 0.280714 2.78516 0.825429V23.5714C2.78516 23.7193 3.06587 24 3.41216 24H20.5867C20.933 24 21.2137 23.7193 21.2137 23.5714V5.562C21.2137 5.26371 21.1739 5.16771 21.1036 5.097L16.1167 0.110143C16.046 0.0398571 15.95 0 15.8502 0Z" fill="white"/>
<path id="Vector_2" d="M16.0703 0.0646973V5.14284H21.1485L16.0703 0.0646973Z" fill="#D9D7CA"/>
<path id="Vector_3" d="M7.92773 5.57138H5.35631C5.11973 5.57138 4.92773 5.37938 4.92773 5.1428C4.92773 4.90623 5.11973 4.71423 5.35631 4.71423H7.92773C8.16431 4.71423 8.35631 4.90623 8.35631 5.1428C8.35631 5.37938 8.16431 5.57138 7.92773 5.57138Z" fill="#8697CB"/>
<path id="Vector_4" d="M9.21345 7.71432H5.35631C5.11973 7.71432 4.92773 7.52232 4.92773 7.28575C4.92773 7.04918 5.11973 6.85718 5.35631 6.85718H9.21345C9.45002 6.85718 9.64202 7.04918 9.64202 7.28575C9.64202 7.52232 9.45002 7.71432 9.21345 7.71432Z" fill="#8697CB"/>
<path id="Vector_5" d="M10.9286 7.71433C10.8171 7.71433 10.7057 7.66719 10.6243 7.59005C10.5471 7.50862 10.5 7.39719 10.5 7.28576C10.5 7.17433 10.5471 7.06291 10.6243 6.98148C10.7829 6.82291 11.0743 6.82291 11.2329 6.98148C11.31 7.06291 11.3571 7.17433 11.3571 7.28576C11.3571 7.39719 11.31 7.50862 11.2329 7.59005C11.1514 7.66719 11.04 7.71433 10.9286 7.71433Z" fill="#8697CB"/>
<path id="Vector_6" d="M16.07 7.71432H12.6415C12.4049 7.71432 12.2129 7.52232 12.2129 7.28575C12.2129 7.04918 12.4049 6.85718 12.6415 6.85718H16.07C16.3066 6.85718 16.4986 7.04918 16.4986 7.28575C16.4986 7.52232 16.3066 7.71432 16.07 7.71432Z" fill="#8697CB"/>
<path id="Vector_7" d="M5.35631 14.1428C5.24488 14.1428 5.13345 14.0957 5.05202 14.0185C4.97488 13.9371 4.92773 13.8257 4.92773 13.7142C4.92773 13.6028 4.97488 13.4914 5.05202 13.4099C5.21059 13.2514 5.50202 13.2514 5.66059 13.4099C5.73773 13.4914 5.78488 13.5985 5.78488 13.7142C5.78488 13.8257 5.73773 13.9371 5.66059 14.0185C5.57916 14.0957 5.46773 14.1428 5.35631 14.1428Z" fill="#8697CB"/>
<path id="Vector_8" d="M10.4997 14.1428H7.07115C6.83458 14.1428 6.64258 13.9508 6.64258 13.7142C6.64258 13.4776 6.83458 13.2856 7.07115 13.2856H10.4997C10.7363 13.2856 10.9283 13.4776 10.9283 13.7142C10.9283 13.9508 10.7363 14.1428 10.4997 14.1428Z" fill="#8697CB"/>
<path id="Vector_9" d="M18.6431 7.71432H17.786C17.5494 7.71432 17.3574 7.52232 17.3574 7.28575C17.3574 7.04918 17.5494 6.85718 17.786 6.85718H18.6431C18.8797 6.85718 19.0717 7.04918 19.0717 7.28575C19.0717 7.52232 18.8797 7.71432 18.6431 7.71432Z" fill="#8697CB"/>
<path id="Vector_10" d="M14.7849 9.85714H5.35631C5.11973 9.85714 4.92773 9.66514 4.92773 9.42857C4.92773 9.192 5.11973 9 5.35631 9H14.7849C15.0214 9 15.2134 9.192 15.2134 9.42857C15.2134 9.66514 15.0214 9.85714 14.7849 9.85714Z" fill="#8697CB"/>
<path id="Vector_11" d="M18.6426 9.85714H16.0711C15.8346 9.85714 15.6426 9.66514 15.6426 9.42857C15.6426 9.192 15.8346 9 16.0711 9H18.6426C18.8791 9 19.0711 9.192 19.0711 9.42857C19.0711 9.66514 18.8791 9.85714 18.6426 9.85714Z" fill="#8697CB"/>
<path id="Vector_12" d="M7.07059 12H5.35631C5.11973 12 4.92773 11.808 4.92773 11.5714C4.92773 11.3348 5.11973 11.1428 5.35631 11.1428H7.07059C7.30716 11.1428 7.49916 11.3348 7.49916 11.5714C7.49916 11.808 7.30716 12 7.07059 12Z" fill="#8697CB"/>
<path id="Vector_13" d="M13.0717 12H8.78599C8.54942 12 8.35742 11.808 8.35742 11.5714C8.35742 11.3348 8.54942 11.1428 8.78599 11.1428H13.0717C13.3083 11.1428 13.5003 11.3348 13.5003 11.5714C13.5003 11.808 13.3083 12 13.0717 12Z" fill="#8697CB"/>
<path id="Vector_14" d="M18.6431 12H14.786C14.5494 12 14.3574 11.808 14.3574 11.5714C14.3574 11.3348 14.5494 11.1428 14.786 11.1428H18.6431C18.8797 11.1428 19.0717 11.3348 19.0717 11.5714C19.0717 11.808 18.8797 12 18.6431 12Z" fill="#8697CB"/>
<path id="Vector_15" d="M20.5867 23.9999H3.41216C3.06587 23.9999 2.78516 23.7192 2.78516 23.3729V16.7142H21.2137V23.3729C21.2137 23.7192 20.933 23.9999 20.5867 23.9999Z" fill="#0096E6"/>
<g id="Group_2">
<path id="Vector_16" d="M10.07 20.4351C10.07 20.7904 10.0318 21.0943 9.95556 21.3463C9.87927 21.5983 9.78284 21.8091 9.66541 21.9793C9.54798 22.1494 9.41641 22.2831 9.26984 22.3809C9.12327 22.4786 8.98184 22.5514 8.84513 22.6007C8.70841 22.6496 8.58327 22.6809 8.47013 22.6946C8.35698 22.7074 8.27298 22.7143 8.21856 22.7143H6.58398V18.396H7.88427C8.2477 18.396 8.56698 18.4539 8.84213 18.5687C9.11727 18.6836 9.34613 18.8374 9.52784 19.0286C9.70956 19.2197 9.84498 19.4379 9.93498 19.6817C10.025 19.926 10.07 20.1771 10.07 20.4351ZM7.98413 22.1987C8.4607 22.1987 8.80441 22.0466 9.01527 21.7419C9.22613 21.4371 9.33156 20.9957 9.33156 20.4176C9.33156 20.238 9.31013 20.0601 9.26727 19.8844C9.22398 19.7087 9.14127 19.5497 9.01827 19.407C8.89527 19.2643 8.72813 19.149 8.51727 19.0611C8.30641 18.9733 8.03298 18.9291 7.69698 18.9291H7.28684V22.1987H7.98413Z" fill="white"/>
<path id="Vector_17" d="M14.3455 20.5345C14.3455 20.898 14.2996 21.2181 14.2079 21.4954C14.1162 21.7727 13.9889 22.0033 13.8269 22.1867C13.6649 22.3705 13.4755 22.509 13.2586 22.6028C13.0418 22.6967 12.8043 22.7434 12.5468 22.7434C12.2892 22.7434 12.0518 22.6967 11.8349 22.6028C11.618 22.509 11.4286 22.3705 11.2666 22.1867C11.1046 22.0028 10.9773 21.7727 10.8856 21.4954C10.7939 21.2181 10.748 20.8975 10.748 20.5345C10.748 20.1715 10.7939 19.8518 10.8856 19.5767C10.9773 19.3011 11.1042 19.0718 11.2666 18.8884C11.4286 18.7045 11.618 18.5653 11.8349 18.4693C12.0518 18.3733 12.2892 18.3257 12.5468 18.3257C12.8043 18.3257 13.0418 18.3733 13.2586 18.4693C13.4755 18.5653 13.6649 18.7045 13.8269 18.8884C13.9889 19.0723 14.1158 19.3015 14.2079 19.5767C14.2992 19.8518 14.3455 20.1711 14.3455 20.5345ZM12.5288 22.1695C12.6732 22.1695 12.8108 22.1413 12.9419 22.0847C13.0726 22.0281 13.19 21.9351 13.2933 21.8065C13.3966 21.6775 13.478 21.5087 13.5363 21.2995C13.5946 21.0904 13.6259 20.8358 13.6302 20.535C13.6263 20.2418 13.5959 19.9928 13.5393 19.788C13.4828 19.5827 13.4048 19.4138 13.3049 19.281C13.205 19.1481 13.0919 19.0525 12.965 18.9938C12.8382 18.9351 12.7045 18.906 12.5635 18.906C12.419 18.906 12.281 18.933 12.1503 18.9878C12.0192 19.0427 11.9022 19.1353 11.7989 19.266C11.6952 19.3971 11.6142 19.5655 11.5559 19.773C11.4976 19.9804 11.4659 20.2337 11.462 20.5345C11.4659 20.8277 11.4963 21.0775 11.5529 21.2845C11.6095 21.4915 11.6875 21.6604 11.7873 21.7915C11.8872 21.9227 12.0003 22.0178 12.1272 22.0787C12.2545 22.1391 12.3882 22.1695 12.5288 22.1695Z" fill="white"/>
<path id="Vector_18" d="M18.2593 22.275C18.0991 22.431 17.9173 22.5484 17.7146 22.6264C17.5115 22.7048 17.2929 22.7434 17.0585 22.7434C16.8005 22.7434 16.5635 22.6967 16.3466 22.6028C16.1298 22.509 15.9403 22.3705 15.7783 22.1867C15.6163 22.0028 15.4891 21.7727 15.3973 21.4954C15.3056 21.2181 15.2598 20.8975 15.2598 20.5345C15.2598 20.1715 15.3056 19.8518 15.3973 19.5767C15.4891 19.3011 15.6159 19.0718 15.7783 18.8884C15.9403 18.7045 16.1306 18.5653 16.3496 18.4693C16.5682 18.3733 16.8048 18.3257 17.0585 18.3257C17.2929 18.3257 17.5115 18.3647 17.7146 18.4427C17.9178 18.5211 18.0991 18.6381 18.2593 18.7941L17.7729 19.2278C17.6752 19.1143 17.5668 19.0324 17.4476 18.9818C17.3285 18.9313 17.2046 18.9055 17.0756 18.9055C16.9312 18.9055 16.7932 18.9325 16.6625 18.9874C16.5313 19.0423 16.4143 19.1348 16.3111 19.2655C16.2073 19.3967 16.1263 19.5651 16.0681 19.7725C16.0098 19.98 15.9781 20.2333 15.9742 20.5341C15.9781 20.8273 16.0085 21.0771 16.0651 21.2841C16.1216 21.4911 16.1996 21.66 16.2995 21.7911C16.3993 21.9223 16.5125 22.0174 16.6393 22.0783C16.7662 22.1391 16.8999 22.1691 17.0409 22.1691C17.1819 22.1691 17.3135 22.1434 17.4365 22.0928C17.5595 22.0423 17.6718 21.96 17.7733 21.8468L18.2593 22.275Z" fill="white"/>
</g>
</g>
</g>
</svg>
