<svg width="24" height="24" viewBox="0 0 24 24" fill="none" xmlns="http://www.w3.org/2000/svg">
<g id="invert_colors_FILL1_wght300_GRAD0_opsz24 1">
<path id="Vector" d="M12 20.5C9.91794 20.5 8.14743 19.783 6.68845 18.3491C5.22948 16.9151 4.5 15.1738 4.5 13.1251C4.5 12.0828 4.69712 11.1244 5.09135 10.2501C5.48558 9.37571 6.02052 8.5911 6.69615 7.89623L11.3673 3.32511C11.4609 3.23151 11.5596 3.16291 11.6634 3.11933C11.7673 3.07575 11.8795 3.05396 12 3.05396C12.1205 3.05396 12.2327 3.07575 12.3365 3.11933C12.4404 3.16291 12.5391 3.23151 12.6327 3.32511L17.3038 7.89623C17.9794 8.5911 18.5144 9.38052 18.9086 10.2645C19.3028 11.1485 19.5 12.102 19.5 13.1251C19.5 15.1738 18.7705 16.9151 17.3115 18.3491C15.8525 19.783 14.082 20.5 12 20.5ZM12 19.0001V4.80005L7.74997 9.00005C7.16664 9.55006 6.72914 10.1751 6.43747 10.8751C6.14581 11.5751 5.99997 12.3251 5.99997 13.1251C5.99997 14.7417 6.58331 16.1251 7.74997 17.2751C8.91664 18.4251 10.3333 19.0001 12 19.0001Z" fill="#2861F5"/>
</g>
</svg>
