<svg width="25" height="25" viewBox="0 0 25 25" fill="none" xmlns="http://www.w3.org/2000/svg">
<g id="Search">
<path id="Vector" fill-rule="evenodd" clip-rule="evenodd" d="M14.9518 15.9974C12.3015 18.1201 8.4221 17.953 5.96531 15.4962C3.32927 12.8602 3.32927 8.58634 5.96531 5.9503C8.60135 3.31426 12.8752 3.31426 15.5112 5.9503C17.968 8.40708 18.1351 12.2865 16.0124 14.9368L21.1681 20.0924C21.461 20.3853 21.461 20.8602 21.1681 21.1531C20.8752 21.446 20.4003 21.446 20.1074 21.1531L14.9518 15.9974ZM7.02597 14.4356C4.97572 12.3853 4.97572 9.06121 7.02597 7.01096C9.07623 4.96071 12.4003 4.96071 14.4506 7.01096C16.4993 9.05971 16.5008 12.3804 14.4551 14.4311C14.4536 14.4326 14.4521 14.434 14.4505 14.4356C14.449 14.4371 14.4475 14.4386 14.4461 14.4401C12.3954 16.4858 9.07472 16.4843 7.02597 14.4356Z" fill="#B3B9C5"/>
</g>
</svg>
