<svg width="24" height="24" viewBox="0 0 24 24" fill="none" xmlns="http://www.w3.org/2000/svg">
<g id="text_fields_FILL1_wght300_GRAD0_opsz24 1">
<path id="Vector" d="M8.49893 19.5577C8.20482 19.5577 7.9552 19.4549 7.75008 19.2492C7.54497 19.0436 7.44241 18.7938 7.44241 18.5V6.55768H3.50006C3.20626 6.55768 2.95653 6.45475 2.75088 6.24888C2.54522 6.043 2.44238 5.79301 2.44238 5.49891C2.44238 5.20479 2.54522 4.95517 2.75088 4.75006C2.95653 4.54494 3.20626 4.44238 3.50006 4.44238H13.5001C13.7939 4.44238 14.0436 4.54532 14.2492 4.75118C14.4549 4.95707 14.5577 5.20706 14.5577 5.50116C14.5577 5.79527 14.4549 6.04489 14.2492 6.25001C14.0436 6.45513 13.7939 6.55768 13.5001 6.55768H9.55771V18.5C9.55771 18.7938 9.45477 19.0436 9.24891 19.2492C9.04303 19.4549 8.79303 19.5577 8.49893 19.5577ZM17.4989 19.5577C17.2048 19.5577 16.9552 19.4549 16.7501 19.2492C16.545 19.0436 16.4424 18.7938 16.4424 18.5V11.5577H14.5001C14.2063 11.5577 13.9565 11.4548 13.7509 11.2489C13.5452 11.043 13.4424 10.793 13.4424 10.4989C13.4424 10.2048 13.5452 9.95517 13.7509 9.75006C13.9565 9.54494 14.2063 9.44238 14.5001 9.44238H20.5001C20.7939 9.44238 21.0436 9.54532 21.2492 9.75118C21.4549 9.95707 21.5577 10.2071 21.5577 10.5012C21.5577 10.7953 21.4549 11.0449 21.2492 11.25C21.0436 11.4551 20.7939 11.5577 20.5001 11.5577H18.5577V18.5C18.5577 18.7938 18.4548 19.0436 18.2489 19.2492C18.043 19.4549 17.793 19.5577 17.4989 19.5577Z" fill="#2861F5"/>
</g>
</svg>
