<svg width="24" height="24" viewBox="0 0 24 24" fill="none" xmlns="http://www.w3.org/2000/svg">
<g id="volume_up_FILL1_wght300_GRAD0_opsz24 1">
<path id="Vector" d="M18.8465 11.975C18.8465 10.5981 18.4783 9.34202 17.7417 8.20675C17.0052 7.0715 16.017 6.22375 14.7773 5.6635C14.585 5.57247 14.4433 5.43657 14.3523 5.2558C14.2613 5.07504 14.251 4.89171 14.3215 4.70583C14.4023 4.50326 14.5446 4.36288 14.7485 4.28468C14.9523 4.20648 15.1587 4.21289 15.3677 4.3039C16.8754 4.98852 18.0821 6.01864 18.9878 7.39428C19.8936 8.76991 20.3465 10.2968 20.3465 11.975C20.3465 13.6532 19.8936 15.1801 18.9878 16.5558C18.0821 17.9314 16.8754 18.9615 15.3677 19.6462C15.1587 19.7372 14.9523 19.7436 14.7485 19.6654C14.5446 19.5872 14.4023 19.4468 14.3215 19.2442C14.251 19.0583 14.2613 18.875 14.3523 18.6943C14.4433 18.5135 14.585 18.3776 14.7773 18.2866C16.017 17.7263 17.0052 16.8786 17.7417 15.7433C18.4783 14.608 18.8465 13.3519 18.8465 11.975ZM7.3658 14.5H4.55812C4.30044 14.5 4.08538 14.4138 3.91295 14.2413C3.74051 14.0689 3.6543 13.8538 3.6543 13.5962V10.4039C3.6543 10.1462 3.74051 9.93116 3.91295 9.75873C4.08538 9.58628 4.30044 9.50005 4.55812 9.50005H7.3658L10.3581 6.50778C10.5978 6.26804 10.8738 6.21323 11.1859 6.34335C11.4981 6.47348 11.6542 6.70906 11.6542 7.05008V16.95C11.6542 17.291 11.4981 17.5266 11.1859 17.6567C10.8738 17.7868 10.5978 17.732 10.3581 17.4923L7.3658 14.5ZM16.1542 12C16.1542 12.6231 16.0247 13.2135 15.7658 13.7712C15.5068 14.3289 15.1574 14.7981 14.7177 15.1789C14.5767 15.2724 14.4283 15.2814 14.2725 15.2058C14.1168 15.1301 14.0389 15.0051 14.0389 14.8308V9.11928C14.0389 8.94493 14.1168 8.81993 14.2725 8.74428C14.4283 8.66864 14.5767 8.67762 14.7177 8.7712C15.1574 9.16223 15.5068 9.64236 15.7658 10.2116C16.0247 10.7808 16.1542 11.377 16.1542 12Z" fill="#2861F5"/>
</g>
</svg>
