<svg width="24" height="24" viewBox="0 0 24 24" fill="none" xmlns="http://www.w3.org/2000/svg">
<g id="zip">
<g id="Group">
<path id="Vector" d="M15.8502 0H3.41216C3.06587 0 2.78516 0.280714 2.78516 0.825429V23.5714C2.78516 23.7193 3.06587 24 3.41216 24H20.5867C20.933 24 21.2137 23.7193 21.2137 23.5714V5.562C21.2137 5.26371 21.1739 5.16771 21.1036 5.097L16.1167 0.110143C16.046 0.0398571 15.95 0 15.8502 0Z" fill="white"/>
<path id="Vector_2" d="M16.0703 0.0646973V5.14284H21.1485L16.0703 0.0646973Z" fill="#D9D7CA"/>
<path id="Vector_3" d="M20.5867 23.9999H3.41216C3.06587 23.9999 2.78516 23.7192 2.78516 23.3729V16.7142H21.2137V23.3729C21.2137 23.7192 20.933 23.9999 20.5867 23.9999Z" fill="#556080"/>
<g id="Group_2">
<path id="Vector_4" d="M10.828 18.396V18.9643L8.77132 22.0521L8.65432 22.146H10.828V22.7143H7.95703V22.146L10.0137 19.0581L10.1367 18.9643H7.95703V18.396H10.828Z" fill="white"/>
<path id="Vector_5" d="M12.5449 22.7143H11.8301V18.396H12.5449V22.7143Z" fill="white"/>
<path id="Vector_6" d="M14.3205 22.7143H13.6172V18.396H14.8592C15.0426 18.396 15.2243 18.4251 15.4039 18.4839C15.5835 18.5426 15.7446 18.6304 15.8873 18.7474C16.03 18.8644 16.1453 19.0063 16.2332 19.1721C16.321 19.338 16.3652 19.5244 16.3652 19.7319C16.3652 19.9509 16.3279 20.1489 16.2538 20.3267C16.1796 20.5046 16.0759 20.6541 15.943 20.775C15.8102 20.8959 15.6499 20.9897 15.4626 21.0561C15.2753 21.1226 15.0679 21.1556 14.8416 21.1556H14.32V22.7143H14.3205ZM14.3205 18.9291V20.64H14.965C15.0508 20.64 15.1356 20.6254 15.22 20.5959C15.304 20.5667 15.3812 20.5187 15.4515 20.4523C15.5218 20.3859 15.5783 20.2933 15.6212 20.1741C15.664 20.055 15.6855 19.9076 15.6855 19.7319C15.6855 19.6616 15.6756 19.5801 15.6563 19.4889C15.6366 19.3971 15.5968 19.3093 15.5363 19.2253C15.4755 19.1413 15.3906 19.071 15.2813 19.0144C15.172 18.9579 15.0272 18.9296 14.8476 18.9296H14.3205V18.9291Z" fill="white"/>
</g>
<g id="Group_3">
<path id="Vector_7" d="M12.214 10.2857V9.42855H13.0711V8.57141H12.214V7.71427H13.0711V6.85713H12.214V5.99998H13.0711V5.14284H12.214V4.2857H13.0711V3.42855H12.214V2.57141H11.3569V3.42855H10.4997V4.2857H11.3569V5.14284H10.4997V5.99998H11.3569V6.85713H10.4997V7.71427H11.3569V8.57141H10.4997V9.42855H11.3569V10.2857H9.64258V12.4286C9.64258 13.6101 10.6039 14.5714 11.7854 14.5714C12.967 14.5714 13.9283 13.6101 13.9283 12.4286V10.2857H12.214ZM13.0711 12.4286C13.0711 13.1374 12.4943 13.7143 11.7854 13.7143C11.0766 13.7143 10.4997 13.1374 10.4997 12.4286V11.1428H13.0711V12.4286Z" fill="#C8BDB8"/>
<path id="Vector_8" d="M11.3563 12.8571H12.2134C12.45 12.8571 12.642 12.6656 12.642 12.4286C12.642 12.1916 12.45 12 12.2134 12H11.3563C11.1197 12 10.9277 12.1916 10.9277 12.4286C10.9277 12.6656 11.1197 12.8571 11.3563 12.8571Z" fill="#C8BDB8"/>
</g>
</g>
</g>
</svg>
